<svg width="21" height="25" viewBox="0 0 21 25" fill="none" xmlns="http://www.w3.org/2000/svg">
    <path
        d="M17.3466 13.1612C17.336 11.2529 18.2111 9.81256 19.9822 8.75183C18.9912 7.35311 17.4942 6.58356 15.5175 6.43277C13.6462 6.28718 11.601 7.5091 10.8525 7.5091C10.0618 7.5091 8.2485 6.48477 6.82527 6.48477C3.88394 6.53156 0.758118 8.79862 0.758118 13.4107C0.758118 14.7731 1.01114 16.1822 1.51717 17.6329C2.19188 19.5412 4.62718 24.2209 7.1679 24.1429C8.49624 24.1117 9.43452 23.2121 11.1635 23.2121C12.8397 23.2121 13.7095 24.1429 15.1907 24.1429C17.7525 24.1065 19.9558 19.8531 20.5989 17.9397C17.1621 16.3434 17.3466 13.2599 17.3466 13.1612ZM14.3631 4.62328C15.8021 2.93859 15.6703 1.40468 15.6282 0.853516C14.3578 0.926311 12.8872 1.70626 12.049 2.6682C11.1266 3.69774 10.5836 4.97166 10.6996 6.40677C12.0754 6.51077 13.3299 5.81401 14.3631 4.62328Z"
        fill="black" />
</svg>
    