<svg width="30" height="30" viewBox="0 0 30 30" fill="none" xmlns="http://www.w3.org/2000/svg">
<circle cx="15" cy="15" r="15" transform="rotate(-180 15 15)" fill="#F9A106"/>
<path d="M11.7086 23C11.6159 23.0005 11.524 22.9837 11.4382 22.9505C11.3523 22.9173 11.2742 22.8685 11.2084 22.8067C11.1424 22.7447 11.09 22.671 11.0542 22.5898C11.0184 22.5086 11 22.4214 11 22.3334C11 22.2454 11.0184 22.1583 11.0542 22.0771C11.09 21.9959 11.1424 21.9221 11.2084 21.8602L16.9646 16.4144C17.3604 16.0395 17.5827 15.5313 17.5827 15.0014C17.5827 14.4714 17.3604 13.9632 16.9646 13.5883L11.2084 8.14253C11.0757 8.01702 11.0012 7.84678 11.0012 7.66928C11.0012 7.49178 11.0757 7.32154 11.2084 7.19603C11.3411 7.07051 11.521 7 11.7086 7C11.8963 7 12.0762 7.07051 12.2089 7.19603L17.9651 12.6418C18.2931 12.9513 18.5534 13.3191 18.731 13.724C18.9086 14.1289 19 14.563 19 15.0014C19 15.4397 18.9086 15.8738 18.731 16.2787C18.5534 16.6836 18.2931 17.0514 17.9651 17.361L12.2089 22.8067C12.143 22.8685 12.065 22.9173 11.9791 22.9505C11.8933 22.9837 11.8014 23.0005 11.7086 23Z" fill="white"/>
</svg>
