<svg width="24" height="16" viewBox="0 0 24 16" fill="none" xmlns="http://www.w3.org/2000/svg">
    <path fill-rule="evenodd" clip-rule="evenodd"
        d="M1.62619 1.39212L1.75975 1.24186C2.24925 0.729983 2.9785 0.473877 3.94683 0.473877H20.542C21.4545 0.473877 22.1557 0.696592 22.6456 1.14169L22.6623 1.15838C22.7624 1.24754 22.8629 1.35305 22.9628 1.47559C22.9628 1.48695 22.9684 1.49797 22.9795 1.50899L22.9962 1.52568C23.3638 1.98213 23.5471 2.62757 23.5471 3.46233V12.9119C23.5361 14.9153 22.5344 15.917 20.542 15.917H3.94683C1.95442 15.906 0.958374 14.9043 0.958374 12.9119V3.46233C0.958374 2.56079 1.18109 1.87061 1.62619 1.39212ZM21.0929 2.11002C20.9259 2.06561 20.7423 2.04858 20.5423 2.05993H3.94683C3.82429 2.04891 3.70742 2.05425 3.59623 2.07663L12.1943 10.7916L21.0929 2.11002ZM2.54443 3.27869C2.53341 3.33445 2.53341 3.39555 2.54443 3.46233V12.9119C2.54443 13.8582 3.01189 14.331 3.94683 14.331H20.542C21.4879 14.331 21.9611 13.8582 21.9611 12.9119V3.47903L12.7452 12.4778C12.5783 12.6337 12.3893 12.7115 12.1779 12.7115C11.9552 12.7005 11.7659 12.6224 11.6103 12.4778L2.54443 3.27869Z"
        fill="#F9A106" />
    <path fill-rule="evenodd" clip-rule="evenodd"
        d="M1.62622 1.39196C1.64859 1.35857 1.67631 1.32518 1.7097 1.29178C1.72105 1.26941 1.73741 1.25272 1.75978 1.2417L1.62622 1.39196Z"
        fill="#F9A106" />
</svg>
    