<svg width="18" height="18" viewBox="0 0 18 18" fill="none" xmlns="http://www.w3.org/2000/svg">
<path d="M9.01372 0.019165C8.62958 0.019165 8.24545 0.217972 8.04664 0.618955L5.84629 5.08032L0.923289 5.79467C0.0404513 5.92272 -0.313358 7.0111 0.326868 7.63448L3.88854 11.1052L3.04614 16.008C2.89451 16.8874 3.82115 17.558 4.60964 17.1435L9.01372 14.832V0.019165Z" fill="#F9A106"/>
<path d="M8.95753 0.019165C9.34167 0.019165 9.72581 0.217972 9.92461 0.618955L12.125 5.08032L17.048 5.79467C17.9308 5.92272 18.2846 7.0111 17.6444 7.63448L14.0827 11.1052L14.9251 16.008C15.0767 16.8874 14.1501 17.558 13.3616 17.1435L8.95753 14.832V0.019165Z" fill="#F9A106"/>
</svg>
