<svg width="206" height="73" viewBox="0 0 206 73" fill="none" xmlns="http://www.w3.org/2000/svg">
    <path d="M74.5207 39.5796H66.2793V42.3975H69.2151C68.7422 43.2158 68.465 44.1374 68.4064 45.0869V54.2172C68.4171 55.0021 68.5807 55.7767 68.8876 56.4957C69.1745 57.1722 69.5865 57.7853 70.1007 58.301C70.6153 58.8188 71.2221 59.2302 71.8881 59.5129C72.5876 59.8107 73.3349 59.9725 74.092 59.9901C74.4523 59.9677 74.8105 59.9177 75.1636 59.8407C75.5042 59.7678 75.8403 59.6749 76.1706 59.5627V56.2425C75.9079 56.5298 75.5911 56.7592 75.2393 56.9169C74.8875 57.0746 74.5082 57.1572 74.1244 57.1597C73.3439 57.1544 72.5964 56.8365 72.0411 56.2736C71.4859 55.7107 71.1669 54.9475 71.1521 54.1467V45.3483C71.1467 44.9347 71.2353 44.5254 71.4109 44.1531C71.5698 43.8063 71.786 43.4904 72.0499 43.2193C72.2923 42.965 72.579 42.7595 72.895 42.6134C73.18 42.4762 73.4902 42.4026 73.8049 42.3975H90.2917V46.5477C89.4699 46.5289 88.6548 46.7023 87.9079 47.0546C87.1611 47.4069 86.5021 47.929 85.9809 48.5813C85.4556 47.9415 84.7998 47.4277 84.0598 47.0764C83.3199 46.725 82.5138 46.5445 81.6985 46.5477C80.9226 46.5396 80.1543 46.7038 79.4461 47.0291C78.7727 47.3347 78.161 47.7669 77.6425 48.3032C77.127 48.8337 76.7152 49.4606 76.4294 50.1501C75.9972 51.2048 75.8818 52.3679 76.0979 53.4903C76.3141 54.6127 76.8519 55.6434 77.6425 56.45L77.962 56.7447H81.8279L83.9024 54.6115L81.9856 52.6111L79.8788 54.7443L79.5917 54.4497C79.3136 54.1734 79.0938 53.8416 78.9456 53.4747C78.7975 53.1078 78.7242 52.7136 78.7303 52.3165L78.7627 52.0218C78.8511 51.2921 79.1893 50.6184 79.717 50.121C80.2469 49.6197 80.9456 49.3489 81.6662 49.3657C82.0469 49.3657 82.4233 49.4492 82.7701 49.6105C83.1138 49.7719 83.4272 49.9939 83.6962 50.2663C83.9642 50.5417 84.1808 50.8652 84.3351 51.2208C84.4946 51.5745 84.5761 51.9599 84.5737 52.3497H87.3235C87.3158 51.9563 87.3869 51.5655 87.5322 51.2014C87.6776 50.8374 87.8942 50.5078 88.1687 50.2331C88.4444 49.945 88.7756 49.7191 89.1411 49.5698C89.5066 49.4204 89.8985 49.3509 90.2917 49.3657V59.9901H93.0415V42.3975H95.1807V39.5796H74.5207Z" fill="black"/>
    <path d="M132.695 61.646H128.478V64.4017H132.695V61.646Z" fill="black"/>
    <path d="M120.843 39.5796H111.482V54.1384C111.485 54.5372 111.41 54.9327 111.259 55.3004C111.115 55.6524 110.909 55.9745 110.653 56.2508C110.388 56.5305 110.072 56.7534 109.723 56.9066C109.361 57.0714 108.97 57.1549 108.574 57.1514H105.699C105.055 57.1654 104.428 56.9449 103.928 56.5289C103.433 56.1258 103.07 55.5769 102.888 54.956L106.625 51.1212C107.733 49.9177 108.287 48.923 108.287 48.1373V46.9254C108.273 45.4173 107.694 43.9726 106.669 42.8914L103.434 39.5713L101.453 41.5053C101.981 42.0708 102.279 42.8219 102.286 43.6053C102.157 45.3068 101.178 46.3153 99.3461 46.6183C98.5938 46.6153 97.8709 46.3186 97.3241 45.7883L95.375 47.7554C96.4242 48.8395 97.8492 49.4528 99.338 49.4612C100.668 49.434 101.953 48.9619 102.998 48.1165C103.472 47.7344 103.882 47.2745 104.211 46.7552C104.527 46.2463 104.754 45.6845 104.882 45.0952C105.32 45.6258 105.559 46.3003 105.553 46.996C105.554 47.3956 105.474 47.7911 105.32 48.1579C105.165 48.5248 104.939 48.8553 104.656 49.1291L99.9971 53.906C99.9896 54.7361 100.136 55.5602 100.43 56.3338C100.703 57.0508 101.116 57.7032 101.643 58.2512C102.155 58.7801 102.762 59.2028 103.43 59.4963C104.136 59.8083 104.898 59.9652 105.667 59.9569H108.683C109.442 59.9201 110.187 59.7356 110.879 59.4133C111.537 59.1134 112.134 58.6913 112.642 58.1682C113.144 57.6467 113.541 57.0291 113.811 56.3504C114.087 55.6479 114.225 54.896 114.215 54.1384V42.3976H117.22V59.9403H119.966V42.3976H135.494V45.3483H122.958V54.1882C122.969 54.9597 123.137 55.7203 123.451 56.421C123.736 57.1087 124.148 57.7331 124.665 58.2595C125.19 58.7842 125.804 59.2062 126.476 59.5046C127.162 59.8128 127.903 59.9697 128.652 59.9652H132.623C133.371 59.9693 134.113 59.8124 134.798 59.5046C136.147 58.9089 137.223 57.8075 137.807 56.4251C138.107 55.7212 138.26 54.9606 138.256 54.1924V42.3976H140.395V39.5796H120.843ZM135.506 54.1799C135.507 54.5699 135.424 54.9552 135.264 55.3087C134.95 56.0203 134.394 56.5889 133.699 56.9066C133.354 57.0699 132.978 57.1535 132.599 57.1514H128.636C128.256 57.1539 127.88 57.0703 127.536 56.9066C127.19 56.7482 126.875 56.5275 126.606 56.255C126.341 55.9797 126.125 55.6596 125.967 55.3087C125.809 54.9543 125.728 54.5694 125.728 54.1799V48.1704H135.506V54.1799Z" fill="black"/>
    <path d="M150.003 56.3338C149.704 56.056 149.464 55.7174 149.299 55.3395C149.134 54.9615 149.048 54.5525 149.045 54.1384V45.3483C149.04 44.9352 149.127 44.5264 149.3 44.1531C149.46 43.8071 149.676 43.4914 149.938 43.2193C150.182 42.9659 150.468 42.7605 150.784 42.6134C151.069 42.477 151.379 42.4035 151.694 42.3975H153.675V39.5796H144.156V42.3975H147.096C146.621 43.215 146.344 44.1371 146.287 45.0869V54.2172C146.298 55.0021 146.461 55.7767 146.768 56.4957C147.35 57.8618 148.426 58.9433 149.769 59.5129C150.47 59.8107 151.218 59.9725 151.977 59.9901C152.336 59.9675 152.692 59.9175 153.044 59.8407C153.385 59.7678 153.721 59.6749 154.051 59.5627V56.2425C153.789 56.5312 153.473 56.7615 153.121 56.9193C152.769 57.0771 152.389 57.1589 152.005 57.1597C151.26 57.1539 150.545 56.8588 150.003 56.3338Z" fill="black"/>
    <path d="M199.807 39.5796H164.626V42.3975L163.57 41.2853C162.484 40.2073 161.037 39.597 159.527 39.5796C158.842 39.5807 158.165 39.7145 157.529 39.9738C156.881 40.2351 156.285 40.6179 155.774 41.1027C155.241 41.6076 154.802 42.2081 154.48 42.8748C154.128 43.5958 153.92 44.3818 153.869 45.1865V48.0044C154.349 47.9941 154.823 48.1091 155.247 48.3385C155.672 48.5679 156.032 48.9042 156.295 49.3159C156.405 49.4279 156.457 49.5026 156.457 49.5483L156.619 50.0048C156.631 50.0393 156.653 50.0687 156.684 50.0878C156.733 50.1847 156.765 50.2903 156.777 50.3991L156.809 50.9552C156.842 51.3436 156.758 51.7329 156.57 52.0716C156.388 52.3787 156.166 52.7149 155.948 53.0884L157.893 55.0888L164.606 48.1704V59.9735H167.351V42.3975H170.356V59.9403H173.102V42.3975H188.626V45.3483H176.09V54.1384C176.085 54.9215 176.238 55.6971 176.539 56.4168C176.824 57.1081 177.236 57.7366 177.752 58.2678C178.274 58.7968 178.889 59.2193 179.564 59.5129C180.256 59.8199 181.002 59.9768 181.756 59.9735H185.727C186.48 59.9763 187.226 59.8195 187.918 59.5129C188.592 59.2192 189.206 58.7967 189.726 58.2678C190.242 57.7364 190.654 57.108 190.939 56.4168C191.24 55.6971 191.393 54.9215 191.388 54.1384V48.1704H192.654C193.026 48.1636 193.395 48.2356 193.739 48.382C194.083 48.5284 194.393 48.746 194.651 49.0212C195.201 49.5904 195.519 50.3532 195.541 51.1544H192.634V53.9724H198.295V51.1544C198.256 49.62 197.657 48.1566 196.617 47.054C196.114 46.5281 195.519 46.1055 194.862 45.809C194.183 45.501 193.448 45.344 192.706 45.3483H191.388V42.3975H200.62V59.9403H203.366V42.3975H205.541V39.5796H199.807ZM159.369 49.5774L159.34 49.4819C159.286 49.1882 159.201 48.9015 159.086 48.627C158.98 48.3864 158.854 48.1559 158.71 47.938L158.362 47.4151C157.914 46.7842 157.33 46.2685 156.655 45.9086V45.3815C156.653 44.9976 156.733 44.6177 156.89 44.2693C157.048 43.9183 157.263 43.597 157.525 43.3189C157.783 43.0352 158.094 42.8068 158.439 42.6466C158.791 42.4797 159.175 42.3946 159.563 42.3975C159.928 42.404 160.29 42.4771 160.63 42.6134C160.998 42.7486 161.331 42.9671 161.605 43.2525L163.587 45.2861L159.369 49.5774ZM188.662 54.1425C188.669 54.554 188.587 54.962 188.424 55.3378C188.27 55.6911 188.054 56.0131 187.789 56.2882C187.524 56.5608 187.209 56.7779 186.863 56.9273C186.506 57.0818 186.122 57.1595 185.735 57.1556H181.82C181.439 57.1594 181.06 57.0846 180.707 56.9357C180.355 56.7867 180.034 56.5665 179.766 56.2882C179.498 56.0143 179.281 55.6921 179.127 55.3378C178.966 54.9612 178.885 54.5538 178.888 54.1425V48.1704H188.662V54.1425Z" fill="black"/>
    <path d="M55.5388 22.8378C56.5482 22.8966 57.5479 23.072 58.5191 23.3607C58.9069 23.477 59.2661 23.6772 59.5723 23.9478C59.8785 24.2184 60.1247 24.5531 60.2943 24.9295C61.2325 27.0046 61.9321 30.7148 59.9587 36.4545C57.4919 43.6302 51.5839 52.0342 42.3882 61.4468L41.4985 62.4346L11.4365 68.8715L21.5462 39.2476L22.4196 38.3926C26.9892 34.7322 43.6943 22.0949 55.5549 22.8461" fill="white"/>
    <path d="M25.897 35.9233L21.7925 47.3487L31.9345 44.4809L27.8461 54.0678L41.4658 51.8101C41.4658 51.8101 59.2588 34.4292 60.9936 25.9878C61.123 25.3528 61.0785 24.3277 60.6215 23.8795C59.3518 22.6344 55.5829 21.1984 45.8736 24.1409C45.8736 24.1409 31.1823 30.3745 25.897 35.9233Z" fill="#F9A106"/>
    <path d="M41.5712 51.6731L39.0762 59.9444L46.3955 58.2636C46.3955 58.2636 65.7737 39.4509 60.8927 24.3235C60.8927 24.3235 63.4929 29.8142 41.5712 51.6731Z" fill="#FFC973"/>
    <path d="M62.5468 23.8792C62.2805 23.2881 61.8941 22.7624 61.4136 22.3372C60.933 21.912 60.3694 21.5972 59.7605 21.414C58.6467 21.0774 57.4988 20.8741 56.3394 20.8081C41.3206 19.8577 19.783 38.2388 19.783 38.2388L8.32275 72.0586L42.5944 64.5592C66.3722 40.6501 64.593 28.4444 62.5468 23.8792ZM41.7897 62.4758L30.6489 64.858C22.9049 55.1757 19.3706 51.0545 18.2504 49.7804L21.8211 39.3013L22.6946 38.4422C27.2642 34.7817 43.9693 22.1444 55.8299 22.8956C56.8397 22.9537 57.8397 23.1306 58.8102 23.4227C59.1977 23.5385 59.5566 23.7381 59.8628 24.0079C60.169 24.2778 60.4154 24.6117 60.5855 24.9873C61.5237 27.0624 62.203 30.7768 60.2498 36.5165C57.7831 43.688 51.875 52.0921 42.6793 61.5088L41.7897 62.4758Z" fill="#010101"/>
    <path d="M52.7684 51.8558C50.4886 51.1142 48.2741 50.1756 46.1486 49.0503C38.623 45.0578 32.8039 38.9487 29.7266 31.8561L34.1465 29.8599C36.7669 35.9233 41.8298 41.1815 48.3687 44.6594C50.2208 45.643 52.728 46.4398 54.7661 47.1038L52.7684 51.8558Z" fill="#010101"/>
    <path d="M59.1782 41.1483C55.379 40.0319 51.846 38.1209 48.8013 35.5354C45.7566 32.9499 43.2661 29.7458 41.4863 26.1247L44.8144 24.3816C47.9646 30.7148 53.7109 35.5871 60.1811 37.4588L59.1782 41.1483Z" fill="#010101"/>
    <path d="M8.52091 35.2967C5.43949 35.1017 2.62902 33.1718 1.67871 30.5904C0.105655 26.3158 0.683927 20.4391 7.0449 16.7579C8.32403 16.0295 9.75947 15.6387 11.2222 15.6208C21.4227 15.5513 31.5201 17.7176 40.8394 21.9747L40.9162 22.012L44.123 23.8464L40.4835 25.5397C39.5332 25.9962 18.8287 35.8653 8.56944 35.2843L8.52091 35.2967ZM15.8565 17.8245C13.9397 17.7041 12.3707 17.6875 11.2546 17.7083C10.1319 17.7189 9.02965 18.017 8.04778 18.5757C1.46034 22.3855 2.9687 28.1584 3.59954 29.8393C4.27891 31.6736 6.35341 33.0515 8.6584 33.1967H8.69884C18.1614 33.7321 38.134 24.3569 39.5615 23.6804C32.0553 20.3176 24.0315 18.3355 15.8565 17.8245Z" fill="black"/>
    <path d="M41.5838 24.0164L38.8946 22.9166C24.5551 17.0607 9.37453 17.9862 9.22895 17.9945L8.09668 18.0733L8.14116 16.9071C8.54555 6.75582 18.8291 5.04595 18.9342 5.02935H19.0515C30.7786 4.61434 39.7843 20.7502 40.1604 21.4391L41.5838 24.0164ZM16.8476 15.9858C23.6256 16.3923 30.3225 17.708 36.7676 19.8994C33.7832 15.467 26.9896 6.90522 19.1849 7.13348C18.4247 7.26629 11.2671 8.71055 10.2884 15.8737C11.5906 15.8156 13.8956 15.799 16.8476 15.9858Z" fill="black"/>
    <path d="M17.8582 18.5175C16.0829 18.4054 14.6231 18.393 13.596 18.4096C12.571 18.4196 11.5646 18.6921 10.6682 19.2022C4.63478 22.6925 6.01373 27.9798 6.57987 29.5196C7.26733 31.3871 9.41057 32.4579 11.2182 32.5699C19.6577 33.0472 37.1635 24.9917 39.5898 23.8546C32.7024 20.7955 25.3488 18.9896 17.8582 18.5175Z" fill="#F9A106"/>
    <path d="M19.8644 15.5375C25.3454 16.1458 30.7275 17.4751 35.8781 19.4926C33.5326 15.6661 28.3929 8.66064 22.129 8.51123C21.4819 8.59423 15.6871 9.47407 14.5508 15.1515C15.6588 15.1764 17.5028 15.2677 19.8644 15.5375Z" fill="#FFC973"/>
    <path d="M69.0092 15.3798C68.0377 15.2368 67.0475 15.4342 66.1988 15.9401C66.3772 15.9152 66.5581 15.9152 66.7366 15.9401C67.0933 15.9928 67.4267 16.1529 67.6949 16.4C67.963 16.6471 68.1538 16.9701 68.2432 17.3284C68.3326 17.6867 68.3166 18.0641 68.1971 18.4131C68.0777 18.762 67.8602 19.0668 67.5721 19.289C67.284 19.5112 66.9382 19.6408 66.5784 19.6615C66.2186 19.6822 65.8609 19.593 65.5504 19.4052C65.24 19.2174 64.9907 18.9394 64.834 18.6064C64.6773 18.2733 64.6203 17.9 64.6702 17.5338L64.6945 17.4093C64.1782 18.2306 63.9352 19.2015 64.0021 20.1765C64.0689 21.1515 64.4419 22.0779 65.0651 22.817C65.6884 23.556 66.5282 24.0678 67.4588 24.2756C68.3894 24.4833 69.3605 24.3759 70.2266 23.9694C71.0926 23.5629 71.807 22.8792 72.2624 22.0208C72.7179 21.1625 72.89 20.1757 72.7528 19.2085C72.6157 18.2413 72.1767 17.3458 71.5018 16.6562C70.8268 15.9667 69.9523 15.5203 69.0092 15.384V15.3798Z" fill="black"/>
    <path d="M54.5762 4.67244C52.9452 4.64662 51.3619 5.2375 50.128 6.33251C50.3209 6.29184 50.5174 6.27237 50.7144 6.27442C51.2219 6.28138 51.7173 6.43451 52.1442 6.71639C52.571 6.99826 52.9122 7.39753 53.1287 7.86869C53.3452 8.33985 53.4284 8.86396 53.3688 9.38128C53.3092 9.89861 53.1092 10.3884 52.7916 10.7947C52.474 11.2011 52.0515 11.5077 51.5724 11.6796C51.0932 11.8515 50.5766 11.8819 50.0815 11.7671C49.5864 11.6524 49.1326 11.3973 48.7719 11.0308C48.4112 10.6643 48.1581 10.2011 48.0414 9.69415C47.6658 11.0746 47.7206 12.5411 48.1983 13.888C48.6759 15.2348 49.5523 16.3945 50.7047 17.2042C51.857 18.014 53.2274 18.4332 54.6236 18.4032C56.0199 18.3732 57.372 17.8953 58.4902 17.0367C59.6084 16.1781 60.4368 14.9818 60.859 13.6156C61.2812 12.2494 61.2761 10.7818 60.8445 9.41871C60.4128 8.0556 59.5763 6.86535 58.4521 6.0149C57.328 5.16446 55.9727 4.69648 54.5762 4.6766V4.67244Z" fill="black"/>
    <path d="M64.0471 10.794C63.795 10.8144 63.5448 10.735 63.3478 10.5722C63.1508 10.4094 63.0219 10.1755 62.9876 9.91828C62.466 6.14163 60.6543 3.73452 57.7306 2.95014C57.6042 2.91608 57.4856 2.8568 57.3815 2.77569C57.2775 2.69458 57.19 2.59323 57.1241 2.47742C57.0582 2.36161 57.0152 2.23363 56.9975 2.10075C56.9798 1.96788 56.9877 1.83272 57.0209 1.70301C57.0541 1.5733 57.1119 1.45156 57.1909 1.34476C57.2699 1.23796 57.3687 1.14818 57.4815 1.08055C57.5944 1.01291 57.7191 0.968745 57.8485 0.950577C57.978 0.932408 58.1097 0.94059 58.2361 0.974653C61.9362 1.96654 64.3019 5.04183 64.9489 9.63192C64.9858 9.89993 64.9175 10.172 64.759 10.3884C64.6006 10.6047 64.3648 10.7476 64.1037 10.7857L64.0471 10.794Z" fill="black"/>
    <path d="M73.9829 16.2929C73.7811 16.2736 73.5899 16.1912 73.4352 16.0569C73.2804 15.9226 73.1696 15.7428 73.1175 15.5417C72.9016 14.975 72.5157 14.4934 72.0156 14.1667C71.5155 13.8399 70.927 13.6848 70.3353 13.724C70.201 13.7346 70.0659 13.7168 69.9385 13.6718C69.8111 13.6268 69.694 13.5555 69.5945 13.4622C69.4949 13.369 69.4151 13.2558 69.3598 13.1297C69.3045 13.0036 69.275 12.8671 69.2731 12.7289C69.2711 12.5906 69.2968 12.4533 69.3485 12.3256C69.4002 12.1979 69.4769 12.0824 69.5738 11.9863C69.6707 11.8902 69.7857 11.8154 69.9118 11.7667C70.0379 11.7179 70.1724 11.6962 70.307 11.7028C72.8021 11.6655 74.6016 13.3878 75.0221 15.023C75.0613 15.1798 75.0634 15.344 75.0282 15.5018C74.9931 15.6597 74.9217 15.8066 74.82 15.9304C74.7184 16.0543 74.5894 16.1514 74.4438 16.2137C74.2981 16.276 74.1401 16.3018 73.9829 16.2888V16.2929Z" fill="black"/>
    </svg>
    