<svg width="203" height="71" viewBox="0 0 203 71" fill="none" xmlns="http://www.w3.org/2000/svg">
    <path d="M73.193 38.8008H65.0811V41.5745H67.9708C67.5053 42.3799 67.2325 43.287 67.1747 44.2216V53.2085C67.1853 53.981 67.3463 54.7435 67.6484 55.4512C67.9308 56.1171 68.3363 56.7206 68.8425 57.2282C69.349 57.7378 69.9463 58.1428 70.6018 58.421C71.2903 58.7141 72.0259 58.8734 72.7711 58.8907C73.1257 58.8686 73.4783 58.8195 73.8259 58.7437C74.161 58.6719 74.4919 58.5805 74.817 58.47V55.202C74.5584 55.4848 74.2466 55.7106 73.9003 55.8658C73.5541 56.021 73.1807 56.1023 72.8029 56.1048C72.0347 56.0996 71.2989 55.7866 70.7524 55.2326C70.2059 54.6786 69.8919 53.9273 69.8774 53.1391V44.4789C69.872 44.0718 69.9592 43.6689 70.1321 43.3024C70.2885 42.9611 70.5013 42.6501 70.761 42.3833C70.9996 42.133 71.2818 41.9307 71.5929 41.7869C71.8734 41.6519 72.1787 41.5794 72.4885 41.5745H88.7163V45.6595C87.9074 45.641 87.1051 45.8116 86.37 46.1584C85.6349 46.5052 84.9863 47.019 84.4733 47.6611C83.9561 47.0313 83.3106 46.5257 82.5823 46.1798C81.854 45.8339 81.0606 45.6563 80.2581 45.6595C79.4944 45.6514 78.7381 45.8131 78.041 46.1333C77.3783 46.4341 76.7762 46.8595 76.2658 47.3874C75.7583 47.9096 75.353 48.5266 75.0717 49.2052C74.6463 50.2434 74.5327 51.3882 74.7455 52.493C74.9582 53.5978 75.4876 54.6122 76.2658 55.4063L76.5803 55.6963H80.3855L82.4274 53.5966L80.5407 51.6276L78.4669 53.7273L78.1843 53.4373C77.9107 53.1654 77.6942 52.8387 77.5484 52.4776C77.4026 52.1165 77.3305 51.7285 77.3365 51.3376L77.3684 51.0476C77.4554 50.3293 77.7883 49.6662 78.3077 49.1766C78.8293 48.6832 79.517 48.4166 80.2262 48.4332C80.601 48.4332 80.9715 48.5153 81.3129 48.6742C81.6511 48.833 81.9596 49.0515 82.2244 49.3196C82.4882 49.5907 82.7014 49.9092 82.8533 50.2592C83.0103 50.6073 83.0904 50.9867 83.0881 51.3703H85.7947C85.7872 50.9831 85.8571 50.5984 86.0002 50.2401C86.1433 49.8817 86.3565 49.5573 86.6266 49.2869C86.898 49.0034 87.224 48.781 87.5838 48.634C87.9436 48.487 88.3293 48.4186 88.7163 48.4332V58.8907H91.4229V41.5745H93.5285V38.8008H73.193Z" fill="white"/>
    <path d="M130.454 60.5208H126.303V63.2332H130.454V60.5208Z" fill="white"/>
    <path d="M118.788 38.8008H109.573V53.1309C109.577 53.5235 109.502 53.9127 109.354 54.2747C109.212 54.6212 109.01 54.9382 108.757 55.2102C108.497 55.4854 108.186 55.7048 107.842 55.8556C107.486 56.0178 107.101 56.1 106.711 56.0966H103.881C103.248 56.1104 102.63 55.8933 102.138 55.4839C101.651 55.0871 101.294 54.5468 101.115 53.9357L104.793 50.1611C105.884 48.9765 106.429 47.9974 106.429 47.224V46.0312C106.415 44.5468 105.845 43.1248 104.837 42.0606L101.652 38.7926L99.702 40.6962C100.222 41.2529 100.515 41.9922 100.522 42.7632C100.395 44.4381 99.4314 45.4307 97.6283 45.7289C96.8879 45.726 96.1763 45.4339 95.6381 44.9119L93.7196 46.8482C94.7523 47.9152 96.1549 48.5189 97.6203 48.5271C98.9295 48.5004 100.194 48.0357 101.223 47.2036C101.69 46.8275 102.093 46.3748 102.417 45.8637C102.728 45.3628 102.952 44.8098 103.077 44.2297C103.509 44.7521 103.743 45.4159 103.738 46.1007C103.738 46.494 103.66 46.8833 103.508 47.2444C103.356 47.6055 103.134 47.9308 102.854 48.2003L98.2691 52.9022C98.2617 53.7193 98.4063 54.5303 98.695 55.2919C98.9641 55.9976 99.3704 56.6397 99.8891 57.1791C100.393 57.6997 100.991 58.1158 101.648 58.4046C102.343 58.7117 103.093 58.8662 103.85 58.8581H106.819C107.566 58.8218 108.299 58.6402 108.98 58.3229C109.627 58.0278 110.216 57.6123 110.716 57.0974C111.21 56.5841 111.6 55.9762 111.866 55.3082C112.138 54.6167 112.273 53.8766 112.264 53.1309V41.5745H115.221V58.8417H117.924V41.5745H133.209V44.4789H120.869V53.1799C120.88 53.9393 121.045 54.688 121.355 55.3777C121.635 56.0546 122.041 56.6692 122.549 57.1873C123.066 57.7038 123.67 58.1191 124.332 58.4128C125.007 58.7162 125.737 58.8706 126.474 58.8662H130.382C131.119 58.8703 131.849 58.7158 132.524 58.4128C133.851 57.8265 134.91 56.7424 135.485 55.3817C135.781 54.6889 135.931 53.9402 135.927 53.184V41.5745H138.033V38.8008H118.788ZM133.22 53.1718C133.221 53.5556 133.14 53.9349 132.982 54.2829C132.673 54.9832 132.125 55.543 131.441 55.8556C131.102 56.0163 130.732 56.0986 130.359 56.0966H126.458C126.084 56.099 125.714 56.0167 125.375 55.8556C125.035 55.6998 124.725 55.4825 124.46 55.2143C124.199 54.9433 123.987 54.6282 123.831 54.2829C123.676 53.934 123.596 53.5551 123.596 53.1718V47.2567H133.22V53.1718Z" fill="white"/>
    <path d="M147.49 55.2919C147.195 55.0184 146.959 54.6851 146.797 54.3131C146.635 53.9411 146.549 53.5385 146.547 53.1309V44.4789C146.542 44.0723 146.628 43.6699 146.797 43.3024C146.955 42.9619 147.168 42.6511 147.426 42.3833C147.666 42.1339 147.948 41.9318 148.258 41.7869C148.539 41.6527 148.844 41.5803 149.154 41.5745H151.104V38.8008H141.734V41.5745H144.628C144.161 42.3791 143.888 43.2867 143.832 44.2216V53.2085C143.843 53.981 144.004 54.7435 144.306 55.4512C144.879 56.7959 145.937 57.8603 147.259 58.421C147.949 58.7141 148.686 58.8734 149.432 58.8907C149.786 58.8684 150.137 58.8193 150.483 58.7437C150.818 58.6719 151.149 58.5805 151.474 58.47V55.202C151.217 55.4861 150.905 55.7128 150.559 55.8681C150.212 56.0234 149.838 56.104 149.46 56.1048C148.727 56.099 148.023 55.8086 147.49 55.2919Z" fill="#F9A106"/>
    <path d="M196.512 38.8008H161.883V41.5745L160.844 40.4797C159.775 39.4186 158.351 38.8179 156.864 38.8008C156.19 38.8019 155.523 38.9335 154.897 39.1888C154.259 39.4459 153.674 39.8227 153.17 40.3C152.645 40.7969 152.214 41.388 151.896 42.0442C151.55 42.7539 151.345 43.5275 151.295 44.3196V47.0933C151.767 47.0832 152.234 47.1963 152.652 47.4221C153.069 47.6479 153.424 47.979 153.683 48.3842C153.791 48.4945 153.843 48.568 153.843 48.6129L154.002 49.0623C154.013 49.0962 154.036 49.1251 154.065 49.144C154.114 49.2393 154.145 49.3432 154.157 49.4503L154.189 49.9977C154.221 50.38 154.139 50.7632 153.954 51.0966C153.775 51.3989 153.556 51.7298 153.341 52.0974L155.256 54.0664L161.863 47.2567V58.8744H164.566V41.5745H167.523V58.8417H170.226V41.5745H185.506V44.4789H173.167V53.1309C173.162 53.9017 173.313 54.6652 173.609 55.3736C173.889 56.054 174.295 56.6726 174.803 57.1955C175.316 57.7162 175.922 58.132 176.586 58.421C177.267 58.7232 178.002 58.8776 178.744 58.8744H182.652C183.394 58.8771 184.129 58.7228 184.81 58.421C185.473 58.1319 186.077 57.716 186.589 57.1955C187.097 56.6724 187.502 56.0539 187.783 55.3736C188.079 54.6652 188.229 53.9017 188.225 53.1309V47.2567H189.471C189.837 47.25 190.2 47.3209 190.539 47.465C190.877 47.6091 191.183 47.8232 191.437 48.0941C191.978 48.6544 192.291 49.4051 192.313 50.1938H189.451V52.9675H195.023V50.1938C194.985 48.6835 194.395 47.243 193.371 46.1578C192.877 45.6401 192.29 45.2242 191.644 44.9323C190.976 44.6292 190.253 44.4747 189.522 44.4789H188.225V41.5745H197.312V58.8417H200.014V41.5745H202.156V38.8008H196.512ZM156.708 48.6415L156.681 48.5476C156.627 48.2585 156.543 47.9763 156.43 47.706C156.326 47.4693 156.202 47.2424 156.06 47.0279L155.717 46.5132C155.277 45.8922 154.702 45.3846 154.038 45.0304V44.5116C154.035 44.1336 154.114 43.7598 154.268 43.4168C154.424 43.0713 154.636 42.7551 154.893 42.4813C155.148 42.2021 155.454 41.9773 155.793 41.8196C156.14 41.6553 156.518 41.5716 156.899 41.5745C157.259 41.5808 157.615 41.6528 157.95 41.7869C158.312 41.92 158.64 42.135 158.91 42.416L160.86 44.4176L156.708 48.6415ZM185.542 53.135C185.548 53.54 185.468 53.9415 185.307 54.3115C185.155 54.6593 184.944 54.9761 184.682 55.2469C184.421 55.5153 184.111 55.729 183.771 55.876C183.419 56.0281 183.041 56.1046 182.66 56.1007H178.807C178.432 56.1045 178.059 56.0309 177.712 55.8842C177.365 55.7376 177.049 55.5209 176.785 55.2469C176.521 54.9774 176.308 54.6603 176.156 54.3115C175.998 53.9408 175.918 53.5398 175.922 53.135V47.2567H185.542V53.135Z" fill="#F9A106"/>
    <path d="M54.5093 22.322C55.5028 22.3799 56.4869 22.5526 57.4428 22.8367C57.8245 22.9512 58.178 23.1482 58.4794 23.4146C58.7808 23.6809 59.0232 24.0104 59.1901 24.3809C60.1136 26.4234 60.8022 30.0753 58.8598 35.7249C56.4318 42.7878 50.6165 51.0599 41.5652 60.3247L40.6895 61.2969L11.0997 67.6327L21.0506 38.4741L21.9103 37.6326C26.4081 34.0296 42.8509 21.5908 54.5252 22.3302" fill="white"/>
    <path d="M25.3334 35.202L21.2934 46.448L31.2761 43.6252L27.252 53.0615L40.6577 50.8393C40.6577 50.8393 58.1712 33.7314 59.8788 25.4225C60.0061 24.7975 59.9624 23.7885 59.5126 23.3473C58.2628 22.1219 54.5531 20.7084 44.9963 23.6047C44.9963 23.6047 30.5357 29.7403 25.3334 35.202Z" fill="#F9A106"/>
    <path d="M40.7612 50.7045L38.3054 58.8459L45.5098 57.1914C45.5098 57.1914 64.5835 38.6742 59.7793 23.7844C59.7793 23.7844 62.3386 29.1889 40.7612 50.7045Z" fill="#FFC973"/>
    <path d="M61.4072 23.3473C61.1452 22.7655 60.7649 22.248 60.2919 21.8294C59.8189 21.4109 59.2641 21.1011 58.6648 20.9208C57.5685 20.5894 56.4385 20.3893 55.2974 20.3244C40.5145 19.3889 19.3152 37.4813 19.3152 37.4813L8.03491 70.7699L41.7683 63.3883C65.1726 39.8547 63.4213 27.8407 61.4072 23.3473ZM40.9762 61.3376L30.0103 63.6824C22.388 54.1521 18.9092 50.0958 17.8066 48.8417L21.3213 38.5271L22.181 37.6815C26.6788 34.0785 43.1216 21.6397 54.7959 22.3791C55.7899 22.4363 56.7741 22.6104 57.7294 22.8979C58.1108 23.0119 58.464 23.2083 58.7654 23.474C59.0668 23.7396 59.3093 24.0683 59.4768 24.438C60.4002 26.4804 61.0689 30.1365 59.1464 35.786C56.7184 42.8449 50.9031 51.117 41.8518 60.3858L40.9762 61.3376Z" fill="white"/>
    <path d="M51.7827 50.8842C49.5387 50.1542 47.359 49.2304 45.2669 48.1227C37.8595 44.193 32.1318 38.1799 29.1028 31.1986L33.4533 29.2338C36.0326 35.2019 41.0159 40.3776 47.4521 43.8008C49.2751 44.769 51.7429 45.5533 53.749 46.2069L51.7827 50.8842Z" fill="white"/>
    <path d="M58.0916 40.3449C54.3521 39.2461 50.8746 37.3651 47.8777 34.8202C44.8808 32.2753 42.4294 29.1215 40.6776 25.5573L43.9534 23.8416C47.0541 30.0752 52.7102 34.871 59.0787 36.7134L58.0916 40.3449Z" fill="white"/>
    <path d="M8.22992 34.5851C5.19691 34.3931 2.43058 32.4936 1.4952 29.9527C-0.0531543 25.7452 0.516036 19.9608 6.7771 16.3374C8.03613 15.6205 9.44904 15.2358 10.8888 15.2181C20.9291 15.1498 30.8679 17.282 40.0408 21.4723L40.1164 21.509L43.2728 23.3146L39.6905 24.9813C38.7551 25.4306 18.3758 35.1447 8.27769 34.5728L8.22992 34.5851ZM15.4503 17.3873C13.5636 17.2688 12.0192 17.2525 10.9206 17.2729C9.81564 17.2833 8.73067 17.5768 7.76423 18.1267C1.28026 21.8767 2.76492 27.5589 3.38586 29.2133C4.05455 31.0189 6.09647 32.3751 8.36526 32.5181H8.40506C17.719 33.045 37.3779 23.817 38.783 23.1512C31.3947 19.8412 23.4969 17.8902 15.4503 17.3873Z" fill="white"/>
    <path d="M40.7732 23.4821L38.1262 22.3996C24.012 16.6356 9.06979 17.5466 8.9265 17.5548L7.81201 17.6324L7.8558 16.4845C8.25383 6.49262 18.3758 4.80961 18.4793 4.79327H18.5947C30.1377 4.38477 39.0019 20.2672 39.3721 20.9453L40.7732 23.4821ZM16.4255 15.5776C23.097 15.9777 29.6888 17.2728 36.0326 19.4298C33.0951 15.067 26.4081 6.63967 18.7261 6.86435C17.9778 6.99507 10.9326 8.41664 9.96935 15.4673C11.251 15.4101 13.5198 15.3938 16.4255 15.5776Z" fill="white"/>
    <path d="M17.4205 18.0695C15.6731 17.9592 14.2362 17.947 13.2252 17.9633C12.2163 17.9732 11.2258 18.2414 10.3435 18.7435C4.4048 22.179 5.76209 27.3833 6.31934 28.8988C6.996 30.737 9.10558 31.791 10.8848 31.9013C19.1917 32.371 36.4226 24.4421 38.8108 23.3228C32.0315 20.3118 24.7935 18.5342 17.4205 18.0695Z" fill="#F9A106"/>
    <path d="M19.3948 15.1365C24.7897 15.7353 30.0872 17.0436 35.1569 19.0295C32.8483 15.2631 27.7893 8.36764 21.6238 8.22058C20.9869 8.30228 15.2831 9.1683 14.1646 14.7566C15.2552 14.7811 17.0703 14.8709 19.3948 15.1365Z" fill="#FFC973"/>
    <path d="M67.7678 14.9813C66.8115 14.8406 65.8369 15.0348 65.0015 15.5327C65.1771 15.5082 65.3552 15.5082 65.5309 15.5327C65.882 15.5847 66.2102 15.7422 66.4741 15.9854C66.738 16.2286 66.9259 16.5466 67.0138 16.8993C67.1018 17.2519 67.086 17.6234 66.9685 17.9669C66.8509 18.3104 66.6368 18.6104 66.3532 18.8291C66.0697 19.0478 65.7293 19.1753 65.3752 19.1957C65.021 19.216 64.6689 19.1283 64.3633 18.9434C64.0577 18.7586 63.8124 18.485 63.6582 18.1571C63.504 17.8293 63.4479 17.4619 63.4969 17.1014L63.5208 16.9788C63.0126 17.7872 62.7735 18.7429 62.8393 19.7026C62.9051 20.6623 63.2722 21.5742 63.8857 22.3016C64.4991 23.029 65.3258 23.5328 66.2417 23.7373C67.1577 23.9418 68.1136 23.8361 68.966 23.4359C69.8185 23.0358 70.5216 22.3629 70.9699 21.518C71.4182 20.6731 71.5876 19.7018 71.4526 18.7498C71.3176 17.7978 70.8856 16.9164 70.2212 16.2377C69.5569 15.559 68.696 15.1196 67.7678 14.9854V14.9813Z" fill="white"/>
    <path d="M53.562 4.44196C51.9566 4.41654 50.3982 4.99814 49.1836 6.07596C49.3735 6.03592 49.567 6.01676 49.7608 6.01877C50.2604 6.02562 50.748 6.17635 51.1681 6.4538C51.5883 6.73125 51.9241 7.12424 52.1372 7.588C52.3503 8.05177 52.4322 8.56764 52.3735 9.07684C52.3149 9.58604 52.118 10.0681 51.8054 10.4681C51.4927 10.868 51.0769 11.1698 50.6053 11.339C50.1337 11.5083 49.6252 11.5381 49.1379 11.4252C48.6505 11.3123 48.2039 11.0612 47.8489 10.7004C47.4938 10.3397 47.2447 9.88381 47.1298 9.3848C46.7601 10.7436 46.8141 12.1871 47.2842 13.5128C47.7543 14.8385 48.617 15.9799 49.7512 16.7769C50.8855 17.5739 52.2343 17.9866 53.6087 17.9571C54.983 17.9275 56.3138 17.4572 57.4145 16.612C58.5152 15.7669 59.3305 14.5894 59.7461 13.2447C60.1617 11.8999 60.1567 10.4554 59.7318 9.11368C59.3069 7.77199 58.4835 6.60043 57.377 5.76334C56.2705 4.92625 54.9365 4.46562 53.562 4.44605V4.44196Z" fill="white"/>
    <path d="M62.8839 10.4673C62.6357 10.4874 62.3895 10.4093 62.1956 10.2491C62.0017 10.0888 61.8749 9.85854 61.8411 9.60541C61.3276 5.88807 59.5444 3.51877 56.6666 2.74671C56.5422 2.71318 56.4255 2.65483 56.3231 2.575C56.2206 2.49516 56.1345 2.3954 56.0696 2.28141C56.0048 2.16743 55.9624 2.04145 55.945 1.91066C55.9276 1.77988 55.9354 1.64684 55.9681 1.51917C56.0008 1.39149 56.0576 1.27167 56.1354 1.16655C56.2132 1.06142 56.3104 0.973056 56.4215 0.906484C56.5325 0.839912 56.6553 0.796437 56.7827 0.778554C56.9102 0.760671 57.0398 0.768724 57.1642 0.802252C60.8062 1.77856 63.1347 4.80555 63.7715 9.32354C63.8079 9.58734 63.7407 9.85514 63.5847 10.0681C63.4287 10.281 63.1967 10.4217 62.9396 10.4592L62.8839 10.4673Z" fill="white"/>
    <path d="M72.6636 15.88C72.465 15.8609 72.2768 15.7799 72.1245 15.6476C71.9722 15.5154 71.8631 15.3385 71.8118 15.1406C71.5993 14.5828 71.2195 14.1088 70.7272 13.7871C70.2349 13.4655 69.6557 13.3129 69.0733 13.3514C68.9411 13.3618 68.8082 13.3443 68.6827 13.3C68.5573 13.2557 68.4421 13.1855 68.3441 13.0938C68.2461 13.002 68.1675 12.8906 68.1131 12.7664C68.0587 12.6423 68.0297 12.508 68.0277 12.3719C68.0258 12.2358 68.0511 12.1007 68.102 11.975C68.153 11.8493 68.2284 11.7356 68.3238 11.641C68.4191 11.5464 68.5324 11.4728 68.6565 11.4248C68.7806 11.3768 68.913 11.3555 69.0455 11.362C71.5013 11.3252 73.2726 13.0205 73.6865 14.63C73.7251 14.7844 73.7271 14.946 73.6925 15.1013C73.6579 15.2567 73.5877 15.4013 73.4876 15.5232C73.3875 15.6451 73.2606 15.7407 73.1172 15.802C72.9739 15.8634 72.8184 15.8887 72.6636 15.8759V15.88Z" fill="white"/>
    </svg>
    