<svg width="30" height="30" viewBox="0 0 30 30" fill="none" xmlns="http://www.w3.org/2000/svg">
    <circle cx="15" cy="15" r="15" fill="#D9D9D9"/>
    <path d="M11.8861 23C11.7984 23.0005 11.7114 22.9837 11.6302 22.9505C11.549 22.9173 11.4751 22.8685 11.4129 22.8067C11.3504 22.7447 11.3008 22.671 11.267 22.5898C11.2331 22.5086 11.2157 22.4214 11.2157 22.3334C11.2157 22.2454 11.2331 22.1583 11.267 22.0771C11.3008 21.9959 11.3504 21.9221 11.4129 21.8602L16.8586 16.4144C17.2331 16.0395 17.4434 15.5313 17.4434 15.0014C17.4434 14.4714 17.2331 13.9632 16.8586 13.5883L11.4129 8.14253C11.2873 8.01702 11.2168 7.84678 11.2168 7.66928C11.2168 7.49178 11.2873 7.32154 11.4129 7.19603C11.5384 7.07051 11.7086 7 11.8861 7C12.0636 7 12.2339 7.07051 12.3594 7.19603L17.8051 12.6418C18.1155 12.9513 18.3617 13.3191 18.5297 13.724C18.6977 14.1289 18.7842 14.563 18.7842 15.0014C18.7842 15.4397 18.6977 15.8738 18.5297 16.2787C18.3617 16.6836 18.1155 17.0514 17.8051 17.361L12.3594 22.8067C12.2971 22.8685 12.2232 22.9173 12.142 22.9505C12.0608 22.9837 11.9738 23.0005 11.8861 23Z" fill="black"/>
    </svg>
    