<svg width="30" height="30" viewBox="0 0 30 30" fill="none" xmlns="http://www.w3.org/2000/svg">
    <circle cx="15" cy="15" r="15" fill="#D9D9D9"/>
    <path d="M18.2914 7.00001C18.3841 6.9995 18.476 7.01632 18.5618 7.04949C18.6477 7.08266 18.7258 7.13154 18.7916 7.19331C18.8576 7.25528 18.91 7.329 18.9458 7.41022C18.9816 7.49145 19 7.57857 19 7.66656C19 7.75456 18.9816 7.84168 18.9458 7.9229C18.91 8.00413 18.8576 8.07785 18.7916 8.13982L13.0354 13.5856C12.6396 13.9605 12.4173 14.4687 12.4173 14.9986C12.4173 15.5286 12.6396 16.0368 13.0354 16.4117L18.7916 21.8575C18.9243 21.983 18.9988 22.1532 18.9988 22.3307C18.9988 22.5082 18.9243 22.6785 18.7916 22.804C18.6589 22.9295 18.479 23 18.2914 23C18.1037 23 17.9238 22.9295 17.7911 22.804L12.0349 17.3582C11.7069 17.0487 11.4466 16.6809 11.269 16.276C11.0914 15.8711 11 15.437 11 14.9986C11 14.5603 11.0914 14.1262 11.269 13.7213C11.4466 13.3164 11.7069 12.9486 12.0349 12.639L17.7911 7.19331C17.857 7.13154 17.935 7.08266 18.0209 7.04949C18.1067 7.01632 18.1986 6.9995 18.2914 7.00001Z" fill="black"/>
    </svg>
    