<svg width="200" height="20" viewBox="0 0 200 20" fill="none" xmlns="http://www.w3.org/2000/svg">
                        <path d="M11.616 5.048V6.184H9.936V15H8.704V8.664L9.056 9.688C8.61867 9.048 8.21867 8.504 7.856 8.056C7.49333 7.59733 7.14667 7.224 6.816 6.936C6.496 6.648 6.17067 6.44 5.84 6.312C5.50933 6.17333 5.152 6.104 4.768 6.104C4.34133 6.104 3.952 6.184 3.6 6.344C3.25867 6.504 2.944 6.71733 2.656 6.984C2.368 7.25067 2.10133 7.53867 1.856 7.848L1.728 7.88C1.89867 7.77333 2.064 7.69333 2.224 7.64C2.39467 7.58667 2.58133 7.56 2.784 7.56C3.40267 7.56 3.856 7.73067 4.144 8.072C4.432 8.40267 4.576 8.81333 4.576 9.304C4.576 9.42133 4.57067 9.53333 4.56 9.64C4.54933 9.74667 4.53333 9.82667 4.512 9.88L4.24 9.784C4.368 9.64533 4.49067 9.512 4.608 9.384C4.72533 9.256 4.848 9.128 4.976 9C5.11467 8.872 5.25333 8.73867 5.392 8.6L7.376 6.744L8.16 7.592L3.616 11.88L2.672 11L3.984 9.752L3.408 10.44L2.928 10.808C3.088 10.6267 3.22133 10.4347 3.328 10.232C3.44533 10.0187 3.504 9.77867 3.504 9.512C3.504 9.24533 3.424 9.032 3.264 8.872C3.104 8.712 2.86933 8.632 2.56 8.632C2.38933 8.632 2.224 8.65333 2.064 8.696C1.904 8.73867 1.73867 8.81333 1.568 8.92L0.352 7.768C0.778667 7.20267 1.216 6.712 1.664 6.296C2.112 5.86933 2.58133 5.53867 3.072 5.304C3.56267 5.05867 4.09067 4.936 4.656 4.936C5.25333 4.936 5.792 5.048 6.272 5.272C6.752 5.496 7.216 5.832 7.664 6.28C8.112 6.71733 8.58133 7.272 9.072 7.944L8.784 7.864C8.752 7.608 8.73067 7.33067 8.72 7.032C8.70933 6.73333 8.704 6.41333 8.704 6.072V3.992H9.552L9.92 5.048H11.616ZM6.87712 19.256C6.58912 19.256 6.27446 19.192 5.93312 19.064C5.59179 18.9467 5.30379 18.7547 5.06912 18.488C4.82379 18.2213 4.70112 17.864 4.70112 17.416C4.70112 16.872 4.90912 16.4347 5.32512 16.104C5.74112 15.784 6.32246 15.624 7.06912 15.624C7.73046 15.624 8.37046 15.7413 8.98912 15.976C9.59712 16.2213 10.2211 16.5573 10.8611 16.984C11.4905 17.4107 12.1625 17.9067 12.8771 18.472L12.1571 19.336C11.4425 18.7387 10.7918 18.2427 10.2051 17.848C9.61846 17.4533 9.06379 17.1547 8.54112 16.952C8.01846 16.7493 7.50112 16.648 6.98912 16.648C6.60512 16.648 6.31712 16.7227 6.12512 16.872C5.93312 17.0213 5.83712 17.2133 5.83712 17.448C5.83712 17.7467 5.94379 17.9547 6.15712 18.072C6.35979 18.2 6.59979 18.264 6.87712 18.264C7.27179 18.264 7.59179 18.1787 7.83712 18.008C8.07179 17.848 8.25312 17.6453 8.38112 17.4C8.50912 17.1547 8.59446 16.8987 8.63712 16.632C8.67979 16.376 8.70112 16.1467 8.70112 15.944V14.872H9.93312V15.72C9.93312 16.0187 9.90112 16.3653 9.83712 16.76C9.76246 17.1653 9.62379 17.5547 9.42112 17.928C9.20779 18.312 8.89846 18.6267 8.49312 18.872C8.08779 19.128 7.54912 19.256 6.87712 19.256ZM17.1491 5.048V6.184H16.8291C16.4985 6.25867 16.1411 6.424 15.7571 6.68C15.3731 6.92533 15.0105 7.25067 14.6691 7.656C14.3278 8.05067 14.0451 8.51467 13.8211 9.048C13.6078 9.58133 13.5011 10.168 13.5011 10.808C13.5011 11.576 13.6131 12.1893 13.8371 12.648C14.0718 13.096 14.3598 13.416 14.7011 13.608C15.0425 13.8 15.3838 13.896 15.7251 13.896C15.9918 13.896 16.2158 13.8693 16.3971 13.816C16.5785 13.7627 16.7865 13.6667 17.0211 13.528L17.5811 14.504C17.3038 14.7173 16.9998 14.8667 16.6691 14.952C16.3385 15.0373 16.0078 15.08 15.6771 15.08C15.0051 15.08 14.4078 14.904 13.8851 14.552C13.3731 14.2 12.9678 13.7093 12.6691 13.08C12.3811 12.44 12.2371 11.6933 12.2371 10.84C12.2371 9.96533 12.4025 9.176 12.7331 8.472C13.0638 7.75733 13.5065 7.15467 14.0611 6.664C14.6265 6.17333 15.2505 5.816 15.9331 5.592L14.9091 6.12C14.7171 6.14133 14.5091 6.15733 14.2851 6.168C14.0611 6.17867 13.8105 6.184 13.5331 6.184H11.2931V5.048H17.1491ZM26.6804 5.048V6.184H25.0004V15H23.7684C23.4484 14.36 23.0057 13.7733 22.4404 13.24C21.8857 12.696 21.2457 12.2373 20.5204 11.864C19.795 11.4907 19.0217 11.24 18.2004 11.112L17.5764 9.576C18.6004 8.95733 19.6564 8.39733 20.7444 7.896C21.843 7.39467 22.9737 6.968 24.1364 6.616L23.7684 7.288V6.184H16.8244V5.048H26.6804ZM23.7684 7.416L24.1044 7.864C23.2937 8.13067 22.4404 8.46133 21.5444 8.856C20.6484 9.24 19.8217 9.66667 19.0644 10.136C19.6404 10.264 20.2537 10.4827 20.9044 10.792C21.555 11.1013 22.1577 11.4907 22.7124 11.96C23.267 12.4293 23.6937 12.9733 23.9924 13.592H23.8484C23.827 13.3467 23.8057 13.1013 23.7844 12.856C23.7737 12.6107 23.7684 12.3173 23.7684 11.976V7.416ZM19.9444 15.096C19.6777 15.096 19.4484 15.0107 19.2564 14.84C19.075 14.6693 18.9844 14.4453 18.9844 14.168C18.9844 13.8907 19.075 13.6613 19.2564 13.48C19.4484 13.2987 19.6777 13.208 19.9444 13.208C20.211 13.208 20.435 13.2987 20.6164 13.48C20.8084 13.6613 20.9044 13.8907 20.9044 14.168C20.9044 14.4453 20.8084 14.6693 20.6164 14.84C20.435 15.0107 20.211 15.096 19.9444 15.096ZM30.9316 5.048V6.184H29.2516V15H28.0196V7.496C27.8916 7.13333 27.6996 6.824 27.4436 6.568C27.1983 6.312 26.8783 6.184 26.4836 6.184H26.3556V5.048H26.5956C26.8516 5.048 27.1183 5.13333 27.3956 5.304C27.673 5.464 27.897 5.71467 28.0676 6.056C28.057 6.00267 28.0463 5.88 28.0356 5.688C28.025 5.496 28.0196 5.33067 28.0196 5.192V3.992H28.8836L29.2356 5.048H30.9316ZM39.9976 5.048V6.184H33.5176V11.72C33.5176 12.1893 33.5443 12.52 33.5976 12.712C33.651 12.904 33.715 13.0427 33.7896 13.128C33.9816 13.352 34.275 13.464 34.6696 13.464C35.0856 13.464 35.4803 13.3627 35.8536 13.16C36.227 12.9573 36.5523 12.7067 36.8296 12.408C37.139 12.0773 37.3736 11.7253 37.5336 11.352C37.7043 10.9787 37.7896 10.6 37.7896 10.216C37.7896 9.87467 37.7043 9.61867 37.5336 9.448C37.363 9.26667 37.0803 9.176 36.6856 9.176C36.5576 9.176 36.419 9.18667 36.2696 9.208C36.1203 9.22933 35.9763 9.256 35.8376 9.288L35.6616 8.152C35.8643 8.09867 36.0723 8.056 36.2856 8.024C36.5096 7.992 36.7443 7.976 36.9896 7.976C37.3843 7.976 37.7363 8.05067 38.0456 8.2C38.355 8.34933 38.595 8.584 38.7656 8.904C38.947 9.224 39.0376 9.64 39.0376 10.152C39.0376 10.7813 38.883 11.3947 38.5736 11.992C38.2643 12.5787 37.875 13.0747 37.4056 13.48C37.011 13.8213 36.579 14.0987 36.1096 14.312C35.651 14.5147 35.1443 14.616 34.5896 14.616C34.195 14.616 33.8536 14.5573 33.5656 14.44C33.2883 14.3227 33.059 14.1733 32.8776 13.992C32.707 13.7893 32.563 13.544 32.4456 13.256C32.339 12.968 32.2856 12.5307 32.2856 11.944V6.184H30.6056V5.048H39.9976ZM37.0856 5.048C37.075 4.61067 36.9683 4.296 36.7656 4.104C36.5736 3.912 36.2536 3.816 35.8056 3.816H34.3016C33.6083 3.816 33.0696 3.768 32.6856 3.672C32.3123 3.576 31.9923 3.42667 31.7256 3.224C31.4376 3.01067 31.219 2.73867 31.0696 2.408C30.931 2.06667 30.8616 1.68267 30.8616 1.256C30.8616 1.11733 30.867 0.983999 30.8776 0.855999C30.899 0.717333 30.9203 0.568 30.9416 0.407999L32.1256 0.487999C32.1043 0.605333 32.0883 0.712 32.0776 0.808C32.067 0.893332 32.0616 0.989333 32.0616 1.096C32.0616 1.33067 32.083 1.53867 32.1256 1.72C32.179 1.90133 32.259 2.05067 32.3656 2.168C32.515 2.33867 32.7283 2.46667 33.0056 2.552C33.2936 2.62667 33.699 2.664 34.2216 2.664H35.4696C36.035 2.664 36.483 2.70667 36.8136 2.792C37.1443 2.87733 37.427 3.032 37.6616 3.256C37.843 3.42667 37.9816 3.66133 38.0776 3.96C38.1736 4.248 38.227 4.61067 38.2376 5.048H37.0856ZM44.2598 5.048V6.184H42.5798V15H41.3478V7.496C41.2198 7.13333 41.0278 6.824 40.7718 6.568C40.5264 6.312 40.2064 6.184 39.8117 6.184H39.6837V5.048H39.9238C40.1798 5.048 40.4464 5.13333 40.7238 5.304C41.0011 5.464 41.2251 5.71467 41.3958 6.056C41.3851 6.00267 41.3744 5.88 41.3638 5.688C41.3531 5.496 41.3478 5.33067 41.3478 5.192V3.992H42.2118L42.5638 5.048H44.2598ZM59.366 5.048V6.184H57.686V15H56.454V8.664L56.806 9.688C56.3687 9.048 55.9687 8.504 55.606 8.056C55.2433 7.59733 54.8967 7.224 54.566 6.936C54.246 6.648 53.9207 6.44 53.59 6.312C53.2593 6.17333 52.902 6.104 52.518 6.104C52.0913 6.104 51.702 6.184 51.35 6.344C51.0087 6.504 50.694 6.71733 50.406 6.984C50.118 7.25067 49.8513 7.53867 49.606 7.848L49.478 7.88C49.6487 7.77333 49.814 7.69333 49.974 7.64C50.1447 7.58667 50.3313 7.56 50.534 7.56C51.1527 7.56 51.606 7.73067 51.894 8.072C52.182 8.40267 52.326 8.81333 52.326 9.304C52.326 9.42133 52.3207 9.53333 52.31 9.64C52.2993 9.74667 52.2833 9.82667 52.262 9.88L51.99 9.784C52.118 9.64533 52.2407 9.512 52.358 9.384C52.4753 9.256 52.598 9.128 52.726 9C52.8647 8.872 53.0033 8.73867 53.142 8.6L55.126 6.744L55.91 7.592L51.366 11.88L50.422 11L51.734 9.752L51.158 10.44L50.678 10.808C50.838 10.6267 50.9713 10.4347 51.078 10.232C51.1953 10.0187 51.254 9.77867 51.254 9.512C51.254 9.24533 51.174 9.032 51.014 8.872C50.854 8.712 50.6193 8.632 50.31 8.632C50.1393 8.632 49.974 8.65333 49.814 8.696C49.654 8.73867 49.4887 8.81333 49.318 8.92L48.102 7.768C48.5287 7.20267 48.966 6.712 49.414 6.296C49.862 5.86933 50.3313 5.53867 50.822 5.304C51.3127 5.05867 51.8407 4.936 52.406 4.936C53.0033 4.936 53.542 5.048 54.022 5.272C54.502 5.496 54.966 5.832 55.414 6.28C55.862 6.71733 56.3313 7.272 56.822 7.944L56.534 7.864C56.502 7.608 56.4807 7.33067 56.47 7.032C56.4593 6.73333 56.454 6.41333 56.454 6.072V3.992H57.302L57.67 5.048H59.366ZM70.7551 5.048V6.184H64.8991V9.048C64.8991 9.35733 64.9471 9.58667 65.0431 9.736C65.1391 9.87467 65.2885 9.944 65.4911 9.944C65.6938 9.944 65.9018 9.88 66.1151 9.752C66.3391 9.624 66.5791 9.42133 66.8351 9.144C67.0911 8.86667 67.3685 8.50933 67.6671 8.072L68.6271 7.928C68.9685 8.42933 69.2298 8.94667 69.4111 9.48C69.6031 10.0133 69.6991 10.5467 69.6991 11.08C69.6991 11.752 69.5498 12.3547 69.2511 12.888C68.9631 13.4213 68.5311 13.8427 67.9551 14.152C67.3898 14.4613 66.6965 14.616 65.8751 14.616C65.1711 14.616 64.5151 14.4933 63.9071 14.248C63.2991 14.0027 62.7391 13.608 62.2271 13.064C61.7151 12.5093 61.2458 11.784 60.8191 10.888C60.3925 9.98133 60.0085 8.872 59.6671 7.56L60.8831 7.24C61.2671 8.72267 61.6885 9.91733 62.1471 10.824C62.6165 11.72 63.1498 12.376 63.7471 12.792C64.3445 13.1973 65.0325 13.4 65.8111 13.4C66.6645 13.4 67.3205 13.1867 67.7791 12.76C68.2485 12.3333 68.4831 11.784 68.4831 11.112C68.4831 10.632 68.4138 10.2213 68.2751 9.88C68.1471 9.53867 67.9765 9.256 67.7631 9.032L68.4991 8.728C68.1791 9.272 67.8485 9.72 67.5071 10.072C67.1765 10.424 66.8405 10.6907 66.4991 10.872C66.1685 11.0427 65.8378 11.128 65.5071 11.128C65.2618 11.128 65.0325 11.096 64.8191 11.032C64.6058 10.9573 64.4245 10.8507 64.2751 10.712C64.1045 10.5627 63.9605 10.3547 63.8431 10.088C63.7258 9.81067 63.6671 9.352 63.6671 8.712V6.184H59.0431V5.048H70.7551ZM65.8271 19.256C65.5391 19.256 65.2245 19.192 64.8831 19.064C64.5418 18.9467 64.2485 18.7547 64.0031 18.488C63.7685 18.2213 63.6511 17.864 63.6511 17.416C63.6511 16.872 63.8591 16.4347 64.2751 16.104C64.6911 15.784 65.2725 15.624 66.0191 15.624C66.6805 15.624 67.3151 15.7413 67.9231 15.976C68.5418 16.2213 69.1658 16.5573 69.7951 16.984C70.4351 17.4107 71.1125 17.9067 71.8271 18.472L71.1071 19.336C70.3925 18.7387 69.7418 18.2427 69.1551 17.848C68.5685 17.4533 68.0138 17.1547 67.4911 16.952C66.9685 16.7493 66.4511 16.648 65.9391 16.648C65.5551 16.648 65.2671 16.7227 65.0751 16.872C64.8831 17.0213 64.7871 17.2133 64.7871 17.448C64.7871 17.7467 64.8885 17.9547 65.0911 18.072C65.3045 18.2 65.5498 18.264 65.8271 18.264C66.2218 18.264 66.5365 18.1787 66.7711 18.008C67.0165 17.848 67.2031 17.6453 67.3311 17.4C67.4591 17.1547 67.5445 16.8987 67.5871 16.632C67.6298 16.376 67.6511 16.1467 67.6511 15.944V14.872H68.8831V15.72C68.8831 16.0187 68.8458 16.3653 68.7711 16.76C68.7071 17.1653 68.5685 17.5547 68.3551 17.928C68.1525 18.312 67.8485 18.6267 67.4431 18.872C67.0378 19.128 66.4991 19.256 65.8271 19.256ZM62.1151 16.472C61.8485 16.472 61.6191 16.3867 61.4271 16.216C61.2458 16.0453 61.1551 15.8213 61.1551 15.544C61.1551 15.2667 61.2458 15.0373 61.4271 14.856C61.6191 14.6747 61.8485 14.584 62.1151 14.584C62.3818 14.584 62.6058 14.6747 62.7871 14.856C62.9791 15.0373 63.0751 15.2667 63.0751 15.544C63.0751 15.8213 62.9791 16.0453 62.7871 16.216C62.6058 16.3867 62.3818 16.472 62.1151 16.472ZM80.4178 5.048V6.184H78.7378V15H77.5058V11.112L77.7618 12.008C77.4098 11.5173 77.0258 11.0747 76.6098 10.68C76.1938 10.2853 75.7671 9.97067 75.3298 9.736C74.8924 9.50133 74.4658 9.384 74.0498 9.384C73.6551 9.384 73.3191 9.49067 73.0418 9.704C72.7751 9.90667 72.6418 10.2107 72.6418 10.616C72.6418 10.936 72.7538 11.2133 72.9778 11.448C73.2018 11.672 73.5484 11.8747 74.0178 12.056L73.4098 13.192C72.7591 12.9253 72.2471 12.568 71.8738 12.12C71.5111 11.6613 71.3298 11.144 71.3298 10.568C71.3298 10.0453 71.4524 9.61333 71.6978 9.272C71.9538 8.92 72.2738 8.65867 72.6578 8.488C73.0524 8.31733 73.4524 8.232 73.8578 8.232C74.4124 8.232 74.9191 8.328 75.3778 8.52C75.8364 8.712 76.2631 8.97333 76.6578 9.304C77.0631 9.63467 77.4471 10.0187 77.8098 10.456L77.5858 10.52C77.5538 10.2747 77.5324 10.0347 77.5218 9.8C77.5111 9.55467 77.5058 9.30933 77.5058 9.064V6.184H70.4337V5.048H80.4178ZM88.6627 15.0815V13.8048L94.9649 11.0475L88.6627 8.45331V7.20373L96.1873 10.3684V11.6859L88.6627 15.0815Z" fill="#F9A106" />
                    </svg>