<svg width="138" height="36" viewBox="0 0 138 36" fill="none" xmlns="http://www.w3.org/2000/svg">
<rect x="0.5" y="0.5" width="137" height="35" rx="3.5" stroke="#FCD200"/>
<path d="M24.4 14.048V15.808H22.864V24H20.752V17.728L20.848 18.544C20.5173 18.096 20.1867 17.696 19.856 17.344C19.5253 16.992 19.1947 16.6933 18.864 16.448C18.5333 16.2027 18.1973 16.016 17.856 15.888C17.5147 15.76 17.168 15.696 16.816 15.696C16.3893 15.696 16 15.776 15.648 15.936C15.3067 16.096 14.9867 16.3147 14.688 16.592C14.4 16.8693 14.1067 17.1947 13.808 17.568L13.76 17.2C13.9733 17.0613 14.2027 16.9387 14.448 16.832C14.704 16.7147 15.0027 16.656 15.344 16.656C15.8773 16.656 16.2613 16.8053 16.496 17.104C16.7413 17.392 16.864 17.7173 16.864 18.08C16.864 18.2507 16.8587 18.4107 16.848 18.56C16.848 18.7093 16.8373 18.8107 16.816 18.864L16.32 18.72C16.4267 18.592 16.5493 18.4587 16.688 18.32C16.8373 18.1707 16.992 18.0213 17.152 17.872C17.312 17.7227 17.4667 17.584 17.616 17.456L19.536 15.792L20.8 17.056L16.064 21.36L14.608 20L16.112 18.624L15.504 19.44L14.848 19.824C15.0293 19.6427 15.168 19.456 15.264 19.264C15.36 19.072 15.408 18.8907 15.408 18.72C15.408 18.464 15.3387 18.2827 15.2 18.176C15.0613 18.0587 14.8853 18 14.672 18C14.5333 18 14.3893 18.0267 14.24 18.08C14.1013 18.1227 13.952 18.192 13.792 18.288L12.208 16.832C12.6987 16.224 13.1733 15.7067 13.632 15.28C14.0907 14.8427 14.5707 14.512 15.072 14.288C15.5733 14.0533 16.1333 13.936 16.752 13.936C17.296 13.936 17.792 14.0267 18.24 14.208C18.688 14.3893 19.1253 14.6507 19.552 14.992C19.9893 15.3333 20.4427 15.744 20.912 16.224L20.848 16.56C20.8267 16.3467 20.8053 16.1013 20.784 15.824C20.7627 15.5467 20.752 15.2747 20.752 15.008V12.992H22.48L22.848 14.048H24.4ZM19.3384 28.256C18.9757 28.256 18.6024 28.1867 18.2184 28.048C17.8237 27.92 17.493 27.712 17.2264 27.424C16.9597 27.136 16.8264 26.752 16.8264 26.272C16.8264 25.6853 17.0504 25.216 17.4984 24.864C17.9357 24.512 18.5757 24.336 19.4184 24.336C20.1864 24.336 20.901 24.432 21.5624 24.624C22.2237 24.8267 22.885 25.1253 23.5464 25.52C24.2077 25.9147 24.9224 26.4107 25.6904 27.008L24.5544 28.336C23.9357 27.7707 23.3437 27.296 22.7784 26.912C22.213 26.528 21.6744 26.24 21.1624 26.048C20.6504 25.856 20.165 25.76 19.7064 25.76C19.3757 25.76 19.141 25.8133 19.0024 25.92C18.853 26.0267 18.7784 26.1653 18.7784 26.336C18.7784 26.528 18.8424 26.6667 18.9704 26.752C19.0984 26.8373 19.2744 26.88 19.4984 26.88C19.765 26.88 19.9837 26.816 20.1544 26.688C20.3144 26.56 20.437 26.3947 20.5224 26.192C20.6077 26 20.6664 25.792 20.6984 25.568C20.7304 25.3547 20.7464 25.152 20.7464 24.96V23.744H22.8584V24.528C22.8584 24.8693 22.821 25.2533 22.7464 25.68C22.661 26.1067 22.501 26.512 22.2664 26.896C22.021 27.2907 21.6637 27.616 21.1944 27.872C20.725 28.128 20.1064 28.256 19.3384 28.256ZM30.7784 14.048V15.808H29.8664C29.5037 15.9893 29.1517 16.2133 28.8104 16.48C28.4797 16.736 28.181 17.0347 27.9144 17.376C27.6584 17.7067 27.4504 18.0747 27.2904 18.48C27.141 18.8853 27.0664 19.3227 27.0664 19.792C27.0664 20.432 27.1624 20.9333 27.3544 21.296C27.5464 21.6587 27.7864 21.9147 28.0744 22.064C28.3624 22.2027 28.6504 22.272 28.9384 22.272C29.1304 22.272 29.317 22.256 29.4984 22.224C29.6797 22.1813 29.8877 22.1013 30.1224 21.984L30.9224 23.568C30.5704 23.7707 30.2237 23.9093 29.8824 23.984C29.541 24.048 29.1837 24.08 28.8104 24.08C28.021 24.08 27.333 23.92 26.7464 23.6C26.1597 23.2693 25.7064 22.7893 25.3864 22.16C25.077 21.52 24.9224 20.7467 24.9224 19.84C24.9224 19.104 25.0557 18.4213 25.3224 17.792C25.589 17.1627 25.9624 16.6133 26.4424 16.144C26.933 15.664 27.509 15.3013 28.1704 15.056L27.1464 15.744C26.9757 15.7653 26.7784 15.7813 26.5544 15.792C26.341 15.8027 26.0637 15.808 25.7224 15.808H24.0744V14.048H30.7784ZM40.849 14.048V15.808H39.313V24H37.201C36.8063 23.424 36.3263 22.9173 35.761 22.48C35.2063 22.0427 34.5877 21.68 33.905 21.392C33.2223 21.0933 32.481 20.88 31.681 20.752L30.881 18.864C31.8623 18.32 32.9343 17.7973 34.097 17.296C35.2703 16.784 36.4223 16.3787 37.553 16.08L37.265 16.608V15.808H30.465V14.048H40.849ZM37.201 17.616L37.537 17.968C36.833 18.1707 36.1663 18.4053 35.537 18.672C34.9183 18.928 34.2623 19.2213 33.569 19.552C34.0063 19.6373 34.4597 19.7867 34.929 20C35.409 20.2027 35.873 20.4693 36.321 20.8C36.7797 21.1307 37.1903 21.5147 37.553 21.952L37.249 22.128C37.2383 21.8827 37.2277 21.6373 37.217 21.392C37.2063 21.1467 37.201 20.9067 37.201 20.672V17.616ZM33.345 24.192C33.0143 24.192 32.737 24.08 32.513 23.856C32.289 23.6213 32.177 23.3333 32.177 22.992C32.177 22.6507 32.289 22.368 32.513 22.144C32.737 21.9093 33.0143 21.792 33.345 21.792C33.6863 21.792 33.9637 21.9093 34.177 22.144C34.401 22.368 34.513 22.6507 34.513 22.992C34.513 23.3333 34.401 23.6213 34.177 23.856C33.9637 24.08 33.6863 24.192 33.345 24.192ZM45.7115 14.048V15.808H44.1755V24H42.0635V16.896C41.9355 16.5653 41.7542 16.304 41.5195 16.112C41.2848 15.9093 40.9808 15.808 40.6075 15.808H40.5275V14.048H40.8475C41.0928 14.048 41.3222 14.112 41.5355 14.24C41.7488 14.368 41.9462 14.64 42.1275 15.056C42.1168 15.0027 42.1008 14.88 42.0795 14.688C42.0688 14.496 42.0635 14.3307 42.0635 14.192V12.992H43.7915L44.1595 14.048H45.7115ZM55.1949 14.048V15.808H48.9549V20.496C48.9549 20.8587 48.9762 21.1253 49.0189 21.296C49.0615 21.4667 49.1255 21.5947 49.2109 21.68C49.3602 21.84 49.6055 21.92 49.9469 21.92C50.2349 21.92 50.5122 21.8613 50.7789 21.744C51.0455 21.616 51.3175 21.4187 51.5949 21.152C51.8295 20.9387 52.0109 20.7093 52.1389 20.464C52.2669 20.2187 52.3309 19.968 52.3309 19.712C52.3309 19.5093 52.2669 19.344 52.1389 19.216C52.0109 19.088 51.8029 19.024 51.5149 19.024C51.3762 19.024 51.2482 19.0293 51.1309 19.04C51.0242 19.0507 50.9229 19.0667 50.8269 19.088L50.5389 17.36C50.7735 17.3067 51.0082 17.264 51.2429 17.232C51.4775 17.2 51.7495 17.184 52.0589 17.184C52.6242 17.184 53.0775 17.28 53.4189 17.472C53.7602 17.664 54.0109 17.92 54.1709 18.24C54.3309 18.56 54.4109 18.9227 54.4109 19.328C54.4109 19.9147 54.2882 20.464 54.0429 20.976C53.7975 21.4773 53.4722 21.9307 53.0669 22.336C52.6402 22.752 52.1495 23.0827 51.5949 23.328C51.0402 23.5627 50.4482 23.68 49.8189 23.68C49.2429 23.68 48.7949 23.6267 48.4749 23.52C48.1549 23.4133 47.8829 23.2587 47.6589 23.056C47.4349 22.864 47.2429 22.5813 47.0829 22.208C46.9229 21.8347 46.8429 21.2587 46.8429 20.48V15.808H45.3869V14.048H55.1949ZM51.6269 14.048C51.6162 13.7173 51.5309 13.4827 51.3709 13.344C51.2109 13.1947 50.9282 13.12 50.5229 13.12H49.3229C48.5122 13.12 47.8509 13.0453 47.3389 12.896C46.8375 12.736 46.4429 12.496 46.1549 12.176C45.9522 11.952 45.8029 11.6907 45.7069 11.392C45.6215 11.0827 45.5789 10.7307 45.5789 10.336C45.5789 10.176 45.5842 10.032 45.5949 9.904C45.6055 9.76533 45.6269 9.6 45.6589 9.408L47.6589 9.536C47.6482 9.632 47.6375 9.71733 47.6269 9.792C47.6269 9.86667 47.6269 9.936 47.6269 10C47.6269 10.224 47.6482 10.4267 47.6909 10.608C47.7442 10.7787 47.8295 10.9227 47.9469 11.04C48.0642 11.1467 48.2135 11.2267 48.3949 11.28C48.5762 11.3333 48.8695 11.36 49.2749 11.36H50.5389C51.1682 11.36 51.6642 11.408 52.0269 11.504C52.4002 11.6 52.7149 11.7707 52.9709 12.016C53.1735 12.2187 53.3282 12.4853 53.4349 12.816C53.5522 13.136 53.6162 13.5467 53.6269 14.048H51.6269ZM60.0553 14.048V15.808H58.5193V24H56.4073V16.896C56.2793 16.5653 56.0979 16.304 55.8633 16.112C55.6286 15.9093 55.3246 15.808 54.9512 15.808H54.8712V14.048H55.1913C55.4366 14.048 55.6659 14.112 55.8793 14.24C56.0926 14.368 56.2899 14.64 56.4713 15.056C56.4606 15.0027 56.4446 14.88 56.4233 14.688C56.4126 14.496 56.4073 14.3307 56.4073 14.192V12.992H58.1353L58.5033 14.048H60.0553ZM75.4156 14.048V15.808H73.8796V24H71.7676V17.728L71.8636 18.544C71.533 18.096 71.2023 17.696 70.8716 17.344C70.541 16.992 70.2103 16.6933 69.8796 16.448C69.549 16.2027 69.213 16.016 68.8716 15.888C68.5303 15.76 68.1836 15.696 67.8316 15.696C67.405 15.696 67.0156 15.776 66.6636 15.936C66.3223 16.096 66.0023 16.3147 65.7036 16.592C65.4156 16.8693 65.1223 17.1947 64.8236 17.568L64.7756 17.2C64.989 17.0613 65.2183 16.9387 65.4636 16.832C65.7196 16.7147 66.0183 16.656 66.3596 16.656C66.893 16.656 67.277 16.8053 67.5116 17.104C67.757 17.392 67.8796 17.7173 67.8796 18.08C67.8796 18.2507 67.8743 18.4107 67.8636 18.56C67.8636 18.7093 67.853 18.8107 67.8316 18.864L67.3356 18.72C67.4423 18.592 67.565 18.4587 67.7036 18.32C67.853 18.1707 68.0076 18.0213 68.1676 17.872C68.3276 17.7227 68.4823 17.584 68.6316 17.456L70.5516 15.792L71.8156 17.056L67.0796 21.36L65.6236 20L67.1276 18.624L66.5196 19.44L65.8636 19.824C66.045 19.6427 66.1836 19.456 66.2796 19.264C66.3756 19.072 66.4236 18.8907 66.4236 18.72C66.4236 18.464 66.3543 18.2827 66.2156 18.176C66.077 18.0587 65.901 18 65.6876 18C65.549 18 65.405 18.0267 65.2556 18.08C65.117 18.1227 64.9676 18.192 64.8076 18.288L63.2236 16.832C63.7143 16.224 64.189 15.7067 64.6476 15.28C65.1063 14.8427 65.5863 14.512 66.0876 14.288C66.589 14.0533 67.149 13.936 67.7676 13.936C68.3116 13.936 68.8076 14.0267 69.2556 14.208C69.7036 14.3893 70.141 14.6507 70.5676 14.992C71.005 15.3333 71.4583 15.744 71.9276 16.224L71.8636 16.56C71.8423 16.3467 71.821 16.1013 71.7996 15.824C71.7783 15.5467 71.7676 15.2747 71.7676 15.008V12.992H73.4956L73.8636 14.048H75.4156ZM87.266 14.048V15.808H81.698V17.872C81.698 18.032 81.7247 18.1707 81.778 18.288C81.8313 18.3947 81.9433 18.448 82.114 18.448C82.2527 18.448 82.402 18.4 82.562 18.304C82.722 18.1973 82.882 18.0533 83.042 17.872C83.2127 17.68 83.3833 17.4667 83.554 17.232L85.426 16.88C85.7887 17.4027 86.0607 17.9307 86.242 18.464C86.4233 18.9867 86.514 19.552 86.514 20.16C86.514 20.832 86.3487 21.4347 86.018 21.968C85.698 22.4907 85.2127 22.9067 84.562 23.216C83.922 23.5253 83.1273 23.68 82.178 23.68C81.474 23.68 80.7967 23.5787 80.146 23.376C79.4953 23.1733 78.882 22.832 78.306 22.352C77.7407 21.8613 77.218 21.1947 76.738 20.352C76.2687 19.4987 75.858 18.432 75.506 17.152L77.506 16.592C77.858 17.8613 78.258 18.8853 78.706 19.664C79.154 20.432 79.65 20.992 80.194 21.344C80.7487 21.6853 81.3513 21.856 82.002 21.856C82.77 21.856 83.362 21.6853 83.778 21.344C84.2047 20.992 84.418 20.5067 84.418 19.888C84.418 19.472 84.3433 19.1307 84.194 18.864C84.0447 18.5973 83.874 18.3467 83.682 18.112L85.314 17.984C84.93 18.496 84.5407 18.9173 84.146 19.248C83.7513 19.5787 83.3513 19.824 82.946 19.984C82.5513 20.144 82.1407 20.224 81.714 20.224C81.3727 20.224 81.0687 20.176 80.802 20.08C80.5353 19.9733 80.3113 19.8187 80.13 19.616C79.9487 19.4133 79.81 19.152 79.714 18.832C79.6287 18.512 79.586 18.1013 79.586 17.6V15.808H75.09V14.048H87.266ZM81.986 28.256C81.6233 28.256 81.2447 28.1867 80.85 28.048C80.466 27.92 80.1407 27.712 79.874 27.424C79.6073 27.136 79.474 26.752 79.474 26.272C79.474 25.6853 79.6927 25.216 80.13 24.864C80.578 24.512 81.2233 24.336 82.066 24.336C82.834 24.336 83.5487 24.432 84.21 24.624C84.8713 24.8267 85.5327 25.1253 86.194 25.52C86.8553 25.9147 87.57 26.4107 88.338 27.008L87.202 28.336C86.5833 27.7707 85.9913 27.296 85.426 26.912C84.8607 26.528 84.322 26.24 83.81 26.048C83.298 25.856 82.8127 25.76 82.354 25.76C82.0233 25.76 81.7833 25.8133 81.634 25.92C81.4953 26.0267 81.426 26.1653 81.426 26.336C81.426 26.528 81.49 26.6667 81.618 26.752C81.746 26.8373 81.922 26.88 82.146 26.88C82.4127 26.88 82.626 26.816 82.786 26.688C82.9567 26.56 83.0847 26.3947 83.17 26.192C83.2553 26 83.314 25.792 83.346 25.568C83.378 25.3547 83.394 25.152 83.394 24.96V23.744H85.506V24.528C85.506 24.8693 85.4633 25.2533 85.378 25.68C85.3033 26.1067 85.1433 26.512 84.898 26.896C84.6633 27.2907 84.3113 27.616 83.842 27.872C83.3727 28.128 82.754 28.256 81.986 28.256ZM78.002 25.616C77.6713 25.616 77.394 25.4987 77.17 25.264C76.946 25.04 76.834 24.7573 76.834 24.416C76.834 24.0747 76.946 23.792 77.17 23.568C77.394 23.3333 77.6713 23.216 78.002 23.216C78.3433 23.216 78.6207 23.3333 78.834 23.568C79.058 23.792 79.17 24.0747 79.17 24.416C79.17 24.7573 79.058 25.04 78.834 25.264C78.6207 25.4987 78.3433 25.616 78.002 25.616ZM97.4134 14.048V15.808H95.8774V24H93.7654V20.64L94.0854 21.472C93.7547 21.0453 93.3974 20.656 93.0134 20.304C92.6294 19.952 92.24 19.6693 91.8454 19.456C91.4614 19.2427 91.0827 19.136 90.7094 19.136C90.4427 19.136 90.2134 19.2 90.0214 19.328C89.84 19.4453 89.7494 19.6373 89.7494 19.904C89.7494 20.1387 89.8347 20.336 90.0054 20.496C90.176 20.656 90.448 20.8107 90.8214 20.96L89.8774 22.72C89.1627 22.4427 88.5974 22.048 88.1814 21.536C87.776 21.0133 87.5734 20.4427 87.5734 19.824C87.5734 19.248 87.7067 18.7787 87.9734 18.416C88.24 18.0427 88.5814 17.7707 88.9974 17.6C89.424 17.4187 89.8614 17.328 90.3094 17.328C90.8 17.328 91.264 17.4027 91.7014 17.552C92.1387 17.7013 92.5547 17.9147 92.9494 18.192C93.3547 18.4587 93.7494 18.7893 94.1334 19.184L93.8134 19.344C93.792 19.088 93.776 18.8267 93.7654 18.56C93.7654 18.2827 93.7654 18.0267 93.7654 17.792V15.808H86.9494V14.048H97.4134Z" fill="#515151"/>
<path d="M112.885 26C112.798 26.0005 112.711 25.9837 112.629 25.9505C112.548 25.9173 112.474 25.8685 112.412 25.8067C112.35 25.7447 112.3 25.671 112.266 25.5898C112.232 25.5086 112.215 25.4214 112.215 25.3334C112.215 25.2454 112.232 25.1583 112.266 25.0771C112.3 24.9959 112.35 24.9221 112.412 24.8602L117.858 19.4144C118.232 19.0395 118.443 18.5313 118.443 18.0014C118.443 17.4714 118.232 16.9632 117.858 16.5883L112.412 11.1425C112.286 11.017 112.216 10.8468 112.216 10.6693C112.216 10.4918 112.286 10.3215 112.412 10.196C112.538 10.0705 112.708 10 112.885 10C113.063 10 113.233 10.0705 113.359 10.196L118.804 15.6418C119.115 15.9513 119.361 16.3191 119.529 16.724C119.697 17.1289 119.783 17.563 119.783 18.0014C119.783 18.4397 119.697 18.8738 119.529 19.2787C119.361 19.6836 119.115 20.0514 118.804 20.361L113.359 25.8067C113.296 25.8685 113.222 25.9173 113.141 25.9505C113.06 25.9837 112.973 26.0005 112.885 26Z" fill="black"/>
</svg>
