<svg width="1920" height="380" viewBox="0 0 1920 380" fill="none" xmlns="http://www.w3.org/2000/svg">
    <path d="M1920 0H0V380H1920V0Z" fill="#FAFBE6" />
    <mask id="mask0_817_4627" style="mask-type:luminance" maskUnits="userSpaceOnUse" x="0" y="0"
        width="1920" height="381">
        <path d="M1920 0.00012207H0V380H1920V0.00012207Z" fill="white" />
    </mask>
    <g mask="url(#mask0_817_4627)">
        <path
            d="M141.72 263.8C141.519 263.187 141.282 262.586 141.01 262C139.556 259.151 137.594 256.593 135.22 254.45C132.203 251.636 128.843 249.213 125.22 247.24C120.945 244.887 116.398 243.067 111.68 241.82C110.426 241.483 109.154 241.219 107.87 241.03C106.59 240.846 105.302 240.725 104.01 240.67C101.447 240.578 98.8816 240.702 96.3399 241.04C95.0699 241.21 93.8199 241.42 92.5799 241.67C91.3399 241.92 90.1399 242.23 88.9599 242.55C86.6663 243.184 84.4067 243.935 82.1898 244.8C80.0799 245.63 78.1299 246.51 76.3799 247.36C75.5099 247.78 74.6898 248.2 73.9298 248.6C73.1698 249 72.4798 249.39 71.8398 249.76C69.3198 251.2 67.8398 252.23 67.8398 252.23C68.4892 253.306 69.1935 254.347 69.9499 255.35C71.8432 257.88 73.9509 260.242 76.2498 262.41C79.3445 265.363 82.7943 267.919 86.5199 270.02C90.8328 272.464 95.5189 274.18 100.39 275.1C105.299 276.022 110.269 276.583 115.26 276.78C117.59 276.86 119.83 276.85 121.96 276.78C123.02 276.73 124.05 276.65 125.04 276.56C126.03 276.47 127.04 276.36 127.95 276.22C129.686 275.979 131.403 275.618 133.09 275.14C133.86 274.92 134.59 274.67 135.28 274.4C135.943 274.151 136.59 273.864 137.22 273.54C138.331 272.998 139.345 272.274 140.22 271.4C140.596 271.012 140.931 270.587 141.22 270.13C141.498 269.689 141.72 269.216 141.88 268.72C142.205 267.697 142.294 266.613 142.14 265.55C142.046 264.957 141.905 264.372 141.72 263.8Z"
            fill="#EFA58B" />
        <path
            d="M157.73 216.22C154.729 213.596 151.441 211.318 147.93 209.43C143.767 207.158 139.389 205.305 134.86 203.9C132.474 203.163 130.023 202.658 127.54 202.39C125.129 202.129 122.702 202.062 120.28 202.19C115.777 202.44 111.317 203.209 106.99 204.48L105.53 204.91C105.06 205.06 104.59 205.21 104.14 205.37C103.24 205.67 102.37 205.98 101.56 206.29C99.9401 206.91 98.5001 207.51 97.3201 208.04C96.1401 208.57 95.2201 209.04 94.5801 209.37C93.9401 209.7 93.5801 209.9 93.5801 209.9C93.5801 209.9 94.2501 211.12 95.5801 213.01C97.3509 215.542 99.3276 217.923 101.49 220.13C104.408 223.127 107.671 225.769 111.21 228C113.187 229.249 115.256 230.346 117.4 231.28C119.664 232.262 122.005 233.054 124.4 233.65C126.87 234.25 129.3 234.75 131.67 235.15C132.86 235.35 134.03 235.53 135.18 235.68C136.33 235.83 137.47 235.95 138.59 236.06C140.82 236.27 142.97 236.38 145 236.4C146 236.4 147 236.4 148 236.35C149 236.3 149.88 236.25 150.77 236.17C152.454 236.033 154.125 235.773 155.77 235.39C156.51 235.21 157.22 235.01 157.88 234.78C158.207 234.667 158.54 234.547 158.88 234.42C159.2 234.3 159.5 234.17 159.79 234.03C160.856 233.551 161.833 232.895 162.68 232.09C163.054 231.73 163.39 231.331 163.68 230.9C163.95 230.472 164.171 230.016 164.34 229.54C164.648 228.491 164.738 227.389 164.604 226.304C164.47 225.219 164.114 224.173 163.56 223.23C162.064 220.555 160.088 218.178 157.73 216.22Z"
            fill="#EFA58B" />
        <path
            d="M209.68 145.17C206.855 142.635 203.775 140.399 200.49 138.5C198.69 137.45 196.78 136.44 194.75 135.5C192.72 134.56 190.61 133.69 188.4 132.9C184.133 131.412 179.637 130.695 175.12 130.78C173.027 130.815 170.94 130.985 168.87 131.29C167.87 131.44 166.87 131.61 165.94 131.8L164.54 132.11L163.2 132.45C161.44 132.91 159.81 133.45 158.36 133.94C156.91 134.43 155.64 134.94 154.6 135.42C152.52 136.34 151.31 137.02 151.31 137.02C151.31 137.02 151.96 138.2 153.22 140.02C153.85 140.94 154.63 142.02 155.56 143.21C156.49 144.4 157.56 145.67 158.82 146.98C161.545 149.917 164.591 152.54 167.9 154.8C171.621 157.364 175.725 159.322 180.06 160.6C184.317 161.839 188.663 162.751 193.06 163.33C195.06 163.59 197.06 163.76 198.89 163.83C200.635 163.926 202.384 163.926 204.13 163.83C205.629 163.739 207.12 163.535 208.59 163.22C209.26 163.06 209.9 162.9 210.5 162.7C211.074 162.52 211.636 162.299 212.18 162.04C213.133 161.614 214 161.017 214.74 160.28C215.062 159.946 215.347 159.577 215.59 159.18C215.832 158.787 216.021 158.363 216.15 157.92C216.619 155.866 216.26 153.71 215.15 151.92C213.721 149.377 211.872 147.094 209.68 145.17Z"
            fill="#EFA58B" />
        <path
            d="M258.51 75.3301C258.02 72.6001 254.74 70.45 249.74 69.26C248.401 68.9505 247.046 68.7202 245.68 68.5701C244.95 68.4801 244.2 68.4101 243.44 68.3601L242.27 68.3H241.08C239.47 68.3 237.8 68.3 236.08 68.47C235.22 68.54 234.34 68.63 233.45 68.74C233.003 68.7933 232.553 68.8532 232.1 68.9199C231.65 68.9799 231.2 69.0599 230.75 69.1399C228.976 69.4489 227.23 69.9039 225.53 70.5C224.7 70.79 223.88 71.1099 223.1 71.4499C222.32 71.7899 221.55 72.17 220.81 72.56C219.382 73.3148 217.993 74.1426 216.65 75.04C215.37 75.91 214.2 76.8199 213.15 77.6899C212.1 78.5599 211.15 79.4199 210.32 80.2099C209.49 81 208.82 81.7401 208.32 82.3601C207.2 83.5901 206.61 84.3601 206.61 84.3601H206.67C205.67 85.1601 204.67 85.96 203.67 86.79L200.8 89.1799C201.3 88.5899 201.8 87.9299 202.43 87.1799C203.22 86.1799 204.09 84.9899 204.96 83.6899C205.4 83.0399 205.84 82.3599 206.28 81.6899C206.72 81.0199 207.14 80.2099 207.58 79.4399C208.483 77.8232 209.288 76.1535 209.99 74.4399C210.35 73.5399 210.71 72.6299 210.99 71.6799C211.27 70.7299 211.61 69.76 211.87 68.75C212.13 67.74 212.36 66.7499 212.54 65.6599C212.72 64.5699 212.89 63.5399 213 62.4399C213.21 60.2399 213.33 58.0699 213.38 55.9399C213.43 53.8099 213.38 51.78 213.31 49.79C213.24 47.8 213.03 45.9001 212.77 44.0801C212.53 42.3697 212.196 40.6738 211.77 39C210.17 32.68 207.36 28.3401 203.53 27.5801C202.564 27.3969 201.569 27.4343 200.62 27.6899C199.577 27.988 198.595 28.469 197.72 29.1101C196.682 29.8525 195.735 30.715 194.9 31.6799C194.424 32.2163 193.979 32.7809 193.57 33.3701C193.14 33.9801 192.71 34.62 192.3 35.31C191.89 36 191.49 36.72 191.1 37.47C190.71 38.22 190.34 39.0201 190 39.8501C189.269 41.5962 188.638 43.3823 188.11 45.1999C187.531 47.1712 187.066 49.1746 186.72 51.1999C186.53 52.2499 186.37 53.3199 186.23 54.4099C186.16 54.9499 186.1 55.5 186.04 56.05C185.98 56.6 185.94 57.17 185.91 57.74C185.757 59.9568 185.811 62.1829 186.07 64.3899C186.19 65.4799 186.36 66.5401 186.57 67.6001C186.78 68.6601 187.02 69.7 187.3 70.72C188.349 74.5032 189.784 78.1689 191.58 81.6599C192.38 83.2399 193.19 84.6599 193.95 85.9399C194.71 87.2199 195.43 88.32 196.05 89.22C196.85 90.4 197.47 91.2199 197.82 91.6799L196.71 92.6201L193.09 95.6899L189.51 98.8101L187.72 100.37L186.82 101.15L185.94 101.94L182.41 105.12C181.23 106.17 180.07 107.25 178.91 108.32L177.51 109.61C177.75 109.07 178.09 108.29 178.51 107.3C178.93 106.31 179.38 105.08 179.86 103.68C180.1 102.98 180.34 102.23 180.58 101.44C180.82 100.65 181.06 99.8099 181.3 98.9499C181.78 97.2199 182.24 95.3401 182.62 93.3301C182.72 92.8301 182.81 92.33 182.9 91.8101C182.99 91.2901 183.07 90.81 183.15 90.24C183.31 89.24 183.45 88.12 183.56 87.02C183.794 84.7479 183.891 82.4637 183.85 80.1799C183.812 77.7841 183.598 75.3945 183.21 73.03C182.81 70.62 182.32 68.26 181.79 66.03C181.26 63.8 180.66 61.6201 180 59.5801C178.865 55.8708 177.35 52.2884 175.48 48.8899C174.123 46.3103 172.275 44.0207 170.04 42.1499C169.241 41.4581 168.298 40.9523 167.279 40.6687C166.261 40.3851 165.192 40.3309 164.15 40.51C163.129 40.7459 162.175 41.2111 161.36 41.8701C160.43 42.6422 159.624 43.5528 158.97 44.5701C158.17 45.7796 157.5 47.0699 156.97 48.4199C156.37 50.0046 155.892 51.6328 155.54 53.29C155.135 55.1605 154.844 57.054 154.67 58.9599C154.49 60.9599 154.41 63.11 154.43 65.31C154.506 70.0156 155.028 74.7033 155.99 79.31C156.953 83.8823 158.641 88.2712 160.99 92.3101C163.025 95.8042 165.407 99.0842 168.1 102.1C170.063 104.307 172.164 106.388 174.39 108.33C175.51 109.33 176.39 109.98 176.78 110.33L175.38 111.62L171.94 114.89C170.79 115.98 169.64 117.07 168.52 118.18C162.187 124.3 156.017 130.58 150.01 137.02L149.72 137.33C149.85 136.68 150.04 135.66 150.23 134.33C150.32 133.73 150.42 133.07 150.51 132.33C150.6 131.59 150.69 130.83 150.78 130.02C150.96 128.38 151.11 126.55 151.21 124.57C151.45 120.192 151.343 115.801 150.89 111.44C150.77 110.28 150.6 109.1 150.4 107.93C150.2 106.76 149.97 105.58 149.7 104.41C149.153 102.052 148.41 99.7445 147.48 97.51C143.71 88.51 138.96 81.3201 134.13 77.0701C132.122 75.16 129.667 73.7846 126.99 73.0701C125.899 72.8016 124.763 72.7725 123.66 72.9849C122.557 73.1972 121.513 73.6459 120.6 74.3C118.538 75.9643 117.046 78.2291 116.33 80.78C115.843 82.3169 115.508 83.8978 115.33 85.5C115.105 87.3041 115.015 89.1224 115.06 90.9399C115.06 91.8899 115.13 92.8701 115.21 93.8701C115.29 94.8701 115.41 95.8699 115.56 96.9199C115.871 99.0576 116.295 101.177 116.83 103.27C117.385 105.476 118.053 107.652 118.83 109.79C119.64 111.98 120.58 114.18 121.63 116.34C123.616 120.351 126.329 123.958 129.63 126.98C132.431 129.548 135.53 131.771 138.86 133.6C140.34 134.42 141.75 135.12 143.02 135.69C144.29 136.26 145.45 136.69 146.42 137.1C147.63 137.55 148.56 137.85 149.07 138C143.39 144.113 137.833 150.34 132.4 156.68C126.753 163.347 121.26 170.11 115.92 176.97C116.01 176.33 116.11 175.52 116.2 174.56C116.565 171.132 116.746 167.687 116.74 164.24C116.74 162.16 116.74 159.92 116.54 157.59C116.46 156.43 116.36 155.24 116.22 154.03C116.08 152.82 115.93 151.61 115.73 150.38C115.336 147.878 114.785 145.403 114.08 142.97C113.73 141.74 113.32 140.51 112.87 139.29C112.42 138.07 111.87 136.89 111.35 135.71C106.86 126.31 101.41 118.71 96.03 114.31C93.7896 112.313 91.0945 110.895 88.18 110.18C87.0055 109.907 85.7854 109.894 84.6054 110.143C83.4255 110.392 82.3143 110.896 81.35 111.62C79.207 113.439 77.6948 115.889 77.03 118.62C76.102 122.157 75.7641 125.823 76.03 129.47C76.3511 133.917 77.1798 138.312 78.5 142.57C78.84 143.71 79.23 144.86 79.65 146.01C80.07 147.16 80.52 148.32 81.01 149.47C81.998 151.82 83.1095 154.117 84.34 156.35C85.535 158.538 86.9489 160.598 88.56 162.5C90.0656 164.272 91.7145 165.918 93.49 167.42C96.6588 170.062 100.126 172.324 103.82 174.16C106.527 175.514 109.328 176.674 112.2 177.63C113.3 177.99 114.2 178.25 114.78 178.41C107.8 187.47 101.093 196.743 94.66 206.23C92.04 210.09 89.4667 213.987 86.94 217.92C86.94 217.6 86.94 217.26 86.99 216.92C87.05 215.63 87.09 214.07 87.08 212.31C87.08 211.43 87.08 210.51 87.08 209.54C87.08 208.57 87.01 207.54 86.95 206.54C86.89 205.54 86.81 204.4 86.71 203.29C86.71 202.74 86.6001 202.17 86.53 201.61C86.46 201.05 86.41 200.47 86.33 199.89C86.04 197.58 85.63 195.19 85.08 192.78C84.8 191.58 84.48 190.37 84.14 189.17C83.8 187.97 83.4 186.78 82.97 185.6C82.1049 183.22 81.0307 180.921 79.76 178.73C77.4022 174.644 74.6633 170.79 71.58 167.22C69.0756 164.281 66.1705 161.71 62.95 159.58C60.5126 157.885 57.6768 156.851 54.72 156.58C54.0919 156.549 53.4623 156.579 52.84 156.67C52.2322 156.75 51.6352 156.898 51.06 157.11C49.8725 157.548 48.7894 158.23 47.88 159.11C46.8823 160.065 46.0568 161.184 45.44 162.42C44.7484 163.806 44.2343 165.275 43.91 166.79C43.5417 168.5 43.3341 170.241 43.29 171.99C43.2443 173.941 43.3446 175.894 43.59 177.83C43.8493 179.941 44.2502 182.033 44.79 184.09C45.3595 186.297 46.0607 188.467 46.89 190.59C47.7526 192.819 48.7374 194.999 49.84 197.12C50.9978 199.315 52.2696 201.448 53.65 203.51C56.2942 207.383 59.696 210.679 63.65 213.2C67.049 215.376 70.7076 217.116 74.54 218.38C77.3743 219.329 80.2757 220.065 83.22 220.58C83.96 220.71 84.6 220.81 85.13 220.88C82.25 225.42 79.4333 230 76.68 234.62C72.0133 242.52 67.5034 250.52 63.15 258.62C63.15 258.16 63.15 257.62 63.15 257.06C63.15 255.8 63.08 254.3 62.96 252.62C62.84 250.94 62.7 249.07 62.46 247.08C62.34 246.08 62.2 245.08 62.03 244.08L61.76 242.5C61.67 241.97 61.57 241.43 61.46 240.9C61.0232 238.693 60.4724 236.51 59.81 234.36C59.1326 232.166 58.2971 230.023 57.31 227.95C56.3291 225.88 55.1324 223.919 53.74 222.1C52.3934 220.358 50.9547 218.689 49.43 217.1C48.0313 215.638 46.5417 214.265 44.97 212.99C42.2869 210.738 39.2446 208.953 35.97 207.71C34.5713 207.207 33.1178 206.871 31.64 206.71C30.306 206.569 28.9585 206.623 27.64 206.87C25.0263 207.391 22.6752 208.805 20.99 210.87C19.1245 213.276 17.9274 216.132 17.52 219.15C17.0224 222.684 17.1442 226.278 17.88 229.77C18.7374 233.683 20.1235 237.461 22 241C24.0242 244.892 26.549 248.503 29.51 251.74C32.397 254.845 35.9779 257.223 39.96 258.68C43.4994 259.992 47.1992 260.823 50.96 261.15C54.5718 261.494 58.2082 261.494 61.82 261.15L60.4 263.87C53.7734 276.623 47.64 289.643 42 302.93V302.78C41.94 302.28 41.87 301.71 41.79 301.08C41.62 299.82 41.39 298.31 41.07 296.62C40.91 295.78 40.73 294.89 40.52 293.96C40.31 293.03 40.1 292.08 39.85 291.1C39.36 289.1 38.75 287.04 38.02 284.92C37.2837 282.742 36.4223 280.609 35.44 278.53C34.94 277.47 34.44 276.42 33.81 275.39C33.52 274.88 33.21 274.39 32.9 273.86C32.59 273.33 32.27 272.86 31.9 272.37C30.5628 270.391 29.0136 268.563 27.28 266.92C20.28 260.34 12.7 256.04 5.92004 254.71C2.82529 254.029 -0.389641 254.122 -3.43998 254.98C-4.81558 255.401 -6.11522 256.04 -7.28999 256.87C-8.47941 257.725 -9.51711 258.772 -10.36 259.97C-11.2228 261.232 -11.8966 262.613 -12.36 264.07C-12.6027 264.826 -12.7931 265.598 -12.93 266.38C-13.0748 267.19 -13.1683 268.008 -13.21 268.83C-13.319 270.556 -13.2486 272.289 -13 274C-12.6995 275.857 -12.2377 277.683 -11.62 279.46C-10.9567 281.363 -10.1476 283.212 -9.19999 284.99C-8.18822 286.877 -7.0419 288.688 -5.76997 290.41C-4.43301 292.213 -2.97995 293.926 -1.41999 295.54C-0.619995 296.36 0.220016 297.16 1.09002 297.94C1.96002 298.72 2.87002 299.49 3.81002 300.23C7.46664 303.01 11.7064 304.925 16.21 305.83C20.32 306.674 24.5181 307.01 28.71 306.83C31.9386 306.71 35.1557 306.376 38.34 305.83C39.34 305.65 40.25 305.48 40.89 305.34C38.2834 311.56 35.78 317.82 33.38 324.12C29.0067 335.653 25.0233 347.32 21.43 359.12C21.3 358.44 21.08 357.41 20.76 356.12C20.61 355.51 20.44 354.85 20.24 354.12C20.04 353.39 19.83 352.65 19.59 351.84C19.1 350.24 18.52 348.47 17.81 346.61C17.63 346.14 17.44 345.67 17.25 345.2C17.06 344.73 16.87 344.2 16.66 343.76C16.25 342.76 15.81 341.82 15.33 340.83C14.85 339.84 14.33 338.83 13.79 337.83C13.51 337.34 13.22 336.83 12.93 336.36C12.64 335.89 12.34 335.36 12.03 334.92C10.7763 332.969 9.35422 331.132 7.78002 329.43C6.1761 327.693 4.37762 326.146 2.42004 324.82C-1.33597 322.289 -5.38569 320.224 -9.64 318.67C-13.3505 317.3 -17.2568 316.533 -21.21 316.4C-22.9629 316.351 -24.7161 316.489 -26.44 316.81C-28.0456 317.103 -29.6079 317.597 -31.09 318.28C-33.9484 319.585 -36.3438 321.725 -37.96 324.42C-38.7697 325.793 -39.3696 327.28 -39.74 328.83C-40.1194 330.421 -40.2875 332.055 -40.24 333.69C-40.1795 335.413 -39.9246 337.124 -39.48 338.79C-39.25 339.65 -38.98 340.52 -38.66 341.38C-38.5 341.81 -38.33 342.24 -38.14 342.67C-37.95 343.1 -37.76 343.53 -37.55 343.95C-36.6716 345.701 -35.6445 347.374 -34.48 348.95C-33.88 349.77 -33.24 350.57 -32.56 351.36C-31.88 352.15 -31.15 352.93 -30.38 353.69C-27.1193 356.874 -23.4141 359.569 -19.38 361.69C-15.1565 363.818 -10.5086 364.97 -5.77998 365.06C-1.31503 365.182 3.14951 364.803 7.53002 363.93C10.9297 363.272 14.286 362.408 17.58 361.34C18.82 360.93 19.82 360.58 20.51 360.34L21.06 360.13C18.8934 367.303 16.8667 374.52 14.98 381.78C14.44 383.78 13.98 385.78 13.46 387.78L12.71 390.78C12.58 391.28 12.47 391.78 12.35 392.29L12 394L11.3 397L10.95 398.51L10.77 399.27L10.61 400.03L9.29003 406.1C9.10003 407 8.92004 407.91 8.73003 408.81L8.59002 408.47C8.31002 407.82 7.88001 406.87 7.33001 405.71C6.78001 404.55 6.07003 403.15 5.23003 401.6C4.80003 400.82 4.34002 400.01 3.84002 399.16L3.07003 397.87L2.25002 396.54C-0.272598 392.509 -3.1615 388.72 -6.37999 385.22C-8.17309 383.286 -10.0977 381.479 -12.14 379.81C-12.66 379.38 -13.2 378.97 -13.74 378.56C-14.28 378.15 -14.84 377.75 -15.41 377.37C-16.54 376.59 -17.72 375.86 -18.94 375.18C-28.75 369.75 -38.57 366.5 -46.61 365.95C-50.1489 365.602 -53.7213 366.011 -57.09 367.15C-57.7829 367.428 -58.4518 367.762 -59.09 368.15C-59.713 368.493 -60.2993 368.898 -60.84 369.36C-61.898 370.243 -62.7656 371.332 -63.39 372.56C-64.013 373.81 -64.3899 375.168 -64.5 376.56C-64.589 378.09 -64.444 379.624 -64.07 381.11C-63.6577 382.792 -63.0502 384.419 -62.26 385.96C-61.3619 387.715 -60.3112 389.389 -59.12 390.96C-57.7901 392.703 -56.3434 394.353 -54.79 395.9C-53.98 396.7 -53.11 397.51 -52.2 398.3C-51.29 399.09 -50.34 399.87 -49.35 400.63C-47.2988 402.206 -45.1622 403.669 -42.95 405.01C-40.6011 406.423 -38.1813 407.715 -35.7 408.88C-30.7672 411.116 -25.4804 412.47 -20.08 412.88C-15.2748 413.259 -10.4436 413.152 -5.65998 412.56C-0.829388 411.997 3.94449 411.023 8.61001 409.65C7.19668 416.59 5.91003 423.553 4.75002 430.54C2.95002 441.56 1.4967 452.637 0.390038 463.77L0.0900192 466.86C-0.00997925 467.86 -0.109978 468.92 -0.18998 469.95L-0.699993 476.15C-0.707951 476.267 -0.669216 476.382 -0.592327 476.47C-0.515434 476.558 -0.406677 476.612 -0.289986 476.62C-0.173294 476.628 -0.0582123 476.589 0.0299301 476.512C0.118073 476.436 0.172058 476.327 0.180016 476.21C0.180016 475.95 0.180016 475.69 0.240013 475.43C0.390015 473.95 0.530029 472.43 0.660027 470.97L0.840019 468.74L1.05001 466.51C1.19001 465.02 1.32001 463.51 1.46001 462.05L1.56002 460.93L1.68002 459.82L1.93002 457.59C3.33002 445.03 5.17335 432.53 7.46001 420.09L8.07003 416.86C8.27003 415.78 8.47002 414.69 8.69003 413.62L10 407.16L11.4 400.72C11.52 400.18 11.63 399.64 11.75 399.11L12 398C12.55 398.43 13.67 399.27 15.29 400.36C18.508 402.49 21.8693 404.394 25.35 406.06C30.1161 408.359 35.0923 410.194 40.21 411.54C46.0848 413.084 52.1356 413.858 58.21 413.84C61.38 413.84 64.47 413.69 67.44 413.48C68.92 413.37 70.38 413.25 71.8 413.1C73.22 412.95 74.63 412.79 75.99 412.61C78.72 412.25 81.3 411.81 83.71 411.3C84.91 411.05 86.07 410.78 87.18 410.5C87.74 410.36 88.28 410.21 88.81 410.06C89.34 409.91 89.87 409.76 90.39 409.61C92.2598 409.058 94.0934 408.39 95.88 407.61C96.69 407.24 97.43 406.86 98.12 406.47L99.12 405.87C99.43 405.66 99.73 405.46 100.01 405.25C102.28 403.58 103.48 401.71 103.43 399.66C103.38 397.61 102.09 395.58 99.76 393.66C98.4345 392.585 97.0155 391.632 95.52 390.81C93.7407 389.759 91.897 388.82 90 388C85.298 386.149 80.4427 384.713 75.49 383.71C69.6176 382.496 63.6596 381.74 57.67 381.45C54.5806 381.299 51.484 381.396 48.41 381.74C46.92 381.9 45.41 382.12 44 382.39C42.59 382.66 41.12 382.96 39.75 383.32C37.0957 384 34.4844 384.839 31.93 385.83C30.7 386.31 29.51 386.83 28.37 387.31C27.23 387.79 26.15 388.31 25.11 388.88C21.6811 390.619 18.3943 392.625 15.28 394.88C13.86 395.88 12.83 396.71 12.28 397.19L12.94 394.34C14.94 385.787 17.1533 377.283 19.58 368.83C21.3467 362.61 23.23 356.43 25.23 350.29C25.66 350.75 26.48 351.62 27.68 352.72C28.59 353.56 29.68 354.54 31.05 355.57C32.5288 356.713 34.064 357.781 35.65 358.77C39.548 361.216 43.7418 363.155 48.13 364.54C53.334 366.195 58.7696 367.005 64.23 366.94C69.8193 366.884 75.3985 366.453 80.93 365.65C83.53 365.27 86.01 364.81 88.34 364.28C89.51 364.02 90.64 363.74 91.73 363.45C92.82 363.16 93.88 362.85 94.89 362.52C98.3785 361.499 101.698 359.969 104.74 357.98C105.874 357.221 106.886 356.294 107.74 355.23C108.096 354.769 108.404 354.273 108.66 353.75C108.9 353.258 109.075 352.737 109.18 352.2C109.383 351.145 109.304 350.055 108.95 349.04C108.86 348.78 108.75 348.52 108.63 348.26C108.51 348 108.38 347.74 108.23 347.48C107.906 346.937 107.538 346.422 107.13 345.94C104.925 343.534 102.272 341.581 99.32 340.19C95.3676 338.215 91.209 336.682 86.92 335.62C81.7053 334.297 76.3792 333.46 71.01 333.12C68.1422 332.941 65.2642 333.018 62.41 333.35C59.5704 333.695 56.7596 334.247 54 335C52.65 335.36 51.32 335.76 50 336.2C48.68 336.64 47.41 337.1 46.18 337.59C43.71 338.59 41.37 339.67 39.18 340.77C36.99 341.87 35.04 343 33.29 344.07C31.54 345.14 30.01 346.15 28.75 347.02C27.49 347.89 26.51 348.62 25.84 349.14L25.44 349.45C29.7667 336.183 34.5834 323.087 39.89 310.16C40.5567 308.52 41.24 306.883 41.94 305.25L42.18 305.19V304.77C43.6067 301.37 45.0767 297.987 46.59 294.62L46.92 295.07C47.33 295.61 47.92 296.37 48.73 297.3C50.895 299.771 53.2705 302.05 55.83 304.11C59.3191 306.91 63.1456 309.262 67.22 311.11C72.0047 313.287 77.1112 314.671 82.34 315.21C85.14 315.49 87.89 315.66 90.56 315.74C91.9 315.74 93.21 315.79 94.56 315.79H96.49L98.38 315.73C100.89 315.62 103.29 315.43 105.56 315.16C106.69 315.02 107.79 314.86 108.85 314.69C109.91 314.52 110.94 314.31 111.93 314.1C113.777 313.709 115.597 313.201 117.38 312.58C118.878 312.047 120.324 311.377 121.7 310.58C122.841 309.939 123.874 309.122 124.76 308.16C125.142 307.734 125.477 307.268 125.76 306.77C126.032 306.302 126.243 305.801 126.39 305.28C126.98 303.21 126.39 300.94 124.9 298.62C122.986 295.868 120.579 293.495 117.8 291.62C114.191 289.088 110.302 286.981 106.21 285.34C101.378 283.364 96.3497 281.906 91.21 280.99C85.8278 280.094 80.3268 280.192 74.98 281.28C73.68 281.53 72.38 281.82 71.12 282.16C69.86 282.5 68.62 282.87 67.41 283.27C66.2 283.67 65.03 284.1 63.88 284.54C62.73 284.98 61.63 285.46 60.57 285.94C58.46 286.94 56.51 287.89 54.78 288.84C53.91 289.32 53.1 289.79 52.35 290.23C51.6 290.67 50.91 291.11 50.29 291.51C48.81 292.51 47.71 293.24 47.06 293.71C52.0067 282.65 57.31 271.76 62.97 261.04H63.25V260.76C63.25 260.69 63.25 260.6 63.25 260.5C65.0834 256.833 67 253.22 69 249.66C74.42 239.9 80.1267 230.303 86.12 220.87L86.79 220.93V220.65C86.79 220.46 86.79 220.19 86.86 219.83C86.86 219.77 86.86 219.7 86.86 219.64C92.44 210.9 98.2567 202.317 104.31 193.89C110.177 185.71 116.27 177.69 122.59 169.83C122.93 170.43 123.49 171.37 124.28 172.57C126.148 175.407 128.217 178.107 130.47 180.65C133.532 184.123 136.936 187.279 140.63 190.07C144.856 193.269 149.508 195.864 154.45 197.78C155.74 198.27 157.02 198.78 158.29 199.17L160.18 199.81L162.07 200.41C164.56 201.18 166.99 201.84 169.33 202.41C171.67 202.98 173.91 203.41 176.04 203.72C178.17 204.03 180.21 204.27 182.04 204.37C183.765 204.492 185.495 204.492 187.22 204.37C188.644 204.271 190.052 204.017 191.42 203.61C192.504 203.284 193.52 202.766 194.42 202.08C195.207 201.481 195.816 200.679 196.18 199.76C196.89 197.94 196.56 195.71 195.38 193.25C193.826 190.297 191.799 187.618 189.38 185.32C186.24 182.215 182.804 179.425 179.12 176.99C177.12 175.63 174.93 174.31 172.64 172.99C170.35 171.67 167.93 170.52 165.41 169.4C162.932 168.308 160.366 167.429 157.74 166.77C156.46 166.45 155.17 166.18 153.9 165.97C152.63 165.76 151.36 165.59 150.11 165.47C147.684 165.243 145.246 165.162 142.81 165.23C141.63 165.23 140.49 165.33 139.38 165.42C138.27 165.51 137.2 165.63 136.16 165.76C135.12 165.89 134.16 166.05 133.16 166.22C132.16 166.39 131.29 166.56 130.44 166.75C128.74 167.12 127.24 167.52 126 167.87C124.94 168.18 124.07 168.46 123.42 168.68C129.42 161.213 135.64 153.9 142.08 146.74C147.6 140.58 153.267 134.543 159.08 128.63C164.893 122.717 170.867 116.933 177 111.28C179.32 109.107 181.653 106.96 184 104.84C184.33 105.27 185 106.08 185.87 107.14C187.746 109.281 189.771 111.286 191.93 113.14C194.849 115.664 198.019 117.882 201.39 119.76C203.264 120.799 205.209 121.704 207.21 122.47C209.299 123.28 211.449 123.922 213.64 124.39C215.88 124.857 218.067 125.237 220.2 125.53L221.78 125.73L223.35 125.91C224.35 126.02 225.35 126.1 226.35 126.16C228.35 126.29 230.23 126.33 232.01 126.29C233.682 126.26 235.351 126.144 237.01 125.94C238.447 125.762 239.867 125.474 241.26 125.08C242.431 124.763 243.562 124.314 244.63 123.74C245.518 123.262 246.314 122.628 246.98 121.87C247.58 121.191 248.003 120.373 248.21 119.49C248.547 117.477 248.088 115.411 246.93 113.73C245.407 111.352 243.477 109.26 241.23 107.55C238.348 105.289 235.222 103.357 231.91 101.79C228.009 99.9229 223.933 98.4488 219.74 97.3899C215.446 96.3244 210.998 96.0266 206.6 96.51C205.6 96.61 204.51 96.7499 203.49 96.9299C202.98 97.0099 202.49 97.0999 201.97 97.1999L201.23 97.3601L200.49 97.53C198.56 97.99 196.72 98.5301 195.02 99.1201C194.17 99.4201 193.34 99.72 192.57 100.03C191.8 100.34 191.07 100.65 190.38 100.96C189 101.57 187.79 102.16 186.8 102.68C186.35 102.92 185.95 103.13 185.6 103.33C190.987 98.5101 196.477 93.7999 202.07 89.1999C203.85 87.7099 205.66 86.25 207.47 84.81C207.85 84.98 208.32 85.1799 208.89 85.4099C210.973 86.2573 213.103 86.982 215.27 87.5801C216.59 87.9401 218.02 88.2801 219.53 88.5801C221.04 88.8801 222.65 89.11 224.3 89.27C225.995 89.4276 227.698 89.4843 229.4 89.4399C230.27 89.4399 231.14 89.35 232.03 89.27C232.92 89.19 233.8 89.0699 234.69 88.9099C236.47 88.5999 238.18 88.2301 239.82 87.8201C240.63 87.6101 241.45 87.4099 242.23 87.1799C243.01 86.9499 243.78 86.73 244.52 86.49C246 86 247.38 85.4899 248.67 84.9299C249.887 84.4224 251.076 83.8482 252.23 83.2099C253.221 82.6614 254.167 82.0363 255.06 81.3401C255.823 80.757 256.515 80.0857 257.12 79.3401C257.632 78.8145 258.021 78.1827 258.262 77.4897C258.502 76.7967 258.587 76.0595 258.51 75.3301Z"
            fill="#EFA58B" />
        <path
            d="M226.82 268.77C230.406 267.31 234.036 265.953 237.71 264.7C241.03 274.09 253.09 279.32 262.37 282.79C274.21 287.23 287.37 286.11 299.69 288.99C321.26 293.99 338.35 310.8 359.47 317.49C330.422 285.121 290.029 265.175 246.67 261.79C254.21 259.47 261.84 257.44 269.46 255.5C271.96 254.86 274.46 254.32 277.06 253.79C292.06 253.99 307.46 254.37 320.98 260.74C329.22 264.63 336.34 270.58 344.41 274.83C359.273 282.584 376.56 284.287 392.65 279.58C382.53 282.28 371.65 280.03 362.09 275.74C352.53 271.45 344 265.24 335.2 259.56C326.4 253.88 317.07 248.62 306.8 246.56C297.8 244.79 287.92 245.83 280.29 250.72C289.643 244.915 300.013 240.938 310.85 239C320.55 237.28 330.58 237.21 340.01 234.38C348.828 231.612 356.761 226.57 363.009 219.76C369.257 212.95 373.6 204.613 375.6 195.59C370.974 202.775 364.907 208.922 357.782 213.64C350.657 218.358 342.63 221.545 334.21 223C322.48 224.95 310.13 223.49 298.91 227.45C293.384 229.462 288.388 232.703 284.298 236.928C280.208 241.154 277.131 246.252 275.3 251.84C262.842 254.575 250.541 257.98 238.45 262.04C250 254.9 259.02 243.95 269.65 235.44L305 207.12C314 199.91 323.06 192.65 333.24 187.23C343.42 181.81 354.89 178.28 366.39 179.08L368.13 177.08C340.093 178.853 312.974 187.762 289.347 202.96C265.72 218.158 246.369 239.142 233.13 263.92C225.19 266.8 217.363 269.947 209.65 273.36C215.651 268.894 220.508 263.068 223.82 256.36C229.03 246.27 231.65 234.7 234.19 223.23C236.73 211.76 239.27 200.17 244.33 189.98C250.706 177.082 261.248 166.712 274.25 160.55C261.03 161.31 251.59 171.19 243.97 181.17C222.5 209.26 193.06 248.27 198.55 278.46L194.8 280.27C181.007 287.011 167.695 294.696 154.96 303.27C161.9 298.43 166.57 290.48 169.67 282.45C173.42 272.78 175.53 262.45 180.32 253.23C183.32 247.43 187.32 242.23 191.32 237.04L215.23 206.04L175.34 239.16C169.34 244.16 163.16 249.33 159.28 256.16C154.51 264.55 153.7 274.55 153 284.16C152.48 291.22 151.966 298.287 151.46 305.36C152.374 304.908 153.263 304.404 154.12 303.85C153.22 304.46 152.32 305.07 151.43 305.69V305.36C151.07 305.54 150.7 305.71 150.34 305.87L150.47 306.34C142.136 312.127 134.076 318.267 126.29 324.76C131.35 315.22 132.29 303.76 132.65 292.76C133.03 280.02 132.91 266.76 138.4 255.25C148.22 234.62 173.22 225.12 184.67 205.35C181.53 210.24 176.46 213.58 171.21 216.07C165.96 218.56 160.38 220.33 155.21 222.92C140.21 230.43 129.13 244.49 122.58 259.97C116.03 275.45 113.58 292.34 112.33 309.1C112.02 313.32 111.79 317.66 113.07 321.7C114.22 325.29 116.83 328.62 120.33 329.85C109.588 339.164 99.4102 349.108 89.8497 359.63C89.2897 351.14 89.4097 342.95 92.0997 334.85C95.0997 325.85 99.8797 317.61 102.42 308.53C105.78 296.53 105.01 283.85 105.97 271.43C106.93 259.01 110.1 245.9 119.32 237.53C102.133 252.753 89.8423 272.727 83.9997 294.93C78.2697 316.86 76.5397 344.85 86.0597 363.93C80.1664 370.65 74.5464 377.6 69.1997 384.78C71.5397 378.62 71.5197 371.69 71.4897 365.02C71.4897 353.4 67.1497 342.24 65.4897 330.73C63.4897 316.63 65.3997 302.18 69.2897 288.47C73.1797 274.76 78.9597 261.67 84.7197 248.64C67.5271 266.972 56.3629 290.131 52.7297 315C49.1997 339.65 54.6597 368.36 64.7897 390.8C63.4964 392.62 62.2297 394.45 60.9897 396.29C58.4697 400.017 56.023 403.787 53.6497 407.6C49.9682 392.544 45.1613 377.786 39.2697 363.45C33.9097 350.45 27.6397 337.69 24.0297 324.07C20.4197 310.45 19.6797 295.54 25.2697 282.62C13.3099 303.707 9.30891 328.384 13.9934 352.17C18.6779 375.956 31.7371 397.273 50.7997 412.25C46.7997 418.87 43.0364 425.607 39.5097 432.46C19.8197 424.46 10.7497 404.8 1.5597 387.32C-7.6303 369.84 -10.7703 350.02 -13.4403 330.44C-11.4403 350.19 -20.9603 370.38 -17.3403 390.05C-13.8603 408.88 1.29969 423.78 18.3597 432.48C22.0297 434.36 25.6797 436.54 29.7497 437.2C32.4697 437.64 34.7497 438.2 37.1897 437.1C30.7801 449.945 25.1532 463.166 20.3397 476.69C9.38937 507.307 2.76221 539.302 0.6497 571.75C0.3997 575.75 0.259712 579.75 0.0997124 583.75C0.0297127 585.23 2.3297 585.62 2.3997 584.12C3.0597 568.01 4.25972 551.87 7.16972 535.99C9.99086 520.064 13.8287 504.335 18.6597 488.9C25.2079 468.479 33.5748 448.686 43.6597 429.76C52.0421 449.477 65.8055 466.436 83.3753 478.697C100.945 490.958 121.611 498.025 143.01 499.09C126.446 494.323 111.572 484.962 100.11 472.09C91.7597 462.69 85.4197 451.61 76.8297 442.42C68.5497 433.56 57.2397 426.32 45.2097 426.81C48.2497 421.217 51.4364 415.7 54.7697 410.26C68.9897 412.53 77.7697 421.87 84.8997 432.49C92.2297 443.36 98.8997 455.06 109.07 463.31C125.8 476.85 149.92 479.31 165.28 494.37C153.76 481.37 142.696 467.987 132.09 454.22C122.33 441.55 112.81 428.39 100.19 418.56C88.1897 409.19 72.6097 403.1 57.6697 405.56C61.5164 399.5 65.5597 393.6 69.7997 387.86C71.0497 393.17 75.1997 397.68 79.6197 400.95C84.4297 404.5 90.0897 406.69 95.6697 408.84L155.42 431.84C165.5 435.73 175.6 439.62 185.22 444.52C208.374 456.393 228.226 473.819 243 495.24C212.691 444.715 165.077 406.905 109 388.83C97.4197 385.15 84.9997 380.68 73.2597 383.28C79.9264 374.56 87.0097 366.18 94.5097 358.14C121.02 385.86 159.37 408.58 194 424.89C205 430.07 216.39 434.65 226.5 441.42C237.99 449.12 247.5 459.42 256.82 469.58C249.146 449.437 237.12 431.238 221.6 416.28C211.77 406.82 200.66 398.8 189.53 390.92C175.77 381.19 161.79 371.56 146.36 364.8C131.25 358.18 114.18 352.52 97.8297 354.6C102.876 349.3 108.08 344.127 113.44 339.08C118.56 334.26 123.853 329.61 129.32 325.13L127.56 327.03C133.62 339.8 148.12 348.16 160.97 354.03C173.82 359.9 187.56 364.21 199.15 372.32C207.56 378.2 214.54 385.91 222.76 392.07C240.29 405.23 262.29 410.61 283.62 415.68C267.2 409.68 253.33 398.29 240.62 386.23C227.91 374.17 216.09 361.15 202.03 350.75C181.16 335.32 156.61 319.88 131.46 323.34C137.82 318.207 144.37 313.313 151.11 308.66L151.16 308.86V308.62C153.666 306.88 156.203 305.17 158.77 303.49C161.35 310.6 170.57 317.09 176.32 322.84C183.24 329.78 191.97 335.17 199.58 341.34C214.87 353.751 232.58 362.838 251.58 368.02C269.14 372.8 287.81 374.13 305.58 370.36C286.45 373.5 267.35 364.55 251.58 353.36C235.81 342.17 221.7 328.36 204.47 319.42C190.74 312.34 176.88 305.17 161.87 301.54C169.75 296.54 177.87 291.77 186.03 287.36L186.57 287.08C198.22 304.19 218.34 314.77 238.85 317.96C248.6 319.48 258.64 319.09 268.26 321.35C278.31 323.71 287.44 328.86 296.46 333.9C305.48 338.94 314.69 343.99 324.8 346.1C334.91 348.21 346.21 347 354.24 340.52C342.92 342.97 331.05 339.37 320.89 333.8C310.73 328.23 301.75 320.8 291.89 314.59C262.35 296.01 223.63 283.05 191.89 284.28C196.46 281.95 201.07 279.73 205.7 277.54C212.65 274.26 219.79 271.63 226.82 268.77Z"
            fill="#A35745" />
        <g style="mix-blend-mode:multiply" opacity="0.05">
            <path
                d="M1116.07 326.15C1136.28 324.1 1156.18 329.24 1175.52 334.44C1230.72 349.107 1285.91 363.773 1341.09 378.44C1383.57 389.74 1429.72 400.85 1471.59 384.27C1523.77 363.61 1551.33 307.67 1573.83 256.79C1486.72 265.75 1399.6 274.717 1312.45 283.69C1314.11 269.38 1298.67 258.82 1284.17 258.29C1269.67 257.76 1255.6 263.88 1241.24 266.8C1226.88 269.72 1209.85 268.47 1201.56 256.97C1189.88 240.76 1205.62 215.7 1225.56 209.76C1245.5 203.82 1266.24 210.57 1285.56 216.76C1341.56 234.96 1401.76 249.56 1460.37 235.97C1518.98 222.38 1574.37 172.25 1574.26 113.42C1524.01 179.67 1425.93 205.91 1352.26 172.78C1365.34 149.04 1394.62 138.78 1421.44 135.32C1448.26 131.86 1476.22 132.66 1501.25 121.79C1550.25 100.56 1570.86 31.5999 1540.58 -9.76009C1499.34 -6.08009 1476.37 -55.3201 1438.18 -69.5001C1406.7 -81.2201 1369.18 -66.1901 1344.44 -42.0501C1319.7 -17.9101 1304.73 13.9498 1289.44 44.6698C1283.52 56.4298 1277.24 68.5099 1267.15 77.1898C1257.06 85.8698 1242.09 90.4299 1230.52 84.7699C1213.66 76.5099 1213.17 51.0299 1224.64 35.4599C1234.56 22.0999 1249.64 5.91986 1257.57 -5.32014L1260.42 -7.32014C1292.91 -52.955 1334.19 -91.6416 1381.83 -121.11C1350.65 -154.06 1295.58 -162.23 1253.83 -140.11C1226.46 -125.61 1206.18 -100.62 1189.6 -74.69C1160.94 -29.7766 1141.16 20.2162 1131.33 72.58C1130.75 76.1983 1129.56 79.6895 1127.79 82.8998L1051.73 136.36C1047.73 133.15 1048.26 120.12 1048.02 108.65C1047.71 92.1398 1054.82 76.0999 1062.44 61.0399C1106.71 -26.155 1170.06 -102.251 1247.79 -161.59C1206.28 -180.54 1159.15 -199.79 1114.99 -183.7C1113.05 -182.97 1111.14 -182.27 1109.21 -181.41C1100.25 -177.369 1091.85 -172.197 1084.21 -166.02C1071.35 -155.81 1060.21 -143.27 1050.21 -130.22C1001.98 -67.0201 975.4 11.6298 976.15 89.1298C976.4 112.04 976.51 139.87 956.55 152.58C934.55 166.47 904.75 147.47 899.14 123.06C893.53 98.65 904.24 73.01 915.39 49.85C961.725 -46.4074 1019.5 -136.726 1087.46 -219.15C1053.91 -224.56 1018.35 -229.79 986.07 -217.15C959.28 -206.68 938.26 -185.04 920.54 -162.36C878.47 -108.63 849.68 -45.11 837.46 20.79C830.93 55.94 826.71 96.0598 797.83 118.41C794.48 16.2198 830.55 -88.2801 897.14 -169.47C865.14 -168.8 832.41 -168 801.68 -157.7C770.95 -147.4 741.92 -125.82 730.96 -95.7C725.48 -80.64 724.74 -64.5801 724.13 -48.8001C721.023 28.0599 717.89 104.897 714.73 181.71C714.17 194.96 709.48 212.6 696.07 213.03C687.93 213.34 681.89 206.45 677.37 200.03C619.85 117.32 623.9 -3.85008 686.97 -87.5101C654.77 -76.1001 622.2 -64.51 593.2 -46.18C564.2 -27.85 538.71 -1.70003 527.83 30.3C514.57 69.3 524.58 111.61 541.55 147.98C558.52 184.35 582.24 217.18 598.24 253.98C554.43 241.38 516.92 210.98 496.11 171.22C475.3 131.46 471.41 82.8799 485.6 39.05C433.74 73.14 403.08 136.86 409.81 196.53C416.54 256.2 460.31 308.8 518 326.53C461 324.94 407.08 293.07 379.76 244.75C390.01 289.17 402.33 334.75 431.76 369.2C461.19 403.65 512.53 423.71 555.69 404.65C574.26 396.43 589.38 382.12 605.69 369.94C622 357.76 641.11 347.02 661.03 348.2C680.64 349.4 699.41 366.53 695.76 385.62C634.76 382.91 581.32 439.97 569.32 499.75C557.26 559.84 577 620.31 600.93 675.35C620.85 721.1 644.47 766.35 680.45 800.84C716.43 835.33 766.56 858.4 817.72 852.39C752.83 818.9 699.72 764.57 668.18 699.39C660.99 684.49 654.77 668.39 656.18 651.77C657.59 635.15 668.49 617.67 685.08 613.48C704.08 608.66 722.63 622.48 730.76 639.53C738.89 656.58 739.6 676.13 742.7 694.84C754.31 763.98 803.26 824.49 868.7 850.44C934.14 876.39 1013.97 867.11 1074.1 826.44C947.1 796.52 842.82 695.32 810.4 570.63C851.66 592.97 868.48 641.76 898.28 677.45C925.05 709.45 962.34 730.88 998.8 751.66C1041.89 776.16 1087.36 801.36 1137.9 802.03C1212 803.03 1277.25 751.88 1335.04 703.62C1345.7 694.73 1357.59 682.34 1353.77 669.51C1350.07 657.04 1334.24 653.66 1321.05 652.25C1270.6 646.97 1220.16 641.683 1169.74 636.39C1118.86 631.08 1067.39 625.6 1019.67 608.59C971.95 591.58 927.67 561.59 904.07 517.46C958.63 556.39 1023.22 581.94 1090.85 591.37C1137.79 597.9 1185.85 596.76 1233.39 599.23C1277.39 601.44 1321.51 606.81 1365.61 601.61C1393.81 598.29 1422.24 590.38 1446.06 574.29C1499.4 538.29 1518.69 471.02 1533.87 409.69C1416.21 417.503 1298.54 425.35 1180.87 433.23C1152.8 435.05 1123.39 436.69 1098.45 425.01C1073.51 413.33 1055.52 383.46 1066.9 357.73C1074.83 339.13 1095.82 328.23 1116.07 326.15ZM678.9 315.15C676.03 321.3 668.35 323.83 661.64 323.9C647.26 324.1 633.43 315.9 627.09 303.35L630.88 297.75C642.38 288.99 659.27 288.2 670.88 295.84C677.23 300.07 682.15 308.11 678.9 315.2V315.15ZM654.15 483.58C644.431 502.973 640.719 524.825 643.49 546.34C644.49 554.22 646.49 562.04 645.3 569.94C644.11 577.84 638.63 586.05 630.63 587.39C625.06 588.39 619.47 585.74 615.73 581.67C611.99 577.6 609.92 572.4 608.33 567.12C597.33 529.62 611.81 485.12 643.48 459.67L648.69 458.53C654.08 456.72 659.28 462.28 659.47 467.83C659.66 473.38 656.68 478.59 654.15 483.63V483.58ZM797.15 215.58C803.09 207.29 814.72 202.25 823.83 206.26C831.64 209.67 835.48 218.15 838.18 226.18C841.27 235.18 843.78 245.1 840.58 254.3C836.52 266.13 822.58 273.97 810.41 271.42C798.24 268.87 789.6 256.56 790.97 244.26L790.62 244.51C789.93 234.66 791.23 224 797.18 215.65L797.15 215.58ZM798.77 512.38C798.4 518.74 795.07 525.38 789.25 528.15C784.15 530.55 778.1 529.76 773.25 527.15C768.4 524.54 764.77 520.48 761.4 516.28C747.272 498.541 737.589 477.681 733.16 455.44L732.9 454.44C740.06 447.94 751.26 447.5 759.9 451.19C768.54 454.88 775.05 462.1 780.48 469.63C786.016 477.304 790.709 485.551 794.48 494.23C797 500.07 799.16 506.17 798.8 512.45L798.77 512.38ZM841.06 454.38C839.39 460.38 835.13 466.69 828.94 467C821.76 467.35 817.55 459.75 814.94 453.25C811 443.25 807.03 433.18 803.05 423.2L795.28 408.05C808.38 404.77 822.81 408.63 831.96 417.9C841.11 427.17 844.74 441.61 841.09 454.47L841.06 454.38ZM962.45 449.71C958.72 454.71 951.94 456.95 945.73 456.6C939.52 456.25 933.84 453.66 928.49 450.69C902.424 436.271 882.792 412.508 873.55 384.19L872.98 384.33C870.79 377.68 874.79 369.85 880.98 365.95C887.17 362.05 894.85 361.51 901.87 362.61C916.2 364.93 928.63 373.61 937.87 384.4C947.11 395.19 953.68 408.01 960.06 420.76C964.54 429.91 968.82 441.42 962.48 449.8L962.45 449.71ZM1004.59 187.17L1008.99 190.49C1008.64 185.18 1008.29 179.68 1010.13 174.61C1011.97 169.54 1016.5 164.87 1021.9 164.66C1029.42 164.32 1034.24 172.03 1036.65 178.99C1040.16 188.99 1042.01 200.37 1037.44 210.28C1032.87 220.19 1019.86 227.03 1010.63 221.84C1005.1 218.72 1002.25 212.35 1001.84 206.02C1001.43 199.69 1003 193.42 1004.62 187.26L1004.59 187.17ZM980.3 326.42C981.05 314.09 992.17 303.88 1004.19 300.03C1016.21 296.18 1029.07 297.5 1041.41 299.11C1048.15 300.01 1055.96 301.75 1058.65 307.91C1061.76 314.91 1056.14 322.91 1050.11 328.19C1040.5 336.58 1028.56 342.77 1015.97 343.68C1003.38 344.59 990.3 339.56 983.51 329.39L980.3 326.42ZM1099.04 493.72C1122.89 506.387 1146.75 519.09 1170.61 531.83C1143.02 539.53 1115.46 547.197 1087.94 554.83C1074.37 558.65 1060.2 562.5 1046.52 560.31C1030.52 557.75 1017.07 547.13 1007.76 534.31C998.45 521.49 992.76 506.44 987.12 491.56L986.05 492.67C981.29 481.51 990.7 467.83 1002.56 463.57C1014.42 459.31 1027.39 462.08 1039.01 465.95C1060.08 473 1079.67 483.42 1099.07 493.81L1099.04 493.72Z"
                fill="#A35745" />
        </g>
        <path
            d="M1509.29 26.3502C1512.08 36.6302 1515.36 47.1701 1522.53 54.9501C1529.7 62.7301 1541.88 66.95 1551.79 62.13C1556.05 60.04 1559.45 56.5702 1563.14 53.5802C1566.83 50.5902 1571.21 47.9201 1575.87 48.0101C1580.53 48.1001 1585 51.95 1584.31 56.44C1570.05 56.3501 1558.07 70.1501 1555.8 84.2201C1553.53 98.2901 1558.66 112.3 1564.74 124.94C1569.74 135.45 1575.74 145.8 1584.42 153.54C1593.1 161.28 1605.03 166.22 1616.93 164.36C1601.45 157.091 1588.73 145.028 1580.65 129.96C1578.84 126.54 1577.25 122.85 1577.42 118.96C1577.59 115.07 1579.99 110.89 1583.83 109.77C1588.21 108.47 1592.68 111.54 1594.73 115.44C1596.78 119.34 1597.12 123.91 1598.01 128.26C1599.74 136.259 1603.47 143.687 1608.86 149.848C1614.24 156.008 1621.1 160.699 1628.8 163.48C1644.3 168.96 1662.87 166.08 1676.55 156.06C1646.64 150.19 1621.38 127.49 1612.71 98.66C1622.54 103.51 1626.9 114.75 1634.18 122.82C1640.71 130.07 1649.61 134.73 1658.31 139.26C1668.59 144.6 1679.43 150.08 1691.24 149.79C1708.55 149.36 1723.33 136.84 1736.4 125.06C1738.81 122.89 1741.48 119.9 1740.47 116.93C1739.46 113.96 1735.77 113.4 1732.68 113.19L1697.2 110.83C1685.28 110.04 1673.2 109.22 1661.91 105.67C1650.62 102.12 1640.01 95.51 1634.11 85.41C1647.4 94.0883 1662.58 99.4391 1678.38 101.01C1689.38 102.12 1700.61 101.43 1711.74 101.59C1722.04 101.71 1732.38 102.59 1742.64 100.97C1749.19 99.9701 1755.76 97.85 1761.18 93.88C1773.32 85.01 1777.23 69.12 1780.23 54.66C1752.82 57.5334 1725.41 60.4101 1698 63.2901C1691.46 63.9601 1684.61 64.6102 1678.68 62.1002C1672.75 59.5902 1668.28 52.78 1670.68 46.67C1672.43 42.24 1677.24 39.5102 1681.95 38.8502C1686.66 38.1902 1691.34 39.2101 1695.95 40.2601C1708.96 43.1935 1721.96 46.1302 1734.95 49.0702C1744.95 51.3302 1755.84 53.5201 1765.47 49.2701C1777.47 43.9901 1783.42 30.6802 1788.22 18.6002L1727.42 27.2001C1727.68 23.8401 1723.98 21.5101 1720.59 21.5101C1717.2 21.5101 1713.97 23.07 1710.59 23.88C1707.21 24.69 1703.28 24.5501 1701.24 21.9401C1698.37 18.2601 1701.82 12.2601 1706.43 10.7001C1711.04 9.14007 1715.93 10.5302 1720.5 11.8102C1733.75 15.5602 1747.93 18.4401 1761.5 14.7501C1775.07 11.0601 1787.5 -1.13977 1787.01 -14.8798C1775.86 1.04023 1753.19 8.03007 1735.69 0.950066C1738.53 -4.70993 1745.28 -7.3698 1751.51 -8.4098C1757.74 -9.4498 1764.28 -9.51991 1770.03 -12.2799C1781.27 -17.6699 1785.49 -33.96 1778.03 -43.35C1768.43 -42.12 1762.63 -53.42 1753.59 -56.35C1746.13 -58.81 1737.51 -54.97 1731.94 -49.11C1726.37 -43.25 1723.16 -35.68 1719.86 -28.37C1718.58 -25.57 1717.22 -22.7 1714.94 -20.58C1712.66 -18.46 1709.2 -17.2699 1706.45 -18.4899C1702.45 -20.2699 1702.1 -26.2098 1704.64 -29.9498C1706.84 -33.1598 1710.23 -37.0699 1711.97 -39.7599L1712.62 -40.2499C1719.8 -51.1946 1729.1 -60.5949 1739.96 -67.8998C1732.39 -75.3198 1719.46 -76.7398 1709.9 -71.1998C1703.64 -67.5698 1699.12 -61.56 1695.48 -55.36C1689.18 -44.6171 1685.01 -32.7661 1683.18 -20.4498C1683.08 -19.5992 1682.83 -18.7731 1682.44 -18.0099L1665.16 -4.84998C1664.16 -5.56998 1664.16 -8.61993 1664.05 -11.2899C1663.83 -15.1499 1665.35 -18.9499 1666.99 -22.5399C1676.56 -43.2921 1690.68 -61.6224 1708.3 -76.1698C1698.44 -80.2298 1687.3 -84.2998 1677.1 -80.1698C1676.65 -79.9798 1676.21 -79.8 1675.77 -79.58C1673.71 -78.5596 1671.8 -77.2791 1670.07 -75.7699C1667.19 -73.2051 1664.63 -70.2969 1662.45 -67.11C1651.76 -51.9772 1646.37 -33.7412 1647.1 -15.2299C1647.36 -9.87987 1647.63 -3.37987 1643.1 -0.229866C1638.1 3.21014 1630.96 -0.959991 1629.44 -6.60999C1627.92 -12.26 1630.18 -18.35 1632.58 -23.85C1642.55 -46.7421 1655.24 -68.348 1670.38 -88.1998C1662.5 -89.1998 1654.15 -90.07 1646.72 -86.84C1640.56 -84.16 1635.84 -78.9199 1631.9 -73.4699C1622.58 -60.5972 1616.49 -45.6761 1614.13 -29.9598C1612.91 -21.6998 1612.28 -12.29 1605.74 -6.81995C1604.05 -30.65 1611.55 -55.3698 1626.38 -74.9198C1618.9 -74.4798 1611.27 -74 1604.19 -71.33C1597.11 -68.66 1590.52 -63.3299 1588.19 -56.2199C1587.04 -52.6599 1587.01 -48.8999 1587 -45.2199C1586.96 -27.2199 1586.91 -9.24995 1586.85 8.69006C1586.85 11.7901 1585.85 15.95 1582.77 16.17C1580.87 16.31 1579.4 14.7602 1578.29 13.2902C1564.13 -5.50984 1564 -33.8498 1577.98 -53.9398C1570.57 -50.9898 1563.06 -47.9998 1556.45 -43.4598C1549.84 -38.9198 1544.12 -32.5899 1541.87 -25.0199C1539.11 -15.7999 1541.87 -6.0198 1546.11 2.3402C1550.35 10.7002 1556.23 18.1402 1560.29 26.5902C1555.17 25.3222 1550.35 23.0383 1546.13 19.8741C1541.91 16.71 1538.36 12.7298 1535.71 8.17004C1533.11 3.5314 1531.45 -1.57563 1530.82 -6.8578C1530.2 -12.14 1530.63 -17.4932 1532.08 -22.61C1520.27 -14.18 1513.68 0.9702 1515.78 14.8402C1516.91 21.7524 1520 28.1955 1524.68 33.4061C1529.36 38.6167 1535.44 42.3765 1542.19 44.2401C1529 44.3501 1516.1 37.3902 1509.29 26.3502ZM1570.94 104.15C1570.3 104.258 1569.63 104.205 1569.02 103.993C1568.4 103.782 1567.84 103.42 1567.4 102.94C1566.54 101.986 1565.9 100.847 1565.55 99.6102C1562.64 90.9502 1565.63 80.4201 1572.8 74.2101L1574.01 73.89C1575.25 73.42 1576.52 74.6701 1576.61 75.9701C1576.56 77.282 1576.18 78.5602 1575.51 79.69C1573.41 84.3036 1572.73 89.4399 1573.57 94.44C1574.05 96.2328 1574.26 98.0858 1574.2 99.94C1574 101.79 1572.79 103.76 1570.94 104.15ZM1665.23 72.15C1670.15 73.7412 1674.92 75.7485 1679.49 78.15L1696.54 86.42L1677.44 92.5201C1674.31 93.5201 1671.04 94.52 1667.82 94.17C1664.09 93.5558 1660.76 91.4969 1658.54 88.44C1656.38 85.4166 1654.63 82.1214 1653.34 78.64L1653.1 78.91C1651.89 76.34 1653.97 73.0701 1656.7 71.9701C1659.43 70.8701 1662.48 71.38 1665.23 72.18V72.15ZM1668.42 35.0702C1669.2 36.6702 1667.96 38.59 1666.6 39.88C1664.48 41.9903 1661.73 43.3643 1658.77 43.8002C1657.34 44.006 1655.87 43.8379 1654.52 43.3124C1653.17 42.7868 1651.98 41.9215 1651.06 40.8002L1650.28 40.13C1650.35 37.25 1652.86 34.7601 1655.63 33.7601C1658.4 32.7601 1661.42 32.9501 1664.31 33.2201C1665.89 33.3501 1667.73 33.6802 1668.42 35.1002V35.0702ZM1654.72 7.35021L1655.78 8.0902C1655.56 6.85469 1655.61 5.58762 1655.91 4.37023C1656.07 3.75156 1656.41 3.19282 1656.88 2.76159C1657.35 2.33036 1657.94 2.04492 1658.57 1.94006C1660.32 1.80006 1661.51 3.55003 1662.14 5.16003C1663.05 7.46003 1663.58 10.1001 1662.6 12.4601C1661.62 14.8201 1658.6 16.53 1656.44 15.39C1655.81 15.016 1655.27 14.4907 1654.89 13.8607C1654.51 13.2308 1654.29 12.5159 1654.25 11.7801C1654.17 10.2978 1654.33 8.81213 1654.72 7.38V7.35021ZM1627.43 50.19C1628.87 49.2855 1630.6 48.9305 1632.28 49.19C1635.62 49.7248 1638.66 51.4128 1640.88 53.9601C1643.05 56.4859 1644.9 59.2704 1646.38 62.2501C1647.51 64.3301 1648.61 66.9801 1647.21 68.9901C1646.76 69.5721 1646.18 70.0361 1645.51 70.3426C1644.84 70.6492 1644.1 70.789 1643.37 70.7501C1641.93 70.6544 1640.54 70.2338 1639.29 69.5201C1633.08 66.3972 1628.29 61.0373 1625.87 54.5201H1625.74C1625.54 53.7166 1625.6 52.8716 1625.9 52.1014C1626.2 51.3313 1626.74 50.674 1627.43 50.2201V50.19ZM1616.43 62.7601C1617.54 63.8316 1618.35 65.1745 1618.77 66.6551C1619.2 68.1358 1619.24 69.7027 1618.87 71.2001C1618.54 72.6001 1617.6 74.1201 1616.15 74.2501C1614.48 74.4001 1613.43 72.66 1612.77 71.17C1611.76 68.8567 1610.76 66.5501 1609.77 64.2501L1607.83 60.7901C1609.32 60.3617 1610.89 60.3205 1612.4 60.6705C1613.91 61.0205 1615.31 61.7501 1616.46 62.7901L1616.43 62.7601ZM1606.5 15.8202C1607.82 13.8202 1610.5 12.55 1612.65 13.41C1614.51 14.13 1615.48 16.08 1616.18 17.93C1616.98 20.01 1617.65 22.3001 1616.99 24.4801C1616.51 25.8756 1615.55 27.0615 1614.3 27.8375C1613.04 28.6135 1611.55 28.9323 1610.09 28.7401C1608.68 28.4622 1607.42 27.6841 1606.55 26.5497C1605.67 25.4153 1605.23 24.0015 1605.32 22.5702L1605.24 22.63C1604.88 20.2889 1605.33 17.8946 1606.53 15.8502L1606.5 15.8202ZM1599.9 71.18C1601.91 72.0764 1603.64 73.5003 1604.9 75.3002C1606.26 77.0441 1607.42 78.928 1608.38 80.92C1609.09 82.2057 1609.49 83.6416 1609.54 85.1102C1609.55 85.8651 1609.36 86.6096 1609 87.2706C1608.63 87.9316 1608.1 88.4861 1607.46 88.88C1606.87 89.1514 1606.23 89.2852 1605.58 89.2713C1604.93 89.2575 1604.3 89.0965 1603.72 88.8002C1602.61 88.187 1601.64 87.3573 1600.86 86.3602C1597.4 82.3458 1594.96 77.5624 1593.73 72.41L1593.66 72.17C1594.51 71.4402 1595.55 70.9635 1596.66 70.7938C1597.77 70.6241 1598.9 70.7683 1599.93 71.2101L1599.9 71.18ZM1568.4 36.4701C1569.7 35.4216 1571.28 34.785 1572.94 34.6424C1574.6 34.4999 1576.26 34.8577 1577.72 35.67C1579.24 36.6 1580.46 38.4302 1579.72 40.1102C1579.11 41.5702 1577.34 42.2302 1575.72 42.3102C1574.06 42.3939 1572.42 42.0189 1570.96 41.2267C1569.51 40.4344 1568.3 39.2557 1567.47 37.8202L1568.4 36.4701Z"
            fill="#FF7D55" />
        <path
            d="M1810.88 93.4299C1811.15 94.0823 1811.46 94.7171 1811.81 95.33C1813.65 98.3157 1816.03 100.942 1818.81 103.08C1822.35 105.888 1826.23 108.24 1830.36 110.08C1835.24 112.275 1840.37 113.864 1845.63 114.81C1847.03 115.068 1848.44 115.241 1849.86 115.33C1851.28 115.42 1852.7 115.44 1854.1 115.39C1856.91 115.267 1859.7 114.906 1862.45 114.31C1863.82 114.01 1865.17 113.67 1866.45 113.31C1867.73 112.95 1869.07 112.5 1870.33 112.04C1872.87 111.12 1875.33 110.04 1877.53 108.99C1879.73 107.94 1881.81 106.77 1883.64 105.68C1884.56 105.14 1885.42 104.61 1886.22 104.11C1887.02 103.61 1887.73 103.11 1888.39 102.66C1891.02 100.86 1892.55 99.6599 1892.55 99.6599C1892.55 99.6599 1891.66 98.3799 1889.97 96.4399C1887.68 93.8419 1885.17 91.4434 1882.47 89.27C1878.83 86.3239 1874.83 83.8386 1870.58 81.8701C1865.65 79.5792 1860.38 78.1162 1854.97 77.54C1849.53 76.9665 1844.06 76.7927 1838.59 77.02C1836.03 77.13 1833.59 77.3398 1831.27 77.6298C1830.12 77.7798 1829 77.9498 1827.92 78.1398C1826.84 78.3298 1825.78 78.54 1824.77 78.77C1822.9 79.1853 1821.06 79.7299 1819.26 80.3999C1818.43 80.7099 1817.66 81.0499 1816.93 81.3999C1816.24 81.7344 1815.58 82.105 1814.93 82.51C1813.8 83.2127 1812.79 84.0903 1811.93 85.1101C1811.54 85.5657 1811.21 86.062 1810.93 86.59C1810.66 87.0922 1810.46 87.6264 1810.33 88.1799C1810.06 89.3281 1810.06 90.5217 1810.33 91.6699C1810.47 92.2702 1810.65 92.8588 1810.88 93.4299Z"
            fill="#EFA58B" />
        <path
            d="M1797.58 146.82C1801.09 149.417 1804.88 151.614 1808.88 153.37C1813.63 155.48 1818.58 157.115 1823.65 158.25C1826.32 158.843 1829.04 159.178 1831.77 159.25C1834.43 159.314 1837.08 159.17 1839.72 158.82C1844.62 158.154 1849.42 156.923 1854.04 155.15L1855.59 154.55C1856.1 154.35 1856.59 154.14 1857.07 153.93C1858.07 153.52 1858.95 153.1 1859.81 152.7C1861.53 151.88 1863.04 151.09 1864.29 150.41C1865.54 149.73 1866.5 149.13 1867.16 148.71C1867.82 148.29 1868.16 148.05 1868.16 148.05C1867.4 146.937 1866.59 145.862 1865.72 144.83C1863.56 142.223 1861.19 139.798 1858.64 137.58C1855.19 134.561 1851.39 131.96 1847.33 129.83C1845.07 128.657 1842.73 127.654 1840.33 126.83C1837.77 125.946 1835.13 125.277 1832.46 124.83C1829.71 124.39 1827.01 124.06 1824.38 123.83C1823.07 123.72 1821.77 123.63 1820.5 123.57C1819.23 123.51 1817.98 123.47 1816.75 123.45C1814.29 123.45 1811.93 123.45 1809.75 123.65C1808.64 123.73 1807.56 123.83 1806.52 123.96C1805.48 124.09 1804.52 124.23 1803.52 124.4C1801.71 124.705 1799.93 125.136 1798.19 125.69C1797.43 125.935 1796.67 126.218 1795.94 126.54C1795.58 126.69 1795.25 126.85 1794.94 127.02C1794.63 127.19 1794.29 127.35 1793.94 127.52C1792.82 128.141 1791.8 128.942 1790.94 129.89C1790.55 130.317 1790.22 130.787 1789.94 131.29C1789.68 131.777 1789.48 132.29 1789.33 132.82C1788.77 134.95 1789.33 137.27 1790.75 139.65C1792.57 142.437 1794.88 144.867 1797.58 146.82Z"
            fill="#EFA58B" />
        <path
            d="M2025.34 -52.8899C2024.73 -54.6867 2023.92 -56.4106 2022.93 -58.03C2021.79 -59.8641 2020.49 -61.5941 2019.05 -63.2C2017.45 -64.99 2015.73 -66.6611 2013.89 -68.2C2012.89 -69.02 2011.89 -69.8201 2010.89 -70.6001C2009.89 -71.3801 2008.72 -72.1499 2007.57 -72.8999C2005.19 -74.4427 2002.73 -75.8485 2000.19 -77.1101C1997.5 -78.459 1994.75 -79.6606 1991.93 -80.71C1986.35 -82.724 1980.45 -83.7395 1974.52 -83.71C1969.24 -83.6988 1963.97 -83.1562 1958.8 -82.0901C1953.57 -81.0557 1948.44 -79.57 1943.47 -77.6499C1944.4 -85.3632 1945.2 -93.0834 1945.85 -100.81C1946.84 -113.01 1947.45 -125.237 1947.68 -137.49L1947.74 -140.9C1947.74 -142.03 1947.74 -143.17 1947.74 -144.3V-151.11C1947.74 -151.243 1947.69 -151.37 1947.59 -151.464C1947.5 -151.557 1947.37 -151.61 1947.24 -151.61C1947.11 -151.61 1946.98 -151.557 1946.89 -151.464C1946.79 -151.37 1946.74 -151.243 1946.74 -151.11C1946.74 -150.82 1946.74 -150.53 1946.74 -150.25C1946.74 -148.61 1946.69 -146.98 1946.68 -145.34V-142.89V-140.43C1946.68 -138.79 1946.68 -137.16 1946.68 -135.52V-134.29V-133.07L1946.61 -130.61C1946.18 -116.77 1945.29 -102.94 1943.86 -89.1699L1943.48 -85.5701C1943.36 -84.3801 1943.24 -83.18 1943.09 -81.98L1942.23 -74.8101L1941.23 -67.6499C1941.15 -67.0599 1941.08 -66.4601 1940.99 -65.8601L1940.79 -64.52C1940.15 -64.94 1938.85 -65.76 1936.98 -66.8C1933.28 -68.8494 1929.44 -70.6369 1925.49 -72.1499C1920.09 -74.2474 1914.5 -75.8117 1908.79 -76.8201C1902.24 -77.9984 1895.56 -78.311 1888.92 -77.75C1885.46 -77.44 1882.1 -77.04 1878.87 -76.55C1877.26 -76.3 1875.68 -76.03 1874.14 -75.75C1872.6 -75.47 1871.07 -75.1601 1869.6 -74.8501C1866.66 -74.2101 1863.87 -73.5 1861.29 -72.74C1860 -72.36 1858.76 -71.9601 1857.57 -71.5601L1855.82 -70.9399L1854.14 -70.3C1852.14 -69.5246 1850.2 -68.6194 1848.32 -67.5901C1847.47 -67.1101 1846.69 -66.5899 1845.98 -66.1399C1845.62 -65.8999 1845.28 -65.6499 1844.98 -65.3999C1844.68 -65.1499 1844.35 -64.8999 1844.06 -64.6499C1841.73 -62.6499 1840.58 -60.47 1840.82 -58.24C1841.06 -56.01 1842.64 -53.9 1845.36 -51.97C1846.9 -50.9111 1848.53 -49.9941 1850.23 -49.23C1852.29 -48.3026 1854.4 -47.5044 1856.55 -46.8401C1861.85 -45.2318 1867.28 -44.0906 1872.78 -43.4299C1879.3 -42.6213 1885.88 -42.3205 1892.45 -42.53C1895.84 -42.6316 1899.21 -43.0094 1902.53 -43.6599C1904.16 -43.9699 1905.75 -44.34 1907.3 -44.76C1908.85 -45.18 1910.39 -45.6399 1911.85 -46.1399C1914.69 -47.1274 1917.47 -48.2761 1920.18 -49.5801C1921.48 -50.2101 1922.73 -50.85 1923.94 -51.51C1925.15 -52.17 1926.27 -52.84 1927.36 -53.51C1930.95 -55.7011 1934.37 -58.1649 1937.58 -60.8799C1939.04 -62.1199 1940.09 -63.0999 1940.68 -63.6699L1940.21 -60.51C1938.76 -50.9767 1937.09 -41.4901 1935.21 -32.05C1933.81 -25.11 1932.29 -18.1934 1930.66 -11.3C1930.15 -11.7701 1929.18 -12.65 1927.77 -13.75C1926.7 -14.58 1925.38 -15.5501 1923.84 -16.5601C1922.13 -17.6815 1920.36 -18.7128 1918.54 -19.6499C1914.07 -21.9769 1909.31 -23.7278 1904.4 -24.8601C1898.56 -26.2032 1892.55 -26.6082 1886.59 -26.0601C1880.49 -25.5082 1874.44 -24.5459 1868.47 -23.1799C1865.67 -22.5299 1863 -21.81 1860.47 -21.03C1859.22 -20.65 1858.01 -20.2401 1856.85 -19.8201C1855.69 -19.4001 1854.55 -18.98 1853.47 -18.54C1849.75 -17.1117 1846.27 -15.1439 1843.12 -12.7C1841.96 -11.774 1840.95 -10.6744 1840.12 -9.43994C1839.77 -8.909 1839.47 -8.34261 1839.24 -7.75C1839.02 -7.19109 1838.88 -6.6062 1838.81 -6.01001C1838.68 -4.83658 1838.86 -3.64879 1839.34 -2.57007C1839.46 -2.28557 1839.6 -2.00838 1839.76 -1.73999C1839.92 -1.46114 1840.09 -1.19069 1840.27 -0.929932C1840.66 -0.363632 1841.11 0.165085 1841.6 0.649902C1844.21 3.07993 1847.27 4.98169 1850.6 6.25C1855.11 8.05948 1859.8 9.36725 1864.6 10.1499C1870.41 11.1345 1876.3 11.5764 1882.19 11.47C1885.34 11.4233 1888.48 11.0886 1891.57 10.47C1894.61 9.86259 1897.6 9.03374 1900.52 7.98999C1901.97 7.46999 1903.38 6.92007 1904.77 6.33008C1906.16 5.74008 1907.51 5.10997 1908.77 4.46997C1911.39 3.16997 1913.85 1.77988 1916.12 0.379883C1918.39 -1.02011 1920.45 -2.41998 1922.27 -3.73999C1924.09 -5.06 1925.67 -6.30011 1926.97 -7.36011C1928.27 -8.4201 1929.26 -9.35992 1929.97 -9.92993L1930.38 -10.3C1926.79 4.56662 1922.67 19.2901 1918 33.8701C1917.4 35.7168 1916.8 37.5632 1916.19 39.4099L1915.94 39.5C1915.94 39.5 1915.94 39.66 1916.01 39.96C1914.74 43.7866 1913.43 47.6099 1912.09 51.4299L1911.68 50.97C1911.19 50.42 1910.47 49.64 1909.51 48.7C1906.93 46.1857 1904.13 43.9066 1901.15 41.8899C1897.1 39.1212 1892.71 36.8768 1888.09 35.21C1882.67 33.2574 1876.97 32.1971 1871.21 32.0701C1868.14 32.0101 1865.12 32.07 1862.21 32.21C1860.75 32.29 1859.31 32.39 1857.89 32.51L1855.79 32.71L1853.72 32.95C1851 33.28 1848.39 33.7 1845.94 34.2C1844.71 34.45 1843.53 34.72 1842.38 35C1841.23 35.28 1840.13 35.5999 1839.06 35.9199C1837.08 36.5075 1835.14 37.2224 1833.25 38.0601C1831.66 38.7657 1830.14 39.616 1828.7 40.6001C1827.52 41.4074 1826.46 42.3883 1825.57 43.51C1825.18 44.0065 1824.85 44.5429 1824.57 45.1101C1824.31 45.6473 1824.12 46.2152 1824.01 46.8C1823.55 49.11 1824.38 51.5399 1826.23 53.95C1828.57 56.7789 1831.4 59.152 1834.6 60.95C1838.76 63.4008 1843.2 65.3638 1847.81 66.8C1853.27 68.5288 1858.9 69.6751 1864.6 70.22C1870.56 70.7245 1876.56 70.1348 1882.3 68.48C1883.7 68.09 1885.1 67.6599 1886.44 67.1799C1887.78 66.6999 1889.11 66.1799 1890.39 65.6399C1891.67 65.0999 1892.93 64.5199 1894.13 63.9299C1895.33 63.3399 1896.52 62.7401 1897.63 62.1201C1899.85 60.8901 1901.89 59.6299 1903.7 58.4399C1904.61 57.8399 1905.46 57.2599 1906.23 56.7C1907 56.14 1907.72 55.6199 1908.36 55.1299C1909.9 53.9599 1911.04 53.0099 1911.71 52.4399C1907.27 64.9466 1902.43 77.31 1897.2 89.53L1896.9 89.6001V89.8999C1896.91 89.9932 1896.91 90.0867 1896.9 90.1799C1895.14 94.2999 1893.32 98.4 1891.47 102.48C1886.4 113.62 1881 124.62 1875.29 135.48H1874.56V135.79C1874.56 135.99 1874.56 136.29 1874.56 136.69V136.9C1869.23 146.94 1863.63 156.827 1857.77 166.56C1852.08 176.007 1846.13 185.303 1839.92 194.45C1839.5 193.83 1838.8 192.84 1837.83 191.6C1835.54 188.667 1833.05 185.903 1830.36 183.33C1826.71 179.808 1822.72 176.662 1818.44 173.94C1813.54 170.808 1808.23 168.381 1802.66 166.73C1801.21 166.3 1799.77 165.91 1798.34 165.54L1796.22 165.02C1795.51 164.85 1794.81 164.68 1794.11 164.53C1791.32 163.91 1788.61 163.4 1786 163.01C1783.39 162.62 1780.91 162.33 1778.55 162.17C1776.19 162.01 1773.96 161.93 1771.9 161.98C1770 162.019 1768.11 162.19 1766.24 162.49C1764.69 162.725 1763.18 163.128 1761.72 163.69C1760.55 164.135 1759.47 164.793 1758.54 165.63C1757.73 166.351 1757.14 167.282 1756.82 168.32C1756.2 170.37 1756.76 172.78 1758.26 175.32C1760.21 178.407 1762.65 181.156 1765.48 183.46C1769.18 186.578 1773.18 189.324 1777.42 191.66C1779.75 192.96 1782.23 194.22 1784.85 195.4C1787.47 196.58 1790.2 197.68 1793.06 198.68C1795.86 199.662 1798.74 200.398 1801.67 200.88C1803.1 201.12 1804.52 201.3 1805.94 201.42C1807.36 201.54 1808.74 201.61 1810.11 201.63C1812.78 201.668 1815.45 201.541 1818.11 201.25C1819.4 201.12 1820.63 200.94 1821.84 200.74C1823.05 200.54 1824.21 200.32 1825.33 200.08C1826.45 199.84 1827.53 199.59 1828.56 199.32C1829.59 199.05 1830.56 198.78 1831.48 198.5C1833.31 197.94 1834.91 197.38 1836.24 196.88C1837.37 196.45 1838.3 196.07 1838.99 195.77C1833.06 204.437 1826.91 212.973 1820.54 221.38C1815.05 228.593 1809.41 235.687 1803.62 242.66C1797.83 249.633 1791.87 256.463 1785.75 263.15C1783.4 265.723 1781.03 268.273 1778.64 270.8C1778.25 270.36 1777.49 269.53 1776.39 268.45C1774.16 266.28 1771.77 264.275 1769.25 262.45C1765.84 259.942 1762.18 257.794 1758.32 256.04C1756.18 255.078 1753.99 254.26 1751.74 253.59C1749.38 252.891 1746.98 252.38 1744.54 252.06C1742.05 251.75 1739.62 251.53 1737.27 251.4C1736.69 251.4 1736.11 251.34 1735.53 251.32L1733.81 251.26C1732.67 251.26 1731.55 251.26 1730.47 251.26C1728.29 251.26 1726.22 251.41 1724.28 251.62C1722.44 251.797 1720.62 252.074 1718.81 252.45C1717.26 252.765 1715.73 253.203 1714.25 253.76C1713 254.207 1711.8 254.797 1710.68 255.52C1709.75 256.119 1708.94 256.881 1708.28 257.77C1707.69 258.566 1707.3 259.497 1707.15 260.48C1706.96 262.705 1707.64 264.918 1709.05 266.65C1710.92 269.116 1713.21 271.232 1715.82 272.9C1719.17 275.116 1722.75 276.951 1726.51 278.37C1730.93 280.073 1735.52 281.326 1740.19 282.11C1744.97 282.9 1749.86 282.836 1754.62 281.92C1755.76 281.71 1756.89 281.46 1757.98 281.18C1758.53 281.05 1759.08 280.9 1759.62 280.75L1760.42 280.51L1761.2 280.27C1763.27 279.59 1765.2 278.83 1767.04 278.04C1767.95 277.64 1768.82 277.24 1769.63 276.84C1770.44 276.44 1771.22 276.02 1771.95 275.63C1773.4 274.84 1774.66 274.08 1775.7 273.43L1776.96 272.62C1771.49 278.36 1765.91 283.987 1760.21 289.5C1758.4 291.28 1756.55 293.03 1754.7 294.77L1753.1 294.23C1750.75 293.49 1748.35 292.889 1745.93 292.43C1744.46 292.15 1742.87 291.91 1741.19 291.73C1739.51 291.55 1737.74 291.42 1735.92 291.39C1734.05 291.367 1732.19 291.457 1730.33 291.66C1729.39 291.76 1728.45 291.9 1727.48 292.07C1726.51 292.24 1725.56 292.45 1724.61 292.7C1722.69 293.193 1720.85 293.74 1719.1 294.34C1718.23 294.64 1717.36 294.94 1716.52 295.25C1715.68 295.56 1714.87 295.88 1714.08 296.25C1712.51 296.91 1711.08 297.61 1709.68 298.32C1708.4 298.98 1707.15 299.711 1705.95 300.51C1704.91 301.196 1703.93 301.965 1703.02 302.81C1702.27 303.461 1701.59 304.196 1701 305C1700.49 305.635 1700.13 306.374 1699.95 307.164C1699.76 307.953 1699.75 308.775 1699.91 309.57C1700.69 312.51 1704.46 314.57 1710.03 315.42C1711.52 315.641 1713.02 315.775 1714.52 315.82C1715.32 315.82 1716.15 315.82 1716.99 315.82H1718.27C1718.7 315.82 1719.14 315.82 1719.57 315.74C1721.33 315.62 1723.15 315.41 1725.03 315.11C1725.97 314.96 1726.93 314.79 1727.89 314.59L1729.35 314.28L1730.8 313.92C1732.71 313.425 1734.58 312.773 1736.38 311.97C1737.27 311.57 1738.13 311.16 1738.96 310.71C1739.79 310.26 1740.59 309.79 1741.36 309.3C1742.86 308.353 1744.3 307.324 1745.69 306.22C1747.01 305.16 1748.2 304.07 1749.28 303.02C1750.36 301.97 1751.28 300.95 1752.14 300.02C1753 299.09 1753.64 298.22 1754.2 297.5C1755.31 296.05 1755.89 295.13 1755.89 295.13H1755.81C1756.81 294.13 1757.81 293.21 1758.81 292.22L1761.73 289.36C1761.24 290.04 1760.73 290.82 1760.13 291.69C1759.36 292.88 1758.51 294.22 1757.67 295.69C1757.25 296.44 1756.83 297.23 1756.41 298.05C1755.99 298.87 1755.6 299.74 1755.19 300.62C1754.35 302.475 1753.62 304.378 1753 306.32C1752.68 307.32 1752.37 308.37 1752.1 309.43C1751.83 310.49 1751.59 311.59 1751.39 312.71C1751.19 313.83 1751.04 314.97 1750.93 316.14C1750.82 317.31 1750.73 318.49 1750.72 319.7C1750.72 322.12 1750.72 324.51 1750.87 326.83C1751.02 329.15 1751.2 331.39 1751.49 333.55C1751.78 335.71 1752.14 337.78 1752.58 339.73C1752.98 341.58 1753.48 343.407 1754.09 345.2C1756.39 351.97 1759.84 356.46 1764.09 356.95C1765.16 357.062 1766.25 356.932 1767.26 356.57C1768.36 356.148 1769.37 355.539 1770.26 354.77C1771.33 353.868 1772.28 352.844 1773.11 351.72C1773.58 351.077 1774.01 350.409 1774.41 349.72C1774.83 349.02 1775.24 348.27 1775.63 347.49C1776.02 346.71 1776.39 345.88 1776.75 345.02C1777.11 344.16 1777.44 343.27 1777.75 342.32C1778.39 340.35 1778.92 338.347 1779.34 336.32C1779.8 334.114 1780.13 331.883 1780.34 329.64C1780.45 328.47 1780.53 327.29 1780.59 326.09L1780.65 324.28C1780.65 323.67 1780.65 323.05 1780.65 322.43C1780.62 319.991 1780.36 317.561 1779.88 315.17C1779.65 314 1779.38 312.85 1779.06 311.71C1778.74 310.57 1778.38 309.46 1777.98 308.37C1776.5 304.328 1774.61 300.447 1772.34 296.79C1771.34 295.14 1770.34 293.64 1769.34 292.32C1768.34 291 1767.51 289.86 1766.76 288.93C1765.76 287.71 1765.02 286.85 1764.61 286.4L1765.74 285.27L1769.42 281.6L1773.06 277.88L1774.88 276.02L1775.78 275.08L1776.68 274.14L1780.26 270.37C1781.46 269.11 1782.62 267.83 1783.8 266.56L1785.21 265.03C1784.99 265.64 1784.7 266.52 1784.36 267.63C1784.02 268.74 1783.61 270.13 1783.21 271.71C1783.01 272.49 1782.81 273.33 1782.62 274.22C1782.43 275.11 1782.24 276.04 1782.05 277C1781.68 278.93 1781.35 281 1781.05 283.25C1780.99 283.81 1780.93 284.37 1780.88 284.94C1780.83 285.51 1780.79 286.09 1780.75 286.67C1780.66 287.83 1780.61 289.02 1780.58 290.24C1780.53 292.74 1780.63 295.242 1780.88 297.73C1781.13 300.343 1781.57 302.933 1782.2 305.48C1782.85 308.08 1783.59 310.61 1784.37 313.03C1785.15 315.45 1785.99 317.74 1786.89 319.92C1788.46 323.866 1790.43 327.642 1792.77 331.19C1794.47 333.893 1796.7 336.231 1799.31 338.07C1800.24 338.758 1801.31 339.229 1802.45 339.448C1803.59 339.668 1804.76 339.631 1805.88 339.34C1806.98 338.997 1807.98 338.409 1808.81 337.62C1809.76 336.696 1810.56 335.63 1811.18 334.46C1811.93 333.066 1812.53 331.598 1812.98 330.08C1813.49 328.298 1813.87 326.479 1814.11 324.64C1814.39 322.558 1814.54 320.461 1814.56 318.36C1814.58 316.04 1814.48 313.72 1814.26 311.41C1813.77 306.288 1812.79 301.224 1811.33 296.29C1809.87 291.377 1807.63 286.731 1804.69 282.53C1802.16 278.889 1799.27 275.515 1796.06 272.46C1793.72 270.223 1791.25 268.135 1788.65 266.21C1787.33 265.21 1786.34 264.58 1785.86 264.27L1787.27 262.73L1790.74 258.86C1791.9 257.56 1793.06 256.28 1794.19 254.96C1800.57 247.72 1806.76 240.32 1812.75 232.76C1812.84 232.63 1812.94 232.51 1813.03 232.39C1812.95 233.11 1812.84 234.24 1812.74 235.7C1812.74 236.36 1812.65 237.1 1812.62 237.89C1812.59 238.68 1812.55 239.54 1812.52 240.44C1812.47 242.24 1812.46 244.26 1812.52 246.44C1812.64 251.245 1813.15 256.033 1814.02 260.76C1814.27 262.02 1814.55 263.29 1814.87 264.56C1815.19 265.83 1815.54 267.08 1815.95 268.34C1816.75 270.865 1817.75 273.32 1818.95 275.68C1823.85 285.14 1829.69 292.61 1835.33 296.83C1837.69 298.742 1840.49 300.031 1843.48 300.58C1844.7 300.779 1845.94 300.711 1847.13 300.381C1848.32 300.052 1849.42 299.468 1850.36 298.67C1852.46 296.67 1853.89 294.067 1854.45 291.22C1854.86 289.501 1855.1 287.746 1855.16 285.98C1855.24 283.978 1855.18 281.973 1854.98 279.98C1854.87 278.98 1854.73 277.87 1854.56 276.79C1854.39 275.71 1854.16 274.6 1853.91 273.49C1853.37 271.178 1852.7 268.898 1851.91 266.66C1851.1 264.299 1850.17 261.982 1849.11 259.72C1848.02 257.357 1846.81 255.051 1845.48 252.81C1842.96 248.607 1839.67 244.908 1835.8 241.9C1832.51 239.341 1828.93 237.185 1825.13 235.48C1823.45 234.71 1821.85 234.07 1820.4 233.56C1818.95 233.05 1817.66 232.64 1816.57 232.32C1815.21 231.93 1814.17 231.69 1813.57 231.57C1819.25 224.397 1824.77 217.103 1830.14 209.69C1835.73 201.95 1841.14 194.083 1846.35 186.09C1846.35 186.79 1846.28 187.69 1846.26 188.74C1846.17 192.516 1846.28 196.295 1846.58 200.06C1846.75 202.33 1847 204.77 1847.38 207.3C1847.57 208.57 1847.79 209.86 1848.05 211.17C1848.31 212.48 1848.58 213.78 1848.91 215.11C1849.56 217.81 1850.37 220.465 1851.36 223.06C1851.86 224.38 1852.36 225.68 1853.01 226.97C1853.66 228.26 1854.27 229.51 1855.01 230.75C1860.74 240.62 1867.36 248.42 1873.63 252.75C1876.26 254.731 1879.32 256.042 1882.57 256.57C1883.88 256.763 1885.21 256.669 1886.47 256.294C1887.74 255.919 1888.91 255.273 1889.9 254.4C1892.08 252.234 1893.51 249.433 1894 246.4C1894.7 242.453 1894.73 238.418 1894.1 234.46C1893.36 229.631 1892.07 224.904 1890.25 220.37C1889.78 219.16 1889.25 217.93 1888.69 216.71C1888.13 215.49 1887.54 214.27 1886.9 213.05C1885.61 210.573 1884.2 208.163 1882.66 205.83C1881.16 203.548 1879.44 201.423 1877.51 199.49C1875.71 197.684 1873.76 196.031 1871.68 194.55C1867.99 191.936 1864 189.771 1859.8 188.1C1856.73 186.854 1853.57 185.831 1850.35 185.04C1849.11 184.74 1848.13 184.54 1847.46 184.42C1854.29 173.9 1860.8 163.18 1866.99 152.26C1869.51 147.813 1871.98 143.33 1874.39 138.81C1874.39 139.163 1874.39 139.533 1874.39 139.92C1874.45 141.34 1874.54 143.04 1874.71 144.97C1874.79 145.97 1874.88 146.97 1874.99 147.97C1875.1 148.97 1875.24 150.13 1875.4 151.27C1875.56 152.41 1875.74 153.59 1875.95 154.79C1876.06 155.4 1876.17 156.01 1876.29 156.62C1876.41 157.23 1876.53 157.85 1876.66 158.48C1877.19 160.98 1877.84 163.55 1878.66 166.13C1879.07 167.42 1879.52 168.72 1880 169.99C1880.48 171.26 1881 172.54 1881.6 173.79C1882.75 176.318 1884.13 178.737 1885.71 181.02C1888.64 185.273 1891.97 189.237 1895.65 192.86C1898.64 195.854 1902.04 198.41 1905.75 200.45C1908.57 202.067 1911.75 202.928 1915 202.95C1915.69 202.926 1916.38 202.839 1917.05 202.69C1917.7 202.545 1918.34 202.33 1918.95 202.05C1920.2 201.47 1921.33 200.64 1922.25 199.61C1923.25 198.476 1924.06 197.181 1924.63 195.78C1925.26 194.203 1925.69 192.554 1925.91 190.87C1926.17 188.968 1926.24 187.046 1926.14 185.13C1926.01 182.992 1925.73 180.866 1925.29 178.77C1924.82 176.488 1924.2 174.239 1923.43 172.04C1922.61 169.684 1921.66 167.376 1920.57 165.13C1919.43 162.772 1918.15 160.479 1916.76 158.26C1915.31 155.96 1913.73 153.741 1912.04 151.61C1908.82 147.619 1904.82 144.319 1900.29 141.91C1896.39 139.83 1892.24 138.251 1887.94 137.21C1884.76 136.418 1881.52 135.87 1878.26 135.57C1877.44 135.49 1876.73 135.44 1876.15 135.41C1878.89 130.197 1881.56 124.947 1884.15 119.66C1888.59 110.62 1892.81 101.473 1896.82 92.22C1896.86 92.7333 1896.91 93.3033 1896.97 93.9299C1897.1 95.2999 1897.29 96.93 1897.56 98.77C1897.83 100.61 1898.16 102.62 1898.56 104.77C1898.78 105.84 1899.03 106.94 1899.3 108.07C1899.44 108.63 1899.59 109.2 1899.74 109.77C1899.89 110.34 1900.04 110.92 1900.2 111.49C1900.87 113.863 1901.67 116.2 1902.58 118.49C1903.52 120.825 1904.62 123.09 1905.88 125.27C1907.14 127.444 1908.61 129.481 1910.29 131.35C1911.91 133.138 1913.63 134.834 1915.44 136.43C1917.1 137.909 1918.85 139.282 1920.68 140.54C1923.82 142.771 1927.31 144.461 1931 145.54C1932.57 145.975 1934.18 146.22 1935.81 146.27C1937.29 146.312 1938.76 146.133 1940.19 145.74C1943.01 144.932 1945.46 143.163 1947.11 140.74C1948.94 137.943 1949.99 134.715 1950.17 131.38C1950.4 127.479 1949.95 123.567 1948.84 119.82C1947.59 115.561 1945.76 111.496 1943.39 107.74C1940.84 103.67 1937.76 99.9489 1934.25 96.6699C1930.83 93.5377 1926.72 91.2561 1922.25 90.01C1918.25 88.8864 1914.11 88.3045 1909.95 88.28C1905.97 88.242 1902 88.5768 1898.09 89.28C1898.53 88.28 1898.98 87.2199 1899.41 86.1799C1905.53 71.6399 1911.09 56.8766 1916.1 41.8899V42.05C1916.2 42.59 1916.33 43.2099 1916.48 43.8899C1916.77 45.2499 1917.16 46.89 1917.66 48.7C1917.91 49.5999 1918.18 50.56 1918.49 51.55C1918.8 52.5401 1919.11 53.5501 1919.49 54.6201C1920.2 56.7301 1921.05 58.95 1922.04 61.21C1923.04 63.5211 1924.16 65.7747 1925.41 67.96C1926.06 69.07 1926.74 70.17 1927.47 71.24C1927.84 71.78 1928.21 72.3101 1928.6 72.8401C1928.99 73.3701 1929.38 73.8399 1929.79 74.3799C1931.43 76.4241 1933.28 78.285 1935.32 79.9299C1943.54 86.4899 1952.21 90.5299 1959.73 91.3799C1963.17 91.8557 1966.68 91.4711 1969.93 90.26C1971.38 89.6735 1972.73 88.8638 1973.93 87.8601C1975.15 86.8218 1976.19 85.5842 1977 84.2C1977.85 82.7522 1978.48 81.1847 1978.86 79.55C1979.06 78.7012 1979.2 77.8389 1979.28 76.97C1979.37 76.0729 1979.4 75.1712 1979.38 74.27C1979.32 72.3629 1979.07 70.4668 1978.63 68.6101C1978.14 66.6051 1977.47 64.6475 1976.63 62.76C1975.74 60.74 1974.69 58.7909 1973.5 56.9299C1972.23 54.9625 1970.82 53.088 1969.28 51.3201C1967.66 49.4646 1965.92 47.7207 1964.07 46.1001C1963.07 45.2701 1962.14 44.4699 1961.07 43.6899C1960 42.9099 1958.99 42.1599 1957.9 41.4399C1953.67 38.7383 1948.88 37.029 1943.9 36.4399C1939.33 35.8751 1934.72 35.8751 1930.15 36.4399C1926.64 36.8407 1923.15 37.4756 1919.72 38.3401C1918.59 38.6301 1917.66 38.8901 1916.98 39.1001C1919.29 32.0801 1921.48 25.0199 1923.53 17.9199C1927.28 4.93993 1930.62 -8.1501 1933.53 -21.3501C1933.73 -20.6201 1934.06 -19.5101 1934.53 -18.1101C1934.75 -17.4601 1934.99 -16.74 1935.27 -15.98C1935.55 -15.22 1935.85 -14.4001 1936.18 -13.55C1936.85 -11.84 1937.65 -9.95999 1938.59 -7.98999C1938.83 -7.49998 1939.07 -6.99001 1939.32 -6.5C1939.57 -6.00999 1939.83 -5.49998 1940.09 -4.97998C1940.63 -3.97998 1941.2 -2.9299 1941.81 -1.8999C1942.42 -0.869904 1943.06 0.159943 1943.75 1.18994C1944.1 1.69994 1944.45 2.18997 1944.82 2.71997C1945.19 3.24997 1945.55 3.71997 1945.93 4.21997C1947.47 6.23833 1949.18 8.11887 1951.05 9.84009C1952.95 11.598 1955.05 13.1281 1957.31 14.3999C1961.63 16.8396 1966.24 18.7374 1971.03 20.05C1975.2 21.2241 1979.53 21.7204 1983.86 21.52C1985.78 21.4135 1987.68 21.112 1989.54 20.6201C1991.28 20.1674 1992.96 19.4953 1994.54 18.6201C1997.56 16.9436 2000 14.3958 2001.54 11.3101C2002.31 9.7307 2002.83 8.04512 2003.09 6.31006C2003.37 4.53983 2003.41 2.74078 2003.21 0.959961C2002.99 -0.918884 2002.56 -2.76717 2001.93 -4.55005C2001.6 -5.48613 2001.23 -6.4041 2000.8 -7.30005C2000.59 -7.76006 2000.36 -8.20992 2000.13 -8.65991C1999.9 -9.10991 1999.63 -9.57002 1999.36 -10.02C1998.25 -11.8693 1996.98 -13.6192 1995.57 -15.25C1994.84 -16.1 1994.07 -16.92 1993.26 -17.73C1992.45 -18.54 1991.58 -19.3201 1990.67 -20.0801C1986.82 -23.277 1982.52 -25.9008 1977.92 -27.8701C1973.12 -29.8188 1967.94 -30.6663 1962.77 -30.3501C1957.88 -30.0914 1953.04 -29.2828 1948.33 -27.9399C1944.67 -26.9261 1941.08 -25.6871 1937.58 -24.23C1936.26 -23.68 1935.19 -23.2301 1934.47 -22.8701L1933.88 -22.5901C1935.62 -30.5901 1937.2 -38.65 1938.62 -46.77C1939.03 -49.01 1939.38 -51.25 1939.75 -53.49L1940.3 -56.8501C1940.39 -57.4101 1940.48 -57.97 1940.56 -58.53L1940.81 -60.21L1941.31 -63.5801L1941.56 -65.26L1941.69 -66.1001L1941.8 -66.95L1942.71 -73.6899L1943.07 -76.6899L1943.26 -76.3301C1943.62 -75.6401 1944.18 -74.6499 1944.88 -73.4199C1945.58 -72.1899 1946.48 -70.7301 1947.54 -69.1201C1948.07 -68.3101 1948.65 -67.4601 1949.27 -66.5801C1949.57 -66.1401 1949.9 -65.69 1950.27 -65.23C1950.64 -64.77 1950.93 -64.3201 1951.27 -63.8501C1954.38 -59.6711 1957.87 -55.7878 1961.69 -52.25C1963.82 -50.2942 1966.08 -48.4898 1968.46 -46.8501C1969.07 -46.4301 1969.69 -46.0201 1970.32 -45.6201C1970.95 -45.2201 1971.59 -44.84 1972.24 -44.47C1973.55 -43.72 1974.9 -43.0199 1976.3 -42.3899C1987.49 -37.3199 1998.5 -34.64 2007.3 -34.74C2011.2 -34.6734 2015.07 -35.437 2018.65 -36.98C2019.39 -37.3272 2020.11 -37.7317 2020.79 -38.1899C2021.44 -38.6259 2022.04 -39.1214 2022.59 -39.6699C2023.67 -40.7301 2024.53 -41.9992 2025.1 -43.3999C2025.67 -44.8309 2025.96 -46.3591 2025.95 -47.8999C2026.01 -49.5848 2025.8 -51.2681 2025.34 -52.8899Z"
            fill="#EFA58B" />
        <path
            d="M1747.09 229C1750.4 231.523 1753.95 233.695 1757.71 235.48C1759.77 236.467 1761.95 237.393 1764.25 238.26C1766.55 239.127 1768.94 239.887 1771.42 240.54C1776.21 241.786 1781.18 242.175 1786.11 241.69C1788.39 241.465 1790.66 241.095 1792.89 240.58C1793.97 240.33 1795.02 240.05 1796.04 239.76C1796.55 239.61 1797.04 239.46 1797.55 239.3L1798.99 238.82C1800.87 238.15 1802.6 237.45 1804.14 236.76C1805.68 236.07 1807.02 235.4 1808.14 234.76C1810.34 233.58 1811.59 232.76 1811.59 232.76C1811.59 232.76 1810.79 231.53 1809.25 229.63C1808.48 228.68 1807.53 227.57 1806.4 226.36C1805.27 225.15 1803.98 223.85 1802.52 222.52C1799.28 219.559 1795.72 216.963 1791.91 214.78C1787.62 212.309 1782.97 210.534 1778.12 209.52C1773.36 208.541 1768.54 207.922 1763.69 207.67C1761.44 207.57 1759.3 207.57 1757.27 207.67C1755.36 207.738 1753.45 207.908 1751.56 208.18C1749.93 208.412 1748.32 208.767 1746.74 209.24C1746.02 209.47 1745.33 209.71 1744.69 209.97C1744.08 210.224 1743.49 210.514 1742.92 210.84C1741.92 211.391 1741.02 212.119 1740.28 212.99C1739.95 213.383 1739.67 213.812 1739.44 214.27C1739.22 214.722 1739.05 215.198 1738.94 215.69C1738.51 217.69 1739.1 219.86 1740.53 222.13C1742.32 224.771 1744.54 227.093 1747.09 229Z"
            fill="#EFA58B" />
    </g>
    <path
        d="M863.597 166.056V202.389H857.281C857.1 200.714 856.24 198.948 854.701 197.092C853.297 195.507 851.758 194.239 850.083 193.289C846.461 197.182 842.59 199.129 838.47 199.129C833.354 199.129 828.713 197.205 824.548 193.357C821.016 190.097 818.141 185.818 815.923 180.521L820.201 176.039C821.65 180.385 823.891 184.143 826.925 187.312C830.456 191.025 834.259 192.881 838.334 192.881C840.915 192.881 843.02 191.681 844.65 189.282C846.144 187.154 846.891 184.754 846.891 182.083C846.891 179.276 846.257 176.967 844.989 175.156C843.586 173.119 841.526 172.1 838.809 172.1C837.36 172.1 836.138 172.417 835.142 173.051C833.92 173.821 833.308 174.885 833.308 176.243C833.308 177.782 834.508 178.552 836.908 178.552C837.496 178.552 838.153 178.484 838.877 178.348L836.636 184.392C835.459 184.709 834.599 184.868 834.055 184.868C831.973 184.868 830.184 183.962 828.69 182.151C827.196 180.34 826.449 178.348 826.449 176.175C826.449 173.096 827.762 170.629 830.388 168.772C832.697 167.097 835.459 166.26 838.673 166.26C848.362 166.26 853.252 173.255 853.342 187.244C854.157 187.788 855.312 188.716 856.806 190.029V166.056H814.497V159.944H868.487V166.056H863.597ZM877.053 166.056V202.389H870.262V166.056H864.354V159.944H882.486V166.056H877.053ZM896.301 177.397C896.346 176.311 895.803 175.02 894.671 173.526C893.585 172.032 892.521 171.104 891.479 170.742C890.438 170.334 888.921 170.199 886.929 170.334C886.25 170.38 884.869 170.425 882.787 170.47V166.056H878.984V159.944H925.096V166.056H920.274V202.389H913.483V197.839C913.483 194.986 911.378 191.953 907.167 188.739C903.183 185.705 899.697 184.188 896.709 184.188C895.26 184.188 893.902 184.596 892.634 185.411C891.185 186.316 890.461 187.448 890.461 188.806C890.461 189.848 890.936 190.776 891.887 191.591C892.838 192.36 893.834 192.745 894.875 192.745C895.735 192.745 897.524 192.157 900.24 190.98L902.209 197.431C899.086 199.016 896.505 199.808 894.468 199.808C891.479 199.808 888.854 198.767 886.59 196.684C884.326 194.556 883.194 191.998 883.194 189.01C883.194 185.434 884.507 182.559 887.133 180.385C889.623 178.303 892.679 177.307 896.301 177.397ZM913.483 166.056H895.758C900.874 169.542 903.545 173.707 903.771 178.552C906.805 179.774 910.042 182.264 913.483 186.022V166.056ZM934.006 166.056V202.389H927.215V166.056H921.307V159.944H939.439V166.056H934.006ZM956.582 205.037C950.923 205.037 947.142 204.041 945.241 202.049C941.121 197.703 939.061 192.36 939.061 186.022C939.061 182.581 940.079 179.027 942.117 175.36C943.52 172.825 945.807 169.723 948.976 166.056H936.005V159.944H960.86V165.784C957.057 167.188 953.639 169.769 950.606 173.526C947.346 177.465 945.716 181.359 945.716 185.207C945.716 189.599 946.44 192.859 947.889 194.986C949.655 197.567 952.643 198.857 956.854 198.857C957.759 198.857 959.321 198.042 961.54 196.413V203.747C959.819 204.607 958.167 205.037 956.582 205.037ZM962.801 166.056V179.367C969.23 175.292 975.297 172.145 981.002 169.927L986.435 177.058C983.99 183.079 982.768 187.652 982.768 190.776C982.768 193.583 983.56 197.205 985.144 201.642L979.847 204.087C977.765 198.699 976.723 194.919 976.723 192.745C976.723 188.308 977.108 183.849 977.878 179.367C973.486 181.359 967.85 185.207 960.968 190.912L956.01 186.294V166.056H952.343V159.944H989.627V166.056H962.801ZM1024.74 166.056V202.457H1018.77C1016.5 198.744 1012.36 195.281 1006.34 192.066C1000.32 188.806 995.064 187.109 990.582 186.973L988.748 179.91C996.128 175.156 1005.82 170.583 1017.81 166.192V166.056H985.624V159.944H1028.95V166.056H1024.74ZM1006.74 204.154C1004.84 202.208 1002.1 200.351 998.528 198.586L1001.45 193.017C1004.98 194.511 1008.15 196.775 1010.96 199.808L1006.74 204.154ZM1018.02 173.73C1011.73 175.994 1005.79 178.71 1000.23 181.879C1006.65 184.234 1012.59 187.675 1018.02 192.202V173.73ZM1073.08 166.056V166.599C1077.11 166.826 1080.66 168.025 1083.74 170.199C1087.36 172.689 1089.17 175.813 1089.17 179.57C1089.17 182.785 1087.95 185.388 1085.5 187.38C1083.24 189.237 1080.46 190.165 1077.15 190.165C1076.88 190.165 1076.18 190.074 1075.05 189.893V183.306C1076.45 183.396 1077.6 183.441 1078.51 183.441C1081.32 183.441 1082.72 182.083 1082.72 179.367C1082.72 176.016 1079.51 173.979 1073.08 173.255V202.457H1067.03C1061.6 191.998 1054.99 186.679 1047.2 186.497L1045.3 179.435C1048.06 177.488 1051.55 175.292 1055.76 172.847L1066.15 166.803V166.056H1043.81V159.944H1092.36V166.056H1073.08ZM1066.29 174.205C1064.47 175.02 1061.15 177.578 1056.3 181.879C1058.29 183.192 1061.62 186.52 1066.29 191.862V174.205ZM1124.83 166.056V202.389H1118.72C1111.79 196.684 1103.55 193.13 1094 191.727L1091.01 183.849C1094.67 183.623 1098.3 182.513 1101.87 180.521C1106.22 178.122 1108.39 175.315 1108.39 172.1C1108.39 170.516 1107.83 169.18 1106.69 168.093C1105.56 167.007 1104.2 166.463 1102.62 166.463C1101.58 166.463 1100.63 166.803 1099.77 167.482C1098.91 168.116 1098.48 168.931 1098.48 169.927C1098.48 170.968 1099.34 171.489 1101.06 171.489C1101.65 171.489 1102.37 171.444 1103.23 171.353L1100.65 177.465C1094.49 177.329 1091.41 174.681 1091.41 169.52C1091.41 166.622 1092.64 164.29 1095.08 162.525C1097.26 160.94 1099.86 160.148 1102.89 160.148C1106.29 160.148 1109.16 161.37 1111.52 163.815C1113.87 166.214 1115.05 169.112 1115.05 172.508C1115.05 175.767 1113.96 178.62 1111.79 181.065C1110.38 182.649 1107.96 184.483 1104.52 186.565C1108.91 188.331 1113.42 190.844 1118.04 194.104V159.944H1129.99V166.056H1124.83ZM1139.01 166.056V202.389H1132.22V166.056H1126.31V159.944H1144.44V166.056H1139.01Z"
        fill="#F9A106" />
</svg>
    