<?xml version="1.0" standalone="no"?>
<!DOCTYPE svg PUBLIC "-//W3C//DTD SVG 1.1//EN" "http://www.w3.org/Graphics/SVG/1.1/DTD/svg11.dtd" >
<svg xmlns="http://www.w3.org/2000/svg" xmlns:xlink="http://www.w3.org/1999/xlink" version="1.1">
<metadata>
Created by FontForge 20190801 at Thu Nov  9 15:02:43 2023
 By www-data
Copyright 2023 Lipighor. All Rights Reserved.
</metadata>
<defs>
<font id="LiSirajee" horiz-adv-x="0" >
  <font-face 
    font-family="LiSirajee"
    font-weight="400"
    font-stretch="normal"
    units-per-em="1000"
    panose-1="2 0 5 0 0 0 0 0 0 0"
    ascent="800"
    descent="-200"
    x-height="487"
    cap-height="644"
    bbox="-572 -364 1089 1005"
    underline-thickness="40"
    underline-position="-120"
    unicode-range="U+0020-FDFA"
  />
<missing-glyph horiz-adv-x="587" 
d="M389 421h-60l-152 -53v-309h212v136h-76v-66h-56v194l56 19v-86h76v66l59 20v-196l15 -87h65v362h-63l-76 -25v25zM453 491v-43h75v117h-261l-208 -61v-445h84v389l92 29zM587 0h-587v624h587v-624z" />
    <glyph glyph-name="anji-beng" unicode="&#x9ed;&#x983;&#x983;" horiz-adv-x="443" 
d="M237 206q-44 4 -81 16t-65 33.5t-43.5 52.5t-15.5 74v3q10 96 123 152q50 22 94.5 37.5t73.5 15.5l64 -5v-553h-82v472q-32 -8 -66 -20t-62 -28.5t-45.5 -37t-17.5 -44.5q0 -23 12.5 -39.5t34 -27t51 -16t62.5 -5.5z" />
    <glyph glyph-name="glyph112" unicode="&#x3c;&#x3c;" horiz-adv-x="432" 
d="M269 435q-60 0 -103 23.5t-70.5 63t-40.5 92t-13 111.5l57 9v-13q0 -38 9.5 -70.5t25.5 -58t36.5 -43.5t42.5 -27q47 -19 140 -19q11 0 23 0.5t24 1.5v-43q-69 -27 -131 -27zM349 622h93v-81h-93q-39 0 -71.5 13t-57 36t-39 56t-17.5 74l-2 26q0 45 20 82l19 34l161 -75
l-34 -74l-85 39q3 -68 32 -99t74 -31z" />
    <glyph glyph-name="glyph113" unicode="&#x3e;&#x3e;" horiz-adv-x="432" 
d="M163 435q-62 0 -131 27v43q12 -1 24 -1.5t23 -0.5q46 0 80 4t59.5 14.5t45 28.5t37.5 47q32 52 32 124v13l57 -9q0 -58 -13 -110.5t-40.5 -92.5t-70.5 -63.5t-103 -23.5zM83 622q44 0 73 31t33 99l-85 -39l-34 74l161 75l19 -34q20 -37 20 -82l-2 -26q-3 -41 -17.5 -74
t-39 -56t-57 -36t-71.5 -13h-93v81h93z" />
    <glyph glyph-name="signavagraha-beng" unicode="&#x9b9;&#x983;&#x983;" horiz-adv-x="467" 
d="M244 622v-81h-254v81h254zM353 301v15q0 58 -34.5 97.5t-98.5 43.5q-5 0 -22.5 -2.5t-36 -14t-33.5 -33.5t-15 -61v-9l2 -11l84 47l40 -71l-154 -85l-21 29q-32 38 -32 100q0 61 23 98.5t53.5 58.5t61 28t46.5 7q59 0 100.5 -22.5t68 -56t38.5 -72t12 -69.5
q0 -20 -1 -32.5t-2 -14.5l-2 -21l-304 -168q13 -12 36.5 -25t59.5 -24t86.5 -18.5t118.5 -7.5v-81q-119 1 -196 21.5t-122 46.5t-62.5 49.5t-18.5 29.5l-7 44z" />
    <glyph glyph-name="isshar-beng" unicode="&#x988;&#x983;&#x983;" horiz-adv-x="459" 
d="M170 382q-16 0 -34 3.5t-38 14.5t-40.5 33t-40.5 58l50 62q50 -88 76 -92l23 -1q126 0 183 221l69 -39q-15 -56 -39 -103.5t-55.5 -82.5t-70 -54.5t-83.5 -19.5zM156 503l-22 78l76 21l22 -78z" />
    <glyph glyph-name="sallallahoualayhewasallam-arab.isol" unicode="&#x9b8;&#x9be;&#x983;&#x983;" horiz-adv-x="989" arabic-form="isolated" 
d="M639 -27l-5 5q-12 12 -12 30t12.5 31t30.5 13q16 0 28 -10.5t15 -25.5l13 8v47l-37 -21l-15 9q4 11 4 17q0 14 -9.5 23.5t-24.5 9.5q-14 0 -23.5 -9.5t-9.5 -23.5q0 -10 5 -18l25 15l11 -19q-32 -19 -35 -19l-7 -3l-5 5q-16 14 -16 39q0 23 16 39t39 16t38 -15t17 -36
l27 16v47h-160v-143h-22v105q0 23 -6 30.5t-11 7.5h-12v-143h-22v5q0 18 -6.5 33.5t-18.5 21.5q-5 -36 -37 -46l-7 -1q-17 0 -29 13.5t-15 36.5l17 10l11 -19l-3 -2q4 -12 16 -17h4q12 4 17 12t5 27q0 23 -11.5 42t-33.5 27h-45v-143h-22v105q0 21 -6 29.5t-11 8.5h-13v-143
h-21v12q-68 1 -94 43l-5 9l1 11l58 32q-14 28 -42 36h-28v22h149q6 0 12 -6v18h22v-12h175q6 0 12 -6v18h22v-12h194q10 0 18 -6v18h21v-12h169v-22h-18v-143h-21v34q0 19 -13 35t-33 16q-17 0 -28 -11t-11 -23q0 -8 5 -16l26 15l11 -19l-42 -23q-21 18 -21 43
q0 20 15.5 36.5t36.5 18.5q-4 20 -19 28.5t-57 8.5v-143h-21v105q-2 23 -7 30.5t-11 7.5h-12v-167h-22v23l-25 -15l-12 12q3 9 3 12q0 9 -6.5 15.5t-15.5 6.5t-15.5 -6.5t-6.5 -15.5q0 -3 2 -9l16 9l11 -19q-13 -7 -18 -10t-7 -4t-3 -1t-5 -1zM582 429q-17 17 -17 36
q0 18 12.5 30.5t30.5 12.5q16 0 28 -10t15 -25l13 7v48l-37 -22l-15 9q4 12 4 18q0 14 -9.5 23.5t-24.5 9.5q-14 0 -23.5 -9.5t-9.5 -23.5q0 -10 5 -18l25 14l11 -19l-34 -19q-1 0 -2.5 -0.5t-5.5 -1.5l-5 5q-16 14 -16 39q0 23 16 39t39 16t38 -15t17 -36l27 16v47h-160
v-144h-22v106q0 32 -17 38h-12v-168h-22v24l-25 -15l-12 12q3 7 3 12q0 9 -6.5 15.5t-15.5 6.5t-15.5 -6.5t-6.5 -15.5q0 -3 2 -9l16 9l11 -19l-33 -17q-18 16 -18 36q0 18 13 30.5t31 12.5q16 0 28 -10t15 -25l13 7v48l-37 -22l-15 9q4 12 4 18q-1 14 -10 23.5t-24 9.5
q-14 0 -23.5 -9.5t-9.5 -23.5q0 -10 5 -18l25 14l11 -19l-35 -19q-1 -1 -2 -1t-2 -0.5t-3 -0.5l-5 5q-16 14 -16 39q0 23 16 39t39 16t38 -15t17 -36l27 16v47h-160v-144h-22v106q0 32 -17 38h-12v-144h-22q0 23 -6 36t-14 21l-5 4q-6 -36 -37 -46l-8 -1q-16 0 -28 13.5
t-15 36.5l17 10l11 -19l-4 -2q8 -17 21 -17q22 7 22 39q0 20 -9.5 37.5t-27.5 27.5l-8 4h-33v22h163q6 0 12 -6v18h22v-12h199q6 0 12 -6v18h22v-12h194q10 0 18 -6v18h21v-12h173v-22h-173v-144h-21v106q-2 27 -11 35l-7 3h-12v-168h-22v24l-25 -15l-12 12q3 7 3 12
q0 9 -6.5 15.5t-15.5 6.5t-15.5 -6.5t-6.5 -15.5q0 -3 2 -9l16 9l11 -19l-26 -14q-1 -1 -2 -1q-1 -1 -2 -1t-3 -1zM747 206h-21v144h-154v-144h-22v106q0 32 -17 38h-12v-144h-22v70q-10 -6 -19.5 -11.5t-19.5 -10.5l-13 10q5 13 5 18q0 14 -10 24.5t-24 10.5
q-15 0 -24.5 -10.5t-9.5 -24.5q0 -9 5 -17l26 14l10 -19l-34 -19q-1 0 -2.5 -1t-5.5 -2q-21 19 -21 44q0 24 16.5 40t39.5 16q22 0 37.5 -14.5t17.5 -36.5l26 14v49h-160v-144h-22v106q0 26 -6.5 32t-23.5 6v-144h-21q0 38 -19 57l-5 6q-9 -18 -25 -29t-32 -11
q-38 0 -58.5 25t-20.5 60l1 13l21 -3v-10q0 -24 13.5 -43.5t42.5 -19.5q17 0 29 13.5t12 29.5q-2 10 -8.5 21.5t-25.5 11.5q-5 0 -12.5 -4t-7.5 -21l17 9l11 -19l-36 -20l-6 8q-7 10 -7 25q0 14 5.5 22.5t13 13.5t15 6.5t10.5 1.5q26 -2 39 -19.5t13 -33.5v-4q6 -3 20 -17
v75h-171v22h163q24 0 35.5 -0.5t16 -1.5t5 -2t2.5 -3v19h22v-12h199q6 0 12 -7v19h22v-12h109q-10 31 -33 40l-19 -9l-10 19l25 14q17 -4 34.5 -20t24.5 -44h22q-2 10 -2 21q0 20 14.5 39t40.5 29l-1 1q-5 0 -6.5 6.5t-1.5 8.5q0 4 3.5 7.5t14 9t29.5 15t50 24.5q11 8 11 21
q0 16 -15 18q-14 0 -14 -18l-1 -4l-21 1q0 24 -20 24q-22 0 -24 -24q0 -6 3 -10l18 10l10 -19l-34 -18l-5 5q-13 13 -13 32q0 20 13 33t32 13q17 0 31 -14l3 3q11 8 22 8l7 -1q16 -5 23 -15.5t7 -21.5q0 -26 -22 -42l-81 -40q9 -8 24 -12h1q14 0 30.5 -4t37.5 -4v-22h-11
q-5 0 -10 1l6 -6l-29 -16l-11 19l4 2l-17 8q-6 3 -18 3q-26 0 -42 -17t-16 -34q0 -13 3 -20h141v-22h-142v-144zM115 -1h-6q-27 0 -50.5 25.5t-26.5 76.5l22 1q2 -38 18 -59.5t35 -21.5q13 0 24 7.5t11 22.5q-3 14 -9 18.5t-13 4.5v-1q-5 0 -8 -1.5t-6 -9.5l4 2l11 -19
l-25 -14l-5 8q-6 7 -6 21q0 13 6.5 19.5t14 11t14 10t6.5 17.5q0 8 -6 16.5t-17 8.5q-7 0 -10.5 -2.5t-5.5 -11.5l5 2l11 -18l-26 -15l-5 8q-5 7 -7 18q0 20 11 30.5t27 10.5q23 0 34 -17t11 -31q0 -13 -8 -27q23 -12 23 -41q0 -22 -14 -35t-34 -15zM700 187q-48 0 -76 13.5
t-30 25.5l-1 11l88 49l-3 20q-9 21 -33 22l-9 -2q-11 -3 -15 -10.5t-4 -19.5v-3l23 12l10 -19l-40 -22l-6 8q-8 9 -9 22q0 19 7 30.5t15.5 16.5t17 6.5t11.5 1.5q31 -2 44 -21.5t13 -37.5q0 -4 -0.5 -8t-1.5 -9l-81 -45q21 -18 80 -20v-21zM876 187q-32 0 -52.5 6t-33 13.5
t-17.5 15t-5 10.5v5l88 49q0 21 -10.5 31.5t-26.5 10.5q-5 0 -16 -5t-11 -27l1 -3l22 12l11 -19l-41 -22l-6 8q-8 11 -8 27q0 24 14 37t36 13q27 0 42 -18t15 -49q-1 -2 -1 -9l-81 -45l7 -5q27 -15 73 -15v-21zM279 34v109h-40q15 -14 21 -33l2 -15l-57 -31q19 -28 74 -30z
M198 523v77h-52q22 -26 27 -57q12 -5 25 -20zM488 67v76h-52q22 -26 27 -57q13 -6 25 -19zM924 88v55h-49q15 -14 17 -38q20 -5 32 -17zM235 -17q-18 5 -28 11l10 19l24 -9z" />
    <glyph glyph-name="zophola_bn" unicode="&#x9cd;&#x9af;" horiz-adv-x="233" 
d="M77 -42l-42 70q34 18 59 57t25 98q1 23 -10.5 51t-30.5 63l-18 33q-15 27 -21.5 52t-6.5 46q0 60 35 113h-77v81h253v-81h-70q-59 -56 -59 -114q-2 -17 8 -38t26 -50l18 -33q17 -31 26 -61.5t9 -65.5q0 -78 -34.5 -135t-89.5 -86z" />
    <glyph glyph-name=".notdef" horiz-adv-x="587" 
d="M389 421h-60l-152 -53v-309h212v136h-76v-66h-56v194l56 19v-86h76v66l59 20v-196l15 -87h65v362h-63l-76 -25v25zM453 491v-43h75v117h-261l-208 -61v-445h84v389l92 29zM587 0h-587v624h587v-624z" />
    <glyph glyph-name=".null" 
 />
    <glyph glyph-name=".null" 
 />
    <glyph glyph-name="nonmarkingreturn" horiz-adv-x="215" 
 />
    <glyph glyph-name="space" unicode=" " horiz-adv-x="271" 
 />
    <glyph glyph-name="space" unicode="&#xa0;" horiz-adv-x="271" 
 />
    <glyph glyph-name="exclam" unicode="!" horiz-adv-x="228" 
d="M172 149h-82v472h82v-472zM131 -16q-16 0 -28 12t-12 28q0 17 12 28.5t28 11.5q17 0 28.5 -11.5t11.5 -28.5q0 -16 -11.5 -28t-28.5 -12z" />
    <glyph glyph-name="quotedbl" unicode="&#x22;" horiz-adv-x="317" 
d="M87 528q-52 79 -52 126q0 6 3.5 14.5t10 16.5t16 13.5t22.5 5.5t23 -5.5t17 -13t10.5 -15.5t3.5 -14q0 -38 -54 -128zM230 528q-52 79 -52 126q0 6 3.5 14.5t10 16.5t16 13.5t22.5 5.5t23 -5.5t17 -13t10.5 -15.5t3.5 -14q0 -38 -54 -128z" />
    <glyph glyph-name="numbersign" unicode="#" horiz-adv-x="692" 
d="M431 -2l-93 21l50 213h-121l-54 -234l-93 21l50 213h-135v32h142l22 95h-164v32h171l55 234l92 -21l-49 -213h120l55 234l92 -21l-49 -213h135v-32h-143l-22 -95h165v-32h-172zM395 264l22 95h-121l-22 -95h121z" />
    <glyph glyph-name="dollar" unicode="$" horiz-adv-x="514" 
d="M467 200q0 -64 -46.5 -105.5t-134.5 -51.5v-95h-59v93q-108 1 -179 33v93q18 -9 41.5 -17t47.5 -14t47.5 -9.5t42.5 -3.5v165l-37 13q-72 28 -105.5 66.5t-33.5 95.5q0 61 47.5 100t128.5 48v74h59v-73q89 -3 170 -36l-33 -81q-69 28 -137 33v-160l33 -13
q42 -17 70 -33.5t45.5 -35t25 -39.5t7.5 -47zM363 193q0 26 -17.5 42.5t-59.5 31.5v-141q77 12 77 67zM155 464q0 -25 15 -42t57 -33v137q-35 -5 -53.5 -21.5t-18.5 -40.5z" />
    <glyph glyph-name="percent" unicode="%" horiz-adv-x="760" 
d="M165 357q-28 1 -52 11.5t-41.5 28t-28 41.5t-11.5 53q1 28 11.5 52t28 41.5t41.5 28t52 11.5q28 -1 52.5 -11.5t42.5 -28t28 -41.5t10 -52q0 -29 -10 -53t-28 -41.5t-42.5 -28t-52.5 -11.5zM165 439q21 0 36.5 15t15.5 37q0 21 -15.5 36t-36.5 15q-22 0 -36.5 -15
t-14.5 -36q0 -22 14.5 -37t36.5 -15zM595 -12q-29 0 -53 10.5t-41.5 28t-28 41.5t-11.5 53q1 28 11.5 52.5t28 42.5t41.5 28t53 10q28 0 52 -10t41.5 -28t28 -42.5t11.5 -52.5q-1 -29 -11.5 -53t-28 -41.5t-41.5 -28t-52 -10.5zM595 70q21 0 36 14.5t15 36.5q0 21 -15 36.5
t-36 15.5q-22 0 -37 -15.5t-15 -36.5q0 -22 15 -36.5t37 -14.5zM284 8l-73 35l278 577l73 -36z" />
    <glyph glyph-name="ampersand" unicode="&#x26;" horiz-adv-x="669" 
d="M200 505q0 -27 14.5 -52t41.5 -52q50 28 70 52.5t20 54.5q0 29 -19.5 46t-50.5 17q-35 0 -55.5 -18t-20.5 -48zM265 80q80 0 138 47l-168 166q-48 -29 -65 -55.5t-17 -59.5q0 -45 30.5 -71.5t81.5 -26.5zM43 171q0 28 6.5 53t22 47.5t40.5 43.5t61 42q-42 48 -57 82
t-15 70q0 67 47.5 106t128.5 39q78 0 122.5 -38t44.5 -102q0 -51 -29.5 -91t-99.5 -82l153 -147q35 48 59 138h107q-32 -125 -99 -204l133 -128h-134l-65 64q-45 -36 -95.5 -54.5t-113.5 -18.5q-102 0 -159.5 47.5t-57.5 132.5z" />
    <glyph glyph-name="quotesingle" unicode="'" horiz-adv-x="174" 
d="M87 528q-52 79 -52 126q0 6 3.5 14.5t10 16.5t16 13.5t22.5 5.5t23 -5.5t17 -13t10.5 -15.5t3.5 -14q0 -38 -54 -128z" />
    <glyph glyph-name="parenleft" unicode="(" horiz-adv-x="397" 
d="M348 -236q-83 56 -143 115.5t-98.5 129t-56.5 152.5t-18 187q1 81 24 150.5t57.5 125.5t75 99.5t75 73.5t58.5 45.5t26 16.5l42 -70q-60 -39 -110 -88t-87 -105.5t-58 -119t-22 -128.5q1 -94 17 -168t50 -135t87 -113t128 -101z" />
    <glyph glyph-name="parenright" unicode=")" horiz-adv-x="397" 
d="M49 -236l-47 67q75 50 128.5 102t87 113t49.5 134.5t17 167.5q-1 65 -22 128t-58 120t-87 106t-110 87l42 70q2 -1 25.5 -16.5t58.5 -45.5t75 -73.5t74.5 -100t58 -125.5t24.5 -150q0 -104 -18.5 -187t-57 -152.5t-98 -129t-142.5 -115.5z" />
    <glyph glyph-name="asterisk" unicode="*" horiz-adv-x="553" 
d="M393 78l-117 162l-117 -162l-66 48l104 143h-165v82h165l-104 144l66 48l117 -163l117 163l66 -48l-103 -144h165v-82h-165l103 -143z" />
    <glyph glyph-name="plus" unicode="+" horiz-adv-x="554" 
d="M318 66h-82v204h-204v82h204v204h82v-204h204v-82h-204v-204z" />
    <glyph glyph-name="comma" unicode="," horiz-adv-x="174" 
d="M36 -84l-11 39q26 7 45.5 20t25.5 31q-8 -3 -13 -3q-21 1 -35 13t-16 33q1 23 14.5 37.5t33.5 14.5q27 0 44.5 -20t17.5 -46q0 -83 -93 -114z" />
    <glyph glyph-name="hyphenminus" unicode="-" horiz-adv-x="377" 
d="M345 270h-313v82h313v-82z" />
    <glyph glyph-name="period" unicode="." horiz-adv-x="172" 
d="M86 -9q-22 0 -38 15.5t-16 38.5q0 22 16 37.5t38 15.5q23 0 38.5 -15.5t15.5 -37.5q0 -23 -15.5 -38.5t-38.5 -15.5z" />
    <glyph glyph-name="slash" unicode="/" horiz-adv-x="483" 
d="M106 -89l-74 34l344 766l75 -34z" />
    <glyph glyph-name="zero" unicode="0" horiz-adv-x="515" 
d="M476 322q0 -169 -53.5 -250t-165.5 -81q-108 0 -163 84t-55 247q0 172 53.5 252t164.5 80q109 0 164 -84t55 -248zM144 322q0 -132 27 -188t86 -56q60 0 87.5 57t27.5 187t-27.5 188t-87.5 58q-59 0 -86 -57t-27 -189z" />
    <glyph glyph-name="one" unicode="1" horiz-adv-x="515" 
d="M343 0h-104v416q0 37 1 66.5t3 51.5l-25 -23q-15 -14 -99 -81l-52 65l189 149h87v-644z" />
    <glyph glyph-name="two" unicode="2" horiz-adv-x="515" 
d="M476 0h-436v78l166 167q47 49 75 80t43 54.5t20 44t5 47.5q0 45 -26 69.5t-72 24.5q-37 0 -71.5 -13.5t-80.5 -49.5l-56 68q54 46 104.5 65t108.5 19q45 0 81.5 -12t62.5 -34.5t40 -55t14 -72.5q0 -34 -7.5 -63.5t-27 -61t-53 -68t-84.5 -83.5l-111 -108v-5h305v-91z" />
    <glyph glyph-name="three" unicode="3" horiz-adv-x="516" 
d="M452 496q0 -61 -35 -102t-101 -55v-3q78 -10 116.5 -48.5t38.5 -102.5q0 -94 -65.5 -144t-186.5 -50q-106 0 -181 35v92q42 -20 87.5 -31t87.5 -11q149 0 149 113q0 52 -41 76.5t-129 24.5h-56v84h57q154 0 154 106q0 42 -27 64.5t-79 22.5q-18 0 -35 -2.5t-35 -8
t-37.5 -15.5t-43.5 -25l-50 72q88 66 205 66q99 0 153 -41.5t54 -116.5z" />
    <glyph glyph-name="four" unicode="4" horiz-adv-x="515" 
d="M499 141h-87v-141h-100v141h-295v79l295 426h100v-419h87v-86zM312 227v161q0 44 1 79t3 63h-4q-12 -27 -38 -71l-160 -232h198z" />
    <glyph glyph-name="five" unicode="5" horiz-adv-x="514" 
d="M257 402q99 0 155 -51t56 -141q0 -103 -64 -161t-184 -58q-107 0 -169 35v94q35 -20 81.5 -31t85.5 -11q144 0 144 123q0 115 -148 115q-20 0 -50.5 -4t-53.5 -10l-46 28l24 314h335v-92h-243l-15 -159q16 2 38 5.5t54 3.5z" />
    <glyph glyph-name="six" unicode="6" horiz-adv-x="516" 
d="M42 275q0 378 308 378q47 0 82 -8v-86q-33 9 -77 9q-105 0 -156.5 -55t-55.5 -178h5q21 36 58 55.5t88 19.5q88 0 137 -53.5t49 -146.5q0 -102 -56 -160.5t-155 -58.5q-52 0 -94 19t-71.5 55.5t-45.5 89t-16 120.5zM267 77q54 0 82.5 34t28.5 98q0 57 -27 88t-81 31
q-26 0 -48 -8.5t-39 -23t-26.5 -33t-9.5 -39.5q0 -30 9 -56.5t24.5 -47t37.5 -32t49 -11.5z" />
    <glyph glyph-name="seven" unicode="7" horiz-adv-x="514" 
d="M112 0l255 552h-335v91h445v-72l-253 -571h-112z" />
    <glyph glyph-name="eight" unicode="8" horiz-adv-x="515" 
d="M257 653q93 0 146 -42.5t53 -112.5q0 -99 -119 -158q75 -38 107 -79.5t32 -93.5q0 -40 -15 -72.5t-43.5 -55.5t-68.5 -35.5t-90 -12.5q-106 0 -163 45t-57 127q0 54 30 97t99 77q-60 35 -84.5 74t-24.5 88q0 35 14.5 63.5t40.5 48.5t62.5 31t80.5 11zM138 167
q0 -46 32 -71t87 -25q57 0 88.5 26t31.5 71q0 71 -117 120l-13 5q-58 -25 -83.5 -55.5t-25.5 -70.5zM256 573q-45 0 -71 -22t-26 -59q2 -18 6 -32t14.5 -26t29 -24t50.5 -27q54 23 75.5 48.5t21.5 60.5q0 37 -27.5 59t-72.5 22z" />
    <glyph glyph-name="nine" unicode="9" horiz-adv-x="515" 
d="M475 369q0 -378 -307 -378q-60 0 -84 7v87q41 -11 79 -11q105 0 156.5 56.5t55.5 177.5h-5q-26 -40 -62 -57.5t-87 -17.5q-85 0 -134 52.5t-49 146.5q0 102 56 161.5t155 59.5q105 0 165.5 -74.5t60.5 -209.5zM251 567q-54 0 -82.5 -35t-28.5 -99q0 -55 26.5 -86.5
t80.5 -31.5q27 0 49.5 8.5t39 23t26 33.5t9.5 40q0 30 -9 56.5t-24.5 46.5t-37.5 32t-49 12z" />
    <glyph glyph-name="colon" unicode=":" horiz-adv-x="172" 
d="M86 341q-22 0 -38 15.5t-16 38.5q0 22 16 37.5t38 15.5t38 -15.5t16 -37.5q0 -23 -16 -38.5t-38 -15.5zM86 50q-22 0 -38 15.5t-16 38.5q0 22 16 37.5t38 15.5t38 -15.5t16 -37.5q0 -23 -16 -38.5t-38 -15.5z" />
    <glyph glyph-name="semicolon" unicode=";" horiz-adv-x="172" 
d="M86 341q-23 0 -38.5 15.5t-15.5 38.5q0 22 15.5 37.5t38.5 15.5q22 0 37.5 -15.5t15.5 -37.5q0 -23 -15.5 -38.5t-37.5 -15.5zM39 -22l-11 39q62 23 71 51q-8 -3 -15 -3q-19 0 -33 12t-16 33q1 23 14.5 37.5t34.5 14.5q30 0 45.5 -21.5t15.5 -44.5q0 -33 -17 -60t-51 -44
q-15 -8 -24.5 -10.5t-13.5 -3.5z" />
    <glyph glyph-name="less" unicode="&#x3c;" horiz-adv-x="356" 
d="M35 311q72 93 303 230q-171 -153 -193 -230q22 -77 193 -230q-231 137 -303 230z" />
    <glyph glyph-name="equal" unicode="=" horiz-adv-x="572" 
d="M537 261v-95h-502v95h502zM35 361v95h502v-95h-502z" />
    <glyph glyph-name="greater" unicode="&#x3e;" horiz-adv-x="356" 
d="M321 311q-72 -93 -303 -230q171 153 193 230q-22 77 -193 230q231 -137 303 -230z" />
    <glyph glyph-name="question" unicode="?" horiz-adv-x="455" 
d="M192 127q-3 28 -3 53q0 28 6 49t17 38.5t28 33t38 32.5q71 56 71 116q0 48 -20.5 71t-51.5 21l-19 -1q-49 -16 -52 -64l36 20l39 -71l-112 -63l-21 30q-24 33 -24 74q0 39 12 68t33 48.5t49 29.5t59 10q47 0 77 -19t47 -46t23 -56.5t6 -50.5q0 -34 -9 -61t-24 -49.5
t-34.5 -41t-41.5 -35.5q-18 -15 -28.5 -24t-15 -17.5t-5.5 -19t-1 -27.5q0 -8 0.5 -18t1.5 -23zM241 -15q-16 0 -28 12t-12 28q0 17 12 28.5t28 11.5q17 0 28.5 -11.5t11.5 -28.5q0 -16 -11.5 -28t-28.5 -12z" />
    <glyph glyph-name="at" unicode="@" horiz-adv-x="898" 
d="M843 361q0 -54 -12.5 -99.5t-36 -79t-56 -52.5t-71.5 -19t-67 20.5t-38 55.5h-6q-48 -76 -138 -76q-81 0 -126 51t-45 139q0 50 16 91.5t45 71.5t70 46.5t92 16.5q18 0 39.5 -1.5t43 -5t42 -8t38.5 -10.5l-11 -239q0 -78 51 -78q19 0 34.5 13t26.5 36.5t17 56t6 71.5
q0 63 -20 114.5t-56 87.5t-87 56t-113 20q-79 0 -141.5 -25t-106.5 -70.5t-67.5 -110.5t-23.5 -145q0 -143 75 -218.5t218 -75.5q107 0 225 44v-80q-102 -42 -223 -42q-92 0 -163.5 25.5t-120.5 74t-74 118t-25 157.5q0 98 33 176.5t91 134t137 85.5t171 30
q79 0 144.5 -26.5t112.5 -73.5t73.5 -112.5t26.5 -144.5zM341 299q0 -114 89 -114q95 0 103 143l6 117q-34 8 -66 8q-63 0 -97.5 -41t-34.5 -113z" />
    <glyph glyph-name="A" unicode="A" horiz-adv-x="597" 
d="M485 0l-65 179h-246l-63 -179h-111l241 647h115l241 -647h-112zM393 270l-79 231q-7 19 -11 33l-5 22q-6 -27 -15 -56.5t-20 -61.5l-58 -168h188z" />
    <glyph glyph-name="B" unicode="B" horiz-adv-x="595" 
d="M85 644h191q133 0 192.5 -38.5t59.5 -122.5q0 -57 -29 -94t-84 -47v-4q69 -13 100.5 -51t31.5 -102q0 -88 -60 -136.5t-169 -48.5h-233v644zM190 378h102q66 0 96.5 20.5t30.5 71.5q0 46 -32.5 66t-104.5 20h-92v-178zM190 293v-204h112q66 0 100 25t34 80q0 99 -139 99
h-107z" />
    <glyph glyph-name="C" unicode="C" horiz-adv-x="571" 
d="M359 563q-91 0 -143 -63.5t-52 -178.5q0 -118 49.5 -179t145.5 -61q42 0 79.5 8t79.5 21v-90q-78 -29 -172 -29q-142 0 -217.5 85.5t-75.5 245.5q0 76 21.5 137.5t61 104.5t96.5 66.5t128 23.5q99 0 182 -42l-37 -88q-33 16 -69.5 27.5t-76.5 11.5z" />
    <glyph glyph-name="D" unicode="D" horiz-adv-x="662" 
d="M609 328q0 -160 -88 -244t-256 -84h-180v644h199q155 0 240 -82t85 -234zM498 325q0 231 -216 231h-92v-467h75q233 0 233 236z" />
    <glyph glyph-name="E" unicode="E" horiz-adv-x="503" 
d="M449 0h-364v644h364v-89h-259v-175h243v-88h-243v-203h259v-89z" />
    <glyph glyph-name="F" unicode="F" horiz-adv-x="480" 
d="M189 0h-104v644h364v-89h-260v-201h243v-90h-243v-264z" />
    <glyph glyph-name="G" unicode="G" horiz-adv-x="655" 
d="M349 349h237v-323q-60 -19 -112.5 -27t-115.5 -8q-147 0 -226 86t-79 245q0 78 23 140t66.5 104.5t106 65t140.5 22.5q101 0 191 -39l-37 -88q-78 36 -157 36q-51 0 -92.5 -16.5t-70.5 -48t-44.5 -76t-15.5 -101.5q0 -118 53.5 -179.5t156.5 -61.5q53 0 109 13v166h-133
v90z" />
    <glyph glyph-name="H" unicode="H" horiz-adv-x="678" 
d="M593 0h-106v290h-297v-290h-105v644h105v-263h297v263h106v-644z" />
    <glyph glyph-name="I" unicode="I" horiz-adv-x="325" 
d="M292 0h-260v60l77 26v472l-77 26v60h260v-60l-78 -26v-472l78 -26v-60z" />
    <glyph glyph-name="J" unicode="J" horiz-adv-x="271" 
d="M5 -180q-43 0 -73 11v89q37 -9 65 -9q86 0 86 109v624h106v-621q0 -99 -46.5 -151t-137.5 -52z" />
    <glyph glyph-name="K" unicode="K" horiz-adv-x="577" 
d="M577 0h-122l-202 292l-63 -51v-241h-105v644h105v-307q21 26 43 51t43 50l174 206h120q-85 -100 -145 -170t-97 -112z" />
    <glyph glyph-name="L" unicode="L" horiz-adv-x="490" 
d="M85 0v644h105v-554h273v-90h-378z" />
    <glyph glyph-name="M" unicode="M" horiz-adv-x="833" 
d="M364 0l-187 538h-4q4 -60 6 -116t2 -109v-313h-96v644h149l178 -512h3l184 512h149v-644h-101v319q0 20 1 55t2 69.5t2.5 61.5t1.5 32h-4l-193 -537h-93z" />
    <glyph glyph-name="N" unicode="N" horiz-adv-x="707" 
d="M622 0h-129l-317 513h-4l3 -28q5 -42 4.5 -79t1.5 -71v-335h-96v644h128l316 -510h2q0 1 -1 23.5t-2 51t-2 56.5t-1 42v337h97v-644z" />
    <glyph glyph-name="O" unicode="O" horiz-adv-x="710" 
d="M657 323q0 -78 -20 -140t-58.5 -104.5t-94.5 -65t-128 -22.5q-147 0 -225 86t-78 247q0 160 78.5 245t225.5 85q144 0 222 -86t78 -245zM165 323q0 -120 47.5 -181t143.5 -61q94 0 141.5 60.5t47.5 181.5q0 241 -188 241q-192 0 -192 -241z" />
    <glyph glyph-name="P" unicode="P" horiz-adv-x="556" 
d="M512 449q0 -100 -66 -154t-189 -54h-67v-241h-105v644h186q241 0 241 -195zM190 330h56q81 0 119 28t38 88q0 55 -33.5 82.5t-105.5 27.5h-74v-226z" />
    <glyph glyph-name="Q" unicode="Q" horiz-adv-x="710" 
d="M657 323q0 -118 -44 -198t-131 -112l154 -166h-142l-121 144h-17q-147 0 -225 86t-78 247q0 160 78.5 245t225.5 85q144 0 222 -86t78 -245zM165 323q0 -120 47.5 -181t143.5 -61q94 0 141.5 60.5t47.5 181.5q0 241 -188 241q-192 0 -192 -241z" />
    <glyph glyph-name="R" unicode="R" horiz-adv-x="577" 
d="M190 345h74q73 0 106 27t33 81q0 55 -35.5 78.5t-107.5 23.5h-70v-210zM190 257v-257h-105v644h182q126 0 185.5 -46.5t59.5 -140.5q0 -121 -126 -172l182 -285h-119l-155 257h-104z" />
    <glyph glyph-name="S" unicode="S" horiz-adv-x="498" 
d="M458 175q0 -87 -62.5 -135.5t-171.5 -48.5q-110 0 -179 34v100q45 -21 94 -33t92 -12q63 0 92.5 24t29.5 64q0 17 -5.5 31.5t-20.5 28.5t-42.5 28.5t-71.5 32.5q-88 35 -124 81t-36 110q0 81 57 127.5t154 46.5q91 0 184 -41l-34 -86q-86 36 -153 36q-51 0 -77.5 -22
t-26.5 -59q0 -21 5.5 -35.5t20 -27t40.5 -25.5t67 -30q47 -20 79.5 -39t52 -41t28 -48.5t8.5 -60.5z" />
    <glyph glyph-name="T" unicode="T" horiz-adv-x="509" 
d="M307 0h-106v554h-189v90h484v-90h-189v-554z" />
    <glyph glyph-name="U" unicode="U" horiz-adv-x="671" 
d="M591 644v-417q0 -54 -17.5 -97.5t-50.5 -74t-81 -47.5t-109 -17q-121 0 -187 63t-66 175v415h106v-407q0 -81 36.5 -118.5t114.5 -37.5q149 0 149 157v406h105z" />
    <glyph glyph-name="V" unicode="V" horiz-adv-x="561" 
d="M452 644h109l-225 -644h-111l-225 644h108l135 -400q4 -13 10 -33t11.5 -41t10 -39.5t6.5 -27.5q2 15 6.5 35.5t10.5 41t11.5 38.5t8.5 27z" />
    <glyph glyph-name="W" unicode="W" horiz-adv-x="855" 
d="M681 0h-115l-109 384q-3 11 -8 31t-10 41.5t-9 40t-4 26.5q-2 -12 -6 -32t-8.5 -40.5t-9 -39t-7.5 -28.5l-106 -383h-115l-83 323l-85 321h108l92 -375q11 -46 18.5 -85.5t12.5 -74.5q3 19 6.5 41t8 43t9 40.5t8.5 34.5l105 376h104l108 -378q8 -26 16 -65t16 -92
q3 32 11.5 72t20.5 89l92 374h106z" />
    <glyph glyph-name="X" unicode="X" horiz-adv-x="562" 
d="M560 0h-122l-161 264l-162 -264h-113l213 334l-200 310h118l149 -243l149 243h113l-201 -312z" />
    <glyph glyph-name="Y" unicode="Y" horiz-adv-x="534" 
d="M267 350l153 294h114l-215 -394v-250h-105v246l-214 398h115z" />
    <glyph glyph-name="Z" unicode="Z" horiz-adv-x="519" 
d="M490 0h-461v73l325 481h-316v90h443v-74l-326 -480h335v-90z" />
    <glyph glyph-name="bracketleft" unicode="[" horiz-adv-x="264" 
d="M236 -101h-204v823h204v-81h-122v-660h122v-82z" />
    <glyph glyph-name="backslash" unicode="\" horiz-adv-x="330" 
d="M215 -100l-180 822h80l180 -822h-80z" />
    <glyph glyph-name="bracketright" unicode="]" horiz-adv-x="264" 
d="M27 -101v82h122v660h-122v81h204v-823h-204z" />
    <glyph glyph-name="asciicircum" unicode="^" horiz-adv-x="297" 
d="M149 865q76 -76 141 -212q-42 42 -77 69.5t-64 43.5q-29 -16 -64.5 -43.5t-77.5 -69.5q65 137 142 212z" />
    <glyph glyph-name="underscore" unicode="_" horiz-adv-x="631" 
d="M-10 0v74h651v-74h-651z" />
    <glyph glyph-name="grave" unicode="`" horiz-adv-x="137" 
d="M110 622q-45 18 -77.5 42t-32.5 49q0 57 58 57q27 0 43 -31t36 -102z" />
    <glyph glyph-name="a" unicode="a" horiz-adv-x="523" 
d="M379 0l-21 68h-3q-18 -23 -35 -37.5t-36 -23.5t-41.5 -12.5t-50.5 -3.5q-72 0 -112 38.5t-40 110.5q0 76 55.5 113t170.5 42l84 3v26q0 93 -89 93q-38 0 -72 -11t-66 -26l-34 74q40 21 87 31.5t89 10.5q94 0 141 -40t47 -128v-328h-74zM225 71q57 0 90.5 31t33.5 88v43
l-62 -3q-73 -4 -106.5 -25t-33.5 -66q0 -68 78 -68z" />
    <glyph glyph-name="b" unicode="b" horiz-adv-x="562" 
d="M323 496q91 0 142 -65.5t51 -185.5q0 -121 -51 -187.5t-144 -66.5q-92 0 -143 67h-7l-19 -58h-78v686h104v-163q0 -7 -0.5 -22.5t-1.5 -31.5t-2 -29.5t-1 -16.5h5q49 73 145 73zM296 412q-63 0 -90.5 -36.5t-27.5 -123.5v-7q0 -90 28 -129.5t92 -39.5q55 0 83.5 43.5
t28.5 125.5q0 167 -114 167z" />
    <glyph glyph-name="c" unicode="c" horiz-adv-x="448" 
d="M272 -9q-112 0 -169 64.5t-57 185.5q0 124 59.5 189.5t174.5 65.5q79 0 139 -28l-32 -84q-66 26 -108 26q-126 0 -126 -168q0 -82 31.5 -123t91.5 -41q70 0 131 34v-90q-27 -17 -58.5 -24t-76.5 -7z" />
    <glyph glyph-name="d" unicode="d" horiz-adv-x="563" 
d="M239 -9q-91 0 -142 65.5t-51 186.5t52 187t143 66q96 0 146 -71h6q-4 26 -6 47t-2 36v178h104v-686h-81l-18 64h-5q-49 -73 -146 -73zM267 75q64 0 93 35.5t30 116.5v15q0 92 -30 131t-94 39q-54 0 -83.5 -44.5t-29.5 -126.5q0 -81 28.5 -123.5t85.5 -42.5z" />
    <glyph glyph-name="e" unicode="e" horiz-adv-x="521" 
d="M288 -9q-115 0 -178.5 66t-63.5 183q0 121 59 188.5t164 67.5q96 0 152 -58.5t56 -161.5v-56h-324q2 -72 38 -109.5t102 -37.5q43 0 80 8t80 27v-84q-38 -18 -76 -25.5t-89 -7.5zM269 418q-49 0 -79 -31.5t-36 -91.5h222q-1 61 -29.5 92t-77.5 31z" />
    <glyph glyph-name="f" unicode="f" horiz-adv-x="328" 
d="M319 409h-119v-409h-104v409h-81v48l81 32v32q0 170 164 170q57 0 108 -19l-28 -78q-38 12 -73 12t-51 -21t-16 -66v-32h119v-78z" />
    <glyph glyph-name="g" unicode="g" horiz-adv-x="502" 
d="M486 487v-56l-84 -16q12 -15 19.5 -37.5t7.5 -47.5q0 -76 -52 -119t-143 -43q-24 0 -43 3q-33 -20 -33 -48q0 -17 15.5 -25.5t57.5 -8.5h85q164 0 164 -133q0 -84 -67.5 -128.5t-197.5 -44.5q-100 0 -152.5 35t-52.5 101q0 45 28.5 75.5t79.5 42.5q-21 9 -34 28.5
t-13 41.5q0 27 15 46t46 37q-38 17 -61.5 53t-23.5 87q0 79 49.5 122.5t142.5 43.5q21 0 43.5 -3t34.5 -6h169zM103 -76q0 -33 30 -51t85 -18q85 0 126 24t41 64q0 32 -22.5 45.5t-84.5 13.5h-78q-45 0 -71 -21t-26 -57zM147 330q0 -46 23 -71t68 -25q90 0 90 97
q0 48 -22 73.5t-68 25.5q-91 0 -91 -100z" />
    <glyph glyph-name="h" unicode="h" horiz-adv-x="573" 
d="M503 0h-104v300q0 112 -95 112q-65 0 -95.5 -39t-30.5 -131v-242h-104v686h104v-174q0 -42 -6 -90h7q21 35 58.5 54.5t88.5 19.5q177 0 177 -178v-318z" />
    <glyph glyph-name="i" unicode="i" horiz-adv-x="250" 
d="M177 0h-104v487h104v-487zM67 617q0 27 15 42t43 15t43 -15t15 -42t-15 -42t-43 -15t-43 15t-15 42z" />
    <glyph glyph-name="j" unicode="j" horiz-adv-x="251" 
d="M24 -217q-44 0 -77 11v82q32 -8 61 -8q66 0 66 75v544h104v-551q0 -75 -39.5 -114t-114.5 -39zM68 617q0 27 15 42t43 15t43 -15t15 -42t-15 -42t-43 -15t-43 15t-15 42z" />
    <glyph glyph-name="k" unicode="k" horiz-adv-x="517" 
d="M174 257l59 74l147 156h119l-196 -209l209 -278h-122l-156 214l-57 -47v-167h-103v686h103v-335l-6 -94h3z" />
    <glyph glyph-name="l" unicode="l" horiz-adv-x="252" 
d="M178 0h-104v686h104v-686z" />
    <glyph glyph-name="m" unicode="m" horiz-adv-x="862" 
d="M485 0h-104v301q0 111 -88 111q-60 0 -87.5 -39t-27.5 -130v-243h-104v487h81l15 -64h5q20 35 58 54t86 19q112 0 149 -76h7q21 36 60 56t90 20q88 0 127.5 -43.5t39.5 -134.5v-318h-103v301q0 111 -88 111q-60 0 -88 -38t-28 -116v-258z" />
    <glyph glyph-name="n" unicode="n" horiz-adv-x="573" 
d="M503 0h-104v300q0 112 -95 112q-66 0 -96 -39t-30 -130v-243h-104v487h81l15 -64h5q22 35 62.5 54t89.5 19q176 0 176 -178v-318z" />
    <glyph glyph-name="o" unicode="o" horiz-adv-x="553" 
d="M507 245q0 -121 -61 -187.5t-170 -66.5q-53 0 -95.5 18t-72.5 51t-46 80t-16 105q0 118 60.5 184.5t171.5 66.5q53 0 95.5 -17.5t72 -50.5t45.5 -79.5t16 -103.5zM153 245q0 -169 124 -169t124 169q0 167 -125 167q-66 0 -94.5 -43t-28.5 -124z" />
    <glyph glyph-name="p" unicode="p" horiz-adv-x="562" 
d="M321 -9q-92 0 -143 67h-7q4 -31 5.5 -49.5t1.5 -25.5v-200h-104v704h84q2 -7 5.5 -23t8.5 -42h6q48 74 145 74q91 0 142 -65.5t51 -185.5q0 -121 -52 -187.5t-143 -66.5zM296 412q-63 0 -90.5 -36.5t-27.5 -115.5v-15q0 -90 28 -129.5t92 -39.5q54 0 83 44t29 125
q0 82 -28.5 124.5t-85.5 42.5z" />
    <glyph glyph-name="q" unicode="q" horiz-adv-x="563" 
d="M268 74q66 0 94 37t28 115v16q0 90 -29 130t-95 40q-55 0 -84 -44.5t-29 -126.5q0 -167 115 -167zM239 -9q-91 0 -142 66t-51 186t52 186.5t143 66.5q46 0 82.5 -17t64.5 -56h4l11 64h86v-704h-104v207q0 19 2 40.5t3 33.5h-6q-45 -73 -145 -73z" />
    <glyph glyph-name="r" unicode="r" horiz-adv-x="389" 
d="M321 496q16 0 29 -1t23 -3l-10 -97q-23 6 -46 6q-31 0 -56.5 -11t-44 -30.5t-28.5 -46t-10 -58.5v-255h-104v487h81l14 -86h5q24 45 63 70t84 25z" />
    <glyph glyph-name="s" unicode="s" horiz-adv-x="440" 
d="M402 139q0 -72 -51.5 -110t-148.5 -38q-99 0 -157 30v89q85 -39 160 -39q96 0 96 57q0 25 -24.5 43.5t-88.5 43.5q-43 16 -70.5 31.5t-44 33t-23 38t-6.5 46.5q0 63 50 97.5t138 34.5q85 0 163 -35l-34 -78q-80 33 -133 33q-82 0 -82 -47q0 -12 4 -20.5t16.5 -17.5
t35 -19.5t59.5 -24.5q39 -15 66 -30t43.5 -32t24 -37.5t7.5 -48.5z" />
    <glyph glyph-name="t" unicode="t" horiz-adv-x="355" 
d="M256 75q37 0 75 12v-78q-17 -8 -44 -13t-56 -5q-147 0 -147 155v263h-67v46l72 38l35 103h64v-109h139v-78h-139v-261q0 -37 18.5 -55t49.5 -18z" />
    <glyph glyph-name="u" unicode="u" horiz-adv-x="572" 
d="M417 0l-15 64h-5q-22 -34 -61.5 -53.5t-91.5 -19.5q-175 0 -175 178v318h104v-300q0 -112 95 -112q65 0 95.5 39t30.5 131v242h104v-487h-81z" />
    <glyph glyph-name="v" unicode="v" horiz-adv-x="483" 
d="M185 0l-185 487h109l99 -283q12 -35 20.5 -64t10.5 -51h4q5 33 31 115l99 283h110l-186 -487h-112z" />
    <glyph glyph-name="w" unicode="w" horiz-adv-x="739" 
d="M475 0l-63 227q-5 19 -16.5 60.5t-25.5 107.5h-4q-13 -60 -23 -101.5t-17 -66.5l-65 -227h-115l-136 487h106l62 -240q21 -88 30 -152h2q2 15 6 34l8 39q4 20 8 37t7 26l74 256h114l72 -256q3 -9 7.5 -27.5t9 -39t7.5 -39.5t4 -29h4q6 56 31 151l63 240h104l-138 -487
h-116z" />
    <glyph glyph-name="x" unicode="x" horiz-adv-x="496" 
d="M181 249l-163 238h118l111 -170l112 170h117l-164 -238l173 -249h-118l-120 182l-120 -182h-117z" />
    <glyph glyph-name="y" unicode="y" horiz-adv-x="484" 
d="M0 487h113l99 -276q11 -29 19 -57t11 -54h3q2 13 3.5 20t4.5 17.5t9 29.5t19.5 57.5t35.5 101.5t55 161h112l-209 -552q-56 -152 -189 -152q-32 0 -67 8v82q22 -6 53 -6q38 -1 63.5 21t42.5 66l18 46z" />
    <glyph glyph-name="z" unicode="z" horiz-adv-x="430" 
d="M399 0h-370v64l246 344h-231v79h348v-72l-241 -336h248v-79z" />
    <glyph glyph-name="braceleft" unicode="{" horiz-adv-x="298" 
d="M270 -147q-5 0 -26 10q-142 58 -142 226q0 37 5 66.5t5 47.5q0 11 -3.5 20t-14.5 17.5t-30.5 17.5t-50.5 20v65q30 10 49 18.5t30.5 17t15.5 18t4 21.5q0 18 -5 47.5t-5 66.5q0 166 142 226q25 10 26 10l19 -80q-43 -11 -74.5 -49t-31.5 -104q0 -20 1.5 -35.5t4 -29
t4 -26t1.5 -26.5q0 -68 -58 -108q58 -34 58 -107q0 -29 -5.5 -56.5t-5.5 -60.5q0 -66 31.5 -104t74.5 -49l3 -1z" />
    <glyph glyph-name="bar" unicode="|" horiz-adv-x="217" 
d="M156 -100h-95v822h95v-822z" />
    <glyph glyph-name="braceright" unicode="}" horiz-adv-x="298" 
d="M28 -147l-22 79l3 1q43 11 74.5 49t31.5 104q0 33 -5.5 60.5t-5.5 56.5q0 73 58 107q-58 40 -58 108q0 14 1.5 26.5t4 26t4 29t1.5 35.5q0 66 -31.5 104t-74.5 49l19 80q4 0 27 -10q141 -59 141 -226q0 -37 -5 -66.5t-5 -47.5q0 -12 4 -21.5t15.5 -18t30.5 -17t49 -18.5
v-65q-32 -11 -51 -20t-30 -17.5t-14.5 -17.5t-3.5 -20q0 -18 5 -47.5t5 -66.5q0 -168 -141 -226q-23 -10 -27 -10z" />
    <glyph glyph-name="asciitilde" unicode="~" horiz-adv-x="414" 
d="M266 235q-24 0 -47.5 8t-43.5 26q-13 10 -25 19t-26 11l-18 2q-36 0 -71 -16q5 47 36.5 75t76.5 28q26 0 51.5 -10.5t43.5 -26.5l8 -6q13 -14 33 -18l15 -1q18 -2 38.5 6.5t41.5 16.5q0 -21 -8 -41.5t-22.5 -36.5t-35.5 -26t-47 -10z" />
    <glyph glyph-name="softhyphen" unicode="&#xad;" horiz-adv-x="338" 
d="M35 264v95h268v-95h-268z" />
    <glyph glyph-name="softhyphen" unicode="&#x2010;" horiz-adv-x="338" 
d="M35 264v95h268v-95h-268z" />
    <glyph glyph-name="periodcentered" unicode="&#xb7;" horiz-adv-x="190" 
d="M94 251q-25 2 -42 19t-17 41q0 25 17.5 42.5t42.5 17.5t42.5 -17.5t17.5 -42.5q0 -21 -19 -40t-42 -20z" />
    <glyph glyph-name="multiply" unicode="&#xd7;" horiz-adv-x="534" 
d="M201 311l-166 165l67 68l166 -166l164 165l68 -67l-165 -165l165 -165l-68 -67l-164 165l-166 -166l-67 68z" />
    <glyph glyph-name="divide" unicode="&#xf7;" horiz-adv-x="582" 
d="M35 264v95h512v-95h-512zM290 80q-25 1 -42 18t-17 41q0 25 17.5 42.5t42.5 17.5t42.5 -17.5t17.5 -42.5q0 -11 -5.5 -21.5t-14 -18.5t-19.5 -13.5t-22 -5.5zM290 423q-25 1 -42 18t-17 41q0 25 17.5 42.5t42.5 17.5t42.5 -17.5t17.5 -42.5q0 -11 -5.5 -21.5t-14 -18.5
t-19.5 -13.5t-22 -5.5z" />
    <glyph glyph-name="om-deva" unicode="&#x950;" horiz-adv-x="557" 
d="M344 -1q-7 -1 -13.5 -1.5t-13.5 -0.5q-55 0 -104.5 26.5t-88 76t-63 121t-29.5 161.5l81 3q3 -78 23 -135.5t49.5 -96t64 -57t65.5 -18.5q25 0 48.5 7.5t41.5 21.5t28.5 34.5t10.5 46.5q0 12 -4 27.5t-13.5 29t-24.5 23t-37 11.5h-2q-2 -2 -9.5 -3t-16.5 -5t-16.5 -12.5
t-9.5 -24.5l14 8l40 -71l-92 -53l-21 30q-11 16 -17.5 34t-6.5 43q0 34 12 58t30 40.5t38.5 25t37.5 10.5q17 14 28 35t11 47q0 13 -4 30t-14 32t-27 25.5t-42 12.5q-3 0 -12 -1.5t-19 -7.5t-19 -17t-10 -29l19 10l40 -71l-95 -54l-21 30q-11 16 -17.5 33.5t-6.5 40.5
q0 47 17.5 76t40.5 44.5t46 21t34 5.5q43 0 75 -17.5t53.5 -44t32 -58.5t10.5 -61q0 -27 -7.5 -53.5t-21.5 -46.5q25 -12 41.5 -30.5t27 -40t15 -43.5t4.5 -42q0 -45 -17.5 -78t-44 -56t-58.5 -36t-61 -16zM290 682q-30 1 -55.5 12t-44.5 30t-30 45t-12 56h82
q0 -25 17.5 -43t42.5 -18q26 0 43.5 17.5t17.5 43.5h82q-1 -30 -12 -56t-30 -45t-45 -30t-56 -12zM298 799q-16 0 -28 11.5t-12 28.5q0 16 12 27.5t28 11.5q17 0 28.5 -11.5t11.5 -27.5q0 -17 -11.5 -28.5t-28.5 -11.5z" />
    <glyph glyph-name="devanagaridanda" unicode="&#x964;" horiz-adv-x="274" 
d="M218 18h-81v494h81v-494z" />
    <glyph glyph-name="devanagaridoubledanda" unicode="&#x965;" horiz-adv-x="412" 
d="M218 18h-81v494h81v-494zM371 18h-81v494h81v-494z" />
    <glyph glyph-name="signcandrabinducomb-beng" unicode="&#x981;" 
d="M-98 682q-30 1 -55.5 12t-44.5 30t-30 45t-12 56h82q0 -25 17.5 -43t42.5 -18q26 0 43.5 17.5t17.5 43.5h82q-1 -30 -12 -56t-30 -45t-45 -30t-56 -12zM-90 799q-16 0 -28 11.5t-12 28.5q0 16 12 27.5t28 11.5q17 0 28.5 -11.5t11.5 -27.5q0 -17 -11.5 -28.5t-28.5 -11.5
z" />
    <glyph glyph-name="signanusvara-beng" unicode="&#x982;" horiz-adv-x="409" 
d="M204 290q-36 1 -67 14.5t-54 36.5t-36.5 54.5t-14.5 67.5q1 37 14.5 68.5t36.5 54.5t54 36t67 14q36 -1 67.5 -14.5t54.5 -36.5t36.5 -54.5t14.5 -67.5q-1 -36 -14.5 -67.5t-36.5 -54.5t-54.5 -36.5t-67.5 -14.5zM140 528q-25 -25 -27 -65q2 -39 27.5 -64t63.5 -27
q39 2 64.5 27t27.5 64q-2 40 -27.5 64.5t-64.5 26.5q-40 -2 -64 -26zM258 199q39 -30 72 -84.5t44 -138.5l-81 -9q-7 49 -22.5 83.5t-35 57.5t-40.5 37t-38 22q-2 1 -3 1t-2 1l-63 -35l-40 71l79 44l14 8l17 -4q5 0 33 -12t66 -42z" />
    <glyph glyph-name="signvisarga-beng" unicode="&#x983;" horiz-adv-x="339" 
d="M169 339q-29 0 -53.5 11t-43.5 29t-29.5 43t-10.5 54q0 30 10.5 54.5t29.5 43t43.5 29t53.5 11.5q60 -2 98 -40t40 -98q-1 -29 -11.5 -54t-29 -43t-43 -29t-54.5 -11zM130 516q-15 -15 -17 -40q2 -23 17.5 -38.5t38.5 -17.5q24 2 40 17.5t16 38.5q0 24 -16 40t-40 16
q-23 0 -39 -16zM169 13q-29 1 -53.5 11.5t-43.5 29t-29.5 43t-10.5 54.5q0 29 10.5 53.5t29.5 42.5t43.5 29t53.5 12q30 -1 54.5 -12t43 -29t29 -42.5t11.5 -53.5q-2 -60 -40 -98t-98 -40zM130 190q-15 -15 -17 -39q2 -24 17.5 -40t38.5 -16q24 0 40 16t16 40q0 23 -16 39
t-40 16q-23 0 -39 -16z" />
    <glyph glyph-name="a-beng" unicode="&#x985;" horiz-adv-x="770" 
d="M780 541h-66v-541h-82v19q0 45 -8.5 79.5t-21.5 60.5t-29 44t-31 32q-18 -39 -45 -67t-58 -46t-63 -26.5t-60 -8.5q-67 0 -120 26.5t-89.5 70.5t-55.5 101.5t-19 119.5q0 24 3 48l81 -10q-1 -9 -1.5 -18.5t-0.5 -17.5q0 -51 14 -94.5t40.5 -75.5t66 -50t90.5 -18
q22 1 48.5 11.5t49.5 30t39 48t16 64.5q0 18 -6.5 40.5t-20.5 43t-37 34t-56 13.5q-8 0 -21.5 -3.5t-26.5 -12.5t-22.5 -25.5t-9.5 -43.5v-9l63 35l40 -71l-135 -76l-22 30q-12 17 -20 38t-8 47q0 54 20 88t46.5 52.5t54 25.5t42.5 7q50 0 87.5 -20.5t63 -52t38 -69.5
t12.5 -72q25 -14 64 -53l8 -9v281h-642v81h790v-81z" />
    <glyph glyph-name="aa-beng" unicode="&#x986;" horiz-adv-x="964" 
d="M759 622q8 0 26 -4t41 -19v69h82v-46h66v-81h-66v-541h-82v398q-1 50 -10 78.5t-20 42t-20.5 17t-11.5 3.5q-2 1 -4 1t-3 1h-43v-541h-82v19q0 45 -8.5 79.5t-21.5 60.5t-29 44t-31 32q-18 -39 -45 -67t-58 -46t-63 -26.5t-60 -8.5q-67 0 -120 26.5t-89.5 70.5
t-55.5 101.5t-19 119.5q0 24 3 48l81 -10q-1 -9 -1.5 -18.5t-0.5 -17.5q0 -51 14 -94.5t40.5 -75.5t66 -50t90.5 -18q22 1 48.5 11.5t49.5 30t39 48t16 64.5q0 18 -6.5 40.5t-20.5 43t-37 34t-56 13.5q-8 0 -21.5 -3.5t-26.5 -12.5t-22.5 -25.5t-9.5 -43.5v-9l63 35l40 -71
l-135 -76l-22 30q-12 17 -20 38t-8 47q0 54 20 88t46.5 52.5t54 25.5t42.5 7q50 0 87.5 -20.5t63 -52t38 -69.5t12.5 -72q25 -14 64 -53l8 -9v281h-642v81h769z" />
    <glyph glyph-name="i-beng" unicode="&#x987;" horiz-adv-x="467" 
d="M477 622v-81h-487v81h364q-12 36 -27.5 62t-32.5 44t-34 29t-32 16l-4 3l-65 -36l-40 71l95 53l16 -4q5 -1 32 -11.5t60.5 -37.5t66 -73t49.5 -116h39zM45 130l308 171q1 5 1 15q-2 28 -10 52.5t-24.5 43.5t-41 31t-58.5 14q-6 0 -23.5 -3t-35.5 -14t-32.5 -33t-14.5 -61
q0 -5 -0.5 -10.5t1.5 -9.5l85 47l39 -71l-154 -86l-21 30q-14 20 -23 42.5t-9 51.5q0 63 23 102t53.5 60t61.5 28.5t46 7.5q57 0 98.5 -21.5t68.5 -54.5t39.5 -72t12.5 -73q0 -19 -1 -31.5t-1 -14.5l-3 -21l-304 -168q13 -11 35.5 -24t58.5 -24t87 -19t120 -8v-81
q-79 0 -139 10t-104 25t-74 33t-48 34t-26 28.5t-8 16.5l-4 14l-2 30z" />
    <glyph glyph-name="ii-beng" unicode="&#x988;" horiz-adv-x="611" 
d="M621 622v-81h-631v81h444q-12 36 -27.5 61.5t-32.5 43.5t-34 29t-31 17l-5 3l-65 -36l-39 71l95 53l16 -4q3 0 30 -10.5t61 -37.5t67 -73t49 -117h103zM32 332v14q0 41 11 71t28 51.5t38.5 35t41.5 21t37.5 10.5t27.5 3q58 0 100.5 -22t70 -55t41.5 -71.5t16 -71.5
q40 48 101 76l34 -74q-62 -29 -99 -90.5t-37 -149.5q0 -78 36 -162l-75 -33q-43 101 -43 194q0 51 14 105l3 10l-294 -163l-39 72l315 175l3 6v13q0 26 -8 53.5t-25.5 50.5t-44.5 38.5t-65 17.5q-6 0 -23.5 -3t-35.5 -14t-32.5 -33t-14.5 -61q0 -5 -0.5 -10.5t1.5 -9.5
l84 47l40 -71l-154 -86l-21 30q-27 33 -32 86z" />
    <glyph glyph-name="u-beng" unicode="&#x989;" horiz-adv-x="611" 
d="M255 541h-265v81h470q-12 36 -27.5 61.5t-32.5 43.5t-34 29t-31 17l-5 3l-65 -36l-39 71l94 53l16 -4q5 -1 32 -12t61 -37.5t66.5 -72.5t48.5 -116h77v-81h-285v-184l151 83l36 -5l10 -12q26 -31 36.5 -70.5t10.5 -73.5q0 -61 -26.5 -106.5t-65 -75.5t-82.5 -45t-79 -15
q-70 0 -125 27.5t-93 74t-58 106.5t-20 125q0 24 3 48l81 -10q-1 -10 -1.5 -19t-0.5 -18q0 -53 14.5 -99t43 -80t70 -53.5t95.5 -19.5q22 1 50 12t53 32t41.5 51t16.5 69q0 16 -2.5 32.5t-9.5 30.5l-185 -103l-27 19l-18 12v267z" />
    <glyph glyph-name="uu-beng" unicode="&#x98a;" horiz-adv-x="677" 
d="M138 140q-95 86 -106 214l41 3q7 -88 61 -155q-37 77 -37 168q0 24 3 48l81 -10q-1 -10 -1.5 -19t-0.5 -18q0 -53 14.5 -99t43 -80t70 -53.5t95.5 -19.5q22 1 50 12t53 32t41.5 51t16.5 69q0 16 -2.5 32.5t-9.5 30.5l-185 -103l-27 19l-18 12v267h-331v81h536
q-12 36 -27.5 61.5t-32.5 43.5t-34 29t-32 17l-4 3l-65 -36l-40 71l95 53l16 -4q5 -1 32 -12t60.5 -37.5t66 -72t49.5 -116.5h77v-81h-285v-184l151 83l20 -3l16 -2l10 -12q26 -30 36 -70.5t10 -74.5q0 -62 -27 -107.5t-66.5 -75.5t-83.5 -44.5t-78 -14.5q-85 0 -150 44
q-59 21 -102 60z" />
    <glyph glyph-name="vocalicr-beng" unicode="&#x98b;" horiz-adv-x="740" 
d="M35 546q-6 18 -6 24l-4 29l113 61l39 -72l-57 -30q12 -17 29 -22.5t28 -5.5q23 0 39 14t16 43q0 14 -4 23l-15 32l34 23l15 10l17 -4q46 -11 77.5 -39.5t52.5 -71.5v108h82v-380q53 -17 112 -71v451h81v-46h66v-81h-66v-498h-81v13q-3 24 -15.5 45.5t-29.5 39t-35 31
t-32 21.5v-193h-82v46q-74 4 -129.5 22.5t-96.5 44.5t-68 55.5t-43.5 55t-24 44.5t-7.5 23l-8 31l314 174q-8 32 -26 55l-8 10q-3 -20 -13 -39.5t-27.5 -36t-41 -26.5t-53.5 -10q-19 0 -41 5.5t-42 17t-36 30t-23 44.5zM175 222q31 -33 87 -60.5t147 -33.5v310l-278 -154
q12 -27 44 -62z" />
    <glyph glyph-name="e-beng" unicode="&#x98f;" horiz-adv-x="626" 
d="M154 173q-63 29 -93 82.5t-30 113.5q0 76 50 137l61 -54q-29 -34 -29 -83q0 -25 8 -49t24.5 -43t41.5 -30.5t58 -11.5q26 0 60 6.5t61 6.5q38 0 67 -10t55 -30v232q-2 53 -29.5 75.5t-69.5 24.5q-4 0 -17.5 -2t-28.5 -10t-27 -25.5t-12 -48.5v-9l64 36l39 -72l-135 -75
l-21 30q-29 35 -29 84q0 59 22 93.5t50.5 52.5t56.5 23t39 5q37 0 69.5 -13t57 -37t38.5 -57.5t15 -74.5v-440h-82v15q0 20 -5 46t-18 49.5t-36 39.5t-59 16q-25 0 -59.5 -6.5t-62.5 -6.5q-51 0 -94 20z" />
    <glyph glyph-name="ai-beng" unicode="&#x990;" horiz-adv-x="736" 
d="M155 173q-63 29 -93 82.5t-30 112.5q0 77 50 138l61 -54q-29 -34 -29 -83q0 -26 8.5 -50t25 -42.5t41 -30t57.5 -11.5q26 0 60 6.5t61 6.5q38 0 67 -10t55 -30v232q-2 51 -29 74.5t-70 25.5q-4 0 -17.5 -2t-28.5 -10t-27 -25.5t-12 -48.5v-9l63 36l40 -72l-135 -75
l-22 30q-13 17 -20.5 38t-7.5 46q0 59 22 93.5t50.5 52.5t56 23t38.5 5q36 0 69 -13t58 -37t39.5 -57.5t14.5 -74.5v-62q26 32 38.5 70.5t12.5 78.5q0 57 -29.5 112t-78.5 92l-77 -42l-39 71l83 46l19 9l21 11l19 -13q36 -25 66.5 -57.5t52 -69t33.5 -77t12 -82.5
q0 -80 -34.5 -146t-98.5 -114v-267h-82v15q0 18 -5 44t-18 50t-36 40.5t-59 16.5q-25 0 -59.5 -6.5t-62.5 -6.5q-51 0 -94 20z" />
    <glyph glyph-name="o-beng" unicode="&#x993;" horiz-adv-x="557" 
d="M344 -1q-7 -1 -13.5 -1.5t-13.5 -0.5q-55 0 -104.5 26.5t-88 76t-63 121t-29.5 161.5l81 3q3 -78 23 -135.5t49.5 -96t64 -57t65.5 -18.5q25 0 48.5 7.5t41.5 21.5t28.5 34.5t10.5 46.5q0 12 -4 27.5t-13.5 29t-24.5 23t-37 11.5h-2q-2 -2 -9.5 -3t-16.5 -5t-16.5 -12.5
t-9.5 -24.5l14 8l40 -71l-92 -53l-21 30q-11 16 -17.5 34t-6.5 43q0 34 12 58t30 40.5t38.5 25t37.5 10.5q17 14 28 35t11 47q0 13 -4 30t-14 32t-27 25.5t-42 12.5q-3 0 -12 -1.5t-19 -7.5t-19 -17t-10 -29l19 10l40 -71l-95 -54l-21 30q-11 16 -17.5 33.5t-6.5 40.5
q0 47 17.5 76t40.5 44.5t46 21t34 5.5q43 0 75 -17.5t53.5 -44t32 -58.5t10.5 -61q0 -27 -7.5 -53.5t-21.5 -46.5q25 -12 41.5 -30.5t27 -40t15 -43.5t4.5 -42q0 -45 -17.5 -78t-44 -56t-58.5 -36t-61 -16z" />
    <glyph glyph-name="au-beng" unicode="&#x994;" horiz-adv-x="616" 
d="M344 -1q-7 -1 -13.5 -1.5t-13.5 -0.5q-55 0 -104.5 26.5t-88 76t-63 121t-29.5 161.5l81 3q3 -78 23.5 -136t50 -96t63.5 -56.5t65 -18.5q25 0 48.5 7.5t41.5 21.5t28.5 34.5t10.5 46.5q0 13 -4 28.5t-13.5 29t-24.5 22.5t-37 11h-1q-2 -2 -10 -3t-17 -5t-16.5 -12.5
t-9.5 -24.5l14 8l41 -71l-92 -53l-22 30q-11 14 -17 31.5t-6 40.5q0 36 12 61.5t30 42t38.5 25t36.5 10.5q17 14 28 35t11 48q0 13 -4 29.5t-14 31.5t-26.5 25.5t-41.5 12.5q-4 0 -13 -1.5t-19 -7.5t-18.5 -17t-9.5 -29l18 10l40 -71l-94 -54l-22 30q-11 15 -17.5 33
t-6.5 41q0 45 16 73.5t38 45t45.5 22.5t39.5 6q41 0 73 -16.5t53.5 -43t32.5 -58t11 -61.5q0 -19 -3 -35q20 29 29.5 62t9.5 66q0 54 -28 106.5t-75 87.5l-72 -40l-40 71l81 45l38 19l19 -13q35 -24 64 -55t50 -66.5t32.5 -74.5t11.5 -80q0 -137 -101 -230q25 -30 34 -60.5
t9 -59.5q0 -45 -17.5 -78.5t-44 -56.5t-58.5 -36t-61 -16z" />
    <glyph glyph-name="ka-beng" unicode="&#x995;" horiz-adv-x="744" 
d="M59 372l305 169h-374v81h764v-81h-186q24 -10 49.5 -27.5t46.5 -44.5t34.5 -65.5t13.5 -91.5l-2 -24l-26 -12l-88 -49l-40 71l74 41q-4 31 -15.5 52.5t-15.5 26.5q-44 50 -109 62v-480h-81v46q-75 4 -131 25.5t-97 51t-68 63.5t-43.5 63.5t-23.5 51t-7 25.5l-7 31z
M176 237q32 -39 87.5 -70.5t145.5 -38.5v344l-281 -155q6 -17 17.5 -37t30.5 -43z" />
    <glyph glyph-name="kha-beng" unicode="&#x996;" horiz-adv-x="543" 
d="M105 592l39 -72l-40 -22q7 -7 14 -10t13 -4.5t9 -1.5h3q10 0 18 4.5t15 9.5l5 4q7 7 10 18.5t4 15.5v5q0 10 -5 28l-10 31l32 20l20 12l20 -10q23 -12 43.5 -27t36 -35.5t24.5 -46t9 -58.5q0 -21 -5.5 -38.5t-12 -30.5t-12 -20t-6.5 -8l-10 -8l-190 -106
q11 -15 30.5 -33.5t52.5 -35.5t80.5 -29.5t113.5 -15.5v540h81v-46h66v-81h-66v-539h-81v44q-75 3 -131.5 18.5t-97.5 36t-68 44.5t-43.5 44.5t-23.5 35.5t-7 18l-3 10l5 32l235 130q2 4 6.5 16t4.5 28q0 18 -8 41l-3 5q-3 -14 -11.5 -31.5t-24 -34t-38 -27.5t-54.5 -11
q-23 0 -44.5 7t-39.5 21.5t-30 35.5t-16 49l-2 26l23 13z" />
    <glyph glyph-name="ga-beng" unicode="&#x997;" horiz-adv-x="604" 
d="M467 668h81v-46h66v-81h-66v-541h-81v316q0 40 -15.5 80t-43 71.5t-66.5 51.5t-86 20q-18 0 -42.5 -7t-47 -20.5t-38 -33t-15.5 -44.5l1 -3l3 -5h2q10 0 39 12q61 27 110 27q24 0 46.5 -7t39 -21t26.5 -35t10 -48q0 -32 -14 -57.5t-31 -44.5l-10 -9l-110 -60l-39 71
l103 57q19 24 19 42q0 11 -6.5 21t-32.5 10q-12 0 -32.5 -6.5t-43 -14t-44.5 -13.5t-35 -6q-28 0 -44.5 12.5t-24.5 28.5t-10.5 31.5t-2.5 21.5q0 15 4.5 30t11.5 28.5t15.5 25.5t16.5 20q78 79 180 79q56 -1 105.5 -21t90.5 -61l11 -11v140z" />
    <glyph glyph-name="gha-beng" unicode="&#x998;" horiz-adv-x="543" 
d="M80 541h-90v81h563v-81h-66v-541h-82v46q-74 3 -129.5 17.5t-96.5 35t-68.5 44t-44.5 45.5t-24.5 39.5t-9.5 25.5l5 32l113 63q-36 12 -57 32.5t-32 42t-14 40.5t-3 27v6l4 27zM405 128v395l-153 18l-124 -67q1 -7 5.5 -16.5t14.5 -18t27.5 -14.5t45.5 -6q33 0 79 10
l29 -75l-201 -112q11 -15 30.5 -33.5t52.5 -35.5t80.5 -29.5t113.5 -15.5z" />
    <glyph glyph-name="nga-beng" unicode="&#x999;" horiz-adv-x="612" 
d="M408 561h-11q-21 0 -33 -5.5t-17.5 -12t-7 -13t-1.5 -8.5q0 -5 -1 -6v-35h15q30 0 48 7t27.5 16t12.5 18t3 13q0 8 -7.5 16t-27.5 10zM414 642q49 -4 80 -34.5t31 -73.5q0 -28 -12.5 -52t-35 -42.5t-54.5 -29t-71 -11.5q-10 0 -15 1v-91l151 84l19 -3l16 -2l10 -12
q13 -15 22.5 -33.5t14.5 -38t7.5 -39t2.5 -35.5q0 -62 -27 -107t-66 -74.5t-83 -44t-78 -14.5q-70 0 -125 28t-92.5 74t-57 105.5t-19.5 122.5q0 24 3 50l81 -9q-1 -10 -1.5 -19t-0.5 -18q0 -54 14.5 -100.5t43 -80t70 -53t95.5 -19.5q23 1 51 12t52.5 32t41 51.5t16.5 68.5
q0 16 -2.5 32.5t-9.5 31.5l-185 -103l-45 30v187q-58 15 -99 54.5t-60 105.5l-1 10l-3 26l62 35l40 -72l-10 -5q23 -48 71 -67v20q0 3 3.5 22.5t18 41.5t42.5 40t78 18h16z" />
    <glyph glyph-name="ca-beng" unicode="&#x99a;" horiz-adv-x="524" 
d="M56 541h-66v81h544v-81h-396v-43q70 -4 123 -23t91 -45t63.5 -55.5t41 -55t22 -44t6.5 -21.5l7 -30l-373 -207l-22 -13l-24 17l-17 12v508zM353 324q-29 32 -80.5 59t-134.5 33v-296l256 142q-12 27 -41 62z" />
    <glyph glyph-name="cha-beng" unicode="&#x99b;" horiz-adv-x="538" 
d="M56 541h-66v81h558v-81h-410v-11q72 -7 120 -32t76 -57q4 -5 7 -9t7 -8q23 0 50.5 -11.5t51.5 -33.5t40.5 -52.5t16.5 -69.5q0 -12 -2 -20l-4 -19l-334 -187l19 -11q32 -19 99 -32.5t178 -15.5v-81q-117 0 -193 17t-121 39t-63.5 42.5t-20.5 26.5l-4 8l-3 39l366 205
q-2 17 -11 31t-17 16l-278 -153l-17 -10l-20 8l-25 11v370zM274 386q-19 21 -51.5 38.5t-84.5 23.5v-182l159 88q-7 15 -23 32z" />
    <glyph glyph-name="ja-beng" unicode="&#x99c;" horiz-adv-x="778" 
d="M302 225q-49 11 -74 43t-25 70q0 33 9 61.5t23 54t32.5 47t38.5 40.5h-316v81h798v-81h-332q-6 -15 -6 -28q0 -11 7 -23.5t21 -23.5t35 -18t49 -7q29 0 63 9.5t69 31.5l52 -62q-17 -18 -35 -48.5t-33 -68t-25 -79t-10 -81.5q0 -68 32 -123l-68 -45q-24 38 -34.5 80
t-10.5 86q0 58 15 115t38 107q-23 -4 -51 -4q-32 0 -64.5 8.5t-60 25t-46.5 41t-23 56.5q-15 -14 -30.5 -32t-27.5 -37.5t-20 -40t-8 -41.5q0 -5 2 -11.5t7 -12t14.5 -9t25.5 -3.5q17 0 34 6.5t33.5 15t33 15t31.5 6.5q20 0 36 -8.5t27 -22.5t17 -32t6 -37q0 -50 -22.5 -88
t-57 -63t-76 -37.5t-79.5 -12.5q-66 0 -118.5 26.5t-89.5 71.5t-56.5 104.5t-19.5 124.5q0 17 1 34.5t4 35.5l81 -12q-2 -15 -3 -29.5t-1 -28.5q0 -53 14 -98t40.5 -77t63.5 -50.5t84 -19.5q25 1 52.5 8.5t50 22t37 36.5t14.5 52q0 15 -5 18q-2 0 -4 -1q-23 -14 -55.5 -27.5
t-69.5 -13.5q-18 0 -34 3z" />
    <glyph glyph-name="jha-beng" unicode="&#x99d;" horiz-adv-x="740" 
d="M-10 622h500v-334q65 -16 112 -62v442h82v-46h66v-81h-66v-498h-82v38q-15 59 -112 111v-192h-81v46q-75 4 -131.5 25.5t-97.5 51.5t-68 64t-43 63.5t-22.5 50.5t-7.5 25l-7 31l332 184h-374v81zM176 237q32 -39 87.5 -70.5t145.5 -38.5v344l-281 -155q13 -36 48 -80z
" />
    <glyph glyph-name="nya-beng" unicode="&#x99e;" horiz-adv-x="843" 
d="M317 161q-38 -8 -69 -8q-53 0 -93.5 19t-67.5 50t-41 69t-14 77q0 77 50 138l61 -54q-30 -35 -30 -84q0 -26 8.5 -49.5t25.5 -42.5t42 -30t57 -11q26 0 60.5 6.5t61.5 6.5q38 0 66.5 -10t54.5 -30v232q-2 50 -29 75t-71 25q-5 0 -19 -2t-28.5 -11t-26 -28t-11.5 -54
l64 36l40 -72l-136 -75l-21 30q-14 19 -21 40.5t-7 49.5q0 38 10.5 65t27 45.5t36 30t38 17.5t33.5 8t22 2q26 0 51 -7t47 -20.5t39.5 -33.5t27.5 -45q23 20 60 36t72 16q31 0 54 -12.5t37.5 -31.5t21.5 -40t7 -37q0 -25 -10.5 -51t-34.5 -50q24 -19 36 -45.5t12 -51.5
q0 -29 -12 -53t-32 -41t-45.5 -26.5t-51.5 -9.5q-23 0 -48.5 6.5t-50.5 23.5v-149h-81v15q0 19 -5 45t-18.5 49.5t-36 40t-58.5 16.5q-12 0 -25.5 -1t-28.5 -4zM584 427q-6 -10 -9 -19t-5 -11l1 -110q8 -26 19 -43t23.5 -26.5t26.5 -13t27 -3.5q26 0 44 14t18 34
q0 10 -7 20.5t-18.5 19t-25.5 14t-28 5.5h-2l5 81q24 1 38 7.5t22 16t10.5 19.5t2.5 17q0 13 -11 25.5t-28 12.5t-34 -6.5t-31 -15.5t-24 -19.5t-14 -18.5z" />
    <glyph glyph-name="tta-beng" unicode="&#x99f;" horiz-adv-x="537" 
d="M435 161q-60 -60 -139 -85t-164 -25h-15q-6 0 -14 1l-11 1l-19 13l-17 12v463h-66v81h406q-11 35 -26 60t-31.5 43t-34 29.5t-33.5 19.5q-2 1 -3 1t-2 1l-65 -36l-39 71l95 53l16 -4q4 -1 30.5 -11.5t60.5 -37.5t67 -72.5t49 -116.5h67v-81h-409v-408q58 0 110 14t91 40
t61.5 63t22.5 83q0 43 -26 78l-113 -64l-40 71l166 93l22 -18q73 -70 73 -157q0 -50 -18 -93.5t-52 -81.5z" />
    <glyph glyph-name="ttha-beng" unicode="&#x9a0;" horiz-adv-x="526" 
d="M241 374q1 5 1 17q0 49 -35 150h-217v81h167q-24 35 -38 72t-14 70q0 6 0.5 12t1.5 12l7 23l92 52l39 -72l-58 -32q2 -26 21 -63t53 -74h275v-81h-192q28 -25 55 -52t48 -58t34 -66t13 -76q0 -55 -19 -100t-52 -77t-77.5 -49.5t-94.5 -17.5q-32 0 -63.5 8t-59 23.5
t-51 39.5t-39.5 57l-6 12l3 19l4 20l47 27l57 33q7 4 13 7t11 7l45 25q12 9 19 18.5t10 32.5zM408 327q-10 32 -33 64t-58 64q6 -35 6 -62q0 -52 -19 -86t-45 -50l-64 -38l-21 -12l-45 -26q22 -27 55 -40.5t67 -13.5t64 11t51.5 32t34 51.5t12.5 69.5q0 18 -5 36z" />
    <glyph glyph-name="dda-beng" unicode="&#x9a1;" horiz-adv-x="612" 
d="M341 37h-13q-71 0 -126 28t-93 74.5t-57.5 106.5t-19.5 125v23q0 12 2 24l81 -10q-1 -10 -1.5 -19t-0.5 -17q0 -53 14.5 -99t42.5 -80t70 -54t96 -20q21 1 49 11.5t53 31t42.5 51t17.5 69.5q0 34 -12 64l-186 -103l-27 19l-18 12v267h-265v81h632v-81h-285v-184l149 83
l17 -2h17l11 -14q13 -15 22.5 -33t15.5 -37.5t8.5 -38.5t2.5 -36q0 -58 -24.5 -102t-60.5 -74.5t-77.5 -46.5t-76.5 -19z" />
    <glyph glyph-name="ddha-beng" unicode="&#x9a2;" horiz-adv-x="537" 
d="M-10 541v81h557v-81h-409v-408q58 0 110 14t91 40t61.5 63t22.5 83q0 43 -25 78l-114 -64l-40 71l166 93l22 -18q73 -70 73 -157q0 -69 -31.5 -122t-83.5 -89t-119 -55t-138 -19h-15q-6 0 -14 1l-12 1l-19 13l-17 12v463h-66z" />
    <glyph glyph-name="nna-beng" unicode="&#x9a3;" horiz-adv-x="568" 
d="M90 270q-29 32 -43.5 67.5t-14.5 72.5q0 44 19.5 82.5t51 67t72 45t83.5 16.5q46 0 90.5 -18t82.5 -55v120h81v-46h66v-81h-66v-541h-81v347q0 34 -12.5 68t-35 62t-54 45.5t-70.5 17.5q-26 0 -52 -9.5t-47 -26.5t-34 -41t-13 -52q0 -31 17 -60l99 55l39 -71l-156 -87z
" />
    <glyph glyph-name="ta-beng" unicode="&#x9a4;" horiz-adv-x="612" 
d="M569 231q-17 -45 -44.5 -78t-61 -54t-69 -31t-68.5 -10q-70 0 -125 28t-92.5 74t-57 105.5t-19.5 122.5q0 24 3 50l81 -9q-1 -11 -1.5 -20.5t-0.5 -19.5q0 -53 15 -98.5t43.5 -79.5t69.5 -53t94 -19q23 1 51.5 12t53 32t41 51t16.5 68q0 21 -6.5 44.5t-21 44.5t-38 35
t-57.5 16q-4 0 -18.5 -2t-30.5 -11.5t-28.5 -28.5t-12.5 -52v-10l70 38l39 -71l-140 -78l-21 29q-29 40 -29 94q0 57 22.5 91.5t52 53t58 24t40.5 5.5q51 -3 89 -24t63.5 -52.5t38 -70t12.5 -77.5q0 -34 -11 -69zM-10 541v81h632v-81h-632z" />
    <glyph glyph-name="tha-beng" unicode="&#x9a5;" horiz-adv-x="542" 
d="M89 598q26 14 46.5 19t33.5 5q48 0 81.5 -19t55 -47.5t31.5 -62t10 -62.5q0 -31 -9 -58l-3 -10l-8 -9l-9 -6l-190 -106q11 -15 30.5 -33.5t52.5 -35.5t80.5 -29.5t113.5 -15.5v540h81v-46h66v-81h-66v-541h-81v46q-74 3 -129.5 17.5t-96.5 35t-68.5 44t-44.5 45.5
t-24.5 39.5t-9.5 25.5l4 32l228 126q1 5 1.5 10.5t0.5 10.5q0 19 -5.5 38.5t-17.5 35t-30 25t-43 9.5q-7 0 -17 -2t-20 -9t-18 -19.5t-9 -34.5l46 25l39 -71l-120 -67l-21 29q-11 16 -18.5 35t-7.5 42q0 48 18 80.5t47 49.5z" />
    <glyph glyph-name="da-beng" unicode="&#x9a6;" horiz-adv-x="546" 
d="M56 541h-66v81h566v-81h-418v-281l315 233l61 -50l-5 -11q-6 -16 -17 -45t-21.5 -66.5t-18 -80.5t-7.5 -87q0 -38 6.5 -74t22.5 -68l13 -22l-70 -43l-1 2q-29 45 -41.5 94.5t-12.5 99.5q0 57 8.5 107.5t22.5 97.5l-284 -210l-32 18l-21 12v374z" />
    <glyph glyph-name="dha-beng" unicode="&#x9a7;" horiz-adv-x="546" 
d="M556 622v-81h-66v-541h-82v46q-75 4 -131 25.5t-97 51.5t-68 64t-43.5 63.5t-23 50.5t-6.5 25l-7 31l126 70q-36 18 -62 56h-1q-12 18 -18.5 40t-6.5 44q0 17 6 41.5t20.5 47t40 38.5t64.5 16q17 0 35 -5.5t34.5 -16t29.5 -25t20 -31.5l14 -34l-91 -49l-39 71l11 6
q-5 2 -8.5 2.5t-8.5 0.5q-8 0 -16.5 -5t-14.5 -11l-7 -8q-9 -18 -9 -36q0 -21 9 -36.5t22.5 -25.5t29 -15t28.5 -5q26 0 52 14l116 65v56h148zM176 237q31 -39 86.5 -70.5t145.5 -38.5v344l-280 -156q1 -1 1 -3q7 -17 18.5 -35.5t28.5 -40.5z" />
    <glyph glyph-name="na-beng" unicode="&#x9a8;" horiz-adv-x="569" 
d="M431 392v149h-441v81h589v-81h-66v-541h-82v191q0 34 -12.5 68.5t-35 62t-54.5 44.5t-70 17q-25 0 -51 -9t-47 -26t-34 -40.5t-13 -53.5q0 -31 16 -59l99 55l40 -71l-157 -87l-22 21q-58 64 -58 141q0 45 19.5 83.5t51.5 67t72.5 44.5t83.5 16q45 0 89 -17.5t80 -52.5z
" />
    <glyph glyph-name="pa-beng" unicode="&#x9aa;" horiz-adv-x="633" 
d="M96 402l-40 35l-24 20q19 35 34 60t27 36q39 38 84 55.5t96 17.5q61 0 112.5 -20t96.5 -62l13 -14v138h82v-46h66v-81h-66v-541h-82v316q0 40 -14 80l-277 -154l-26 31l-23 28q20 22 31 35t16 22t5.5 16t0.5 18q0 5 -5 16t-26 14q-5 0 -11.5 -0.5t-13.5 -1.5l-24 -6z
M286 545q-76 0 -127 -42q2 0 5 0.5t6 0.5q26 0 48 -9.5t38 -25.5t25 -36.5t9 -41.5v-8l152 84q-27 38 -69 57t-87 21z" />
    <glyph glyph-name="pha-beng" unicode="&#x9ab;" horiz-adv-x="729" 
d="M697 264l-118 -55l-34 74l71 33q-3 14 -9 27t-13 23t-13 16.5t-8 7.5q-39 26 -86 26v-414h-82v44q-74 3 -129.5 18t-96 35.5t-67.5 43.5t-43.5 44t-24.5 36.5t-9 19.5l-3 10l5 32l217 120q-20 48 -63 85t-92 51h-109v81h749v-81h-482q57 -52 79 -125l2 -9l3 -47
l-213 -118q10 -14 29.5 -32.5t52 -36t80.5 -30t115 -15.5v348l22 13l13 4q11 4 23.5 4t25.5 1q26 0 61 -8.5t67 -30t55 -59.5t26 -98l-1 -13v-25z" />
    <glyph glyph-name="ba-beng" unicode="&#x9ac;" horiz-adv-x="546" 
d="M-10 541v81h566v-81h-66v-539h-81v44q-75 4 -131.5 26t-97.5 51.5t-68.5 64t-43.5 64t-22.5 50t-6.5 24.5l-7 31l332 184h-374zM176 237q31 -39 86.5 -70.5t146.5 -38.5v344l-281 -155q0 -6 4.5 -16t11.5 -21t15.5 -22t16.5 -21z" />
    <glyph glyph-name="bha-beng" unicode="&#x9ad;" horiz-adv-x="613" 
d="M623 622v-81h-633v81h633zM341 37h-13q-70 0 -125 27.5t-93 73.5t-58 105.5t-20 124.5q0 24 3 50l81 -10q-1 -10 -1.5 -19t-0.5 -18q0 -53 14.5 -99t43 -80t70 -53.5t95.5 -19.5q22 1 50 12t53 32t41.5 51t16.5 69v11q-22 -31 -62.5 -55t-88.5 -24q-26 0 -56 9t-56 28.5
t-43.5 50.5t-17.5 74q0 18 6 42.5t21 47t40.5 38t63.5 15.5q17 0 35 -5.5t34.5 -16t29.5 -25t20 -31.5l14 -34l-91 -50l-39 72l11 6l-13 3q-19 0 -35 -16l-5 -6q-1 -1 -1 -2l-1 -1q-8 -18 -8 -35q0 -19 8 -34.5t20.5 -26t28 -16.5t30.5 -6q29 0 50 12t34.5 28.5t20 35
t7.5 31.5l1 21l22 13l30 17l22 -26q29 -34 40 -74t11 -75q0 -58 -24.5 -102.5t-60.5 -74.5t-78 -46.5t-77 -18.5z" />
    <glyph glyph-name="ma-beng" unicode="&#x9ae;" horiz-adv-x="569" 
d="M-10 541v80h589v-80h-66v-541h-82v130q0 34 -12.5 68.5t-35 62t-54 44.5t-69.5 17q-26 0 -52 -9.5t-47 -26.5t-34 -41t-13 -52q0 -33 16 -59l99 55l40 -72l-156 -87l-22 22q-30 32 -44.5 68t-14.5 73t15.5 72.5t42.5 64t63 48t78 24.5q-5 38 -24 62t-45.5 38.5t-56 22.5
t-56.5 16h-59zM431 331v210h-184q30 -30 46 -63t20 -80q66 -15 115 -64z" />
    <glyph glyph-name="ya-beng" unicode="&#x9af;" horiz-adv-x="542" 
d="M405 2v44q-75 3 -131.5 18.5t-97.5 36.5t-68 44.5t-43.5 44t-23 35.5t-6.5 18l-3 10l4 32l218 120q-10 24 -26.5 45.5t-37 39.5t-44 31t-47.5 20h-109v81h562v-81h-66v-539h-81zM165 203q31 -26 88.5 -48.5t151.5 -26.5v413h-148q55 -50 79 -125l2 -9v-47l-210 -118
q13 -18 37 -39z" />
    <glyph glyph-name="ra-beng" unicode="&#x9b0;" horiz-adv-x="546" 
d="M-10 541v81h566v-81h-66v-541h-81v46q-75 4 -131.5 26t-97.5 51.5t-68.5 64t-43.5 64t-22.5 50t-6.5 24.5l-7 31l332 184h-374zM176 237q31 -39 86.5 -70.5t146.5 -38.5v344l-281 -155q13 -36 48 -80zM265 31l-30 -76q-51 19 -91 48l46 67q31 -23 75 -39z" />
    <glyph glyph-name="la-beng" unicode="&#x9b2;" horiz-adv-x="684" 
d="M547 0v264l-149 -84l-22 17l-24 19l10 28q3 9 5.5 20.5t2.5 22.5q0 27 -10.5 50t-27.5 40t-40.5 27t-49.5 11q-27 -1 -50 -11t-40.5 -27t-27.5 -40t-10 -50q0 -37 18 -67l98 54l39 -71l-130 -72l-4 -2l-24 -8l-18 18q-60 59 -61 148q1 44 17 82t44 66t66 44t83 17
q42 -1 78 -16t64 -40.5t45 -60.5t21 -76l97 55v183h-557v81h704v-81h-66v-541h-81z" />
    <glyph glyph-name="sha-beng" unicode="&#x9b6;" horiz-adv-x="704" 
d="M157 453l40 -71l-52 -29q15 -8 25 -11t19 -3q10 0 20.5 4.5t18.5 10.5t13.5 12t5.5 9q13 22 13 51q0 28 -12.5 49.5t-31.5 36t-40.5 22t-40.5 7.5h-145v81h152q48 0 91.5 -24t78.5 -70q56 65 146 68q63 -2 109 -34v106h81v-46h66v-81h-66v-541h-81v406q-2 46 -32.5 76.5
t-76.5 32.5q-23 -1 -42.5 -9.5t-34.5 -23t-23.5 -34t-8.5 -42.5q0 -28 14 -53l82 46l40 -72l-116 -64l-4 -1l-24 -9l-18 19q-8 8 -15 15.5t-12 18.5l-1 -1q-16 -17 -43.5 -32.5t-66.5 -15.5q-19 0 -40 6.5t-40.5 18.5t-35.5 29.5t-24 38.5l-13 34l31 17z" />
    <glyph glyph-name="ssa-beng" unicode="&#x9b7;" horiz-adv-x="543" 
d="M192 490q-45 37 -93 51h-109v81h563v-81h-66v-541h-82v46q-75 3 -131.5 18.5t-97.5 36.5t-68 44.5t-43.5 44t-23 35.5t-6.5 18l-3 10l5 32l217 120q-20 49 -62 85zM165 203q31 -26 88.5 -48.5t151.5 -26.5v156l-101 56l-176 -98q13 -18 37 -39zM405 378v163h-148
q55 -50 79 -125z" />
    <glyph glyph-name="sa-beng" unicode="&#x9b8;" horiz-adv-x="594" 
d="M113 541h-123v81h614v-81h-66v-541h-81v22q-2 42 -10 74t-21 57t-29.5 43.5t-33.5 32.5q-4 -34 -17.5 -66t-34.5 -56.5t-50 -39.5t-65 -15q-25 0 -50 9.5t-46 29t-37.5 49.5t-25.5 71l-5 29l65 37l40 -71l-13 -8q9 -21 19 -34t19.5 -20t18.5 -9t16 -2q23 0 41 16.5
t25 28.5q9 16 15 41.5t6 60.5q0 37 -9.5 74.5t-27.5 70.5t-44.5 59.5t-59.5 42.5zM457 252v289h-197l8 -9q77 -85 95 -206q32 -15 76 -55z" />
    <glyph glyph-name="ha-beng" unicode="&#x9b9;" horiz-adv-x="467" 
d="M477 622v-81h-487v81h487zM353 301v15q0 58 -34.5 97.5t-98.5 43.5q-5 0 -22.5 -2.5t-36 -14t-33.5 -33.5t-15 -61v-9l2 -11l84 47l40 -71l-154 -85l-21 29q-32 38 -32 100q0 61 23 98.5t53.5 58.5t61 28t46.5 7q59 0 100.5 -22.5t68 -56t38.5 -72t12 -69.5
q0 -20 -1 -32.5t-2 -14.5l-2 -21l-304 -168q13 -12 36.5 -25t59.5 -24t86.5 -18.5t118.5 -7.5v-81q-119 1 -196 21.5t-122 46.5t-62.5 49.5t-18.5 29.5l-7 44z" />
    <glyph glyph-name="signnuktacomb-beng" unicode="&#x9bc;" 
d="M-300 -84q-21 4 -40.5 11t-36.5 15l33 75q15 -7 31.5 -12.5t34.5 -9.5l19 -4l-15 -80z" />
    <glyph glyph-name="vowelsignaa-beng" unicode="&#x9be;" horiz-adv-x="193" 
d="M-10 541v81h20q21 0 46 -23v69h81v-46h66v-81h-66v-541h-81v398q-2 50 -10.5 78t-19 42t-21 17.5t-15.5 5.5z" />
    <glyph glyph-name="vowelsigni-beng" unicode="&#x9bf;" horiz-adv-x="193" 
d="M137 0h-81v541h-66v81h64q-8 35 -8 81q0 28 8 58t25 60t45 58t68 52q35 21 73.5 31t76.5 10q74 0 137 -30.5t101 -75.5l31 -37q-42 -23 -46 -27l-62 -33l-39 71l14 8q-61 43 -134 43q-48 0 -88 -18t-68.5 -45.5t-44 -61.5t-15.5 -66q0 -48 11 -78h64v-81h-66v-541z" />
    <glyph glyph-name="vowelsignii-beng" unicode="&#x9c0;" horiz-adv-x="193" 
d="M137 0h-81v541h-66v81h64q11 30 11 78q0 32 -16 66t-44.5 61.5t-68 45.5t-87.5 18q-35 0 -71.5 -12.5t-62.5 -30.5l14 -8l-39 -71l-62 33q-4 4 -46 27l31 37q40 48 104 77t142 29q19 0 55 -5.5t87 -35.5q40 -24 68 -52t45 -58t25 -60t8 -58q0 -46 -8 -81h64v-81h-66v-541
z" />
    <glyph glyph-name="vowelsignucomb-beng" unicode="&#x9c1;" 
d="M-196 -195q-16 0 -34.5 5.5t-34 17.5t-26 29.5t-10.5 41.5q0 29 14.5 51.5t37.5 38t50.5 23.5t54.5 8q36 0 70 -13.5t63 -35t52.5 -49.5t39.5 -57l-71 -38q-30 49 -71 81l-3 -7q-7 -21 -21 -38.5t-32 -30.5t-38.5 -20t-40.5 -7zM-191 -113q6 0 15 3t17.5 9.5t14.5 16
t6 22.5q-18 0 -29.5 -2.5t-20 -8t-16 -12.5t-16.5 -16q0 -5 10.5 -8.5t18.5 -3.5z" />
    <glyph glyph-name="vowelsignuucomb-beng" unicode="&#x9c2;" 
d="M107 -240q-74 8 -146 63q-11 -19 -39.5 -36.5t-63.5 -17.5q-16 0 -34.5 7t-34.5 20.5t-26.5 33t-10.5 44.5q0 31 14 56t37 42t52.5 26t61.5 9h14q6 0 13 -1v-67h-12q-23 0 -41.5 -7t-31 -16.5t-19 -20.5t-6.5 -19q0 -24 24 -24q43 0 60 72l54 8l15 -19q25 -32 60 -50
t69 -22z" />
    <glyph glyph-name="vowelsignvocalicrcomb-beng" unicode="&#x9c3;" 
d="M-96 -183q-21 32 -49 50t-62 27l-27 7l-7 61l136 103l49 -65l-69 -52q52 -24 97 -87z" />
    <glyph glyph-name="vowelsigne-beng" unicode="&#x9c7;" horiz-adv-x="266" 
d="M202 -68l-18 8q-29 11 -56 34.5t-48 60.5t-34 87.5t-14 116.5q4 185 97 302h-139v81h286v-81h-10q-24 -4 -50 -26.5t-48 -62t-37.5 -93.5t-17.5 -121q4 -166 87 -214l56 31l40 -71z" />
    <glyph glyph-name="vowelsignai-beng" unicode="&#x9c8;" horiz-adv-x="266" 
d="M203 -68l-18 8q-28 11 -55 34.5t-48.5 60.5t-35 87.5t-14.5 116.5q6 192 98 302h-140v81h192q-32 86 -100 116l-53 -29l-40 71l83 47q34 -8 64.5 -25.5t56 -43t44.5 -60t29 -76.5h10v-81h-10q-24 -4 -49.5 -27t-47.5 -62t-37.5 -93.5t-17.5 -120.5q3 -166 86 -214l57 31
l40 -71z" />
    <glyph glyph-name="vowelsigno-beng" unicode="&#x9cb;" horiz-adv-x="459" 
d="M202 -68l-18 8q-29 11 -56 34.5t-48 60.5t-34 87.5t-14 116.5q4 185 97 302h-139v81h286v-81h-10q-24 -4 -50 -26.5t-48 -62t-37.5 -93.5t-17.5 -121q4 -166 87 -214l56 31l40 -71zM256 541v81h20q21 0 46 -23v69h81v-46h66v-81h-66v-541h-81v398q-2 50 -10.5 78t-19 42
t-21 17.5t-15.5 5.5z" />
    <glyph glyph-name="vowelsignau-beng" unicode="&#x9cc;" horiz-adv-x="459" 
d="M202 -68l-18 8q-29 11 -56 34.5t-48 60.5t-34 87.5t-14 116.5q4 185 97 302h-139v81h286v-81h-10q-24 -4 -50 -26.5t-48 -62t-37.5 -93.5t-17.5 -121q4 -166 87 -214l56 31l40 -71zM403 0h-81v541h-66v81h66q-30 87 -99 117l-54 -29l-39 71l83 47l16 -5q6 0 29 -10
q113 -50 145 -191h66v-81h-66v-541z" />
    <glyph glyph-name="signviramacomb-beng" unicode="&#x9cd;" 
d="M-21 -217q-29 51 -59 71t-68 29q3 20 5.5 40.5t4.5 40.5q18 0 44 -10t53 -29t52 -45.5t42 -60.5z" />
    <glyph glyph-name="khandata-beng" unicode="&#x9ce;" horiz-adv-x="514" 
d="M129 473q-16 -36 -16 -65q0 -38 23.5 -71t77.5 -77q20 -17 43.5 -37.5t43.5 -46t33 -55t13 -63.5q0 -62 -51 -122l-62 54q18 20 25.5 36t7.5 30q0 31 -29.5 67.5t-76.5 74.5q-24 16 -47.5 38.5t-41.5 49.5t-29 58.5t-11 66.5q0 21 5 46.5t18.5 51t38.5 50.5t65 46
q23 12 50 17t58 5q25 -2 55 -12.5t58.5 -28.5t52 -43t35.5 -56l14 -34l-159 -86l-39 71l90 50q-12 16 -30 27t-35.5 18t-32.5 9.5t-22 2.5q-21 0 -40 -6.5t-35 -16t-27.5 -20.5t-17.5 -21z" />
    <glyph glyph-name="aulength-beng" unicode="&#x9d7;" horiz-adv-x="193" 
d="M137 0h-81v541h-66v81h66q-30 87 -99 117l-54 -29l-39 71l83 47l16 -5q6 0 29 -10q113 -50 145 -191h66v-81h-66v-541z" />
    <glyph glyph-name="rra-beng" unicode="&#x9dc;" horiz-adv-x="613" 
d="M324 -74q-22 -1 -42 2t-39 6l15 80q31 -6 70 -6h19v-81zM341 37h-14q-65 0 -119.5 26t-93.5 71t-60.5 105.5t-21.5 128.5q0 24 3 50l81 -10q-1 -10 -1.5 -19t-0.5 -18q0 -52 14.5 -98t42 -80t68 -54t92.5 -20q24 0 53 11t54.5 32t43 53t17.5 74q0 16 -4 30t-9 27
q-161 -89 -185 -103l-45 31v267h-266v81h633v-81h-286v-184l149 83l35 -3q39 -47 49 -84t10 -75q0 -59 -24.5 -103t-60.5 -74t-78 -46t-76 -18z" />
    <glyph glyph-name="rha-beng" unicode="&#x9dd;" horiz-adv-x="536" 
d="M56 541h-66v81h556v-81h-409v-408q56 0 108 13.5t91.5 39.5t63 63t23.5 84q0 41 -26 78l-113 -64l-40 71l166 93l22 -18q72 -68 72 -157q0 -68 -30.5 -121t-82 -89.5t-119 -55.5t-140.5 -19h-15q-6 0 -14 1l-12 1l-18 13l-17 12v463zM163 10q8 -1 16.5 -1.5t16.5 -0.5
q14 0 27.5 1t28.5 3l10 -81q-17 -2 -32 -3t-30 -1q-12 0 -23 0.5t-22 1.5z" />
    <glyph glyph-name="yya-beng" unicode="&#x9df;" horiz-adv-x="540" 
d="M170 51q38 -21 89 -36l-22 -78q-61 17 -106 42zM189 490q-45 37 -93 51h-106v81h560v-81h-66v-541h-82v46q-75 3 -131.5 18.5t-97.5 36.5t-68 44.5t-43.5 44t-23 35.5t-6.5 18l2 42l217 120q-20 49 -62 85zM402 128v413h-148q55 -50 79 -125l2 -9l3 -47l-213 -118
q10 -14 29.5 -32.5t52 -36t80.5 -30t115 -15.5z" />
    <glyph glyph-name="zero-beng" unicode="&#x9e6;" horiz-adv-x="518" 
d="M259 26q-51 2 -93 25t-71.5 61t-45.5 88t-17 107q1 57 17 107t45.5 88t71.5 61t93 25q51 -2 93 -25t71.5 -61t45.5 -88t17 -107q-1 -57 -17 -107t-45.5 -88t-71.5 -61t-93 -25zM259 107q28 1 54 16t46 41t32.5 62.5t13.5 80.5q-1 44 -13.5 80.5t-32.5 62.5t-46 41t-54 16
q-28 -1 -54 -16t-46.5 -41t-32.5 -62.5t-13 -80.5q1 -44 13 -80.5t32.5 -62.5t46.5 -41t54 -16z" />
    <glyph glyph-name="one-beng" unicode="&#x9e7;" horiz-adv-x="480" 
d="M222 34q-54 0 -105 27t-85 87v47q11 6 42.5 23.5t83.5 46.5l39 -71l-70 -39q7 -9 19 -16.5t25.5 -12.5t28 -7.5t26.5 -2.5q7 0 17.5 0.5t22.5 4.5t26.5 12.5t30.5 23.5q22 21 32.5 45.5t10.5 50.5q0 40 -17 75t-46 65.5t-68.5 58t-85.5 51.5l-21 12h-1l39 71
q54 -27 105 -59.5t90 -73t63 -89.5t24 -110q0 -45 -18.5 -85t-50 -70t-72.5 -47.5t-85 -17.5z" />
    <glyph glyph-name="two-beng" unicode="&#x9e8;" horiz-adv-x="484" 
d="M426 17q-151 2 -243 47t-129 119q-9 18 -15 33t-7 27q2 14 3.5 27.5t3.5 27.5q12 -2 21.5 -4t22 -4t29 -3.5t42.5 -1.5q34 0 72 5t70 15t53 25.5t21 35.5q0 19 -11 37.5t-38 35.5t-72 33t-112 32l-14 2l13 81q75 -10 197 -60q24 -11 45.5 -27t38 -36.5t26 -44.5t9.5 -51
q0 -45 -27.5 -76t-70.5 -51t-94 -29t-99 -9l-25 1q36 -50 106 -76.5t184 -28.5v-82z" />
    <glyph glyph-name="three-beng" unicode="&#x9e9;" horiz-adv-x="658" 
d="M347 40q-75 0 -134 33t-99 87.5t-61 124t-21 141.5q0 28 3 57l81 -8q-1 -12 -1.5 -24t-0.5 -23q0 -63 17 -118.5t47.5 -97.5t74 -66t96.5 -24q31 0 65.5 13.5t63.5 40t48 66.5t19 93q0 16 -7.5 43t-24.5 52.5t-43.5 45t-64.5 21.5q-20 0 -38.5 -7.5t-32.5 -22.5t-23 -38
t-9 -55q0 -15 1 -18l80 48l42 -70l-152 -92l-22 32q-30 43 -30 105q0 46 15 83t40 62.5t58 39.5t69 14q33 0 64 -11t57.5 -30.5t47.5 -45t33 -54.5q21 -62 21 -117q0 -70 -27.5 -122.5t-69 -87.5t-90.5 -52.5t-92 -17.5z" />
    <glyph glyph-name="four-beng" unicode="&#x9ea;" horiz-adv-x="539" 
d="M270 26q-47 1 -89 12.5t-74.5 33.5t-52.5 54t-22 74q4 85 85 134l2 1q-58 39 -62 109q2 37 20 65t46.5 47t64 28.5t73.5 10.5q39 -1 75 -11t64 -28.5t45.5 -46.5t19.5 -65q-5 -65 -55 -104q91 -40 97 -140q-2 -42 -22 -74t-52.5 -54t-74.5 -33.5t-88 -12.5zM261 375
q27 1 49.5 7t38.5 15.5t25 21t9 23.5q0 28 -34 48.5t-88 22.5q-55 -2 -89 -23t-34 -46t34 -46t89 -23zM270 108q34 1 63 9t49.5 21t32 29t11.5 33q0 16 -11.5 32.5t-32 29.5t-49.5 21t-63 9q-35 -1 -64 -9t-49.5 -21t-32 -29.5t-11.5 -32.5q0 -17 11.5 -33t32 -29t49.5 -21
t64 -9z" />
    <glyph glyph-name="five-beng" unicode="&#x9eb;" horiz-adv-x="535" 
d="M269 23q-55 0 -99 17t-74.5 47t-47 72t-16.5 92q0 91 57.5 174.5t177.5 173.5l45 -68l-15 -11q7 -40 74 -40q64 3 96 19h2q14 -31 22 -49.5t12 -23.5q-32 -16 -64.5 -40t-59 -51t-43.5 -55t-17 -52q0 -16 10.5 -31t26.5 -27t34.5 -20t34.5 -11l39 -8l-12 -72l-24 -8
q-45 -15 -84.5 -21.5t-74.5 -6.5zM266 105q9 0 18.5 0.5t20.5 1.5q-67 48 -67 121q0 25 8 49.5t21 47t29.5 42t33.5 34.5q-68 9 -99 64q-31 -31 -53 -58t-36.5 -53t-21.5 -51t-7 -52q0 -67 37.5 -106.5t115.5 -39.5z" />
    <glyph glyph-name="six-beng" unicode="&#x9ec;" horiz-adv-x="599" 
d="M333 32h-17q-63 0 -115.5 26t-90 70t-58 103t-20.5 124q0 11 0.5 23t1.5 24l81 -9q-1 -10 -1.5 -19t-0.5 -18q0 -49 14 -93t41 -77.5t66 -53t89 -19.5q24 0 52.5 10.5t52.5 31.5t40.5 51.5t16.5 70.5q0 14 -3.5 27.5t-8.5 26.5q-79 -44 -124 -68.5t-56 -31.5l-44 32v323
h81v-241l142 79l35 1q21 -27 33 -48t18 -39t7.5 -34.5t1.5 -35.5q0 -58 -24 -101.5t-60 -73t-76.5 -45t-73.5 -16.5z" />
    <glyph glyph-name="seven-beng" unicode="&#x9ed;" horiz-adv-x="443" 
d="M387 32h-82v173l-19 -1q-53 0 -99 10t-80.5 31.5t-54.5 55t-20 81.5v3q10 96 123 152q50 22 94.5 37.5t73.5 15.5l64 -5v-553zM305 286v218q-32 -8 -66 -20t-62 -28.5t-45.5 -37t-17.5 -44.5t13 -41t36 -27.5t53.5 -15t66.5 -4.5h22z" />
    <glyph glyph-name="eight-beng" unicode="&#x9ee;" horiz-adv-x="444" 
d="M138 20l-82 9v552h82v-180l24 1q10 0 21 -1t24 -1q83 29 162 142l69 -44q-56 -83 -114 -124q88 -37 88 -121q0 -78 -71 -136.5t-203 -96.5zM138 105q29 9 61.5 23t60.5 32t47.5 39t22.5 43l1 10q0 17 -12.5 30t-35 21.5t-53 12.5t-67.5 4h-25v-215z" />
    <glyph glyph-name="nine-beng" unicode="&#x9ef;" horiz-adv-x="556" 
d="M316 21l-42 43l10 24q12 28 12 66q0 66 -28.5 96.5t-72.5 30.5q-14 0 -28.5 -5.5t-26.5 -16t-19.5 -26t-7.5 -36.5q0 -20 14 -43l64 35l39 -71l-116 -65l-38 31q-44 56 -44 109q0 42 15 73.5t38.5 53t52.5 32.5t57 11q38 0 71.5 -14t58 -41t39 -66t14.5 -89q0 -17 -3 -33
q35 21 51 54.5t16 63.5q0 46 -19.5 86t-53 72.5t-77 57.5t-91.5 41q-17 6 -21 6l-1 1l19 79l29 -8q64 -21 117.5 -53.5t92.5 -74.5t61.5 -93t25.5 -109q0 -39 -12.5 -76.5t-38 -68t-65 -51t-92.5 -26.5z" />
    <glyph glyph-name="ramiddlediagonal-beng" unicode="&#x9f0;" horiz-adv-x="546" 
d="M195 354l-67 -37q0 -6 4.5 -16t11.5 -21t15.5 -22t16.5 -21q31 -39 86.5 -70.5t146.5 -38.5v103q-36 7 -68 20t-59 29.5t-49 35.5t-38 38zM409 315v157l-140 -77q23 -24 56.5 -45.5t83.5 -34.5zM-10 541v81h566v-81h-66v-539h-81v44q-75 4 -131.5 26t-97.5 51.5t-68.5 64
t-43.5 64t-22.5 50t-6.5 24.5l-7 31l332 184h-374z" />
    <glyph glyph-name="ralowerdiagonal-beng" unicode="&#x9f1;" horiz-adv-x="546" 
d="M-10 541v81h566v-81h-66v-539h-81v44q-75 4 -131.5 26t-97.5 51.5t-68.5 64t-43.5 64t-22.5 50t-6.5 24.5l-7 31l332 184h-374zM176 237q31 -39 86.5 -70.5t146.5 -38.5v344l-281 -155q0 -6 4.5 -16t11.5 -21t15.5 -22t16.5 -21zM344 -70q-69 5 -122.5 23.5t-93.5 45
t-67.5 57.5t-45.5 61l73 38q15 -25 36.5 -48.5t52.5 -43t72 -33.5t96 -18z" />
    <glyph glyph-name="rupeesign-beng" unicode="&#x9f3;" horiz-adv-x="427" 
d="M84 52l-28 24v465h-36v81h32q-31 86 -100 117l-53 -29l-40 71l83 47l16 -5q6 0 29 -10q116 -51 149 -191h84v-81h-83v-402q84 14 130 57.5t46 101.5q0 33 -18 60l-55 -31l-40 71l109 61l22 -19q64 -61 64 -140q0 -56 -23 -100t-64.5 -75.5t-98.5 -50t-125 -22.5z" />
    <glyph glyph-name="zwnj" unicode="&#x200c;" 
 />
    <glyph glyph-name="zwj" unicode="&#x200d;" 
 />
    <glyph glyph-name="endash" unicode="&#x2013;" horiz-adv-x="719" 
d="M35 264v95h649v-95h-649z" />
    <glyph glyph-name="emdash" unicode="&#x2014;" horiz-adv-x="1007" 
d="M35 264v95h937v-95h-937z" />
    <glyph glyph-name="quoteleft" unicode="&#x2018;" horiz-adv-x="187" 
d="M101 478q-33 0 -51 21.5t-18 58.5q0 30 17 57t52 47l12 7l19 -35q-54 -31 -58 -66q10 7 24 7q21 0 35 -12.5t14 -34.5q0 -20 -12.5 -35t-33.5 -15z" />
    <glyph glyph-name="quoteright" unicode="&#x2019;" horiz-adv-x="187" 
d="M78 669q33 0 51 -21.5t18 -58.5q-1 -30 -17.5 -57t-51.5 -47l-12 -7l-19 35q54 31 58 66q-10 -7 -24 -7q-21 0 -35 12.5t-14 34.5q0 20 12.5 35t33.5 15z" />
    <glyph glyph-name="quotedblleft" unicode="&#x201c;" horiz-adv-x="318" 
d="M101 478q-33 0 -51 21.5t-18 58.5q0 30 17 57t52 47l12 7l19 -35q-54 -31 -58 -66q10 7 24 7q21 0 35 -12.5t14 -34.5q0 -20 -12.5 -35t-33.5 -15zM240 478q-33 0 -51 21.5t-18 58.5q0 30 17 57t52 47l12 7l19 -35q-54 -31 -58 -66q10 7 24 7q21 0 35 -12.5t14 -34.5
q0 -20 -12.5 -35t-33.5 -15z" />
    <glyph glyph-name="quotedblright" unicode="&#x201d;" horiz-adv-x="318" 
d="M217 669q33 0 51 -21.5t18 -58.5q-1 -30 -17.5 -57t-51.5 -47l-12 -7l-19 35q54 31 58 66q-10 -7 -24 -7q-21 0 -35 12.5t-14 34.5q0 20 12.5 35t33.5 15zM78 669q33 0 51 -21.5t18 -58.5q-1 -30 -17.5 -57t-51.5 -47l-12 -7l-19 35q54 31 58 66q-10 -7 -24 -7
q-21 0 -35 12.5t-14 34.5q0 20 12.5 35t33.5 15z" />
    <glyph glyph-name="indianrupeesign" unicode="&#x20b9;" horiz-adv-x="533" 
d="M477 622v-81h-89q31 -37 42 -85h47v-81h-43q-2 -23 -6 -42l-302 -167q86 -74 301 -75v-81q-119 0 -195.5 21t-121 47t-63 49.5t-19.5 29.5l-7 44l314 174h-303v81h312q-20 40 -49 61.5t-75 23.5h-188v81h445z" />
    <glyph glyph-name="dottedcircle" unicode="&#x25cc;" 
 />
    <glyph glyph-name="ekar_initial_bn" horiz-adv-x="266" 
d="M203 -68l-19 8q-28 12 -55 35t-48.5 59.5t-35 87.5t-13.5 117q3 87 26 158t56 121t71 77t71 27h20v-81h-10q-24 -4 -50 -27t-48 -62.5t-37 -93.5t-17 -120q3 -166 86 -214l57 31l39 -71q-23 -13 -46.5 -25.5t-46.5 -26.5z" />
    <glyph glyph-name="oikar_initial_bn" horiz-adv-x="266" 
d="M203 -68l-18 8q-28 11 -55 34.5t-48.5 60.5t-35 87.5t-14.5 116.5q6 192 90 302l65 81q-38 86 -105 116l-53 -29l-40 71l83 47q34 -8 64.5 -25.5t56 -43t44.5 -60t29 -76.5h10v-81h-10q-24 -4 -49.5 -27t-47.5 -62t-37.5 -93.5t-17.5 -120.5q3 -166 86 -214l57 31l40 -71
z" />
    <glyph glyph-name="k_ko_bn" horiz-adv-x="741" 
d="M488 -156h-81v2q-60 3 -101 25.5t-67 49.5t-37 50.5t-11 28.5l-9 32l91 43q-159 64 -217 205q-17 43 -17 49l-7 30q14 7 96 52t234 130h-372v81h761v-81h-185q30 -14 56.5 -34.5t45.5 -48.5t30 -62.5t11 -75.5q0 -8 -0.5 -15t-1.5 -15q-13 -6 -41 -21.5t-73 -40.5l-40 72
l75 41q-7 60 -46.5 95t-93.5 45v-334q25 -3 52.5 -14.5t50 -32.5t37 -51.5t14.5 -70.5l-3 -30q-8 -4 -27.5 -15t-51.5 -28l-40 71l39 22q-13 52 -71 66v-220zM394 132l13 6v335l-279 -154q7 -27 48 -80q72 -92 218 -107zM407 -71v119l-122 -56q33 -52 122 -63z" />
    <glyph glyph-name="k_tto_bn" horiz-adv-x="810" 
d="M484 -168q-36 0 -45 3l-33 7v207q-70 5 -126.5 25t-100 50.5t-74.5 70.5t-49 85q-19 44 -18 49l-6 30l329 182h-371v81h682q-39 116 -128 151l-65 -35l-40 70l96 54q12 -5 42 -16.5t64 -38t66 -71t48 -114.5h65v-81h-255q30 -13 56 -34t45.5 -48.5t31 -62.5t11.5 -76
l-2 -30q-26 -12 -115 -62l-40 72l75 41q-7 60 -46 95t-93 45l-1 -475v-93q46 1 84.5 12.5t66 31t43 46.5t16.5 60q0 28 -15 51l-83 -47l-40 71l137 76l21 -18q32 -27 46.5 -61.5t14.5 -70.5q0 -51 -23.5 -94t-63.5 -73.5t-93.5 -47.5t-113.5 -17zM406 131v342l-278 -154
q8 -31 47 -80q76 -96 231 -108z" />
    <glyph glyph-name="k_tt_ro_bn" horiz-adv-x="810" 
d="M681 -364l-22 24q-65 77 -199 77q-78 0 -130 -24l-35 74q1 1 14 6t35 11t52.5 10.5t67.5 4.5q113 0 187 -50v100q-78 -38 -171 -38q-19 0 -31 2t-19.5 4.5t-12 6t-10.5 6.5v199q-65 4 -120.5 23t-100.5 49t-78.5 70.5t-52.5 88.5q-16 41 -16 49l-7 30q14 7 96 52t235 130
h-373v81h665q-11 33 -23.5 56.5t-28 40.5t-34.5 30t-41 24l-67 -35l-39 70l97 54q85 -27 140.5 -85t78.5 -155h82v-81h-254q29 -12 55 -32t45.5 -47.5t31 -61.5t11.5 -75l-1 -35q-11 -5 -39.5 -20.5t-75.5 -41.5l-40 72l75 41q-4 33 -17.5 57.5t-32.5 41.5t-42 26.5
t-47 14.5l-1 -475v-93q45 1 83 12t66.5 30.5t44.5 47t16 60.5q0 28 -15 51l-84 -47l-39 71l137 76l22 -18q59 -57 59 -130q0 -74 -46 -132v-268zM407 131v342l-279 -154q23 -45 50 -78.5t60 -56.5t74.5 -36t94.5 -17z" />
    <glyph glyph-name="k_to_bn" horiz-adv-x="735" 
d="M315 -14q-54 0 -103 25.5t-87.5 73t-63 116t-29.5 154.5l82 2q2 -64 19.5 -117.5t45 -92t63 -60t72.5 -21.5q31 0 55 9t40 24t24 34.5t8 40.5q-1 12 -6 26t-14 25.5t-23.5 19t-35.5 8.5q-44 -1 -52 -39l14 8l39 -70l-90 -51l-22 28q-24 30 -24 71q0 36 13 61.5t32 41
t39 23t34 8.5q18 16 27.5 34.5t9.5 50.5q0 13 -6 27.5t-17 26.5t-26.5 20t-35.5 10q-56 -5 -59 -49l18 10l39 -72l-93 -50l-21 29q-25 28 -25 73q0 61 36 97h-202v81h755v-81h-339q45 -40 55 -98q14 15 38 24t56 9q42 0 70 -14t45.5 -37t25 -52.5t7.5 -61.5
q-11 -5 -33.5 -18t-57.5 -33l-40 72l45 25q-7 37 -62 38q-35 -2 -59.5 -29t-36.5 -65q63 -50 63 -135q0 -48 -20.5 -82t-51 -56t-67 -32t-68.5 -10z" />
    <glyph glyph-name="k_t_bo_bn" horiz-adv-x="735" 
d="M491 -159q-52 1 -93 14t-70.5 34t-47.5 48.5t-24 56.5q-48 13 -87 44t-68.5 77t-47 106.5t-21.5 132.5l81 3q3 -67 21.5 -120.5t46 -91.5t62.5 -58.5t71 -20.5q29 0 52 8.5t39.5 23t25.5 32.5t9 37v13q0 25 -21.5 47t-56.5 26q-45 -1 -53 -39l14 8l39 -70l-90 -51l-21 28
q-24 31 -24 71q0 36 13 61.5t32 41t39 23t34 8.5q18 16 27.5 35t9.5 50q0 13 -6 27.5t-17 26.5t-27 20t-35 10q-53 0 -60 -49l19 10l39 -72l-94 -50l-21 29q-24 28 -24 76q0 59 36 94h-202v81h755v-81h-340q48 -41 55 -98q2 0 2 2q18 14 41 22.5t51 8.5q33 0 60.5 -10.5
t47 -29.5t30.5 -44.5t11 -55.5l-1 -25l-90 -51l-40 72l45 25q-16 38 -63 38q-30 0 -54 -24.5t-42 -69.5q64 -48 64 -131l-1 -18h16v-308h-46v-3zM456 -75v100l-103 -48l9 -9q22 -29 94 -43z" />
    <glyph glyph-name="k_t_ro_bn" horiz-adv-x="734" 
d="M403 -191l-23 21q-71 74 -195 74q-61 0 -100 -10t-47 -16h-2l-34 74q2 1 16 6.5t37.5 11.5t56 10.5t71.5 4.5q123 0 199 -55v66q-31 -10 -68 -10q-53 0 -102 25t-87.5 72t-63 115.5t-29.5 155.5l81 3q3 -66 21 -119.5t45.5 -91.5t62.5 -59t71 -21q28 0 51.5 8.5t40.5 23
t26 32.5t9 37v13q0 25 -21.5 47t-56.5 26h-8q-42 -8 -45 -39l14 8l39 -70l-90 -51l-21 28q-24 31 -24 71q0 37 13 62t32 41t38.5 23t33.5 8q16 14 26.5 31.5t10.5 42.5v14q0 27 -23 52t-62 29q-52 0 -59 -49l19 10l38 -72l-93 -50l-21 29q-24 28 -24 76q0 56 36 94h-202v81
h754v-81h-338q44 -41 54 -97q20 14 44 23t51 9q42 0 70 -14t45.5 -37t24.5 -52.5t7 -61.5q-21 -11 -90 -51l-40 72l45 25q-16 38 -62 38q-31 0 -55.5 -24.5t-41.5 -69.5q63 -48 63 -135q0 -39 -17 -72.5t-41 -54.5v-193l-19 -11q-11 -6 -20.5 -13.5t-20.5 -12.5z" />
    <glyph glyph-name="k_no_bn" horiz-adv-x="741" 
d="M196 -239l-21 22q-23 23 -33.5 50.5t-10.5 55.5q0 33 14.5 62t38 50.5t54 34t62.5 12.5q57 0 107 -36v37q-65 4 -120.5 23t-100.5 49t-78.5 70.5t-52.5 88.5q-16 41 -16 49l-7 30q14 7 96 52t235 130h-373v81h761v-81h-186q30 -12 56 -32t45.5 -47.5t31 -61.5t11.5 -75
l-1 -35q-11 -5 -39.5 -20.5t-75.5 -41.5l-40 72l74 41q-2 32 -15.5 56.5t-33 41.5t-43.5 27t-47 15l1 -365v-336h-82v64q0 21 -7.5 42.5t-21.5 39.5t-33.5 29t-44.5 11q-15 0 -31 -5.5t-29 -16t-21 -24.5t-8 -31q0 -12 5 -25l57 32l40 -70zM407 131v342l-279 -154l2 -4
q28 -77 101.5 -126.5t175.5 -57.5z" />
    <glyph glyph-name="k_bo_bn" horiz-adv-x="741" 
d="M489 -156h-82v3q-60 4 -101 26t-66.5 48.5t-36.5 49.5t-11 29l-9 32l91 43q-163 66 -218 205q-17 43 -17 49l-7 30q14 7 96 52t235 130h-373v81h761v-81h-185q29 -13 55 -34t45.5 -48.5t31 -61t11.5 -72.5q0 -8 -0.5 -17t-1.5 -18q-9 -4 -37.5 -19.5t-77.5 -42.5l-38 72
l73 41q-7 60 -46 95t-93 45l1 -352v-285zM393 132l14 6v335l-279 -154l2 -4q26 -71 94 -121.5t169 -61.5zM407 -71v119l-121 -56q37 -52 121 -63z" />
    <glyph glyph-name="k_mo_bn" horiz-adv-x="907" 
d="M480 -174l-22 21q-54 58 -54 131q0 17 3 37v34q-64 4 -120 23t-101 49t-78.5 70.5t-52.5 88.5q-16 41 -16 49l-7 30q14 7 96 52t235 130h-373v81h927v-81h-66v-699h-82v79q0 31 -11.5 62t-32 56t-48.5 40t-62 15q-23 0 -46 -8.5t-41.5 -23.5t-30.5 -36.5t-12 -46.5
q0 -28 13 -51l88 50l39 -71zM407 131v342l-279 -154q23 -45 50 -78.5t60 -56.5t74.5 -36t94.5 -17zM769 113v428h-202q28 -12 54 -32t45.5 -47.5t31 -61.5t11.5 -75l-1 -35q-11 -5 -39.5 -20.5t-75.5 -41.5l-39 72l74 41q-4 33 -17.5 57.5t-32.5 41.5t-42 26.5t-47 14.5
v-346q58 40 128 40q3 0 16 0.5t33.5 -4t46.5 -17.5t56 -41z" />
    <glyph glyph-name="k_ro_bn" horiz-adv-x="862" 
d="M567 0h-80v7q0 30 -7.5 56t-22 45.5t-37 30.5t-52.5 11q-12 0 -27 -2t-32 -4l-33 -4q-16 -2 -30 -2q-52 0 -92 17t-67 45t-41 63.5t-14 72.5q0 5 -0.5 17t3.5 29t15 38t33 45l57 -56q-27 -30 -27 -74q0 -23 8.5 -43.5t25 -37t41 -26t57.5 -9.5q26 0 59 6t60 6
q76 0 123 -37v207q-5 87 -100 88l-10 -1q-74 -9 -74 -79l64 33l37 -72l-132 -68l-21 27q-14 18 -21.5 38.5t-7.5 46.5q0 88 66 127h-298v81h882v-81h-381q35 -20 53.5 -53t22.5 -75l15 12q39 32 95 33q38 -1 67 -13t48 -32t28.5 -46t9.5 -54l-1 -25l-93 -52l-40 71l48 27
l-5 12q-6 14 -22 22.5t-40 8.5q-20 0 -36 -9.5t-29.5 -25t-23.5 -36t-17 -41.5q-3 -10 -4 -11v-254z" />
    <glyph glyph-name="k_lo_bn" horiz-adv-x="740" 
d="M176 -177l-18 17q-19 18 -27.5 42.5t-10.5 52.5q1 29 11.5 53.5t28.5 42t42 28t53 10.5q98 -6 129 -97l23 13v64q-70 5 -127 25t-101 50.5t-75 70.5t-49 85q-16 39 -16 49l-7 30q14 7 96 52t234 130h-372v81h760v-81h-185q30 -13 56 -34t45.5 -48.5t30.5 -62.5t11 -76
q0 -15 -3 -22.5t-14.5 -15.5t-35 -20t-63.5 -34l-39 72l74 41q-7 60 -46 95t-93 45v-640h-81v51q-16 -8 -31 -17t-31 -19l-47 37q10 33 10 42q0 23 -15.5 38.5t-37.5 15.5q-23 0 -38.5 -15.5t-15.5 -38.5l1 -12l37 21l40 -72l-75 -40zM406 131v342l-278 -154q8 -31 47 -80
q76 -96 231 -108z" />
    <glyph glyph-name="k_sso_bn" horiz-adv-x="768" 
d="M520 6h-81v106q0 21 -7.5 43t-22 39t-34.5 28t-44 11q-15 0 -30.5 -5.5t-28.5 -15.5t-21 -24t-8 -32q0 -11 5 -24l56 32l40 -71l-116 -65l-22 21q-44 50 -44 107q0 21 7.5 43t21 41.5t33 36t43.5 26.5q-3 22 -11.5 38.5t-21 28t-27 17.5t-27.5 6q-12 0 -23.5 -4
t-21 -11.5t-15.5 -18t-6 -23.5l1 -10l39 22l40 -71l-101 -57l-22 22q-20 20 -29.5 45t-9.5 49q0 21 8 42t22.5 39.5t35 32.5t45.5 20q-17 53 -113 71h-40v81h788v-81h-258v-59h17q34 0 69.5 -11t64 -32t47 -52.5t18.5 -72.5q0 -5 -1 -14.5t-3 -22.5q-12 -6 -35.5 -19.5
t-58.5 -33.5l-41 71l57 33q-4 16 -15 29.5t-26.5 23.5t-34.5 15.5t-38 5.5l-20 -2v-394zM439 279v121q-29 1 -57.5 10t-52.5 26.5t-40.5 43.5t-21.5 61h-70q24 -32 28 -73q25 -7 45.5 -22.5t36.5 -36t26 -45.5t14 -50q52 -5 92 -35zM439 482v59h-89q4 -15 13.5 -26t22 -18.5
t26.5 -11t27 -3.5z" />
    <glyph glyph-name="k_ss_nno_bn" horiz-adv-x="768" 
d="M289 -180l-22 21q-36 40 -36 88q0 28 12.5 51.5t32 40.5t43.5 27t48 10q35 0 72 -19v73q0 21 -7.5 43t-22 39t-34 28t-43.5 11q-15 0 -31 -5.5t-29 -15t-21 -24t-8 -32.5q0 -13 4 -24l58 32l39 -71l-117 -65l-21 21q-45 49 -45 107q0 21 7.5 43t21 42t33 36t44.5 26
q-2 21 -11 38t-22 28.5t-27 17.5t-27 6q-12 0 -23.5 -4t-21.5 -11.5t-16 -18t-6 -23.5l1 -10l40 22l40 -71l-101 -57l-22 22q-20 20 -29.5 45t-9.5 49q0 21 8 42t22.5 39.5t35 32.5t45.5 20q-14 52 -103 71h-50v81h788v-81h-259v-59h17q35 0 71 -11t64.5 -32t46.5 -52.5
t18 -72.5q0 -5 -1 -14.5t-3 -22.5q-12 -6 -35.5 -19.5t-58.5 -33.5l-41 71l57 33q-4 16 -15 29.5t-27 23.5t-35 15.5t-38 5.5l-20 -2v-555h-80v51q0 13 -5 27.5t-14 26.5t-22.5 19.5t-29.5 7.5q-21 0 -38.5 -14t-17.5 -34l1 -3l30 18l40 -72zM439 279v121q-29 1 -58 10.5
t-52.5 27t-40 43.5t-21.5 60h-70q24 -36 28 -73q25 -8 45.5 -23.5t36.5 -36.5t26 -45.5t14 -48.5q52 -5 92 -35zM439 482v59h-90q4 -15 13.5 -26t22.5 -18t27 -11t27 -4z" />
    <glyph glyph-name="k_ss_bo_bn" horiz-adv-x="767" 
d="M474 -157q-49 0 -86 14t-63.5 38t-42.5 56t-23 68l180 98q-1 21 -9 42t-22 37.5t-33.5 26.5t-42.5 10q-15 0 -31 -5.5t-29 -15t-21 -24t-8 -32.5q0 -11 5 -24l57 32l39 -71l-116 -65l-22 21q-44 50 -44 107q0 21 7.5 43t21 41.5t33 36t43.5 26.5q-10 45 -33.5 67.5
t-53.5 22.5q-12 0 -23.5 -4t-21.5 -11.5t-16 -18t-6 -23.5l1 -10l41 22l39 -71l-102 -57l-21 22q-20 21 -29.5 45t-9.5 49q0 21 8 42t22.5 39.5t35 32.5t45.5 20q-5 17 -18 30t-29.5 22t-34 13.5t-30.5 5.5h-41v81h787v-81h-257v-59h16q34 0 69.5 -10.5t64.5 -31.5t47 -52.5
t18 -73.5q0 -12 -3 -37q-12 -6 -35.5 -19.5t-58.5 -33.5l-40 71l56 33q-10 35 -43 54.5t-72 19.5l-19 -2v-555h-46v-2zM439 279v121q-29 1 -56.5 9t-50.5 25t-40.5 43t-25.5 64h-68l2 -4q20 -28 25 -69q25 -7 45.5 -22.5t36.5 -36.5t26 -45.5t14 -49.5q52 -5 92 -35z
M439 -72v97l-81 -44l9 -13q19 -26 72 -40zM439 482v59h-89q8 -29 35 -43.5t54 -15.5z" />
    <glyph glyph-name="k_ss_mo_bn" horiz-adv-x="899" 
d="M472 -175l-22 21q-54 58 -54 132q0 66 43 119v15q0 21 -7.5 43t-22 39t-34.5 28t-44 11q-15 0 -30.5 -5t-28 -15t-21 -24.5t-8.5 -32.5q0 -13 4 -24l57 32l40 -71l-116 -65l-22 21q-45 49 -45 107q0 21 7.5 43t21 42t33 36t44.5 26q-3 16 -9.5 32t-17.5 29t-26 21t-34 8
q-24 0 -45 -15.5t-21 -41.5l1 -10l39 22l40 -71l-101 -57l-22 22q-20 20 -29.5 45t-9.5 49q0 21 8 42.5t22.5 39.5t35 31.5t44.5 20.5q-17 71 -152 71v81h919v-81h-66v-700h-81v79q0 31 -11 61.5t-31.5 55.5t-49 40.5t-63.5 15.5q-23 0 -46.5 -8.5t-42 -23.5t-30 -36
t-11.5 -47t12 -50l89 49l40 -71zM439 279v121q-29 1 -57.5 10t-52.5 26.5t-40.5 43.5t-21.5 61h-70q24 -36 28 -73q25 -7 45.5 -22.5t36 -36t26 -45t14.5 -50.5q52 -5 92 -35zM439 482v59h-89q8 -29 35 -43.5t54 -15.5zM762 112v429h-243v-59h17q34 0 70 -11t64.5 -32
t47 -52.5t18.5 -72.5q0 -5 -1 -14.5t-3 -22.5q-12 -6 -35.5 -19.5t-58.5 -33.5l-41 71l57 33q-4 16 -15 29.5t-27 23.5t-35 15.5t-38 5.5l-20 -2v-243q43 18 88 18q9 0 24.5 -1t36 -6.5t44.5 -18.5t50 -37z" />
    <glyph glyph-name="k_so_bn" horiz-adv-x="906" 
d="M792 -182l-21 21q-20 24 -84 66q-86 54 -216 54q-129 0 -212 -37q-2 0 -4 -0.5t-6 -3.5l-8 33l-20 43q1 1 14.5 6.5t37.5 12.5t57.5 13.5t75.5 11.5v11q-80 6 -143 30.5t-108.5 63t-74.5 86.5t-41 100l-7 30l330 182h-372v81h926v-81h-66v-692zM406 131v342l-279 -154
q8 -29 48 -80q76 -96 231 -108zM769 -52v593h-204q30 -13 56 -34t45.5 -48.5t30.5 -62.5t11 -76q0 -8 -0.5 -15t-1.5 -15q-9 -4 -37.5 -19.5t-76.5 -42.5l-39 72l73 41q-7 60 -46 95t-93 45v-441q157 0 282 -92z" />
    <glyph glyph-name="kh_bo_bn" horiz-adv-x="541" 
d="M485 -160h-82v4q-54 6 -92.5 23t-65 41.5t-42 56t-24.5 65.5l82 39q-91 27 -149 72.5t-77 103.5l-3 9l5 32l233 129q12 18 12 47q0 20 -11 44q-14 -52 -50 -78t-78 -26q-49 0 -85.5 29.5t-43.5 82.5l-2 27l92 50l40 -70l-40 -22q16 -16 37 -16q23 0 38 17.5t15 40.5
q0 6 -14 56l50 32l21 -10q32 -15 54 -34.5t35 -41t18.5 -44.5t5.5 -47q0 -20 -5 -37t-11.5 -29.5t-12.5 -20t-7 -8.5q-5 -5 -200 -113q67 -99 264 -113l11 5v532h82v-46h66v-81h-66v-701zM403 -74v120l-121 -56q17 -27 49.5 -43t71.5 -21z" />
    <glyph glyph-name="kh_ro_bn" horiz-adv-x="541" 
d="M427 -149l-23 22q-66 71 -185 71q-57 0 -92.5 -10t-43.5 -14l-3 -1l-32 75q1 1 13.5 6t34.5 10.5t51.5 10t64.5 4.5q121 0 192 -49v72q-71 1 -125.5 15.5t-95.5 35t-69.5 45t-45.5 46t-24.5 37t-7.5 18.5l-4 9l5 32l234 129q12 24 12 45q0 22 -12 46q-11 -46 -46.5 -75
t-82.5 -29q-46 0 -83 29t-45 83l-2 27l93 50l39 -70l-39 -22l3 -4q18 -12 33 -12q12 0 22 6t17 14t10.5 17.5t3.5 17.5q0 14 -15 59l52 32l20 -10q66 -33 89.5 -75.5t23.5 -90.5q0 -20 -5 -37t-11.5 -30t-12.5 -20.5t-7 -8.5q-4 -4 -199 -113q69 -103 275 -114v538h81v-46
h66v-81h-66v-654z" />
    <glyph glyph-name="g_ukar_bn" horiz-adv-x="663" 
d="M366 -35q-114 0 -190 67t-115 219l78 20q31 -119 85.5 -172t138.5 -53q81 0 126 34.5t45 94.5q-1 14 -7 31t-18 31t-29.5 24t-41.5 11q-66 -7 -69 -61l27 14l39 -70l-100 -55l-21 28q-12 17 -19 35.5t-7 44.5q0 32 11.5 59t31 46t46 29.5t55.5 10.5l6 -1q60 24 86.5 49.5
t26.5 60.5q0 7 -2.5 16t-8.5 18t-16.5 16.5t-25.5 11.5q-32 0 -52 -18.5t-26 -64.5l-6 -46l-75 21l-4 25q-10 48 -43 74t-79 26q-19 0 -37 -5t-32 -14.5t-22.5 -22.5t-8.5 -29q4 1 8.5 3t9.5 4q51 27 96 27q39 0 65.5 -23.5t26.5 -65.5q0 -19 -8 -38t-21.5 -36t-32 -31.5
t-40.5 -24.5q-9 18 -18.5 35.5t-20.5 34.5q1 1 4 2t9 6q47 30 47 56q-3 5 -10 5t-22.5 -6t-33.5 -12.5t-36.5 -12.5t-30.5 -6q-18 0 -31.5 8t-23 20.5t-14 28t-4.5 30.5q0 34 17 61.5t44 47t60.5 29.5t65.5 10q91 0 156 -77q46 60 119 60q35 0 60.5 -14.5t42.5 -36
t25.5 -46.5t8.5 -46q0 -87 -86 -147q70 -52 70 -147q0 -54 -23 -92t-59 -63t-80 -36.5t-87 -11.5z" />
    <glyph glyph-name="g_go_bn" horiz-adv-x="601" 
d="M314 -152l-34 75q2 0 8 3q59 33 59 62l-1 7q-11 4 -17 4q-7 0 -21.5 -4.5t-31 -10t-33 -10t-27.5 -4.5q-19 0 -32.5 7.5t-22.5 19.5t-13 26t-4 26q0 34 18 61t44 46t56.5 29t56.5 10q80 0 145 -54l-1 176v2q0 41 -15.5 80.5t-43.5 71t-65.5 50.5t-80.5 19q-23 0 -48 -8.5
t-47 -22.5t-36 -33t-14 -41l2 -9q6 0 24 6l40 13q23 8 46 14t40 6q55 0 88 -29.5t33 -80.5q0 -30 -14 -58.5t-34 -48.5l-115 -64l-39 72l102 57q19 20 19 43q0 14 -8.5 21.5t-28.5 7.5q-11 0 -31 -6.5t-42.5 -14t-44.5 -13.5t-35 -6q-23 0 -39 9t-25.5 22.5t-14 30
t-4.5 31.5q0 43 22.5 77t56 57.5t72 35.5t71.5 12q116 0 210 -92v140h81v-46h66v-81h-66v-664h-81v83q0 29 -11 56.5t-30 49.5t-44.5 35t-55.5 13q-14 0 -29 -4t-28.5 -12t-24.5 -19t-15 -26l17 6q46 21 86 21q42 0 70.5 -25t28.5 -68q0 -24 -12.5 -47t-30.5 -42
t-37.5 -32.5t-32.5 -16.5z" />
    <glyph glyph-name="g_do_bn" horiz-adv-x="957" 
d="M830 -51q-50 82 -53 173l-1 31q-2 49 7 97.5t23 96.5l-290 -213l-51 23v160q0 40 -15.5 80t-43 71.5t-65.5 51.5t-83 20q-21 0 -46.5 -8t-47.5 -22.5t-36.5 -33.5t-14.5 -41q0 -5 3 -9q6 0 24.5 6t41 13.5t45.5 13.5t39 6q54 0 87.5 -30t33.5 -81q0 -58 -49 -106
l-114 -64l-39 72l103 57q18 22 18 43q0 29 -37 29q-12 0 -32.5 -6.5t-43 -14t-44 -13.5t-34.5 -6q-23 0 -38.5 9t-25.5 22.5t-14.5 30t-4.5 31.5q0 43 23 77t56.5 57t72.5 35.5t71 12.5q116 0 199 -82l11 -10v140h81v-46h421v-81h-421v-285l318 237l61 -50l-1 -4
q-35 -69 -51 -144.5t-16 -144.5q0 -6 -1 -20.5t2 -35.5t11.5 -47t27.5 -54z" />
    <glyph glyph-name="g_dho_bn" horiz-adv-x="815" 
d="M545 -80h-81v10q-52 4 -93.5 22.5t-71.5 44t-47.5 53.5t-21.5 52l-8 32l242 121v64q0 41 -16 81t-43.5 71t-65.5 50t-81 19q-22 0 -47.5 -8.5t-47 -22.5t-36 -33t-14.5 -40l3 -10q6 0 24.5 6t41 13.5t45 13.5t38.5 6q60 0 91 -32.5t31 -77.5q0 -30 -14 -58.5t-34 -48.5
l-115 -64l-40 72l103 57q19 20 19 43q0 14 -8.5 21.5t-28.5 7.5q-11 0 -31.5 -6.5t-43 -14t-44.5 -13.5t-35 -6q-23 0 -38.5 9t-25.5 22.5t-14.5 30.5t-4.5 33q0 42 22.5 75.5t56.5 56.5t72.5 35.5t71.5 12.5q123 0 209 -92v140h81v-46h280v-81h-280v-246l184 90l54 -40
l-27 -62q-34 -90 -34 -173v-32q0 -14 6 -29.5t17 -33.5l-69 -41q-34 59 -34 134t23 156l-120 -59v-285zM464 11v152l-141 -70q40 -68 141 -82z" />
    <glyph glyph-name="g_dh_ro_bn" horiz-adv-x="808" 
d="M482 -252l-18 17q-66 70 -185 70q-87 0 -135 -24q-2 0 -4 -1l-33 74q2 1 15 6t35 11t52.5 10.5t68.5 4.5q112 0 186 -50v64q-53 4 -94 22.5t-70.5 43.5t-47.5 53t-23 53l-7 32l241 121v64q0 41 -15.5 80.5t-43 71t-65 50.5t-81.5 19q-21 0 -46.5 -8t-47.5 -22.5
t-36.5 -33.5t-14.5 -41q0 -5 3 -9q5 0 23 6l40 13q23 8 46 14t40 6q56 0 89 -30t33 -81q0 -58 -49 -106l-114 -64l-40 72l103 57q19 22 19 43q0 13 -8.5 21t-28.5 8q-12 0 -32.5 -6.5t-43 -14t-44 -13.5t-34.5 -6q-23 0 -39 9t-25.5 22.5t-14 30t-4.5 31.5q0 43 22.5 77
t56 57t72 35.5t71.5 12.5q125 0 209 -92v140h82v-46h273v-81h-273v-246q46 23 91.5 45.5t92.5 44.5l47 -35q-30 -69 -42.5 -127.5t-12.5 -111.5q0 -16 3.5 -41.5t20.5 -54.5l-70 -41q-35 65 -35 143q0 72 19 144l-114 -56v-437zM463 11v152l-141 -70q40 -68 141 -82z
M139 -191l1 1z" />
    <glyph glyph-name="g_no_bn" horiz-adv-x="602" 
d="M254 -113l-22 22q-44 50 -44 106q0 33 14 62t37.5 50.5t54.5 34t64 12.5q57 0 107 -36v179q0 41 -15.5 81t-43.5 71.5t-65.5 51t-81.5 19.5q-22 0 -47.5 -8t-47 -22.5t-36 -33t-14.5 -39.5q0 -7 3 -11q10 0 40 13q61 26 109 26q56 0 89 -30.5t33 -79.5q0 -29 -13 -56
t-32 -46l-4 -5l-114 -64l-40 72l103 57q19 20 19 44q0 28 -37 28q-12 0 -32.5 -6.5t-43.5 -14t-44.5 -13.5t-34.5 -6q-21 0 -37 8.5t-26 22t-15 30t-5 32.5q0 42 22.5 76t56.5 57.5t73 36t72 12.5q115 0 198 -82l11 -10v140h81v-46h66v-81h-66v-635h-81v66q0 21 -8 42.5
t-22 39t-34 28.5t-44 11q-15 0 -31 -6t-28.5 -16.5t-20.5 -24.5t-8 -31q0 -12 5 -24l56 32l40 -71z" />
    <glyph glyph-name="g_bo_bn" horiz-adv-x="602" 
d="M546 -80h-81v10q-52 4 -93.5 22.5t-71.5 44t-47.5 53.5t-21.5 52l-8 32l242 121v62q0 41 -15.5 81t-43.5 71.5t-65.5 51t-82.5 19.5q-22 0 -47.5 -8.5t-47 -23t-35.5 -33t-14 -38.5q0 -7 3 -11q10 0 40 13q61 26 109 26q56 0 89 -30.5t33 -79.5q0 -29 -13 -56t-32 -46
l-4 -5l-114 -64l-40 72l103 57q19 20 19 44q0 13 -8 20.5t-29 7.5q-12 0 -32 -6.5t-42.5 -14t-44.5 -13.5t-36 -6q-21 0 -37 8.5t-26 22t-15 30t-5 32.5q0 42 22.5 76t56.5 57.5t73 36t72 12.5q115 0 198 -82l11 -10v140h81v-46h66v-81h-66v-621zM465 11v152l-141 -70
q40 -68 141 -82z" />
    <glyph glyph-name="g_mo_bn" horiz-adv-x="839" 
d="M400 -142q-77 74 -77 157q0 28 9 57t27 54t44 45.5t61 32.5v115q0 41 -16 81t-43.5 71t-65.5 50t-81 19q-23 0 -48.5 -8.5t-47 -23t-35.5 -33t-14 -39.5l3 -10q10 0 40 13q63 26 109 26q60 0 91 -32.5t31 -77.5q0 -30 -14.5 -58.5t-34.5 -48.5l-114 -64l-40 72l103 57
q19 20 19 43q0 14 -8.5 21.5t-28.5 7.5q-12 0 -32.5 -6.5t-43 -14t-44 -13.5t-34.5 -6q-23 0 -38.5 9t-25.5 22.5t-14.5 30.5t-4.5 33q0 42 22.5 75.5t56.5 56.5t72.5 35.5t71.5 12.5q123 0 209 -92v140h81v-46h304v-81h-66v-668h-82v84q0 32 -12 64t-33 57.5t-50.5 41.5
t-65.5 16q-24 0 -48.5 -9t-44 -24.5t-32 -38t-12.5 -49.5q0 -29 15 -54l92 51l40 -70zM701 151v390h-156v-324q88 -2 156 -66z" />
    <glyph glyph-name="g_ro_bn" horiz-adv-x="601" 
d="M492 -38l-24 22q-9 11 -26.5 24t-42 24t-56 18.5t-67.5 7.5q-48 0 -83 -8.5t-52 -16.5q-8 19 -16 37.5t-16 37.5q2 1 15 6t35.5 11t52.5 10.5t66 4.5q113 0 187 -50v227q0 41 -15.5 81t-43.5 71.5t-65.5 51t-82.5 19.5q-38 0 -74.5 -17.5t-59.5 -55.5q-10 -17 -10 -30
q0 -7 3 -11q6 0 24 6l40 13q23 8 45.5 14t39.5 6q56 0 89 -30.5t33 -79.5q0 -29 -13.5 -56t-30.5 -46l-4 -5l-116 -64l-39 72l103 57q19 22 19 42q0 30 -37 30q-11 0 -31.5 -6.5t-43 -14t-44.5 -13.5t-36 -6q-21 0 -36.5 8.5t-26 22t-15.5 30t-5 32.5q0 42 22.5 76
t56.5 57.5t73 36t72 12.5q115 0 198 -82l11 -10v140h80v-46h66v-81h-66v-349l1 -194q-27 -17 -54 -36z" />
    <glyph glyph-name="g_lo_bn" horiz-adv-x="601" 
d="M155 -141l-18 18q-47 47 -48 115q1 34 13.5 64t34.5 52t51.5 34.5t64.5 13.5q63 -1 106 -38t55 -97l51 29v267q0 40 -15.5 80t-43 71.5t-65.5 51.5t-83 20q-23 0 -48.5 -9t-47 -24t-35.5 -34t-14 -38q0 -5 4 -9q6 0 24 6l40 13q23 8 45.5 14t39.5 6q56 0 89 -30.5
t33 -82.5q0 -24 -10 -46t-38 -58l-116 -64l-39 72l103 57q19 22 19 41q0 31 -38 31q-11 0 -31 -6.5t-42.5 -14t-44.5 -13.5t-36 -6q-23 0 -38.5 9t-25.5 22.5t-14.5 30t-4.5 31.5q0 43 23 77t56.5 57t72.5 35.5t72 12.5q115 0 198 -82l11 -10v140h80v-46h66v-81h-66v-671
h-80v87l-90 -51l-54 27q15 46 15 59q-1 35 -24.5 58.5t-58.5 23.5t-58.5 -23.5t-24.5 -58.5q0 -19 7 -33l62 33l40 -70q-46 -26 -65.5 -37t-28 -15.5t-12.5 -5.5t-18 -5z" />
    <glyph glyph-name="gh_no_bn" horiz-adv-x="540" 
d="M192 -248l-22 22q-23 23 -33.5 50.5t-10.5 55.5q0 34 14.5 63t38.5 50t55 33t63 12q56 0 106 -36v47q-72 3 -127.5 17.5t-96 35t-68 43.5t-44 43.5t-24 36t-8.5 20.5l-3 10l5 32l114 62q-30 9 -50 25t-33 35.5t-18.5 40.5t-5.5 41q0 11 4 31l31 19h-89v81h560v-81h-66
v-770h-81v67q0 21 -8 42.5t-22 38.5t-33.5 28t-43.5 11q-16 0 -31.5 -5.5t-28 -16t-20.5 -25t-8 -31.5q0 -14 4 -25l57 33l40 -72zM404 131v410h-166l-111 -66q4 -23 27 -38t61 -15q35 0 82 10l35 -71q-5 -5 -56.5 -34t-148.5 -83q74 -105 277 -113z" />
    <glyph glyph-name="gh_bo_bn" horiz-adv-x="541" 
d="M485 -155h-81v3q-66 6 -108 30t-66.5 50t-34 48.5t-9.5 25.5l-9 33l76 37q-85 25 -142 70.5t-76 102.5l-3 10l5 32l115 62q-30 9 -50 25t-33 35.5t-18.5 40.5t-5.5 41q0 8 3 31l32 19h-90v81h561v-81h-66v-696zM404 -70v119h-8l-117 -55q41 -54 125 -64zM381 132l23 10
v399h-166l-110 -66q12 -53 88 -53q16 0 36.5 2.5t45.5 7.5l35 -71q-5 -5 -56.5 -34t-148.5 -83q73 -97 253 -112z" />
    <glyph glyph-name="gh_ro_bn" horiz-adv-x="540" 
d="M424 -137l-20 20q-35 35 -81 53t-109 18q-60 0 -132 -23l-3 -2q-8 19 -16 37t-16 37q1 1 14 6t35 11t52.5 10.5t67.5 4.5q113 0 187 -50v64q-71 1 -126 15t-96 35t-69 45t-45 45.5t-24.5 37t-7.5 18.5l-3 10l5 32q8 5 36 20.5t77 41.5q-29 9 -49.5 25t-33 35.5
t-18.5 41.5t-6 43l5 28l30 19h-88v81h560v-81h-66v-646zM403 131v410h-166l-110 -66q4 -23 26 -38t62 -15q34 0 81 10l36 -71q-4 -4 -55 -33t-150 -84q74 -106 276 -113z" />
    <glyph glyph-name="ng_ko_bn" horiz-adv-x="775" 
d="M355 382l104 58q-71 0 -111 28t-57 73h-74q6 -12 9 -25q87 -19 129 -134zM450 521q10 1 16.5 1.5t11.5 2.5t9.5 5.5t11.5 10.5h-111q16 -18 62 -20zM440 -5v342l-278 -155q6 -25 47 -78q75 -97 231 -109zM72 192l-7 30l216 119q-10 49 -36 74.5t-58 25.5q-13 0 -26 -4.5
t-23.5 -13t-17 -20.5t-6.5 -26q0 -4 0.5 -7t1.5 -7l45 26l39 -72l-105 -58l-22 22q-21 20 -31 45.5t-10 51.5q0 21 7.5 42t21 39t33 32.5t43.5 21.5q-24 21 -82 28h-65v81h795v-81h-202q-5 -32 -28.5 -60.5t-66.5 -36.5l4 -1q54 -3 106.5 -25.5t94.5 -70.5q7 -8 15.5 -21.5
t16 -32.5t13 -43.5t5.5 -52.5l-2 -30q-19 -9 -48 -24t-67 -36l-40 70l75 41q-4 34 -17 58.5t-32 40.5t-42.5 25.5t-47.5 14.5v-488h-82v45q-73 3 -128.5 23.5t-96.5 50.5t-68 64t-43.5 64t-23.5 51t-8 25z" />
    <glyph glyph-name="ng_k_ro_bn" horiz-adv-x="774" 
d="M354 382l104 58q-71 0 -111 28t-57 73h-74q6 -12 9 -25q87 -19 129 -134zM449 521q40 1 48 19l1 1h-111q16 -18 62 -20zM439 -5v342l-278 -155q6 -25 47 -78q75 -97 231 -109zM71 192l-6 30l215 119q-10 49 -36 74.5t-58 25.5q-13 0 -26 -4.5t-23.5 -13t-17 -20.5
t-6.5 -26q0 -4 0.5 -7t1.5 -7l45 26l39 -72l-105 -58l-22 22q-21 20 -30.5 45.5t-9.5 51.5q0 20 7 41t20.5 39.5t32.5 33t44 21.5q-24 21 -82 28h-64v81h794v-81h-202q-4 -31 -26.5 -59t-67.5 -38q56 -8 103 -25.5t80.5 -47.5t52 -73t18.5 -101l-3 -30q-38 -18 -114 -60
l-40 70l75 41q-14 113 -139 139v-587l-60 -36l-23 20q-66 70 -184 70q-67 0 -131 -21l-7 -4l-33 75q1 1 13.5 6t34 10.5t51 10t64.5 4.5q123 0 193 -49v58q-73 3 -128.5 23.5t-96.5 50.5t-68 64t-43.5 64t-23.5 51t-8 25z" />
    <glyph glyph-name="ng_kho_bn" horiz-adv-x="934" 
d="M720 356l-4 -5l-195 -107q70 -105 276 -115v539h81v-46h66v-82h-66v-540h-81v48q-188 9 -290 93l-32 30q-19 -27 -42.5 -46t-48 -31t-49.5 -18t-48 -6q-58 0 -105 23.5t-80.5 63t-51.5 91.5t-18 109q0 20 3 43l80 -9l-1 -30q0 -42 11.5 -80t33.5 -66.5t55 -45.5t77 -17
q24 0 48.5 10t44 28t32 43t12.5 54q0 23 -7 43l-159 -87l-40 35v154q-104 33 -135 138l-4 36l57 31l39 -71l-3 -2q16 -27 43 -44l3 -1q0 51 35 84.5t95 33.5q35 0 65 -18t40 -50l40 22l40 -71l-40 -22q16 -16 37 -16q22 0 40 18l1 1q12 21 12 39q0 10 -15 57l51 32l21 -10
q32 -15 53.5 -34t34.5 -40.5t18.5 -44.5t5.5 -47q0 -20 -5 -37t-11 -30t-12 -21t-8 -9zM505 327l158 88q11 16 13 45q0 16 -9 39l-3 6q-15 -53 -52 -78.5t-76 -25.5q-31 0 -62 14.5t-48 43.5q-46 -40 -123 -40v-61q55 30 85 47t37 21q7 -2 15.5 -4t17.5 -3l9 -11
q14 -17 23.5 -37t14.5 -44zM309 499q40 2 55.5 15t15.5 26q0 15 -31 15q-30 0 -38 -12t-8 -44h6z" />
    <glyph glyph-name="ng_go_bn" horiz-adv-x="608" 
d="M482 521q11 1 17.5 1.5t11 2.5t9 5.5t11.5 10.5h-110q16 -18 61 -20zM220 457q-47 0 -77 -29.5t-30 -83.5q0 -4 0.5 -8t1.5 -9l84 47l40 -71l-154 -85l-21 29q-15 21 -23.5 45.5t-8.5 55.5q0 44 12.5 75.5t31.5 52.5t42 33.5t44 18.5t37.5 8t22.5 2q50 -3 89.5 -22.5
t67.5 -49.5t44 -68.5t19 -79.5q20 25 45.5 44t55.5 33l33 -75q-61 -29 -98 -90.5t-37 -147.5q0 -78 36 -160l-74 -34q-42 99 -42 193q0 51 15 113l1 2l-293 -162l-38 71l313 174q3 6 3 19q0 27 -8.5 54.5t-26.5 50t-44.5 37.5t-62.5 17zM484 440q-38 0 -65.5 10.5t-47 26
t-31.5 33t-17 31.5h-333v81h628v-81h-3q-5 -38 -37.5 -68.5t-93.5 -32.5z" />
    <glyph glyph-name="ng_mo_bn" horiz-adv-x="804" 
d="M365 -143l-22 22q-56 62 -56 133q0 27 8 59h-9q-59 0 -106 23.5t-80 63t-50.5 92t-17.5 109.5q0 10 0.5 20t1.5 21l81 -9q-1 -8 -1 -17v-16q0 -43 11.5 -80.5t34 -65.5t55.5 -44t75 -16q24 0 48.5 10t44.5 28t32.5 43t12.5 54q0 21 -8 43q-67 -37 -105 -58t-49 -26
l-44 27v159q-103 31 -136 138l-3 36l56 31q19 -45 35.5 -73t43.5 -44l4 -1q0 50 34 84t96 34q22 0 42 -7.5t35 -20.5t23.5 -31t8.5 -39q0 -24 -10.5 -46t-30.5 -38.5t-49.5 -26t-68.5 -9.5v-61l119 66h11q3 -1 22 -1l12 -14q21 -25 32 -55.5t11 -70.5q0 -38 -12 -66h8
q91 0 161 -67v391h-187v81h335v-81h-66v-668h-82v81q0 30 -11 62.5t-31.5 58.5t-50.5 43t-68 17q-26 0 -50.5 -8.5t-43.5 -24.5t-31 -38.5t-12 -49.5q0 -28 14 -54l93 52l40 -72zM308 499q41 2 56.5 14.5t15.5 24.5q0 17 -32 17q-30 0 -38 -12t-8 -44h6z" />
    <glyph glyph-name="ng_ro_bn" horiz-adv-x="610" 
d="M411 636q50 -4 80.5 -35.5t30.5 -73.5q0 -26 -11.5 -50t-34.5 -42.5t-58 -29.5t-83 -11v-90l148 81q5 1 13 1h20q62 -67 62 -160q0 -94 -68 -159h11v-233l-51 -41l-27 27q-35 35 -81.5 53.5t-110.5 18.5q-60 0 -131 -23l-3 -1v-1l-33 74q1 1 14.5 6.5t36 11.5t52.5 10.5
t66 4.5q114 0 187 -50v92q-59 -30 -118 -30q-63 0 -116 26t-91.5 71t-60.5 105t-22 127q0 23 3 49l81 -9q-1 -10 -1.5 -19t-0.5 -18q0 -51 14 -96.5t41 -79.5t67 -54t92 -20q31 0 61 13t54 34.5t38.5 50.5t14.5 62q0 40 -12 66l-181 -101l-48 23v191q-72 23 -112.5 69
t-49.5 127l61 34l40 -71l-10 -6q25 -49 71 -67q0 31 7.5 57t25.5 45t48 30t75 11zM349 475q27 1 44.5 6.5t28 13t15 17t4.5 17.5q0 26 -47 26q-49 0 -58 -40l-1 -39z" />
    <glyph glyph-name="c_nyo_bn" horiz-adv-x="1079" 
d="M815 -12l-82 1q0 32 -6 60t-19.5 49t-35 33.5t-52.5 12.5q-12 0 -28 -2l-62 -8q-15 -2 -28 -2q-105 0 -163 75l-236 -131l-47 16v449h-66v81h1099v-81h-328q25 -26 39 -56q11 10 26 19t32.5 16t35 11t32.5 4q28 0 50 -11t37 -28.5t23 -38.5t8 -40q0 -23 -11 -51.5
t-32 -46.5q46 -39 46 -95q0 -29 -12 -52t-31 -39t-44 -25t-50 -9q-55 0 -95 27v-138zM733 188v221q-1 47 -24.5 71.5t-69.5 24.5q-40 0 -61 -23.5t-21 -64.5l61 33l39 -71q-33 -18 -66 -36.5t-65 -37.5l-22 30q-14 19 -21 40t-7 48q0 77 48 118h-387v-27q74 -6 127.5 -28.5
t90 -55.5t59 -74.5t34.5 -87.5l-37 -21q34 -34 90 -34q13 0 28 2t30.5 4.5t31 4.5t28.5 2q68 0 114 -38zM137 188l213 117q-7 16 -21.5 36t-40 39t-62.5 33.5t-89 19.5v-245zM896 448q-62 -25 -79 -75q-2 -4 -2 -110q14 -46 38 -64.5t52 -18.5q29 0 44.5 14t15.5 31
q0 23 -22 37t-54 19l5 81q33 0 51 16t18 42l-1 5q-7 27 -37 29q-11 0 -29 -6z" />
    <glyph glyph-name="c_ro_bn" horiz-adv-x="522" 
d="M358 -167l-22 22q-56 66 -133 66q-67 0 -131 -21l-8 -3q-8 19 -16 37t-16 37q1 1 13 6t34 11t51.5 10.5t64.5 4.5q88 0 144 -50v189l-242 -134l-41 29v504h-66v81h542v-81h-394v-42q181 -12 273 -119q39 -47 55 -82t17 -41l7 -31l-70 -39v-312zM138 123l254 142
q-9 18 -27 43t-48 48t-74 40.5t-105 21.5v-295z" />
    <glyph glyph-name="ch_bo_bn" horiz-adv-x="536" 
d="M269 -125v106l-108 -52l10 -11q13 -14 36.5 -25.5t61.5 -17.5zM140 321l153 72q-37 58 -153 70v-142zM502 289l-4 -20l-319 -151q82 -41 282 -42v-82q-32 1 -60 2t-53 3v-207l-48 -1q-45 0 -81.5 10t-65 26.5t-49 38t-31.5 45.5q-11 22 -11 27l-8 33l127 60
q-35 10 -58 22.5t-37 25t-20 23t-6 16.5l-3 32l363 173q-3 17 -25 33l1 -3l-302 -141l-38 27v302h-66v81h556v-81h-376q119 -22 174 -86q25 0 52.5 -10t50.5 -27.5t39 -42.5t18 -55q0 -25 -2 -31z" />
    <glyph glyph-name="ch_ro_bn" horiz-adv-x="536" 
d="M140 321l153 72q-39 58 -153 70v-142zM502 289l-4 -20l-319 -151q2 0 4 -2q87 -38 278 -40v-82h-21v-128l-60 -34q-51 45 -93 66.5t-84 21.5q-86 0 -135 -23l-4 -2l-32 74q78 32 169 32q85 0 158 -50v47q-199 18 -270 80q-11 9 -16.5 15t-8 10t-3 7t-1.5 8l-3 32
q13 7 103.5 49.5t260.5 123.5q-8 20 -26 33l1 -3l-301 -141l-39 27v302h-66v81h556v-81h-376q119 -22 174 -86q25 0 52.5 -10t50.5 -27.5t39 -42.5t18 -55q0 -25 -2 -31z" />
    <glyph glyph-name="ch_ro_alt_bn" horiz-adv-x="536" 
d="M137 321l153 72q-39 58 -153 70v-142zM358 -2q-198 18 -269 80q-11 9 -16.5 15t-8 10t-3 7t-1.5 8l-3 32q13 7 103.5 49.5t260.5 123.5q-8 20 -26 33l1 -3l-301 -141l-39 27v302h-66v81h556v-81h-376q119 -22 174 -86q25 0 52.5 -10t50.5 -27.5t39 -42.5t18 -55
q0 -25 -2 -31l-4 -20l-319 -151q2 0 4 -2q87 -38 278 -40v-82h-21v-127l-60 -41l-24 22q-65 69 -257 69q-143 0 -267 -40l-33 75q6 4 33.5 12t68.5 15.5t91.5 13t103.5 5.5q192 0 262 -49v49z" />
    <glyph glyph-name="j_jo_bn" horiz-adv-x="1057" 
d="M895 -64q-39 63 -39 147q0 89 42 187q-10 -1 -19.5 -1.5t-19.5 -0.5q-63 0 -109 28t-61 79q-65 -63 -65 -114q0 -30 37 -30q32 0 75 25q19 11 40 11q19 0 34 -8t25.5 -21t16 -29.5t5.5 -33.5q0 -46 -20.5 -80t-51.5 -56t-68 -32.5t-70 -10.5q-122 3 -191 93l-2 -1
q-65 -39 -140 -39q-65 0 -117.5 26t-89 70.5t-56 103t-19.5 124.5q0 17 1.5 34.5t3.5 34.5l79 -12q-3 -29 -3 -55q0 -54 14 -98.5t40.5 -77t63.5 -51t83 -19.5q27 0 54.5 8t49 23t35.5 37t14 51q0 13 -5 18l-4 -2q-69 -39 -124 -39q-62 0 -97 33t-35 80q0 33 8.5 62
t22.5 53.5t32.5 46t38.5 41.5h-314v81h1077v-81h-614q-6 -17 -6 -28q0 -26 29 -48.5t84 -22.5q5 0 14.5 -1t25.5 2t38 11.5t52 27.5l1 -1q6 5 18 12t31 17l57 -43q-31 -46 -31 -61q0 -19 24 -38t69 -19q4 0 13 -0.5t23 2.5t33 10.5t45 23.5l52 -62q-19 -19 -35.5 -48.5
t-28.5 -62.5t-18.5 -67t-6.5 -61q0 -57 27 -102zM646 77q24 0 47.5 6.5t42 19.5t29.5 32t11 43l-1 7q-62 -35 -111 -35q-48 0 -77.5 21t-39.5 58q-6 -45 -32 -83q47 -68 131 -69zM544 280q4 21 11 44.5t20 36.5h-14q-38 0 -70.5 9.5t-58 26.5t-42 40.5t-22.5 52.5
q-15 -14 -30.5 -32t-28 -37t-20 -38.5t-7.5 -37.5q0 -40 51 -40q34 0 86 31q10 6 21.5 9t22.5 3q32 -2 52.5 -19.5t28.5 -48.5z" />
    <glyph glyph-name="j_j_bo_bn" horiz-adv-x="999" 
d="M845 -112q-52 1 -91 13.5t-66.5 31t-44.5 40t-25 39.5q-103 3 -165 74q-64 -37 -137 -37q-66 0 -118.5 26t-89.5 70.5t-56.5 104t-19.5 125.5q0 17 1.5 33.5t3.5 33.5l81 -12q-2 -14 -3 -28.5t-1 -28.5q0 -52 13.5 -96t39.5 -76.5t63.5 -51.5t84.5 -20q27 0 54.5 8.5
t49.5 23.5t35.5 37.5t13.5 51.5q0 11 -5 16l-4 -2q-68 -39 -124 -39q-60 0 -96.5 32.5t-36.5 80.5q0 33 9 62t23 53.5t32.5 46t38.5 41.5h-315v81h1019v-81h-555q-6 -15 -6 -27q0 -27 30.5 -50t84.5 -23l27 1q33 2 117 50l51 -50q-9 -13 -17.5 -27t-8.5 -27q0 -18 24 -32.5
t68 -14.5q11 0 33.5 5t57.5 28l52 -62q-10 -11 -22 -29t-22.5 -40.5t-19 -49t-12.5 -53.5v-250h-46v-2zM334 305q34 0 86 31q19 12 43 12q23 0 40 -10.5t27 -26.5q7 20 26 49q-32 1 -63.5 10t-57.5 25.5t-44 40.5t-22 54q-15 -14 -30.5 -32t-28 -37t-20 -38.5t-7.5 -37.5
q0 -40 51 -40zM619 93q45 0 77 22.5t38 63.5l-1 4q-53 -30 -98 -30q-61 0 -95 42q-11 -31 -28 -54q39 -46 107 -48zM814 169q10 49 30 93q-8 -1 -16 -1.5t-16 -0.5q-53 0 -94.5 23t-60.5 68l-1 3q-54 -56 -54 -96q0 -14 7 -19t24 -5q23 0 66 22q9 5 18 8t20 3q34 0 56 -25.5
t22 -59.5zM811 -28v78l-4 24l-103 -48q9 -9 18.5 -17.5t21.5 -15t28 -12t39 -9.5z" />
    <glyph glyph-name="j_jho_bn" horiz-adv-x="891" 
d="M644 -77h-81v16q-75 8 -123 39t-74 76q-28 -5 -51 -5q-65 0 -117.5 26t-89.5 70.5t-56.5 103.5t-19.5 124q0 17 1.5 34.5t3.5 34.5l81 -12q-2 -14 -3 -28.5t-1 -28.5q0 -52 14 -96t39.5 -76.5t62.5 -51.5t84 -20q16 1 31.5 3t29.5 7l37 18q22 14 39 38t17 55q0 11 -5 16
l-4 -2q-68 -39 -124 -39q-60 0 -96.5 32.5t-36.5 80.5q0 33 9 62t23 53.5t32.5 46t38.5 41.5h-315v81h911v-81h-66v-588h-82q0 28 -32 50.5t-77 30.5v-111zM546 220l22 11q15 69 44 134q-14 -2 -26.5 -3.5t-25.5 -1.5q-33 0 -65.5 9t-59 25.5t-44.5 41t-22 54.5
q-15 -14 -30.5 -32t-28 -37t-20 -38.5t-7.5 -37.5q0 -40 51 -40q34 0 86 31q19 12 43 12q37 0 61.5 -29t24.5 -71q0 -15 -3 -28zM563 22v69q-4 20 -4 45l-114 -55q44 -50 118 -59zM753 79v462h-299q-6 -15 -6 -27q0 -27 29.5 -49.5t82.5 -22.5q5 0 14.5 -1t25.5 2t38 11.5
t52 27.5l52 -60q-14 -15 -29.5 -40t-29 -55.5t-24.5 -65.5t-15 -70v-76q56 -6 109 -36z" />
    <glyph glyph-name="j_nyo_bn" horiz-adv-x="863" 
d="M315 49q-67 0 -119.5 26.5t-89 71.5t-55.5 104t-19 124q0 17 1 33.5t3 33.5l81 -12q-2 -14 -3 -27.5t-1 -27.5q0 -53 14 -97.5t40 -77t63 -51.5t84 -20q28 0 55.5 8.5t49.5 23.5t35.5 37.5t13.5 51.5q0 11 -5 16q-1 0 -5 -2q-68 -39 -124 -39q-30 0 -54 8.5t-41.5 24
t-27 36t-9.5 44.5q0 33 8.5 62t23 53.5t32.5 46t38 41.5h-314v81h883v-81h-419q-5 -17 -5 -32q0 -26 13 -55.5t33 -48.5q2 -2 3 -2q6 27 22.5 51.5t40 43t51 29.5t55.5 11q20 0 39.5 -7t35 -21t25 -34t9.5 -46q0 -36 -20 -71q18 -6 32 -17.5t23.5 -25.5t14.5 -30t5 -30
q0 -28 -11.5 -52t-31.5 -41.5t-47.5 -27.5t-59.5 -10q-83 0 -141 72q-13 -38 -36.5 -65.5t-53.5 -46t-65 -27.5t-70 -9zM333 305q34 0 86 31q11 6 22 9q-63 59 -72 145q-16 -14 -31.5 -31.5t-28 -36.5t-20 -39t-7.5 -38q0 -40 51 -40zM683 206q29 0 48 13t19 36q0 28 -36 28
q-19 0 -37 -5l-9 -3l-35 73q61 39 61 86q0 13 -9.5 18.5t-19.5 5.5q-19 0 -52 -21q-24 -16 -31 -36.5t-10 -46.5q0 -15 3.5 -35t12.5 -43q14 -35 36.5 -51t44.5 -18z" />
    <glyph glyph-name="j_bo_bn" horiz-adv-x="774" 
d="M644 -70h-82v3q-44 4 -77.5 17.5t-58 30.5t-40 36t-24.5 36q-12 -2 -24 -3t-23 -1q-66 0 -118.5 26.5t-89 71t-56 103t-19.5 123.5q0 17 1.5 34.5t3.5 34.5l80 -12q-2 -14 -3 -27.5t-1 -27.5q0 -54 14 -98.5t40 -77t63.5 -51t84.5 -19.5q27 0 54 8t49 23t36 37t14 51
q0 13 -5 18l-4 -2q-69 -39 -125 -39q-30 0 -54 9t-41 24t-26.5 35.5t-10.5 44.5q0 33 8.5 62t23 53.5t33 46t38.5 41.5h-315v81h794v-81h-330q-7 -15 -7 -28q0 -12 7.5 -24.5t21.5 -23t35.5 -17t48.5 -6.5q5 0 15 -1t26 2t38 11.5t52 27.5l51 -60q-14 -15 -29 -39.5t-29 -55
t-24.5 -65.5t-15.5 -71v-261zM544 213l22 10q7 37 18.5 72t27.5 70q-14 -2 -26.5 -3.5t-25.5 -1.5q-38 0 -70 10t-57.5 27t-42 41t-22.5 52q-14 -14 -29 -31.5t-27.5 -36.5t-20.5 -38.5t-8 -38.5q0 -40 50 -40q34 0 86 31q19 12 44 12q20 0 36 -8.5t27 -23t17 -32.5t6 -36
q0 -15 -5 -35zM562 15q0 55 -3 115l-115 -55q36 -50 118 -60z" />
    <glyph glyph-name="j_ro_bn" horiz-adv-x="774" 
d="M584 -154l-21 21q-84 84 -225 84q-30 -1 -56 -3t-47 -9l-52 -17q-7 19 -33 74q2 2 16.5 8t39.5 12t59 11t75 5q139 0 222 -62v121q-1 14 -1.5 27t-0.5 26q0 110 52 221q-14 -2 -27 -3.5t-26 -1.5q-37 0 -69 10t-57 27t-42 41t-23 52q-15 -14 -30 -31.5t-27.5 -36
t-20.5 -37.5t-8 -36q0 -44 51 -44q34 0 86 31q19 12 44 12q20 0 36 -8.5t27 -22.5t17 -32t6 -37q0 -51 -22.5 -88.5t-57 -62t-76 -36.5t-78.5 -12q-67 0 -119.5 26.5t-89 71.5t-55.5 104t-19 124q0 17 1 33.5t3 33.5l81 -12q-2 -14 -3 -27.5t-1 -27.5q0 -53 14 -97.5t40 -77
t63 -51.5t84 -20q27 0 54.5 8t49.5 23t36 37t14 51q0 13 -5 18q-2 0 -4 -2q-69 -39 -125 -39q-60 0 -95.5 32t-37.5 81q0 33 9 62t23 53.5t32.5 46t38.5 41.5h-314v81h794v-81h-330q-7 -15 -7 -28q0 -27 30 -49t83 -22q5 0 14.5 -1t25.5 2t38.5 11.5t52.5 27.5l51 -60
q-17 -19 -35 -50t-33 -69t-24.5 -80.5t-9.5 -82.5l3 -64v-198z" />
    <glyph glyph-name="jh_ro_bn" horiz-adv-x="708" 
d="M39 328l-7 30l330 183h-372v80h497v-332q44 -21 85 -62v441h80v-46h66v-81h-66v-497h-80q0 39 -23.5 80t-61.5 70l-1 -189v-96l-61 -33l-20 20q-70 70 -185 70q-77 0 -135 -24q-4 -2 -5 -2l1 1l-33 74h1q1 1 14.5 6t36 11t53 10.5t66.5 4.5q113 0 187 -50v51
q-71 5 -128 25t-101 51.5t-74.5 71t-47.5 83.5q-16 41 -16 49zM407 130v342l-280 -154l2 -4q14 -38 40 -70t61.5 -56t80.5 -39t96 -19z" />
    <glyph glyph-name="ny_co_bn" horiz-adv-x="651" 
d="M464 484q-65 -28 -82 -78q-2 -8 -2 -115l1 1q26 -86 93 -86q37 2 50.5 15.5t13.5 31.5q0 23 -24.5 39t-56.5 20q1 4 2 23.5t3 56.5q35 1 54 17.5t19 42.5q0 18 -13 27.5t-27 10.5q-12 0 -31 -6zM299 88v219l-178 -100q7 -15 19.5 -33.5t33.5 -35.5t52 -31t73 -19zM32 217
l-7 30l274 152q0 56 -24.5 86.5t-75.5 30.5q-35 0 -60.5 -21.5t-25.5 -68.5v-7l65 36l39 -71l-136 -75l-21 30q-14 20 -21 40t-7 46q0 42 14 74.5t37.5 54t54 32.5t62.5 11q26 0 51 -7.5t48 -20.5v53h81v-91q52 40 116 40q28 0 50.5 -11.5t38 -29t23.5 -39t8 -41.5
q0 -24 -10.5 -51.5t-34.5 -47.5q48 -42 48 -98q0 -29 -12 -53t-32 -41t-45.5 -26t-51.5 -9q-55 0 -98 30v-169h-81v21q-69 7 -122.5 32.5t-89.5 71.5q-26 32 -39 58.5t-16 48.5z" />
    <glyph glyph-name="ny_cho_bn" horiz-adv-x="675" 
d="M297 378l-10 23q-5 -6 -11 -11zM483 343q33 0 56 8.5t23 28.5q0 33 -42 33q-30 0 -66 -18l-45 66q55 48 55 81q0 37 -39 37q-18 0 -31 -9.5t-21.5 -24t-13 -31.5t-4.5 -33q0 -30 10 -55t27.5 -43.5t41 -29t49.5 -10.5zM146 200l153 71l-2 2q-23 30 -81 54
q-56 -67 -70 -127zM510 167l-4 -19l-319 -152l5 -2q87 -40 277 -41v-80q-81 0 -149 8.5t-119 23.5t-83.5 34t-42.5 40l-5 8l-4 42l364 172q-6 16 -27 34l1 -4l-286 -135q-12 5 -24 9t-25 8q-4 20 -5.5 35.5t-1.5 25.5q0 36 13.5 73t34.5 71.5t46 63.5t47 49q23 20 36 39
t15 41q0 36 -18.5 56t-56.5 20q-62 0 -65 -62l43 25l40 -72l-119 -65l-20 29q-12 17 -19 35.5t-7 41.5q0 52 20.5 82t46.5 45t50 18.5t30 3.5q43 0 76 -17.5t56 -49.5q45 59 117 59q21 0 42 -7.5t37.5 -22t27 -36.5t10.5 -50q0 -27 -10 -51l9 -1q44 -11 71.5 -40t27.5 -73
q0 -48 -40 -81.5t-115 -36.5q24 -32 24 -75q0 -13 -2 -19z" />
    <glyph glyph-name="ny_jo_bn" horiz-adv-x="734" 
d="M583 -20q-46 59 -46 141q0 49 17 95h-27q-6 0 -11 1q6 -18 6 -38q0 -49 -21.5 -85t-54.5 -60t-72.5 -35.5t-75.5 -11.5q-59 4 -107.5 32t-84 76t-55 113t-19.5 142v9h81v-7q0 -64 15.5 -116.5t41.5 -89.5t59.5 -57.5t68.5 -20.5q25 0 50.5 7.5t46.5 22t34 35t13 47.5
q0 9 -5 14q-26 -13 -42.5 -20.5t-29 -12t-23.5 -6t-25 -1.5q-25 0 -47.5 7.5t-39 20.5t-26 31.5t-9.5 39.5q3 65 50 115q50 51 50 52q8 11 14 22.5t6 22.5q0 35 -19.5 55.5t-57.5 20.5q-22 0 -42 -14t-22 -48l44 25l39 -72l-118 -65l-21 29q-12 17 -18.5 36t-6.5 45
q0 51 20.5 80t46.5 43.5t49.5 18t29.5 3.5q38 0 73.5 -17.5t58.5 -49.5q45 59 117 59q21 0 42 -7.5t37.5 -22t27 -36.5t10.5 -51q0 -25 -9 -50l8 -1q44 -11 71 -39.5t27 -73.5q0 -23 -12.5 -49.5t-40.5 -42.5l3 -2l-11 -22q-12 -24 -17.5 -50.5t-5.5 -52.5q0 -47 28 -85z
M544 297q32 0 54.5 8.5t22.5 28.5q0 33 -41 33q-35 0 -65 -18h-2l-45 66q29 25 42.5 46t13.5 39q0 13 -9 23t-31 10q-18 0 -31.5 -10t-21.5 -25t-12 -32.5t-4 -32.5q0 -43 25 -81l2 -4q37 -51 102 -51zM315 235q37 0 90 33q-34 30 -58 88l-22 -23q-48 -45 -48 -76
q0 -22 38 -22z" />
    <glyph glyph-name="ny_jho_bn" horiz-adv-x="815" 
d="M248 46l-14 33q33 17 208 116q-37 43 -88 43q-13 0 -30 -3.5t-35 -7.5t-36 -7.5t-34 -3.5q-47 0 -82 17.5t-58 45t-35 61.5t-12 67q0 43 20 91l73 -36q-7 -14 -9 -29t-2 -32q0 -11 5 -28.5t17 -34.5t31.5 -29t48.5 -12q13 0 30.5 3.5t36 7.5t37 7.5t34.5 3.5
q60 0 109 -35v157q-2 50 -29 75t-69 25q-16 0 -31.5 -5t-27.5 -16t-19.5 -29t-7.5 -45l64 36l40 -72l-136 -74l-21 29q-28 38 -28 90q0 57 23 90.5t52.5 50.5t56.5 21.5t35 4.5q51 0 96.5 -27t68.5 -78q23 21 59 36.5t71 15.5q29 0 51.5 -11.5t37.5 -29t23 -39t8 -41.5
q0 -25 -11 -51t-34 -49q24 -19 36 -45.5t12 -51.5q0 -41 -23.5 -72t-61.5 -46v-205h-52q-20 0 -28 -1l-1 1v4q-15 30 -46 46v-66h-82v16q-65 5 -110 20t-73.5 33t-42 35.5t-15.5 29.5zM628 482q-38 -17 -55 -36.5t-27 -42.5q-1 -2 -1 -114q26 -86 95 -86q29 0 45.5 14.5
t16.5 33.5q0 20 -20.5 35t-52.5 23q-5 0 -6 1h-2q1 4 2 23.5t3 56.5q37 2 55 19.5t18 40.5l-1 7q-9 31 -39 31q-12 0 -31 -6zM489 10v118l-139 -78q0 -2 2 -2q39 -30 137 -38zM617 44v80q-25 3 -46 13v-71q28 -11 46 -22z" />
    <glyph glyph-name="tt_tto_bn" horiz-adv-x="534" 
d="M173 -87h-37l5 82l26 -1q51 0 93.5 8t73 22.5t47.5 34.5t17 44q0 14 -8 22q-107 -71 -254 -71q-32 0 -50 3l-30 11v473h-66v81h421q-37 119 -131 157l-64 -36l-40 72l95 52q37 -10 72.5 -30t65.5 -51t52 -72t32 -92h51v-81h-407v-406q58 1 110 15.5t90.5 40t61 62
t22.5 83.5q0 40 -26 75l-113 -62l-39 70l165 93l22 -19q72 -68 72 -157q0 -83 -54 -155q15 -15 23.5 -37t8.5 -42q0 -44 -24 -79t-65.5 -59.5t-97.5 -37.5t-120 -13z" />
    <glyph glyph-name="tt_bo_bn" horiz-adv-x="533" 
d="M462 -115h-81v7q-52 4 -93.5 21.5t-71.5 40.5t-48 49.5t-24 50.5q-43 0 -58 3l-30 11v473h-66v81h420q-11 35 -24 60t-29 43t-35 30.5t-42 23.5l-65 -36l-39 72l94 52q8 -2 37.5 -12.5t65.5 -37t69.5 -73.5t50.5 -122h50v-81h-407v-406q58 1 110 15.5t91 40t61.5 61.5
t22.5 81q0 43 -26 78l-114 -62l-38 70l165 93l21 -19q36 -33 54 -73t18 -84q0 -75 -42 -139h3v-312zM381 -26v141l-143 -67q37 -63 143 -74z" />
    <glyph glyph-name="tt_mo_bn" horiz-adv-x="756" 
d="M352 -95l-22 21q-52 55 -52 123q0 6 0.5 12t1.5 13l-3 -1q-69 -19 -141 -19q-31 0 -49 3l-31 11v473h-66v81h420q-11 35 -23.5 59.5t-28.5 42.5t-35 31t-42 24l-65 -36l-39 72q23 13 47 25.5t47 26.5q4 -1 18.5 -5.5t36 -14.5t46 -27.5t48 -44.5t43.5 -64.5t31 -88.5h272
v-81h-66v-630h-81v86q0 28 -10 56t-28.5 50.5t-44.5 37t-58 14.5q-23 0 -44 -8t-37.5 -22t-26.5 -33t-10 -42t10 -43l79 45l40 -70zM137 135q60 1 112 16t90.5 40.5t60 61.5t21.5 80t-25 78l-113 -62l-40 70l165 93l21 -19q73 -67 73 -157q0 -51 -21 -100q76 -2 138 -54v359
h-482v-406z" />
    <glyph glyph-name="tt_ro_bn" horiz-adv-x="534" 
d="M400 -145l-24 22q-65 69 -173 69q-59 0 -131 -23l-3 -2l-33 75q1 1 13.5 6t34.5 10.5t51.5 10t64.5 4.5q108 0 178 -49v140q-100 -64 -242 -64q-33 0 -49 3l-31 11v473h-66v81h420q-40 127 -130 157l-65 -36l-39 72q24 13 48 25.5t47 26.5q5 -2 34 -11.5t65.5 -36
t71.5 -74t52 -123.5h50v-81h-407v-406q60 1 112 15.5t90 40.5t59.5 62.5t21.5 82.5q0 41 -25 75l-113 -62l-40 70l166 93l21 -19q73 -67 73 -157q0 -75 -42 -139v-301z" />
    <glyph glyph-name="tt_ro_alt_bn" horiz-adv-x="534" 
d="M400 -145l-24 22q-65 69 -257 69q-143 0 -267 -40l-33 75q6 4 33.5 12t68.5 15.5t91.5 13t103.5 5.5q192 0 262 -49v140q-100 -64 -242 -64q-33 0 -49 3l-31 11v473h-66v81h420q-40 127 -130 157l-65 -36l-39 72q24 13 48 25.5t47 26.5q5 -2 34 -11.5t65.5 -36t71.5 -74
t52 -123.5h50v-81h-407v-406q60 1 112 15.5t90 40.5t59.5 62.5t21.5 82.5q0 41 -25 75l-113 -62l-40 70l166 93l21 -19q73 -67 73 -157q0 -75 -42 -139v-301z" />
    <glyph glyph-name="tth_ro_bn" horiz-adv-x="520" 
d="M350 -153q-71 92 -144 92q-15 0 -39 -2.5t-46.5 -6.5t-38.5 -8q-14 -4 -16 -7l-31 72q1 1 14.5 6.5t36 11.5t52.5 10.5t66 4.5q68 0 124 -50v92q-39 -13 -83 -13q-66 0 -124 33t-89 99l4 42l52 33l125 72q25 12 25 61q0 47 -35 152h-213v81h164q-53 80 -53 141q0 17 9 47
l91 52l40 -72l-59 -32q2 -23 21 -60.5t53 -75.5h274v-81h-190q31 -29 58.5 -57.5t47 -59t31 -64t11.5 -70.5q0 -117 -79 -184v-223zM247 130q31 0 60 10t51.5 30.5t35.5 50.5t13 71q0 75 -95 164q6 -38 6 -66q0 -102 -68 -135h-2q0 -2 -11 -7.5t-19 -10.5l-93 -54
q44 -53 122 -53zM66 -87l1 1l-1 1v-2z" />
    <glyph glyph-name="dd_ddo_bn" horiz-adv-x="942" 
d="M672 41h-14q-151 0 -234 125q-71 -50 -138 -50q-57 0 -104 23t-80.5 62t-51.5 91t-18 109q0 11 0.5 21.5t1.5 21.5l81 -9q-1 -8 -1.5 -16.5t-0.5 -16.5q0 -42 11.5 -79t34 -65t55 -44t74.5 -16q25 0 49.5 10.5t44 28.5t31.5 42t12 52q0 24 -7 44l-157 -87l-41 36v217
h-230v81h962v-81h-283v-183l152 85l36 -10l8 -11q45 -54 45 -140q0 -59 -24.5 -103t-60.5 -74.5t-77.5 -46.5t-75.5 -17zM668 122q23 1 51 12.5t52.5 32t41 49.5t16.5 65q0 19 -2.5 35.5t-9.5 31.5l-184 -102l-45 30v265h-287v-138l119 66l35 -3l11 -14q20 -26 30 -56
t10 -69q0 -54 -25 -97q57 -109 175 -109z" />
    <glyph glyph-name="dd_ro_bn" horiz-adv-x="609" 
d="M444 -144q-21 21 -43 38t-46.5 28t-54 17t-65.5 6q-72 0 -133 -24l-35 73h1q1 1 13.5 6t34 11t51 10.5t65.5 4.5q119 0 192 -50v86q-50 -21 -101 -21q-67 0 -120.5 27t-91.5 73t-58.5 106t-20.5 125q0 11 0.5 23t1.5 24l81 -9q-1 -10 -1.5 -19t-0.5 -18q0 -51 14 -97
t41.5 -80t68 -54t93.5 -20q22 0 50.5 10.5t54 30.5t43.5 50.5t18 70.5q0 35 -12 64l-185 -102l-45 30v265h-264v81h629v-81h-283v-183l148 83l36 -3q57 -68 57 -157q0 -51 -20 -93.5t-52 -71.5v-227z" />
    <glyph glyph-name="ddh_ro_bn" horiz-adv-x="534" 
d="M395 -144l-22 21q-35 34 -74.5 51.5t-90.5 17.5q-71 0 -134 -24l-34 73q1 1 14.5 6t36 11t53 10.5t66.5 4.5q90 0 164 -50v139q-51 -33 -114.5 -47.5t-123.5 -14.5q-35 0 -45 3l-35 6v478h-66v81h554v-81h-407v-406q60 0 111.5 14.5t90 41t60.5 62.5t22 80q0 43 -26 78
l-112 -63l-40 71l165 92l22 -19q72 -68 72 -155q0 -81 -46 -146v-300z" />
    <glyph glyph-name="nn_tto_bn" horiz-adv-x="906" 
d="M509 54q-38 0 -48 3l-32 8v283q0 34 -12.5 68.5t-35 62t-54 44.5t-69.5 17q-24 0 -50 -9t-47 -25.5t-34.5 -40t-13.5 -53.5q0 -32 16 -60l99 55l39 -71l-156 -86l-22 22q-57 63 -57 140q0 43 18.5 81t50 66.5t72.5 45t85 16.5q98 0 171 -73v120h81v-46h273
q-11 35 -23.5 59.5t-28.5 42t-35 30.5t-43 26l-64 -36l-40 71l94 52l17 -4q28 -5 59.5 -24.5t60.5 -50.5t52 -73t34 -93h50v-81h-406v-406q57 0 108.5 14t90.5 40t62 62.5t23 81.5q0 42 -26 79l-113 -64l-39 71l165 92q93 -77 93 -174q0 -66 -29 -118t-78.5 -89t-116 -56.5
t-141.5 -19.5z" />
    <glyph glyph-name="nn_ttho_bn" horiz-adv-x="624" 
d="M349 49q-66 0 -124 33t-89 99l5 42l177 104q19 11 23 43q-1 24 -10 47.5t-25.5 42t-39 30.5t-49.5 12q-18 0 -36.5 -6.5t-33.5 -18.5t-24 -28.5t-9 -36.5q0 -19 7 -34l68 38l40 -71l-127 -70l-22 21q-48 52 -48 116q0 36 15.5 67t41.5 54t59.5 36.5t69.5 13.5
q42 0 87 -20q-48 51 -74 102.5t-26 96.5q0 22 3 28l6 20q8 5 31 17.5t61 32.5l38 -70l-57 -32q2 -25 21 -61.5t52 -74.5h274v-81h-191q66 -58 107.5 -118t41.5 -133q0 -56 -19 -100.5t-52 -76t-77.5 -48t-94.5 -16.5zM352 130q32 0 61 10t50.5 30.5t34.5 50.5t13 70
q0 78 -96 165q4 -20 6 -37t2 -32l-2 -26q-3 -40 -21 -66t-47 -40l-124 -72q44 -53 123 -53z" />
    <glyph glyph-name="nn_ddo_bn" horiz-adv-x="617" 
d="M467 598q30 -6 52 -21t36.5 -35t22 -43t7.5 -45q0 -35 -17.5 -69t-44.5 -57q26 -28 36.5 -62t10.5 -64q0 -51 -23 -89t-59 -63t-80.5 -37t-87.5 -12q-26 0 -63.5 5.5t-89.5 35.5t-90 90t-62 154l79 20q29 -118 84 -171.5t139 -53.5q82 0 126.5 36t44.5 96
q0 32 -25.5 60.5t-70.5 33.5q-1 -1 -11.5 -1.5t-23 -6t-23 -17t-11.5 -35.5l26 14l40 -71l-100 -55l-21 28q-13 17 -19.5 35.5t-6.5 41.5q0 42 15 70.5t37.5 46t48 24.5t46.5 7q33 0 63 -12q23 14 37.5 37.5t14.5 43.5q-5 51 -51 61q-37 0 -57 -17t-28 -59l-1 -1l-2 -16
l-81 8q0 18 -6.5 37t-19 34.5t-30 25.5t-38.5 10q-14 0 -28 -5t-25 -14t-18 -21.5t-7 -27.5q0 -7 3 -16l49 27l39 -71l-108 -60l-22 21q-41 47 -41 100q0 31 13 58t35 47t51 32t60 12q39 0 75.5 -18.5t61.5 -55.5q48 52 120 52q6 0 10.5 -0.5t8.5 -1.5z" />
    <glyph glyph-name="nn_dd_ro_bn" horiz-adv-x="616" 
d="M467 598q30 -6 52 -20.5t36.5 -34t21.5 -43t7 -46.5q0 -36 -17 -69.5t-43 -56.5q45 -51 45 -125q0 -68 -43 -118h4v-226l-63 -35l-22 20q-36 32 -80.5 49t-101.5 17q-88 0 -137 -24q-3 8 -11.5 26.5t-22.5 47.5q2 1 15 6.5t35 10.5t52.5 9.5t67.5 4.5q116 0 186 -49v85
q-61 -26 -129 -26q-25 0 -62.5 5.5t-89.5 35.5t-90.5 90t-61.5 154l78 20q32 -119 86 -172t138 -53q80 0 125.5 34.5t45.5 94.5q0 18 -7.5 35t-20 30.5t-30 22t-38.5 9.5q-66 -8 -69 -60l27 14l39 -71l-100 -55l-21 28q-13 17 -20 35t-7 42q0 42 15.5 70.5t38.5 46t48 24.5
t45 7q32 0 64 -12q22 14 37 36.5t15 42.5q0 26 -15 42t-37 21q-37 0 -56.5 -17t-27.5 -59l-3 -17l-81 8q0 18 -6.5 37t-19 34.5t-30 25.5t-38.5 10q-14 0 -27.5 -5t-24.5 -14t-18 -21.5t-7 -27.5q0 -4 0.5 -7.5t1.5 -8.5l49 27l40 -71l-110 -60l-22 21q-40 46 -40 100
q0 31 13.5 58.5t35.5 47.5t50.5 31.5t59.5 11.5q38 0 75 -18t62 -56q49 52 120 52q9 0 19 -2z" />
    <glyph glyph-name="nn_ddho_bn" horiz-adv-x="906" 
d="M509 54q-46 0 -50 4l-31 7v286q0 34 -13 68t-35.5 61t-54 43.5t-68.5 16.5q-25 0 -51 -9t-47 -26t-34 -40.5t-13 -52.5q0 -32 16 -60l99 55l39 -71l-155 -86l-22 22q-57 63 -57 140q0 43 18.5 81t50 66.5t72.5 45t85 16.5q15 0 33.5 -2t40.5 -9.5t46 -21.5t48 -37l2 -3
v120h81v-46h407v-81h-407v-406q58 0 109.5 14t90.5 40.5t61.5 63.5t22.5 83q0 42 -25 76l-114 -64l-39 71l165 92l22 -18q72 -68 72 -156q0 -64 -28.5 -116.5t-78 -89.5t-116 -57t-142.5 -20z" />
    <glyph glyph-name="nn_nno_bn" horiz-adv-x="566" 
d="M218 -45l-21 21q-45 49 -45 107q0 32 14.5 61t38.5 50.5t54.5 34.5t62.5 13q57 0 107 -36v142q0 34 -12.5 68.5t-35 62t-54 44.5t-69.5 17q-25 0 -50.5 -9t-46.5 -25.5t-34 -40.5t-13 -53q0 -32 16 -60l98 55l40 -71l-156 -86l-22 22q-30 30 -44 66.5t-14 73.5
q0 43 19 81t50.5 66.5t72 45t84.5 16.5q15 0 34.5 -2t41.5 -9.5t45.5 -21t47.5 -37.5l2 -3v120h81v-46h66v-81h-66v-567h-81v66q0 21 -7.5 42t-21.5 38.5t-34 28.5t-44 11q-16 0 -32 -6t-28.5 -16t-20.5 -24.5t-8 -30.5q0 -11 5 -24l57 32l40 -71z" />
    <glyph glyph-name="nn_bo_bn" horiz-adv-x="565" 
d="M428 66v152l-142 -71q42 -71 142 -81zM194 156l-8 32q15 7 75.5 37t166.5 84v39q0 34 -12.5 68.5t-35 62t-54 44.5t-69.5 17q-25 0 -51 -9t-47 -26t-34 -40.5t-13 -52.5q0 -31 17 -60l98 55l39 -71l-155 -86l-22 22q-57 63 -57 140q0 43 18.5 81t50 66.5t72.5 45t85 16.5
q97 0 170 -73v120h81v-46h66v-81h-66v-567h-81v10q-51 4 -92.5 22.5t-71.5 43t-48 53t-22 53.5z" />
    <glyph glyph-name="nn_mo_bn" horiz-adv-x="758" 
d="M620 225v316h-110v-268q62 -6 110 -48zM368 -46l-22 21q-50 56 -50 121q0 26 9.5 52.5t27 49.5t42 40.5t54.5 26.5v83q0 34 -12.5 68.5t-35 62t-54 44.5t-69.5 17q-25 0 -51 -9t-47 -26t-34 -40.5t-13 -52.5q0 -31 17 -60l98 55l39 -71l-155 -86l-22 22q-30 30 -44 66.5
t-14 73.5q0 43 19 81t50.5 66.5t72 45t84.5 16.5q98 0 171 -73v120h81v-46h258v-81h-66v-567h-82v72q0 25 -9.5 51.5t-26.5 47.5t-41 34.5t-54 13.5q-20 0 -40 -7t-36 -20t-25.5 -30.5t-9.5 -39.5q0 -20 9 -39l73 42l40 -71z" />
    <glyph glyph-name="nn_ro_bn" horiz-adv-x="565" 
d="M105 34l-34 73q2 1 15.5 6.5t36 11.5t52.5 10.5t66 4.5q115 0 186 -50v258q0 35 -12.5 69.5t-35 61.5t-54 44t-68.5 17q-25 0 -51 -9t-47 -26t-34 -40.5t-13 -52.5q0 -32 16 -60l99 55l39 -71l-155 -86l-22 22q-57 63 -57 140q0 43 18.5 81t50 66.5t72.5 45t85 16.5
q15 0 33.5 -2t40.5 -9.5t46 -21.5t48 -37l1 -3v120h82v-46h66v-81h-66v-542l-64 -27l-20 18q-65 69 -182 69q-14 0 -37 -2.5t-45 -6t-38.5 -8t-16.5 -8.5h-1z" />
    <glyph glyph-name="t_to_bn" horiz-adv-x="573" 
d="M329 -30q-56 0 -107.5 25.5t-91.5 74.5t-66 120.5t-31 162.5l81 2q3 -68 21.5 -124t48 -96t66.5 -62.5t76 -22.5q64 5 98.5 34t34.5 83q0 28 -22 53.5t-61 29.5q-51 0 -58 -46l18 10l40 -72q-23 -13 -47 -25.5t-47 -26.5l-21 29q-25 29 -25 73q0 33 10.5 57.5t27.5 42
t39 26.5t45 11q40 34 40 82v12q0 15 -6.5 29t-18.5 26t-29 20.5t-37 11.5q-61 -7 -64 -57l22 12l39 -70l-95 -53l-21 29q-12 17 -19 34.5t-7 40.5q0 62 33 95h-205v81h593v-81h-158q54 -53 54 -132q0 -52 -30 -98q46 -20 69 -63t23 -91t-21.5 -83.5t-53 -58.5t-69 -34
t-68.5 -11z" />
    <glyph glyph-name="t_t_bo_bn" horiz-adv-x="572" 
d="M442 -191v1q-38 3 -69.5 14t-56 27.5t-42 36.5t-27.5 42q-6 13 -8 16t-2.5 6t-2 10t-7.5 28l3 1q-86 41 -138 133t-60 229l82 2q2 -68 20.5 -124t48 -96t66.5 -62.5t76 -22.5q17 0 49 9l42 20q42 27 42 78v14q0 27 -22.5 51t-60.5 28q-18 0 -35.5 -10.5t-21.5 -35.5
l18 10l39 -72q-23 -13 -46.5 -25.5t-46.5 -26.5l-21 29q-25 29 -25 73q0 32 10 57t27 42t39 26.5t45 11.5q41 35 41 91q0 30 -23.5 57.5t-67.5 32.5q-57 0 -64 -57l22 12l39 -70l-96 -53l-21 29q-25 29 -25 79q0 59 32 91h-204v81h592v-81h-157q54 -50 54 -132
q0 -52 -30 -98q46 -20 68.5 -63t22.5 -91q0 -37 -16 -73v-275h-82zM442 -108v107q-19 -10 -38 -16l-73 -35q29 -43 111 -56z" />
    <glyph glyph-name="t_tho_bn" horiz-adv-x="672" 
d="M616 0h-80v49q-101 1 -181.5 14.5t-139.5 34.5t-96.5 47t-52.5 53l-6 7l-5 39l316 176q21 17 29 36t8 40q0 4 -4 11t-10 14t-14 12t-16 5q-40 0 -40 -68l-82 4l1 3q0 33 -15 51.5t-44 18.5t-49 -21t-21 -51q0 -12 5 -25l52 29l38 -70l-91 -51l-24 -7l-17 18
q-21 22 -33.5 48t-11.5 58q0 31 12 59t32.5 49t48 33t59.5 12q60 0 100 -40q31 31 77 31q30 0 54 -12t40.5 -30.5t25 -41t8.5 -42.5q0 -80 -69 -138q-1 0 -4 -3t-6 -3l-244 -136q113 -78 370 -83v538h80v-46h66v-81h-66v-541z" />
    <glyph glyph-name="t_no_bn" horiz-adv-x="609" 
d="M223 -188l-22 22q-44 50 -44 106q0 33 14 62t37.5 50.5t54.5 34t64 12.5q57 0 106 -35v70q-57 -26 -111 -26q-66 0 -119.5 26.5t-91.5 72t-58.5 105t-20.5 125.5q0 23 3 49l80 -9q-1 -10 -1.5 -19.5t-0.5 -19.5q0 -51 14 -96.5t41.5 -79t68 -53.5t92.5 -20q24 0 53 11
t54 33t42 54t17 73q0 14 -6.5 35t-21 41.5t-37.5 36t-57 17.5q-38 0 -64 -22.5t-26 -72.5v-8l69 38l40 -71q-55 -30 -89.5 -49.5t-50.5 -28.5l-22 29q-15 19 -22 41.5t-7 48.5q0 102 72 146h-283v81h629v-81h-145q25 -15 44.5 -36t32.5 -46t19.5 -53.5t6.5 -56.5
q0 -45 -16.5 -85.5t-45.5 -69.5v-373h-82v76q0 22 -7.5 43.5t-21 38.5t-33.5 28t-44 11q-16 0 -32 -5.5t-28.5 -15.5t-20.5 -24.5t-8 -32.5q0 -13 4 -24l58 32l39 -70z" />
    <glyph glyph-name="t_bo_bn" horiz-adv-x="609" 
d="M438 -9v141l-142 -66q38 -62 142 -75zM519 -97h-81v6q-50 4 -90.5 20.5t-70.5 39.5t-49.5 50.5t-26.5 54.5l-9 33l36 16q-49 19 -85.5 51.5t-61 74.5t-37 90t-12.5 98q0 23 3 49l80 -9l-1 -39q0 -52 14.5 -97.5t42 -79t67.5 -53t91 -19.5q31 0 61 13t53.5 36t38 53
t14.5 65q0 12 -5.5 33.5t-19.5 43t-38 38.5t-60 19q-38 0 -64 -23.5t-26 -71.5l1 -8l69 38l39 -71l-139 -78l-21 29q-29 40 -29 94q0 49 20 86t51 56h-284v81h629v-81h-144q50 -30 76 -82.5t26 -109.5q0 -44 -16 -83t-42 -68v-295z" />
    <glyph glyph-name="t_lo_bn" horiz-adv-x="608" 
d="M416 4l31 18v119q-62 -33 -122 -33h-13q81 -23 104 -104zM194 -150l-17 18q-20 20 -31 45t-11 56q0 30 10.5 55.5t28.5 44t43.5 29.5t55.5 13q-59 12 -103.5 43t-75.5 75t-46.5 97.5t-15.5 110.5q0 12 0.5 24t1.5 25l81 -9q-1 -10 -1.5 -19.5t-0.5 -19.5
q0 -51 14.5 -96.5t42 -79t67.5 -53.5t91 -20q29 0 58.5 12.5t53.5 34t39.5 51t15.5 63.5v8q0 22 -8 44.5t-23.5 41.5t-38.5 31.5t-53 14.5q-16 0 -32 -5t-28.5 -17t-20.5 -32t-8 -49l70 38l38 -71l-139 -78l-21 29q-29 40 -29 94q0 97 71 142h-283v81h628v-81h-144
q25 -15 44 -36t32 -46.5t19.5 -53.5t6.5 -56q0 -81 -50 -143h3v-339h-82v61l-83 -46l-32 50q4 16 6 25t2 12q-1 26 -18.5 44t-43.5 18q-27 0 -44.5 -18t-18.5 -44l3 -19l45 25l39 -71q-80 -44 -108 -54z" />
    <glyph glyph-name="t_mo_bn" horiz-adv-x="819" 
d="M683 227v314l-199 -1q51 -38 70 -86t19 -96q0 -46 -15 -83q68 -2 125 -48zM431 -43l-22 21q-49 53 -49 119q0 7 0.5 13t1.5 12q-23 -3 -43 -3q-63 0 -116 26t-91 71t-59 104.5t-21 127.5q0 11 0.5 22.5t1.5 23.5l81 -9q-1 -10 -1.5 -19t-0.5 -18q0 -51 14 -96t41.5 -79
t67.5 -53.5t91 -19.5q27 0 56.5 12t53.5 34t39.5 51t15.5 64q0 25 -8.5 49t-24.5 43.5t-38.5 31.5t-49.5 13q-17 0 -32.5 -5t-28.5 -16.5t-20.5 -29.5t-7.5 -43v-8l69 38l38 -71l-138 -78l-21 30q-14 20 -21.5 42t-7.5 51q0 88 60 133h-271v81h839v-81h-66v-564h-80v70
q0 26 -10 52.5t-27 47.5t-41.5 34.5t-52.5 13.5q-19 0 -39 -7t-36 -20t-26 -31t-10 -40q0 -19 9 -37l73 40l39 -70z" />
    <glyph glyph-name="t_ro_bn" horiz-adv-x="625" 
d="M569 5l-82 -1q0 31 -7 58t-21 46.5t-36 30.5t-52 11q-23 0 -56.5 -6t-65.5 -6q-54 0 -94.5 17.5t-67.5 46t-41 64t-14 71.5v18q0 12 4 28.5t14.5 37.5t32.5 44l59 -56q-28 -28 -28 -74q0 -23 8 -44t24.5 -37t41.5 -25.5t59 -9.5q27 0 61 6t60 6q73 0 119 -37v207
q-2 43 -29 65.5t-70 22.5q-32 0 -58 -18.5t-26 -60.5l65 33l36 -73l-133 -68l-21 26q-29 35 -29 83q0 90 67 130h-299v81h645v-81h-143q74 -47 77 -140v-396z" />
    <glyph glyph-name="th_bo_bn" horiz-adv-x="541" 
d="M485 -158h-81v3q-58 6 -99 24.5t-70 49.5q-28 29 -39.5 52.5t-10.5 28.5l-9 32l81 38q-88 27 -145 72t-77 103l-3 9l5 33q9 5 65.5 36t161.5 89q1 5 1.5 11t0.5 11q0 49 -26.5 76.5t-67.5 30.5q-33 -6 -48.5 -18.5t-17.5 -47.5l46 26l39 -71l-119 -67l-22 29
q-25 32 -25 78q0 48 19 77.5t43.5 46t49.5 22.5t37 6q42 -2 74.5 -19t54 -43t33 -59.5t11.5 -69.5q0 -8 -1 -19t-3.5 -22t-7.5 -21t-12 -16q-5 -4 -196 -109q71 -98 259 -113l18 8v529h81v-46h66v-81h-66v-699zM404 -73v121l-124 -57q37 -53 124 -64z" />
    <glyph glyph-name="th_ro_bn" horiz-adv-x="540" 
d="M420 -128l-20 18q-67 67 -185 67q-85 0 -133 -24l-35 74q2 1 15.5 6t36 11t53 10.5t65.5 4.5q113 0 187 -50v59q-72 1 -126.5 15.5t-95.5 35.5t-69 45t-45 45.5t-25 37t-8 18.5l-3 9l5 33q9 5 65.5 36t161.5 89q1 5 1 11v11q0 51 -26 77.5t-67 29.5q-33 -6 -48.5 -18.5
t-17.5 -47.5l46 26l39 -71l-119 -67l-22 29q-25 32 -25 78q0 48 19 78t43.5 46.5t49.5 22t37 5.5q42 -2 74.5 -19t54 -43t33 -59.5t11.5 -69.5q0 -28 -13 -67q-12 -14 -207 -120q75 -104 277 -114v538h80v-46h66v-81h-66v-638q-16 -8 -32 -15.5t-32 -15.5z" />
    <glyph glyph-name="th_lo_bn" horiz-adv-x="541" 
d="M108 -200l-18 19q-21 22 -32.5 47.5t-11.5 58.5t12 60t32 47.5t47.5 32t59.5 12.5q107 -8 144 -101l63 36v36q-72 3 -127 18t-96 35t-68.5 43.5t-44.5 44t-24.5 36t-8.5 20.5l-3 9l5 33q9 5 65.5 36t161.5 89q1 5 1.5 11t0.5 11q0 49 -26.5 76.5t-67.5 30.5
q-65 -9 -66 -66l46 26l39 -71l-120 -67l-21 29q-25 34 -25 78q0 48 19 77.5t44 46t49.5 22.5t36.5 6q42 -2 74.5 -19t54 -43t33 -59.5t11.5 -69.5q0 -27 -12 -67l-13 -12l-194 -108q69 -104 276 -114v538h81v-46h66v-81h-66v-709h-81v87l-105 -60l-31 56q0 38 -20.5 59.5
t-50.5 21.5t-49.5 -21t-20.5 -50q0 -12 5 -25l51 29l39 -71q-43 -23 -71.5 -38t-42.5 -20z" />
    <glyph glyph-name="d_do_bn" horiz-adv-x="859" 
d="M730 -170q-24 42 -38.5 84.5t-14.5 88.5v32q0 94 29 195q-266 -198 -288 -213l-45 25q-13 56 -13 114q0 83 30 193l-285 -212l-49 36v368h-66v81h879v-81h-733v-280l314 232q51 -42 62 -47l-1 -2l-2 -5l-6 -12q-62 -151 -62 -279l1 -12l323 238l62 -46l-20 -51
q-50 -126 -50 -245q0 -6 -0.5 -20t2.5 -35t11.5 -47t27.5 -55z" />
    <glyph glyph-name="d_d_bo_bn" horiz-adv-x="858" 
d="M676 -96v136l-136 -91l8 -5q29 -28 128 -40zM443 -56l-11 31l254 171q5 22 10 42.5t10 40.5l-290 -215l-43 30q-7 35 -10 62.5t-3 47.5q0 90 31 195l-286 -212l-49 36v368h-66v81h878v-81h-731v-280l312 232l64 -43q-71 -169 -71 -300v-15l323 239l61 -49
q-59 -138 -68 -271v-239h-82v8q-89 8 -152.5 39t-80.5 82z" />
    <glyph glyph-name="d_dho_bn" horiz-adv-x="710" 
d="M364 -21v136l-137 -92l8 -6q29 -28 129 -38zM364 -110v7q-61 6 -104 20.5t-71 32.5t-41.5 36.5t-16.5 31.5l-11 30l245 166q9 73 27 135l-287 -212l-49 35v369h-66v81h730v-81h-582v-279l313 232l61 -50q-37 -78 -56 -170l165 106l57 -28q-27 -62 -42 -129.5t-15 -121.5
q0 -15 3.5 -39t20.5 -51l-69 -42q-36 64 -36 144q0 51 15 128l-110 -71v-280h-81z" />
    <glyph glyph-name="d_dh_bo_bn" horiz-adv-x="706" 
d="M364 -198v75l-79 -52q22 -16 79 -23zM364 -21v136l-137 -92q35 -34 137 -44zM456 274l171 110l47 -40q-30 -78 -41.5 -135.5t-11.5 -105.5q0 -17 3.5 -41.5t19.5 -50.5l-69 -42q-36 64 -36 143q0 68 16 128l-111 -70v-448h-46v-3q-88 3 -141.5 27t-70.5 72l-11 30l95 65
q-40 12 -66.5 28.5t-42 32.5t-22.5 28.5t-8 15.5l-11 30l245 166q9 73 27 135l-286 -212l-50 36v368h-66v81h726v-81h-578v-279l312 232l62 -50q-37 -78 -56 -170z" />
    <glyph glyph-name="d_no_bn" horiz-adv-x="544" 
d="M151 -115l-21 21q-23 23 -34 51t-11 55q0 32 14 61t38 50.5t55 34.5t64 13q57 0 107 -35l-1 11v13q0 6 1 12l1 21q8 88 28 156l-286 -212l-50 37v367h-66v81h564v-81h-416v-279l313 232l61 -50q-59 -134 -69 -270v-271h-80v66q0 21 -7.5 43t-22 39t-34.5 28t-44 11
q-15 0 -30.5 -5.5t-28.5 -15.5t-21 -24.5t-8 -32.5q0 -14 4 -23l58 31l39 -70z" />
    <glyph glyph-name="d_bo_bn" horiz-adv-x="706" 
d="M363 12v135l-2 1l-134 -91q33 -33 136 -45zM511 444l1 3q-1 -1 -1 -3zM363 -81v12q-60 6 -103 20t-71 32t-42 36.5t-17 32.5l-11 30l250 169q5 26 10 50.5t12 47.5l-286 -212l-49 37v367h-66v81h726v-81h-579v-279l312 232l62 -50q-14 -26 -25 -59t-21 -71l159 102
l50 -35l-13 -30l-3 -8q-21 -66 -29.5 -115.5t-8.5 -87.5q0 -17 3.5 -42t19.5 -53l-69 -43q-35 65 -35 144q0 66 15 128l-109 -70q0 -5 -1 -7v-278h-81z" />
    <glyph glyph-name="d_bho_bn" horiz-adv-x="736" 
d="M508 -56l-13 -1q-55 0 -99 22.5t-75.5 60t-48.5 86.5t-17 103q0 8 0.5 17t1.5 17l-151 -112l-50 37v367h-66v81h756v-81h-608v-279l312 232l62 -50q-10 -20 -19.5 -45.5t-18.5 -56.5q15 0 31.5 -5t31.5 -14t26.5 -21.5t16.5 -27.5l9 -21l1 9l50 29l22 -25q42 -48 42 -122
q0 -49 -20 -85.5t-49.5 -61.5t-64 -38.5t-62.5 -14.5zM503 25q20 0 40.5 9t37.5 24t28 34.5t13 39.5q-47 -48 -110 -48q-25 0 -50.5 9t-46.5 26.5t-34.5 43.5t-13.5 59q0 43 24 127l-130 -97l77 -8l-2 -27q0 -39 10.5 -74t31 -61.5t50.5 -41.5t69 -15h6zM509 165
q22 0 37 8.5t24 20.5t13.5 24t4.5 19l-72 -40l-34 63q-17 0 -25.5 -11t-8.5 -27q0 -23 19 -40t42 -17z" />
    <glyph glyph-name="d_bh_ro_bn" horiz-adv-x="737" 
d="M644 -103q-24 22 -46 39t-46 28t-51.5 17t-61.5 6q-87 0 -139 -26q-16 40 -33 74q2 1 15.5 6.5t36 11t52.5 10t66 4.5q113 0 187 -50v129q-48 -48 -111 -48q-25 0 -50.5 9t-46.5 26.5t-34.5 43.5t-13.5 60t22 112q-132 -98 -203 -151t-83 -61l-48 35v369h-66v81h757v-81
h-610v-279l313 232l54 -45l7 -2v-3q-6 -12 -14.5 -34.5t-19.5 -54.5q34 0 63.5 -19.5t40.5 -47.5l9 -22l1 10l50 29l23 -26q21 -24 30.5 -54t10.5 -63l-1 -239q-15 -7 -30 -13.5t-30 -12.5zM512 178q27 0 50.5 21t26.5 52l-73 -40l-35 63q-13 0 -22 -11.5t-9 -28.5
q0 -23 19 -39.5t43 -16.5z" />
    <glyph glyph-name="d_mo_bn" horiz-adv-x="737" 
d="M600 224v317h-463v-279l314 232l59 -52q0 -1 -2 -3q-31 -62 -46 -165q77 0 138 -50zM325 215q25 23 53 38q4 54 15 98l-288 -214l-49 35v369h-66v81h757v-81h-66v-566h-81v68q0 27 -9.5 53.5t-26.5 47.5t-41.5 34.5t-54.5 13.5q-20 0 -39.5 -6.5t-35.5 -19.5t-26 -31
t-10 -40q0 -20 9 -38l74 41l39 -71l-132 -73l-22 22q-26 26 -37.5 57t-11.5 63q0 66 49 119z" />
    <glyph glyph-name="d_ro_bn" horiz-adv-x="543" 
d="M421 -59l-6 6q-74 74 -189 74q-77 0 -126 -21l-14 -4q-11 29 -31 74q1 1 14 6t35 11t52.5 10.5t67.5 4.5q83 0 143 -26q-2 22 -3.5 43.5t-1.5 41.5q0 83 29 188q-132 -98 -203 -151t-83 -61l-49 35v369h-66v81h563v-81h-415v-280l312 232l61 -49l-5 -12
q-64 -152 -64 -286q0 -72 29 -132l13 -22q-14 -8 -63 -51z" />
    <glyph glyph-name="d_ro_alt_bn" horiz-adv-x="543" 
d="M367 82q-2 22 -3.5 41.5t-1.5 37.5q0 83 29 188q-132 -98 -203 -151t-83 -61l-49 35v369h-66v81h563v-81h-415v-280l312 232l61 -49l-5 -12q-64 -152 -64 -286q0 -42 39 -163l-60 -41l-24 22q-65 69 -257 69q-143 0 -267 -40l-33 75q6 4 33.5 12t68.5 15.5t91.5 13
t103.5 5.5q152 0 230 -32z" />
    <glyph glyph-name="d_r_ukar_bn" horiz-adv-x="814" 
d="M824 622v-81h-686v-280l312 232l61 -49l-5 -12q-11 -27 -20 -53t-17 -52q7 -13 20.5 -26t30.5 -23.5t35.5 -17.5t36.5 -7q48 0 78 23.5t30 55.5q0 43 -36 73l-68 -38l-40 71l106 59q117 -53 120 -164q0 -31 -13.5 -60.5t-38.5 -52t-60 -36t-78 -13.5q-35 1 -69 13t-55 29
l-20 16q-6 -44 -6 -83q0 -72 29 -132l13 -22q-14 -8 -63 -51l-6 6q-74 74 -189 74q-77 0 -126 -21l-14 -4q-11 29 -31 74q1 1 14 6t35 11t52.5 10.5t67.5 4.5q83 0 143 -26q-2 22 -3.5 43.5t-1.5 41.5q0 83 29 188q-132 -98 -203 -151t-83 -61l-49 35v369h-66v81h834z" />
    <glyph glyph-name="d_r_ookar_bn" horiz-adv-x="734" 
d="M476 350l186 103l40 -43q-28 -78 -39.5 -143.5t-11.5 -122.5q0 -18 4 -48t22 -64l-72 -38q-35 70 -35 167q0 68 20 159l-140 -77q-4 -25 -6 -49.5t-2 -47.5q0 -72 29 -132l13 -22q-14 -8 -63 -51l-6 6q-74 74 -189 74q-77 0 -126 -21l-14 -4q-11 29 -31 74q1 1 14 6
t35 11t52.5 10.5t67.5 4.5q83 0 143 -26q-2 22 -3.5 43.5t-1.5 41.5q0 83 29 188q-132 -98 -203 -151t-83 -61l-49 35v369h-66v81h815v-81h-667v-280l312 232l61 -49l-5 -12q-8 -21 -15.5 -41.5t-14.5 -40.5z" />
    <glyph glyph-name="dh_no_bn" horiz-adv-x="544" 
d="M196 -244l-22 22q-23 23 -33.5 50.5t-10.5 55.5q0 33 14.5 62t38.5 50.5t54.5 34t62.5 12.5q58 0 107 -37v44q-74 3 -129.5 24t-96.5 50.5t-68 64t-43.5 64t-23.5 51t-7 25.5l-7 29l126 70q-38 20 -63 57.5t-25 81.5q0 31 10.5 57.5t28.5 45.5t42 30t52 11q16 0 34 -6
t33.5 -16t28.5 -24.5t20 -31.5l14 -34l-90 -50l-39 72l10 6l-12 3q-17 0 -33.5 -15t-16.5 -45q0 -32 24.5 -57t62.5 -25q14 -1 26.5 3t25.5 12l116 63v102h81v-46h66v-81h-66v-766h-81v64q0 22 -7.5 43.5t-21.5 39t-34 28.5t-44 11q-15 0 -31 -5.5t-28.5 -15.5t-20.5 -24
t-8 -32q0 -14 4 -25l58 32l38 -71zM407 132v342l-279 -156q22 -44 48 -76.5t59 -55.5t75 -36.5t97 -17.5z" />
    <glyph glyph-name="dh_mo_bn" horiz-adv-x="628" 
d="M491 226v315h-104v-268q57 -7 104 -47zM307 275v218l-178 -99q7 -15 19.5 -33.5t33.5 -35.5t51.5 -31t73.5 -19zM39 404l-7 30l83 46q-28 19 -41 47t-13 53q0 24 8.5 44.5t23 36.5t34 25t42.5 9q28 -2 56 -18.5t39 -44.5l14 -34l-75 -41l-31 56l-5 1q-24 0 -24 -34
q0 -17 16 -32t36 -15q16 0 33 9l79 44v82h80v-46h251v-81h-66v-564h-81v71q0 26 -10 52t-27.5 47t-41.5 34t-53 13q-20 0 -39.5 -7t-35.5 -20t-26 -30.5t-10 -39.5q0 -20 9 -38l74 41l39 -71l-132 -73l-21 22q-25 26 -37.5 55t-12.5 65q0 65 47 115q-44 18 -76 43.5
t-53.5 52.5t-32.5 52t-13 43z" />
    <glyph glyph-name="dh_ro_bn" horiz-adv-x="543" 
d="M426 -132l-18 18q-68 72 -191 72q-71 0 -134 -24l-33 73q2 1 15 6t35.5 11t52.5 10.5t66 4.5q113 0 187 -50v61q-74 3 -130 24t-96.5 50.5t-67.5 64t-43 64t-23 51t-8 25.5l-6 29q31 18 62 35.5t63 34.5q-38 20 -63 57t-25 82q0 30 10 56.5t28 46t42 30.5t53 11
q34 -1 68 -23t48 -55l14 -34l-91 -50l-38 72l11 6l-13 3q-9 0 -19.5 -4.5t-18.5 -14.5t-10.5 -20.5t-2.5 -20.5q0 -16 6.5 -31t18.5 -26t28.5 -18t35.5 -7q23 -1 51 15l116 63v102h81v-46h66v-81h-66v-648zM406 132v342l-279 -155q12 -36 36 -68t60 -57t82 -41.5t101 -20.5z
" />
    <glyph glyph-name="n_jo_bn" horiz-adv-x="834" 
d="M663 -22q-44 71 -44 167q0 111 52 219q-13 -2 -25.5 -3t-24.5 -1q-37 0 -70 9.5t-58.5 26.5t-42.5 41t-22 54q-15 -14 -30 -31t-27.5 -36t-20.5 -38.5t-8 -37.5q0 -43 48 -43q36 0 89 30q19 12 43 12q37 0 61.5 -28.5t24.5 -70.5q0 -50 -22 -87.5t-56.5 -62.5t-76 -37.5
t-79.5 -12.5q-85 0 -148.5 43.5t-97.5 112.5l73 36q56 -110 172 -110q27 0 54.5 7.5t49.5 22.5t36 37t14 51q0 16 -5 18l-4 -1q-67 -41 -125 -41q-60 0 -96.5 34t-36.5 85q0 5 0.5 9t1.5 9q-6 30 -29 52.5t-53 22.5q-11 0 -22.5 -3.5t-21.5 -11t-16 -18.5t-6 -25l1 -10
l40 22l39 -70l-101 -57l-22 22q-20 20 -29.5 44t-9.5 49q0 29 13 54.5t34 44t47.5 29.5t54.5 11q63 0 119 -54q27 43 63 78h-373v81h854v-81h-331q-6 -15 -6 -28q0 -26 29.5 -48.5t82.5 -22.5q5 0 15 -0.5t25.5 2.5t38 11.5t52.5 27.5l52 -62q-17 -18 -35 -48.5t-33 -68
t-25 -79t-10 -81.5q0 -69 31 -121z" />
    <glyph glyph-name="n_ttho_bn" horiz-adv-x="624" 
d="M349 49q-66 0 -124 33t-89 99l5 41q168 100 168 102q-1 21 -9 41.5t-22.5 37t-33.5 27t-42 10.5q-16 0 -31.5 -5.5t-28 -16t-20.5 -25t-8 -31.5q0 -15 4 -24l57 32l40 -71l-117 -65l-21 22q-45 48 -45 106q0 34 15 63t39.5 50t55 33t61.5 12q67 0 126 -53q-4 17 -9 35.5
t-13 38.5h-317v81h267q-52 79 -52 140q0 6 0.5 12t1.5 12l1 3l6 21l92 51l38 -71l-57 -33q3 -56 73 -135h274v-81h-191q32 -29 59.5 -58t47.5 -59.5t31 -63.5t11 -69q0 -56 -18.5 -100.5t-51.5 -76t-77.5 -48.5t-95.5 -17zM351 130q33 0 62 10t50.5 30.5t34.5 50.5t13 70
q0 78 -96 165q8 -40 8 -68q0 -90 -70 -133l-124 -72q44 -53 122 -53z" />
    <glyph glyph-name="n_ddo_bn" horiz-adv-x="664" 
d="M394 40h-16q-83 0 -146.5 40.5t-98.5 104.5l71 40q59 -104 173 -104q32 0 63 12.5t55.5 34.5t39.5 51.5t15 63.5q0 38 -12 64q-81 -45 -127 -70t-57 -32l-45 31v45q0 21 -7.5 42.5t-22 39t-34 28.5t-43.5 11q-15 0 -31 -5.5t-29 -16t-21 -24.5t-8 -32q0 -13 4 -24l58 32
l40 -70l-118 -66l-21 22q-23 23 -33.5 50.5t-10.5 55.5q0 33 14.5 62t38.5 50.5t54.5 34t62.5 12.5q57 0 107 -36v54h-319v81h684v-81h-284v-183l149 83l35 -3q58 -68 58 -158q0 -59 -24.5 -103t-61 -73.5t-78 -45.5t-74.5 -18z" />
    <glyph glyph-name="n_dd_ro_bn" horiz-adv-x="663" 
d="M491 -152l-20 19q-66 71 -185 71q-77 0 -137 -24l-35 73h1q1 1 13.5 6t34 11t51 10.5t65.5 4.5q119 0 192 -50v90q-48 -19 -94 -19q-83 0 -146.5 40.5t-98.5 104.5l71 40q59 -104 173 -104q32 0 63 12.5t55.5 34.5t39.5 51.5t15 63.5q0 37 -11 64q-82 -45 -128 -70
t-57 -32l-45 31v45q0 21 -7.5 42.5t-22 39t-34 28.5t-43.5 11q-15 0 -31 -5.5t-28.5 -16t-21 -25t-8.5 -31.5q0 -11 5 -24l57 32l40 -70l-117 -66l-21 22q-23 23 -33.5 50.5t-10.5 55.5q0 33 14 62t37.5 50.5t54 34t63.5 12.5q57 0 107 -36v54h-318v81h683v-81h-283v-183
l149 84q16 -4 35 -6q57 -63 57 -155q0 -54 -22.5 -99t-56.5 -72v-235l-24 -10q-9 -4 -18 -9t-19 -8z" />
    <glyph glyph-name="n_to_bn" horiz-adv-x="653" 
d="M397 -47q-52 0 -96 18t-77.5 49.5t-55 74t-29.5 91.5l81 14q13 -72 58 -119t120 -47q20 0 45 9.5t46.5 27.5t36 44.5t14.5 61.5q0 11 -5.5 29.5t-17.5 36.5t-31.5 31t-47.5 14q-73 -9 -73 -78l53 30l40 -71l-127 -70l-21 30q-13 19 -20 38t-7 43q0 54 26 94v17
q0 21 -8 43t-22 39t-33.5 28t-43.5 11q-15 0 -31 -5.5t-29 -16t-21 -24.5t-8 -32q0 -13 4 -24l58 32l40 -70l-117 -66l-21 22q-45 48 -45 106q0 32 14 61t38 50.5t55 34.5t64 13q56 0 106 -35v53h-319v81h673v-81h-273v-180q37 8 51 8q42 -3 75 -19t56.5 -42.5t36 -62
t12.5 -76.5q0 -52 -21 -91.5t-53 -66.5t-69 -41.5t-69 -15.5z" />
    <glyph glyph-name="n_t_bo_bn" horiz-adv-x="653" 
d="M557 -211h-80v3q-46 7 -78 21.5t-53 33.5t-32.5 39t-16.5 38l-9 33l23 9q-36 13 -65 35.5t-51 51t-36 62.5t-20 71l80 14q14 -73 59.5 -119.5t119.5 -46.5q24 0 49 10.5t46 29.5t34 45t13 58q-1 18 -8 37.5t-19.5 35.5t-31 26.5t-43.5 11.5q-71 -8 -74 -78l54 30l39 -71
l-126 -70l-21 30q-13 19 -20 38t-7 43q0 56 26 94v19q0 21 -8 42.5t-22.5 38.5t-34 27.5t-42.5 10.5q-15 0 -31 -5.5t-28.5 -15.5t-20.5 -24.5t-8 -32.5q0 -13 4 -24l57 32l39 -70l-116 -66l-22 22q-44 50 -44 106q0 33 14 62t37.5 50.5t54.5 34t64 12.5q57 0 107 -35v53
h-319v81h673v-81h-273v-180q37 8 50 8q42 -3 76 -20t57 -44t35.5 -62t12.5 -75q0 -45 -18 -83t-46 -64v-232zM477 -126v82l-84 -40q24 -30 84 -42z" />
    <glyph glyph-name="n_t_ro_bn" horiz-adv-x="621" 
d="M589 -75l-81 2q0 19 -4.5 38t-15 33t-26.5 23t-38 9q-18 0 -45.5 -4.5t-49.5 -4.5q-43 0 -76 14t-55.5 37.5t-34.5 53t-12 59.5v11l81 -5q0 -17 5 -33t16 -28t30 -19.5t46 -7.5q21 0 46.5 4t46.5 4q42 0 86 -21v146q-1 29 -18 45t-51 16q-20 0 -37.5 -9.5t-19.5 -29.5
l37 19l37 -73l-111 -56l-21 26q-25 29 -25 68q0 32 10 56v23q0 21 -8 43t-22 39t-33.5 28t-43.5 11q-15 0 -31 -5.5t-28.5 -15.5t-20.5 -24.5t-8 -32.5q0 -12 3 -24l58 32l40 -70l-117 -66l-21 22q-45 48 -45 106q0 32 14 61t38 50.5t55 34.5t64 13q56 0 106 -35v53h-319v81
h641v-81h-241v-172q31 9 47 9q30 0 57 -9.5t48 -28t33.5 -45t13.5 -59.5v-311z" />
    <glyph glyph-name="n_tho_bn" horiz-adv-x="698" 
d="M664 209l-3 -21l-254 -141q67 -57 246 -57v-81q-150 2 -237 39.5t-112 96.5l-4 37q12 6 83 45t202 112q0 62 -31 92t-78 32q-85 0 -85 -97l64 37l40 -72l-136 -76l-21 30q-14 20 -21.5 45.5t-6.5 60.5l-1 30h-1q0 22 -8 43.5t-22 39t-33.5 28t-42.5 10.5q-15 0 -31 -5.5
t-29 -16t-21 -24.5t-8 -32q0 -13 4 -24l58 32l40 -70l-118 -66l-22 22q-43 49 -43 106q0 34 14.5 63t38 50.5t54 33.5t63.5 12q57 0 107 -36v54h-319v81h718v-81h-318v-120q44 23 83 23q46 0 82 -17t61 -44t37.5 -61t12.5 -68q0 -20 -1 -31.5t-1 -13.5z" />
    <glyph glyph-name="n_dho_bn" horiz-adv-x="720" 
d="M378 19v143l-140 -77q42 -55 140 -66zM84 451q67 62 149 62q80 0 145 -56v84h-388v81h740v-81h-271v-240l185 104l23 -22l21 -19l-11 -27q-6 0 -13.5 -26.5t-14 -62.5t-10.5 -71.5t-4 -53.5q0 -15 3.5 -39t20.5 -51l-69 -42q-37 64 -37 144q0 67 18 136l-112 -63v-294
h-81v24q-51 4 -92 20t-71 38t-48 46.5t-23 46.5l-9 31l243 135l-1 15q0 29 -10.5 58t-30 52t-46 37.5t-57.5 14.5q-20 0 -41.5 -7.5t-39 -21.5t-28.5 -33.5t-11 -44.5q0 -22 11 -44l81 45l39 -71l-139 -77l-21 21q-52 58 -52 126t52 126z" />
    <glyph glyph-name="n_dh_ro_bn" horiz-adv-x="720" 
d="M84 451q67 62 149 62q80 0 145 -56v84h-388v81h740v-81h-272v-240l186 104l23 -22l21 -19q-29 -69 -41 -127.5t-12 -113.5q0 -15 3.5 -39t20.5 -51l-70 -42q-36 64 -36 144q0 67 18 136l-113 -63v-407l-55 -38l-23 22q-68 72 -191 72q-60 0 -132 -23l-2 -2v1l-2 -1
q-7 19 -15 37.5t-16 37.5q3 1 15.5 6.5t33.5 10.5t50 9.5t64 4.5q123 0 193 -49v49q-50 4 -91 20t-71 37.5t-48.5 46t-23.5 47.5l-9 31l243 135l-1 15q0 29 -10.5 58t-30 52t-46 37.5t-57.5 14.5q-20 0 -41.5 -7.5t-39 -21.5t-28.5 -33.5t-11 -44.5q0 -22 11 -44l81 45
l39 -71l-139 -77l-21 21q-52 58 -52 126t52 126zM378 19v143l-140 -77q42 -55 140 -66z" />
    <glyph glyph-name="n_no_bn" horiz-adv-x="514" 
d="M83 451q67 62 149 62q81 0 146 -56v84h-388v81h534v-81h-66v-612h-81v67q0 21 -7.5 42t-22 38.5t-34 28t-43.5 10.5q-15 0 -31 -5.5t-28.5 -15.5t-20.5 -24t-8 -32q0 -14 4 -25l58 32l39 -71l-117 -64l-22 22q-23 23 -33.5 50.5t-10.5 55.5q0 33 14.5 62t38.5 50.5t55 34
t63 12.5q57 0 106 -37v110q0 28 -10.5 57t-29.5 52.5t-45.5 38t-57.5 14.5q-21 0 -42.5 -7.5t-39 -21.5t-28.5 -34t-11 -44t10 -44l82 45l40 -71l-140 -77l-22 21q-51 58 -51 126q0 67 51 126z" />
    <glyph glyph-name="n_bo_bn" horiz-adv-x="515" 
d="M378 6v142l-139 -77q40 -54 139 -65zM85 451q65 62 148 62q80 0 145 -56v84h-388v81h535v-81h-66v-625h-81v9q-70 6 -115 28.5t-71.5 48.5t-36.5 47.5t-10 25.5l-10 31l243 136v28q0 28 -10.5 57t-29.5 52t-45.5 38t-58.5 15q-21 0 -42.5 -7.5t-39 -21.5t-28.5 -34
t-11 -44q0 -22 11 -44l82 45l39 -71l-139 -77l-21 21q-53 59 -53 126t53 126z" />
    <glyph glyph-name="n_mo_bn" horiz-adv-x="727" 
d="M590 206v335h-131v-281q73 -3 131 -54zM84 417q64 63 149 63q79 0 144 -57v118h-387v81h747v-81h-66v-591h-81v71q0 28 -10 56.5t-28.5 51t-44 36.5t-56.5 14q-20 0 -41 -7t-38 -20.5t-28 -32.5t-11 -43t10 -43l79 44l40 -71q-56 -30 -90 -48.5t-47 -26.5l-22 21
q-51 54 -51 124q0 27 8.5 53t25 48.5t39 40t51.5 28.5q-2 28 -13 55.5t-30 49t-44 34.5t-55 13q-21 0 -42.5 -8t-39.5 -22t-29 -33.5t-11 -42.5t11 -45l82 46l39 -72l-138 -77l-22 21q-52 58 -52 127q0 67 52 125z" />
    <glyph glyph-name="n_ro_bn" horiz-adv-x="566" 
d="M451 -125l-21 20q-68 72 -190 72q-38 0 -68.5 -5.5t-54.5 -14.5l-13 -5q-11 29 -31 74q1 1 14 6t35 11t52.5 10.5t68.5 4.5q112 0 186 -50v195q0 35 -12.5 69t-35 61t-54 44t-69.5 17q-25 0 -50.5 -9t-46.5 -25.5t-34 -40.5t-13 -53q0 -31 16 -59l98 55l40 -71
q-65 -36 -103.5 -57.5t-52.5 -28.5q-80 77 -80 162q0 43 19 81t50.5 66.5t72 45t84.5 16.5q16 0 35.5 -2.5t41.5 -10t46 -22t48 -38.5v148h-439v81h586v-81h-66v-635z" />
    <glyph glyph-name="n_so_bn" horiz-adv-x="624" 
d="M568 5h-81l-1 19q-2 136 -93 207q-4 -35 -17 -66.5t-34 -56t-50 -39t-65 -14.5q-78 0 -128 77l-16 40l84 48l40 -71l-9 -5q26 -8 34 -8q24 7 40 18.5t25.5 30.5t13.5 46t4 66h-22q0 19 -7 39t-20 36t-31 26.5t-40 10.5q-14 0 -28 -5t-26 -14t-19.5 -22.5t-7.5 -29.5
q0 -11 3 -18l52 27l38 -70l-111 -62l-21 22q-43 44 -43 101q0 32 14 59.5t37 48t52 32.5t59 12q21 0 38 -4q-37 36 -82 53l-3 2h-157v81h644v-81h-66v-536zM487 254v287h-196l1 -1q81 -81 101 -213q25 -11 48 -29.5t46 -43.5z" />
    <glyph glyph-name="p_tto_bn" horiz-adv-x="970" 
d="M178 328q29 37 29 64q0 8 -7.5 19t-29.5 11q-30 0 -50 -10l-24 -9l-64 55l13 28q11 30 35.5 55.5t56.5 44t68 29.5t69 11q123 0 218 -96v131h81v-39h273q-11 34 -23 58.5t-28 42t-35 30.5t-43 26l-65 -36l-39 71q38 21 61.5 34.5t31.5 18.5q87 -23 144.5 -84t79.5 -161
h50v-81h-407v-407q58 0 110 14.5t90.5 40.5t61 62.5t22.5 81.5q0 43 -25 78l-114 -63l-39 71l166 92l20 -19q36 -35 54.5 -73t18.5 -83q0 -65 -28.5 -117t-78 -89t-116.5 -57t-143 -20l-45 3l-35 5v255q0 42 -13 80l-276 -152l-50 58l24 25zM288 383l151 84q-28 39 -72.5 58
t-91.5 19q-68 0 -117 -42l12 1q29 0 51 -10t37 -26t22.5 -35.5t7.5 -38.5v-10z" />
    <glyph glyph-name="p_to_bn" horiz-adv-x="861" 
d="M178 329l8 10q11 14 14.5 28t5.5 25q0 9 -8 19.5t-28 10.5q-22 0 -44 -7q-5 -3 -9 -3l-23 -9l-62 55l12 28q13 32 38.5 58t56.5 44t66 28t68 10q129 0 218 -96v138h82v-46h298v-81h-298v-129q37 18 74 18q42 -2 76 -19t57.5 -44t36 -62.5t12.5 -74.5q0 -53 -22 -92.5
t-54.5 -66.5t-70 -41t-67.5 -15h-12q-52 0 -95.5 17.5t-76.5 49t-54.5 73.5t-29.5 92l80 14q13 -72 57 -118.5t121 -46.5q26 0 51.5 11t45.5 29.5t32.5 43t12.5 51.5v8q0 18 -6.5 36.5t-19.5 34.5t-32 26.5t-44 12.5q-12 0 -24.5 -3.5t-23 -12.5t-17.5 -24t-8 -37l53 30
l39 -72q-32 -17 -63 -34.5t-62 -35.5l-22 29q-14 17 -20 38.5t-6 45.5v10q0 6 1 11q-1 32 -4 57t-10 45l-276 -152l-49 58l23 25q2 0 2 2zM287 383l151 84q-62 77 -164 77q-68 0 -117 -42l12 1q30 0 52 -10.5t36.5 -27t22 -38.5t7.5 -44z" />
    <glyph glyph-name="p_t_ro_bn" horiz-adv-x="833" 
d="M288 383l151 84q-62 77 -165 77q-68 0 -117 -42l12 1q30 0 52 -10t37 -27t22.5 -38.5t7.5 -44.5zM801 -35l-81 2q0 25 -5.5 46.5t-17 37.5t-29.5 25t-43 9q-21 0 -51 -5t-55 -5q-45 0 -80.5 15.5t-60 40t-38 56t-13.5 64.5v12l82 -5q0 -46 28.5 -74t81.5 -28q23 0 51.5 5
t52.5 5q58 0 97 -27v168q-2 34 -22 52.5t-58 18.5q-29 0 -48 -14t-19 -40l48 24l36 -72l-119 -60l-21 26q-12 15 -17 34t-8 40t-5.5 42t-7.5 38l-277 -152l-49 58l33 37q11 13 15.5 26.5t5.5 24.5q0 9 -7.5 20.5t-29.5 11.5q-32 0 -74 -19l-64 55l13 28q12 30 36.5 56
t56 44.5t67 29t69.5 10.5q128 0 217 -96v138h82v-46h270v-81h-270v-96q34 15 68 15q30 0 58.5 -10.5t51 -30.5t36 -48t14.5 -64v-342z" />
    <glyph glyph-name="p_no_bn" horiz-adv-x="629" 
d="M288 383l151 84q-62 77 -164 77q-68 0 -117 -42l12 1q29 0 51 -10t37 -26.5t22.5 -38.5t7.5 -45zM178 328q3 0 8 7.5t9.5 18t8 21t3.5 15.5q0 9 -7.5 20.5t-29.5 11.5q-21 0 -43 -7q-5 -3 -9 -3l-22 -9l-64 55l13 28q12 30 37 56t56.5 44.5t67 29t69.5 10.5
q128 0 217 -96v138h81v-46h66v-81h-66v-569h-81v68q0 24 -8.5 47t-24 42t-37 30.5t-46.5 11.5q-16 0 -33 -6t-31 -16.5t-23 -26.5t-9 -35q0 -16 6 -29l63 35l39 -71l-122 -69l-22 22q-46 50 -46 112q0 34 15 64.5t40 53t57 35.5t65 13q64 0 117 -41v104q0 42 -13 80
l-277 -152l-48 58z" />
    <glyph glyph-name="p_po_bn" horiz-adv-x="629" 
d="M288 383l151 84q-62 77 -164 77q-68 0 -117 -42l12 1q29 0 51 -10t37 -26.5t22.5 -38.5t7.5 -45zM340 57l105 58q-48 53 -123 53q-41 0 -73 -19q38 -3 62 -30t29 -62zM207 390q0 9 -7.5 20.5t-29.5 11.5q-30 0 -49 -10l-25 -9l-64 55l13 28q13 31 37.5 56.5t56 44t67 29
t69.5 10.5q122 0 218 -96v138h80v-46h66v-81h-66v-621h-80v71q-1 14 -2.5 27t-5.5 26l-224 -123l-48 56l24 27q12 14 16.5 26.5t5.5 21.5q0 5 -4.5 10.5t-17.5 5.5q-17 0 -27 -3t-12 -4l-25 -9l-58 52l12 26v-1q-1 0 5.5 12.5t34.5 46.5q68 62 153 62q99 0 173 -67v133
q0 40 -14 80l-276 -152l-50 58l24 25q30 39 30 63z" />
    <glyph glyph-name="p_ro_bn" horiz-adv-x="629" 
d="M439 467q-62 77 -164 77q-69 0 -118 -42l13 1q29 0 51 -10t37 -27t22.5 -38.5t7.5 -44.5zM91 105q2 1 16.5 7t39 12t57.5 11t72 5q134 0 216 -59v235q0 42 -13 80l-277 -152l-49 58l33 37q11 13 15.5 26.5t5.5 24.5q0 9 -7.5 20.5t-29.5 11.5q-21 0 -43 -7q-5 -3 -9 -3
l-22 -9l-64 55l13 28q12 30 36.5 56t56 44.5t67 29t69.5 10.5q129 0 218 -96v138h81v-46h66v-81h-66v-542l-54 -48l-26 26q-41 40 -93.5 61.5t-121.5 20.5q-33 0 -61 -4t-48 -8.5t-31.5 -9.5t-11.5 -6h-1z" />
    <glyph glyph-name="p_ro_alt_bn" horiz-adv-x="629" 
d="M439 467q-62 77 -164 77q-69 0 -118 -42l13 1q29 0 51 -10t37 -27t22.5 -38.5t7.5 -44.5zM492 316q0 42 -13 80l-277 -152l-49 58l33 37q11 13 15.5 26.5t5.5 24.5q0 9 -7.5 20.5t-29.5 11.5q-21 0 -43 -7q-5 -3 -9 -3l-22 -9l-64 55l13 28q12 30 36.5 56t56 44.5t67 29
t69.5 10.5q129 0 218 -96v138h81v-46h66v-81h-66v-542l-60 -41l-24 22q-65 69 -257 69q-143 0 -267 -40l-33 75q6 4 33.5 12t68.5 15.5t91.5 13t103.5 5.5q192 0 263 -49v235z" />
    <glyph glyph-name="p_lo_bn" horiz-adv-x="629" 
d="M182 -42l-18 18q-46 46 -48 116q1 34 13.5 63.5t34.5 51.5t52 35t65 14q30 -1 56.5 -11t47.5 -28t35.5 -42t20.5 -54l50 29v166q0 42 -13 80l-276 -152l-49 58l23 25q14 15 22.5 33.5t7.5 31.5q0 8 -7.5 19t-28.5 11q-31 0 -51 -10l-24 -9l-63 55l13 28q12 30 36.5 56
t56 44.5t67 29t68.5 10.5q129 0 218 -96v138h82v-46h66v-81h-66v-570h-82v86l-94 -54l-48 36q7 19 10 32t4 21q-1 33 -24.5 57.5t-57.5 24.5q-36 0 -59 -24.5t-24 -57.5q0 -19 7 -34l62 35l38 -72l-99 -55zM287 383l152 84q-63 77 -165 77q-68 0 -117 -42l12 1
q29 0 51.5 -10t37.5 -26.5t22.5 -36.5t7.5 -39z" />
    <glyph glyph-name="p_so_bn" horiz-adv-x="705" 
d="M177 138l-12 34l86 50l41 -71l-13 -7q11 -8 34 -8q24 7 39 17t24 25t13 36t6 49h-22q0 22 -6 43l-199 -110l-48 57l24 26l3 5q3 5 6.5 11.5t6.5 13t3 9.5q0 9 -12 12q-21 0 -62 -16l-57 50l12 28v-1q1 0 1.5 3t4 9.5t11 16.5t21.5 24q29 29 65.5 43.5t75.5 14.5
q46 0 94 -20q-40 38 -92 59h-235v81h725v-81h-66v-541h-82q0 51 -7 87t-19.5 63t-29.5 46t-37 35q-3 -35 -16.5 -67t-35 -56t-51 -38.5t-63.5 -14.5q-78 0 -127 75zM567 253v288h-193l6 -8q77 -86 95 -207q16 -7 44 -26.5t48 -46.5zM199 397q17 -11 30.5 -29t13.5 -38l84 47
q-43 43 -102 43q-29 0 -54 -11q15 -3 28 -12z" />
    <glyph glyph-name="ph_tto_bn" horiz-adv-x="799" 
d="M35 246l-3 10l5 31l216 120q-9 24 -25.5 45.5t-37 39t-43.5 30.5t-47 19h-110v81h680q-11 35 -23 59.5t-28 42.5t-35 31t-43 26l-65 -36l-39 71l94 52l17 -4q28 -6 59.5 -25.5t60.5 -50.5t52 -73t34 -93h55v-81h-552q54 -50 78 -123l4 -56l-212 -117q70 -105 276 -115
v347l23 12l5 4q40 6 54 6q17 0 37 -2.5t42 -10.5t45 -23t47 -40q30 -32 38 -73l-1 -41l-111 -64l-41 69l66 39q-17 28 -49.5 46.5t-73.5 18.5v-423q97 0 149.5 35.5t52.5 87.5q0 18 -8 29l-82 -45l-40 70l137 77l21 -19q26 -23 40 -50t13 -61q-3 -55 -27 -94t-62.5 -64
t-89 -36.5t-108.5 -11.5q-23 0 -30.5 1.5t-10.5 1.5l-36 3v131q-71 1 -125.5 15t-95.5 34.5t-69 45t-45.5 46t-25 37t-7.5 18.5z" />
    <glyph glyph-name="ph_ro_bn" horiz-adv-x="726" 
d="M35 246l-3 10l5 31l216 120q-9 24 -25.5 45.5t-37 39t-44 30.5t-47.5 19h-109v81h746v-81h-479q77 -70 82 -179l-212 -117q76 -105 277 -115v347l22 12l6 4q34 6 53 6q27 0 62 -8.5t67.5 -30.5t55 -60t24.5 -96l-1 -37l-117 -55l-34 73l71 33q-7 44 -41 72t-88 28v-523
l-57 -33l-22 21q-68 72 -190 72q-86 0 -133 -25l-35 74q2 1 15.5 6.5t36 11t52.5 10t66 4.5q113 0 187 -50v64q-72 1 -126.5 15t-95.5 34.5t-69 45t-45 46t-25 37t-8 18.5z" />
    <glyph glyph-name="ph_lo_bn" horiz-adv-x="727" 
d="M376 -31l28 16v65q-59 2 -107 12q61 -28 79 -93zM35 246l-3 10l5 31l216 120q-19 48 -62 84.5t-91 49.5h-110v81h747v-81h-480q78 -70 83 -179l-211 -117q70 -105 275 -115v347l22 12l6 4q34 6 54 6q26 0 61.5 -8.5t67.5 -30.5t55 -60t25 -96v-37l-118 -55l-34 73l70 33
q-7 44 -40.5 72t-87.5 28v-569h-81v43l-63 -36l-50 36q9 34 9 41q-1 25 -17.5 42t-41.5 17t-41.5 -17t-16.5 -42q0 -5 2 -15l41 22l39 -70q-38 -21 -53.5 -30t-21.5 -12.5t-10.5 -4.5t-19.5 -6l-18 18q-40 39 -41 98q1 30 12 55.5t29.5 44t43.5 29.5t55 12l10 -1
q-85 27 -141.5 72.5t-74.5 100.5z" />
    <glyph glyph-name="b_jo_bn" horiz-adv-x="813" 
d="M242 367q11 70 74 144l-180 -83q32 -45 106 -61zM643 -22q-44 71 -44 162q0 112 52 225q-14 -2 -26.5 -3.5t-25.5 -1.5q-37 0 -69.5 9.5t-57.5 27t-42 41t-23 52.5q-85 -82 -85 -145q0 -40 49 -40q33 0 87 30q21 12 44 12q20 0 36 -8.5t27 -22.5t17 -32t6 -36
q0 -51 -22.5 -88t-57 -62t-76 -37t-78.5 -12q-85 0 -148 42t-97 114l73 36q26 -54 69 -83t103 -29q27 0 54 8t49 23.5t36 38t14 50.5q0 12 -5 17l-4 -2q-70 -40 -125 -40q-84 0 -117 59q-53 5 -91 22t-64.5 41.5t-43 56t-25.5 65.5l156 73h-198v81h833v-81h-330
q-6 -15 -6 -27q0 -13 7.5 -25.5t21.5 -23t35 -17t48 -6.5q4 0 14 -0.5t26 2.5t38.5 11.5t52.5 26.5l51 -61q-23 -24 -41.5 -58.5t-32 -72t-21 -76t-7.5 -69.5q0 -67 32 -122z" />
    <glyph glyph-name="b_do_bn" horiz-adv-x="855" 
d="M727 -51q-50 83 -53 173l-1 31q0 99 30 195l-255 -188v-64h-81v5q-63 5 -113 22.5t-89 45t-66.5 63.5t-44.5 78q-15 36 -15 43l-7 31l283 157h-325v81h875v-81h-417v-280l314 232l60 -49l-19 -48q-49 -123 -49 -245q0 -95 40 -157zM367 183v294l-240 -133
q24 -65 85.5 -109t154.5 -52z" />
    <glyph glyph-name="b_dho_bn" horiz-adv-x="710" 
d="M367 -13v105l-104 -58l8 -7q22 -28 96 -40zM363 183l4 2v292l-239 -133q24 -65 85.5 -108.5t149.5 -52.5zM449 -98h-82v3q-141 19 -188 108q-11 22 -11 25l-8 31l96 54q-150 58 -202 187q-15 36 -15 43l-7 31l284 157h-326v81h730v-81h-271v-309l187 104l42 -45l-10 -25
q-7 0 -14.5 -28t-14 -65t-10.5 -72t-4 -50q0 -14 3.5 -37.5t20.5 -50.5l-70 -42q-35 62 -35 143q0 62 17 138l-112 -64v-236z" />
    <glyph glyph-name="b_ro_bn" horiz-adv-x="545" 
d="M407 130v343l-279 -155l1 -1q13 -38 39 -70.5t62 -57t81 -40t96 -19.5zM39 328l-7 30l330 183h-372v81h565v-81h-66v-644q-17 -8 -33 -14.5t-33 -13.5l-19 17q-67 67 -182 67q-66 0 -126 -20q-7 -4 -11 -4l-6 14l6 -15l-34 74q1 1 14 6t35 11t52.5 10.5t67.5 4.5
q117 0 187 -49v64q-73 5 -128.5 26.5t-96.5 50.5t-68 62t-43.5 62t-24 50.5t-7.5 27.5z" />
    <glyph glyph-name="b_lo_bn" horiz-adv-x="543" 
d="M39 328l-7 30l330 183h-372v81h563v-81h-66v-701h-80v86l-106 -59l-30 55q0 41 -20 61.5t-50 20.5q-31 0 -51 -21t-20 -50q0 -14 4 -25l52 29l40 -71l-88 -48l-28 -10l-17 18q-43 44 -44 107q1 33 13 60t32 47t47.5 31.5t59.5 12.5q104 -5 142 -100l64 36v29
q-74 3 -129.5 24t-96.5 51t-68 64t-43.5 64t-23.5 51t-7 25zM407 130v343l-280 -155q23 -45 50 -78.5t60.5 -56.5t75 -36t94.5 -17z" />
    <glyph glyph-name="bh_ro_bn" horiz-adv-x="591" 
d="M601 541h-611v81h611v-81zM472 -33l-21 20q-87 91 -245 91q-108 0 -169 -30q-1 -1 -3 -1l-34 73q2 1 18 7.5t43 13.5t64 12.5t80 5.5q71 0 132 -16.5t117 -54.5v208q-22 -30 -62.5 -54t-86.5 -24q-29 0 -59.5 10.5t-55.5 31t-41 50.5t-16 68q0 30 10 55.5t28 45t42 30.5
t52 11q14 0 31.5 -5.5t33.5 -15.5t29.5 -24.5t20.5 -32.5l14 -33l-90 -50l-39 71l11 6q-8 3 -15 3t-14 -3.5t-12 -8.5q-7 -5 -13 -12q-8 -18 -8 -34q0 -33 25.5 -57.5t62.5 -24.5q25 0 45 10t34 25.5t21.5 34t7.5 35.5l2 21l51 29l22 -26q24 -29 37 -62.5t13 -76.5v-290z
" />
    <glyph glyph-name="bh_r_ukar_bn" horiz-adv-x="872" 
d="M-10 541v81h892v-81h-892zM535 207v-208l-63 -32l-21 20q-87 91 -245 91q-108 0 -169 -30q-1 -1 -3 -1l-34 73q2 1 18 7.5t43 13.5t64 12.5t80 5.5q71 0 132 -16.5t117 -54.5v208q-22 -30 -62.5 -54t-86.5 -24q-29 0 -59.5 10.5t-55.5 31t-41 50.5t-16 68q0 30 10 55.5
t28 45t42 30.5t52 11q14 0 31.5 -5.5t33.5 -15.5t29.5 -24.5t20.5 -32.5l14 -33l-90 -50l-39 71l11 6q-8 3 -15 3t-14 -3.5t-12 -8.5q-7 -5 -13 -12q-8 -18 -8 -34q0 -33 25.5 -57.5t62.5 -24.5q25 0 45 10t34 25.5t21.5 34t7.5 35.5l2 21l51 29l22 -26q20 -23 32.5 -50
t15.5 -60q19 -26 52 -45.5t65 -19.5q48 0 78 23.5t30 55.5q0 43 -36 73l-68 -38l-40 71l106 59q117 -53 120 -164q0 -31 -13.5 -60.5t-38.5 -52t-60 -36t-78 -13.5q-33 0 -63 11t-52 25z" />
    <glyph glyph-name="bh_r_ookar_bn" horiz-adv-x="811" 
d="M535 247v-248l-63 -32l-21 20q-87 91 -245 91q-108 0 -169 -30q-1 -1 -3 -1l-34 73q2 1 18 7.5t43 13.5t64 12.5t80 5.5q71 0 132 -16.5t117 -54.5v208q-22 -30 -62.5 -54t-86.5 -24q-29 0 -59.5 10.5t-55.5 31t-41 50.5t-16 68q0 30 10 55.5t28 45t42 30.5t52 11
q14 0 31.5 -5.5t33.5 -15.5t29.5 -24.5t20.5 -32.5l14 -33l-90 -50l-39 71l11 6q-8 3 -15 3t-14 -3.5t-12 -8.5q-7 -5 -13 -12q-8 -18 -8 -34q0 -33 25.5 -57.5t62.5 -24.5q25 0 45 10t34 25.5t21.5 34t7.5 35.5l2 21l51 29l22 -26q17 -20 28.5 -41.5t16.5 -48.5l209 115
l40 -43q-28 -78 -39.5 -143.5t-11.5 -122.5q0 -18 4 -48t22 -64l-72 -38q-35 70 -35 167q0 68 20 159zM-10 541v81h892v-81h-892z" />
    <glyph glyph-name="bh_lo_bn" horiz-adv-x="610" 
d="M620 541h-630v81h630v-81zM130 -212l-18 18q-38 37 -40 98q1 30 12 55t29.5 43.5t43.5 29.5t55 12q92 -6 129 -88l50 28v66q-34 -10 -69 -10q-65 0 -118 26.5t-91.5 71.5t-59.5 105.5t-21 128.5q0 23 3 47l80 -9l-1 -38q0 -53 14.5 -98.5t41.5 -79t66.5 -53t90.5 -19.5
q30 0 60 12t54.5 34.5t39.5 55t15 72.5q-24 -31 -64.5 -55t-88.5 -24q-29 0 -59 11t-54.5 32t-40.5 51t-16 68q0 30 10.5 55.5t28.5 45t42.5 30.5t51.5 11q15 0 32.5 -5.5t34 -16t29.5 -25t20 -32.5l14 -33l-91 -49l-39 71l11 5q-7 4 -15 4q-16 0 -32 -16t-16 -42
q0 -17 7.5 -32.5t19.5 -27t28.5 -18t34.5 -6.5q30 0 50 12t32.5 29t18.5 35t7 30l2 22l51 28l22 -25q28 -32 39.5 -73t11.5 -76q0 -31 -9 -60t-23.5 -53.5t-34 -45t-40.5 -33.5v-267h-80v69l-92 -51l-30 54q0 35 -16.5 52t-40.5 17q-25 0 -41.5 -16.5t-17.5 -41.5
q0 -6 2 -16l41 23l40 -70l-78 -43q-2 -1 -8.5 -3.5t-19.5 -6.5z" />
    <glyph glyph-name="m_no_bn" horiz-adv-x="566" 
d="M220 -45l-20 22q-44 49 -44 106q0 32 14 60.5t37.5 50t53.5 34t63 12.5q56 0 105 -35v57q-16 -4 -35 -4q-65 5 -122 75q-22 22 -38.5 33.5t-40.5 11.5q-14 0 -28.5 -5t-25.5 -14t-18 -21.5t-7 -27.5q0 -9 3 -18l49 28l39 -72l-109 -60l-22 22q-22 21 -32 47t-10 53
t11.5 52.5t31 46t45.5 33.5t55 16q-5 20 -22.5 35t-40 25.5t-46 16t-40.5 6.5h-36v81h586v-81h-72q36 -59 36 -130q0 -55 -30 -95v-340h-81v64q0 20 -7.5 41t-21.5 38.5t-33 28.5t-43 11q-15 0 -30.5 -5t-28 -15t-21 -24.5t-8.5 -32.5q0 -11 5 -23l56 31l40 -70zM400 340
q10 0 30 11q2 1 7 4.5t10 10t8.5 17.5t3.5 27q0 48 -21.5 82.5t-52.5 48.5l-165 -1q33 -34 38 -95q16 -8 36 -26l40 -35q20 -17 37.5 -30.5t28.5 -13.5z" />
    <glyph glyph-name="m_pho_bn" horiz-adv-x="932" 
d="M240 244l-3 10l5 32l48 26q-9 8 -16 16l-14 16l-18 18q-24 24 -56 24q-13 0 -26 -4.5t-23.5 -13t-17 -20t-6.5 -25.5q0 -4 0.5 -7t1.5 -7l45 25l39 -71l-105 -58l-22 21q-21 20 -30.5 46t-9.5 51q0 27 11 51t29.5 43.5t43 32t51.5 15.5q-6 18 -22.5 31.5t-37 23.5t-42 15
t-38.5 6h-37v81h952v-81h-458q34 -53 34 -120q0 -35 -11.5 -62.5t-30 -46t-42.5 -29t-48 -11.5l-52 -29q69 -104 275 -113v346l22 12l6 4q34 6 53 6q27 0 62.5 -8.5t67.5 -30.5t55 -60t25 -96v-38l-118 -54l-35 73l71 33q-8 45 -41 72t-87 27v-411h-81v43q-71 1 -126 15.5
t-96 35t-69 45t-45 45.5t-25 36.5t-8 18.5zM370 356l62 35q5 12 5 28q0 44 -20 76t-51 46h-150l1 -2q28 -28 34 -87q13 -6 30 -20.5t34 -30t31.5 -29t23.5 -16.5z" />
    <glyph glyph-name="m_bo_bn" horiz-adv-x="554" 
d="M498 -44h-80v9q-51 4 -89.5 18t-66 32t-46 38.5t-29 38t-15 30t-4.5 15.5l-9 33l201 94q-35 12 -56 31t-37 37.5t-32.5 32t-43.5 13.5q-14 0 -28.5 -5t-25.5 -14t-18 -21.5t-7 -27.5q0 -9 3 -18l50 28l39 -72l-110 -60l-22 22q-21 21 -30.5 47.5t-9.5 52.5q0 28 11.5 54
t31 45.5t45.5 32.5t54 16q-7 20 -24.5 35t-39 25.5t-44.5 16t-41 6.5h-35v81h574v-81h-63q37 -56 37 -130q0 -67 -40 -107v-348zM418 46v156l-157 -74q47 -72 157 -82zM399 340q9 0 19.5 4.5t19.5 13.5t14.5 22t5.5 31q0 48 -22.5 82t-54.5 48l-162 -1q33 -34 38 -95
q21 -10 41.5 -27.5t38.5 -35t33.5 -30t28.5 -12.5z" />
    <glyph glyph-name="m_b_ro_bn" horiz-adv-x="556" 
d="M436 -196l-21 18q-67 67 -182 67q-27 0 -51 -3t-41.5 -7t-28.5 -8t-13 -6h-3q-8 19 -16.5 37.5t-17.5 36.5q2 1 14.5 6t34 11t51 10.5t64.5 4.5q121 0 192 -50v44q-54 4 -97.5 22t-75.5 43t-51.5 53t-24.5 54l-8 33l201 94q-20 6 -36 18t-29.5 25t-24.5 25t-19 20
q-14 12 -28.5 19t-31.5 7q-14 0 -28.5 -5t-25.5 -14t-18 -21.5t-7 -27.5q0 -9 3 -18l49 28l39 -72l-109 -60l-22 22q-22 21 -32 47t-10 53t11.5 52.5t31 46t45.5 33.5t55 16q-5 20 -22.5 35t-40 25.5t-46 16t-40.5 6.5h-36v81h576v-81h-63q37 -56 37 -130q0 -64 -40 -107
v-468zM400 340l9 1q9 1 20 7t20.5 20t9.5 40q0 50 -21.5 84.5t-55.5 48.5l-162 -1q33 -33 39 -95q16 -8 36 -25.5t39.5 -35t37 -31t28.5 -13.5zM418 46v156l-156 -74q52 -71 156 -82z" />
    <glyph glyph-name="m_bho_bn" horiz-adv-x="753" 
d="M525 -48h-10q-45 0 -83 14t-68 39.5t-51 60.5t-31 77l79 20q16 -59 52.5 -94.5t96.5 -35.5q27 1 49.5 10t39.5 24t27.5 34t12.5 39q-47 -48 -110 -48q-26 0 -51.5 9t-46.5 26.5t-34 43.5t-13 60q0 14 3 28q-62 8 -116 74l-18 19q-29 26 -61 26q-14 0 -28 -5t-25.5 -14
t-18.5 -21.5t-7 -27.5q0 -9 3 -18l50 28l39 -72l-110 -60l-22 22q-21 21 -31 47.5t-10 52.5q0 28 12 54t31.5 45.5t45.5 32.5t54 16q-7 20 -24.5 35t-39 25.5t-44.5 16t-41 6.5h-36v81h773v-81h-260q37 -58 37 -128q0 -38 -14 -68q29 -8 45 -24t26 -39l9 -22v10l51 29
l22 -25q22 -25 32 -59.5t10 -63.5q0 -48 -20 -84.5t-49.5 -61.5t-64 -38.5t-62.5 -14.5zM399 340q11 0 31 11q5 2 16.5 14.5t11.5 45.5q0 48 -21 82t-54 48l-164 -1q35 -35 39 -95q21 -9 41 -27t38 -35t33.5 -30t28.5 -13zM527 173q17 0 30.5 6.5t23.5 17t15.5 23.5t7.5 25
l-71 -39l-34 62q-13 0 -23.5 -9.5t-10.5 -29.5q0 -22 18 -39t44 -17z" />
    <glyph glyph-name="m_bh_ro_bn" horiz-adv-x="755" 
d="M663 -110l-22 21q-37 35 -81.5 52.5t-102.5 17.5q-89 0 -135 -24q-2 0 -2 -1l-35 74q2 1 15.5 6t36 11t53 10.5t65.5 4.5q113 0 187 -50v128q-50 -48 -112 -48q-25 0 -50.5 9t-46.5 26.5t-34 43t-13 57.5q0 14 3 31q-61 4 -117 74q-22 22 -38.5 33.5t-41.5 11.5
q-14 0 -28 -5t-25 -14t-18 -21.5t-7 -27.5q0 -9 3 -18l48 28l40 -72l-109 -60l-22 22q-22 21 -32 47t-10 53q0 28 11.5 53.5t31 45.5t45.5 33t54 16q-5 20 -22.5 35t-39.5 25.5t-45.5 16t-40.5 5.5l-36 1v81h775v-81h-262q37 -56 37 -130q0 -36 -14 -66q29 -9 46.5 -25
t26.5 -38l9 -22l1 10l50 29l22 -25q42 -48 42 -117l-1 -232zM528 173q12 0 25.5 5t25 14.5t19 23t9.5 29.5l-73 -39l-33 62q-33 0 -33 -40q0 -21 18.5 -38t41.5 -17zM399 340q11 0 31 11q5 2 16.5 14.5t11.5 44.5q0 51 -21.5 83.5t-55.5 46.5l-161 1v-1q33 -33 39 -95
q16 -8 36 -25.5t39.5 -35t36.5 -31t28 -13.5z" />
    <glyph glyph-name="m_mo_bn" horiz-adv-x="770" 
d="M330 -14l-20 22q-57 61 -57 135q0 79 66 144q-9 7 -25 23t-41 42q-26 26 -61 26q-14 0 -28.5 -5t-25.5 -14t-18 -21.5t-7 -27.5q0 -9 3 -18l49 28l40 -72l-110 -60l-21 22q-42 43 -42 100q0 28 11.5 53.5t31 45.5t45.5 33t54 16q-5 18 -22.5 33.5t-39.5 26.5t-45.5 17
t-41.5 6h-35v81h790v-81h-66v-539h-81v80q0 33 -12 66t-33 58.5t-51 41.5t-66 16q-24 0 -48.5 -8.5t-44 -24.5t-32 -38t-12.5 -50q0 -29 14 -55l94 52l39 -71zM399 340q9 0 31 11q5 2 16.5 14.5t11.5 45.5q0 50 -21.5 82.5t-55.5 46.5l-162 1v-1q18 -12 27.5 -40.5
t11.5 -54.5q18 -8 38 -25.5t38.5 -35t35.5 -31t29 -13.5zM633 278v263h-130q37 -55 37 -129q0 -31 -17 -73q59 -13 110 -61z" />
    <glyph glyph-name="m_ro_bn" horiz-adv-x="551" 
d="M428 -30q-28 24 -50.5 39.5t-45 25t-47 13.5t-56.5 4q-70 0 -127 -19q-8 -3 -9 -4l-2 -1h-2q-5 14 -13 32.5t-19 41.5q2 1 15 6t34.5 11t50.5 10.5t63 4.5q122 0 193 -50v175l-20 -1q-67 6 -122 75q-22 22 -38.5 33.5t-41.5 11.5q-14 0 -28 -5t-25 -14t-18 -21.5
t-7 -27.5q0 -9 3 -18l49 28l39 -72l-109 -60l-22 22q-21 21 -31 47.5t-10 52.5q0 28 12 53.5t31.5 45.5t45 33t52.5 16q-5 20 -22.5 35t-39.5 25.5t-45.5 16t-40.5 5.5l-35 1v81h571v-81h-59q37 -56 37 -130q0 -70 -44 -112v-300zM399 340q20 0 39.5 18t19.5 53q0 48 -22 82
t-56 48l-161 -1q35 -35 39 -95q20 -10 39 -25.5t34.5 -30.5t26 -26.5t13.5 -13.5q15 -9 28 -9z" />
    <glyph glyph-name="m_lo_bn" horiz-adv-x="564" 
d="M139 -85l-17 18q-21 23 -33.5 49.5t-12.5 59.5q1 33 13 61.5t32.5 49.5t49 33t61.5 13q58 -2 99 -36.5t53 -88.5l43 24v164q-15 -4 -34 -4q-67 6 -122 75q-22 22 -38.5 33.5t-41.5 11.5q-14 0 -28 -4.5t-25 -13.5t-18 -21.5t-7 -28.5q0 -9 3 -18l49 28l39 -72l-109 -60
l-22 22q-21 21 -31 47.5t-10 52.5q0 28 12 54t31.5 45.5t45.5 32.5t53 16q-7 20 -24.5 35t-39 25.5t-44.5 16t-41 6.5h-35v81h584v-81h-73q38 -58 38 -130q0 -56 -31 -96v-382h-81v73l-77 -44l-52 37q9 34 9 43q-1 32 -22 53.5t-53 21.5t-53 -21.5t-22 -53.5q0 -12 5 -27
l55 30l40 -71l-90 -50zM399 340q20 0 39.5 18t19.5 53q0 48 -22 82t-57 48l-160 -1q35 -35 39 -95q21 -9 41 -27t38 -35t33.5 -30t28.5 -13z" />
    <glyph glyph-name="z_ro_bn" horiz-adv-x="541" 
d="M403 130v411h-147q19 -18 33.5 -35.5t25 -38.5t16.5 -46.5t8 -58.5q-53 -30 -105.5 -59.5t-106.5 -58.5q69 -104 276 -114zM35 245l-3 9l5 32l216 120q-9 24 -25.5 45t-37 39t-44 31t-47.5 20h-109v81h561v-81h-66v-678l-63 -26q-22 22 -43.5 38.5t-45.5 27.5t-52 16.5
t-63 5.5q-76 0 -137 -24l-34 74q1 1 13.5 6t34 10.5t51 10t64.5 4.5q122 0 193 -49v91q-71 1 -125.5 15.5t-95.5 35t-69.5 45t-45.5 46t-24.5 37t-7.5 18.5z" />
    <glyph glyph-name="l_ko_bn" horiz-adv-x="810" 
d="M624 -117h-80v9q-95 8 -153.5 47.5t-84.5 93.5q-12 25 -12 30l-9 34l258 121v48l-135 -77q-13 9 -26.5 17.5t-27.5 16.5q13 48 13 66q0 27 -10 50t-27 39.5t-40.5 26.5t-50.5 11q-27 -1 -49.5 -11t-39.5 -26.5t-27 -39.5t-11 -50q2 -38 19 -67l97 54l39 -71l-126 -70
l-31 -11l-18 18q-59 58 -60 147q1 44 17 81.5t43.5 65.5t65 44t81.5 17q42 -1 78.5 -16t64 -40.5t44.5 -60.5t21 -75l96 55v181h-553v81h830v-81h-196v-326q27 -3 54 -15t49.5 -33t36.5 -51t14 -70l-2 -30q-29 -13 -80 -42l-40 71l39 21q-8 34 -28 48t-43 19v-250zM544 -26
v155l-156 -74q40 -71 156 -81z" />
    <glyph glyph-name="l_go_bn" horiz-adv-x="685" 
d="M398 -171l-19 42l-22 28q5 2 6 3t9 5q59 35 59 61l-1 7q-5 5 -15 5q-8 0 -22.5 -4.5t-31.5 -10.5t-33.5 -10.5t-27.5 -4.5q-18 0 -31.5 7.5t-22.5 19t-13.5 25.5t-4.5 27q0 35 18 62t44 46t56.5 28.5t56.5 9.5q82 0 145 -54v147l-138 -79l-55 34q14 48 14 66
q0 27 -10.5 50t-28 39.5t-40.5 26.5t-49 11q-27 -1 -50 -11t-40 -26.5t-27 -39.5t-10 -50q0 -38 19 -67l96 54l40 -71l-126 -70l-32 -11l-18 18q-60 60 -61 147q1 43 17.5 81t44.5 66t65.5 44t81.5 17q42 -1 78 -16t63.5 -40.5t44.5 -60.5t22 -75l99 57v179h-558v81h705v-81
h-66v-682h-81v81q0 29 -11 56.5t-30 49.5t-45 35t-56 13q-14 0 -28.5 -4t-27.5 -12t-23.5 -19t-16.5 -26q4 1 8 3t9 4q48 20 85 20q48 0 74 -27t26 -64q0 -83 -114 -140z" />
    <glyph glyph-name="l_ddo_bn" horiz-adv-x="764" 
d="M493 40h-15q-83 0 -146 40t-99 105l70 40q58 -103 174 -103q33 0 64.5 12.5t55.5 34.5t38.5 51t14.5 62q0 39 -11 66l-185 -103l-45 30v53l-89 -50l-52 32q12 40 12 54q-1 35 -24.5 59t-59.5 24q-18 0 -33 -6.5t-26.5 -18t-18 -26.5t-6.5 -32q0 -20 7 -35l63 35l40 -71
q-48 -26 -79 -42.5t-45 -21.5l-19 18q-24 23 -35 52.5t-13 64.5q1 34 13.5 64t34.5 52t52 34.5t65 13.5q62 -1 106 -38.5t56 -97.5l51 29v120h-419v81h784v-81h-285v-182l150 81l34 -3q59 -71 59 -157q0 -59 -24.5 -103t-60.5 -73.5t-77.5 -45.5t-76.5 -18z" />
    <glyph glyph-name="l_po_bn" horiz-adv-x="674" 
d="M313 -133l-46 23v29q0 92 -70 165l23 41q34 32 73.5 49t84.5 17q91 0 158 -64v141l-134 -77l-56 34q14 48 14 64q0 27 -10 49.5t-26.5 39t-38.5 26t-48 9.5q-26 -1 -49 -10.5t-39.5 -26t-26 -38.5t-9.5 -49q0 -17 4.5 -33.5t12.5 -30.5l95 53l39 -71l-155 -80l-18 18
q-58 58 -59 144q1 43 16.5 80.5t43 65t64.5 43t81 16.5q40 -1 75 -15.5t62 -39.5t44.5 -59t22.5 -73l95 55v179h-546v81h694v-81h-66v-654h-82v51q0 23 -8 50zM342 -23l147 81q-40 52 -110 52q-43 0 -80 -25q33 -53 43 -108z" />
    <glyph glyph-name="l_pho_bn" horiz-adv-x="981" 
d="M290 245l-3 10l4 32l217 119q-2 4 -3.5 7.5t-3.5 7.5l-183 -104l-31 47l-1 10q-2 35 -26 58.5t-60 23.5t-61.5 -25.5t-25.5 -61.5q0 -18 8 -36l66 35l39 -70q-97 -55 -103 -57l-25 -8l-17 18q-48 49 -49 118q1 36 14 66.5t35.5 53t53 35.5t65.5 14q113 -8 156 -106l95 54
l-4 5q-43 36 -93 50h-364v81h1001v-81h-480q19 -17 34 -35t25.5 -39t16.5 -47t7 -58l-211 -118q69 -103 275 -114v347l22 12l6 4q34 6 54 6q27 0 62 -9t67.5 -31.5t55 -60t24.5 -94.5v-38l-118 -55l-34 74l70 33q-5 40 -39 69.5t-89 29.5v-412h-81v44q-71 1 -126 15t-96 35
t-69 45.5t-45 46t-24.5 36.5t-7.5 18z" />
    <glyph glyph-name="l_bo_bn" horiz-adv-x="678" 
d="M622 -124h-81v9q-44 3 -82 15.5t-69 31.5t-53 43t-33 51q-8 19 -21 64l258 121v59l-139 -79q-25 16 -55 34q13 42 13 64q0 54 -35 88.5t-88 35.5q-53 -2 -88 -36t-35 -88q0 -35 17 -64l94 53l40 -71q-134 -73 -155 -80l-18 18q-29 29 -45 64.5t-15 79.5q0 43 16 80.5
t43.5 65t65 43t80.5 16.5q40 -1 76 -15.5t63 -39.5t44 -59t21 -73l100 57v177h-551v81h698v-81h-66v-665zM541 -33v155l-156 -74q45 -71 156 -81z" />
    <glyph glyph-name="l_bho_bn" horiz-adv-x="846" 
d="M856 622v-81h-234v-295q55 -18 70 -69l-81 -40l-19 33q-13 0 -23.5 -9.5t-10.5 -29.5q0 -22 18 -39t44 -17q38 0 58.5 26.5t20.5 61.5v9l51 29l22 -25q22 -25 32 -59.5t10 -63.5q0 -48 -20 -84.5t-49.5 -61.5t-64 -38.5t-62.5 -14.5q-50 0 -90 14t-71 39.5t-51.5 60.5
t-30.5 77l79 20q16 -59 52.5 -94.5t96.5 -35.5q27 1 49.5 10t39.5 24t27.5 34t12.5 39q-47 -48 -110 -48q-26 0 -51.5 9t-46.5 26.5t-34 43.5t-13 60q0 20 6.5 37.5t16 32t20.5 25t21 15.5v27l-139 -79q-25 16 -55 34q13 42 13 64q0 54 -35 88.5t-88 35.5q-53 -2 -88 -36
t-35 -88q0 -35 17 -64l94 53l40 -71q-134 -73 -155 -80l-18 18q-29 29 -45 64.5t-15 79.5q0 43 16 80.5t43.5 65t65 43t80.5 16.5q40 -1 76 -15.5t63 -39.5t44 -59t21 -73l100 57v177h-551v81h866z" />
    <glyph glyph-name="l_mo_bn" horiz-adv-x="823" 
d="M438 -42l-22 22q-25 25 -36.5 56t-11.5 62q0 45 25 87t76 69v28q-26 -14 -51.5 -29t-50.5 -30l-55 33q13 42 13 60q0 22 -8.5 41t-22.5 33.5t-33.5 22.5t-41.5 8q-45 0 -75.5 -30t-30.5 -75q0 -14 4 -27t9 -24l80 44l39 -71q-110 -61 -140 -72l-19 18q-27 26 -39.5 59.5
t-14.5 72.5q1 39 15.5 73t39.5 59t59 39.5t73 15.5q36 -1 67.5 -13.5t56 -34.5t40.5 -51.5t21 -64.5l65 35v167h-479v81h843v-81h-66v-562h-81v71q0 25 -9 50.5t-26 46t-41 33.5t-54 13q-19 0 -38.5 -7t-35 -19.5t-25 -30t-9.5 -38.5q0 -19 9 -37l72 40l39 -71zM686 226v315
h-136v-267q77 0 136 -48z" />
    <glyph glyph-name="l_ro_bn" horiz-adv-x="677" 
d="M564 -106l-22 21q-67 73 -187 73q-29 0 -53.5 -3.5t-42.5 -7.5t-29 -8.5t-12 -5.5l-3 -1q-5 14 -13 32.5t-19 41.5q2 1 15.5 6.5t36 11t52.5 10t66 4.5q113 0 187 -50v246l-133 -76l-56 34q14 48 14 65q0 27 -10 49.5t-27 39t-40 26.5t-50 11q-27 -1 -49.5 -11t-39 -26.5
t-26.5 -39t-11 -49.5q2 -38 19 -66l96 54l39 -72q-126 -70 -131 -71l-25 -9l-19 18q-30 28 -43.5 65t-15.5 81q1 43 17 80.5t43.5 65.5t65 44t80.5 17q41 -1 77 -15.5t63.5 -40t44.5 -60t22 -74.5l95 54v183h-550v81h697v-81h-66v-614z" />
    <glyph glyph-name="l_lo_bn" horiz-adv-x="684" 
d="M237 -101l-18 18q-45 45 -47 115q1 35 13.5 64.5t34 51.5t51.5 34.5t65 13.5q61 -2 105 -38t56 -96l50 29v177l-140 -80l-56 34q14 48 14 65q0 27 -10 49.5t-26.5 39t-39.5 26.5t-50 11q-54 -2 -89 -37t-37 -89q2 -38 19 -66l95 54l40 -72q-126 -70 -131 -71l-25 -9
l-19 18q-30 29 -44 65.5t-16 80.5q1 43 17 80.5t44 65.5t65.5 44t80.5 17q41 -1 77 -15.5t64 -40t45 -60t21 -74.5l101 58v179h-557v81h704v-81h-66v-631h-81v88l-95 -55l-44 44q10 30 10 45q-1 35 -24.5 59t-57.5 24q-35 0 -58.5 -24t-24.5 -59q0 -19 7 -33l62 34l39 -71
q-42 -24 -60.5 -34.5t-27.5 -15t-14.5 -6t-21.5 -7.5z" />
    <glyph glyph-name="l_so_bn" horiz-adv-x="747" 
d="M691 5h-82l-1 18q-2 62 -19 110t-54 81l-19 17q-4 -36 -17 -68t-34 -56t-50 -38t-66 -14q-100 0 -143 118l81 46l41 -70l-8 -4q14 -8 30 -8h4q24 7 40 18.5t26 29.5t14 44t4 62q0 5 -0.5 9.5t-1.5 9.5q-45 -25 -72 -40.5t-37 -21.5l-54 32q12 40 12 54q-1 35 -25.5 60.5
t-59.5 25.5q-18 0 -34 -7t-27.5 -18.5t-18.5 -27t-7 -33.5t8 -36l65 36l39 -72l-97 -54q-1 0 -29 -11l-19 19q-46 46 -48 118q1 35 14 65.5t35.5 52.5t52.5 35t66 14q31 0 58.5 -10.5t49 -29t36 -43.5t20.5 -55l51 29q-46 109 -143 148q-1 1 -282 1v81h767v-81h-66v-536z
M609 253v288h-195q82 -83 102 -213q45 -23 93 -75z" />
    <glyph glyph-name="sh_ukar_bn" horiz-adv-x="695" 
d="M392 -35q-27 0 -68 6.5t-94 36.5q-54 30 -91.5 91.5t-54.5 154.5l80 14q20 -116 78.5 -169t146.5 -53q78 0 123.5 35t45.5 95q-1 14 -7 30.5t-17.5 31t-29 24.5t-42.5 10q-11 0 -22.5 -3t-21.5 -10t-17 -18.5t-8 -29.5l26 15l40 -71l-100 -55l-21 28q-13 17 -20 35.5
t-7 41.5q0 34 11.5 61.5t32 46.5t48.5 29.5t61 10.5q8 0 11 -1l51 37q35 33 45.5 53.5t10.5 37.5q0 26 -15.5 40.5t-29.5 14.5q-39 0 -39 -65l-1 -4l-81 5v16q-5 56 -58 56q-30 0 -50 -20.5t-21 -49.5q0 -13 5 -26l51 29l40 -71l-87 -49l-28 -9q-13 13 -20.5 21t-10.5 12
q-32 -35 -84 -35q-15 0 -31.5 5.5t-31.5 15t-26.5 23t-17.5 28.5l-14 34l75 41l33 -62l14 -4q16 0 27.5 12.5t11.5 32.5q0 53 -55 68q-5 1 -41.5 1.5t-106.5 0.5v81h128q70 0 121 -55q45 55 119 58q61 -2 100 -41q32 32 77 32q28 0 52 -11.5t40.5 -30.5t26 -44t9.5 -52
q0 -76 -85 -151l-12 -9q73 -54 73 -151q0 -54 -23.5 -92t-59.5 -62.5t-79.5 -36t-84.5 -11.5z" />
    <glyph glyph-name="sh_co_bn" horiz-adv-x="1032" 
d="M609 22l-45 25v360q0 22 -8.5 42t-23 35t-34 23.5t-42.5 8.5t-42.5 -8.5t-34.5 -23.5t-23.5 -35t-8.5 -42q0 -28 14 -53l82 46l40 -70l-113 -63l-31 -11q-16 17 -27 29.5t-17 22.5l-1 -1q-44 -48 -112 -48q-17 0 -37.5 6.5t-40 18.5t-35.5 29t-23 38l-14 34l125 70
l39 -72l-52 -29q26 -14 43 -14q22 0 36.5 9.5t22 23t10.5 28.5t3 25q0 21 -9 42t-25.5 37t-39.5 26t-50 10h-145v81h144q106 0 177 -93q26 32 62.5 49.5t82.5 17.5q31 0 58 -9t50 -25v106h82v-46h396v-81h-396v-28q76 -5 135.5 -27t103.5 -58.5t72.5 -84.5t42.5 -104z
M646 136l256 142q-9 20 -27 44.5t-48.5 47t-75 39.5t-105.5 22v-295z" />
    <glyph glyph-name="sh_cho_bn" horiz-adv-x="1044" 
d="M969 -105q-117 1 -192.5 18.5t-120 39t-63 41.5t-20.5 26q-5 9 -5.5 22t-1.5 24l364 205q-3 31 -30 53l1 -6l-299 -166l-38 37v218q0 22 -8.5 42t-23 35t-34.5 23.5t-42 8.5q-23 0 -42.5 -8.5t-34.5 -23.5t-23.5 -35t-8.5 -42q0 -28 14 -53l82 46l39 -70l-112 -63
l-31 -11q-34 34 -45 52l-1 -1q-42 -48 -111 -48q-17 0 -37.5 6.5t-40 18.5t-35.5 29t-23 38l-14 34l125 70l39 -72l-52 -29q25 -14 43 -14q21 0 35 9.5t22.5 23t11.5 28t3 25.5q0 22 -9.5 42.5t-26 36.5t-39.5 26t-50 10h-144v81h143q106 0 177 -93q27 32 63.5 49.5
t82.5 17.5q31 0 58 -9t50 -25v106h81v-46h409v-81h-409v-10q65 -7 114.5 -28.5t81.5 -60.5l13 -16q27 -1 55.5 -13t51 -33.5t37 -52t14.5 -67.5q0 -11 -5 -39l-333 -187q90 -56 295 -57v-82zM645 268l158 87q-43 81 -158 95v-182z" />
    <glyph glyph-name="sh_no_bn" horiz-adv-x="701" 
d="M335 -39l-22 20q-46 52 -46 113q0 35 15 65.5t40 53t57.5 35.5t66.5 13q63 0 118 -41l1 119l-1 68q0 22 -8.5 42t-23 35t-34 23.5t-42.5 8.5t-42.5 -8.5t-34 -23.5t-23 -35t-8.5 -42q0 -30 13 -53l82 46l39 -70l-111 -63l-31 -11q-34 32 -45 52l-1 -1q-42 -48 -112 -48
q-16 0 -35.5 6t-39 18t-36 29t-25.5 39l-14 34l125 70l40 -72l-52 -29q23 -14 42 -14q22 0 36 9.5t22 22.5t11 27t3 24q0 24 -9.5 45.5t-26 37.5t-39.5 25.5t-49 9.5h-145v81h143q106 0 177 -92l1 -1q27 32 63.5 49.5t81.5 17.5q31 0 58 -9t51 -25v106h80v-46h66v-81h-66
v-564h-81v72q0 23 -8.5 46.5t-24 42t-37 30.5t-48.5 12q-17 0 -34.5 -6t-31.5 -17.5t-23 -27.5t-9 -35q0 -17 6 -30l65 36l39 -71z" />
    <glyph glyph-name="sh_bo_bn" horiz-adv-x="701" 
d="M330 132l-9 31l243 135v109q0 22 -8.5 42t-23.5 35t-35 23.5t-42 8.5t-41.5 -8.5t-34.5 -23.5t-23.5 -35t-8.5 -42q0 -14 4 -27.5t10 -25.5l82 46l39 -70l-112 -63l-31 -11q-34 34 -45 52l-1 -1q-42 -48 -111 -48q-16 0 -36.5 6t-40 18t-35.5 29t-24 39l-14 34l125 70
l39 -72l-52 -29q25 -14 43 -14q22 0 36.5 9.5t22 23t10.5 28.5t3 25q0 23 -9.5 44t-26.5 36.5t-39.5 25t-49.5 9.5h-144v81h143q106 0 177 -93q27 32 63.5 49.5t81.5 17.5q31 0 58.5 -9t50.5 -25v106h81v-46h66v-81h-66v-569h-81v8q-51 4 -92.5 20t-71 38t-47.5 46.5
t-23 47.5zM564 62v143l-139 -78q40 -54 139 -65z" />
    <glyph glyph-name="sh_mo_bn" horiz-adv-x="931" 
d="M510 -43l-22 22q-28 28 -41 62t-13 68q0 26 8.5 52.5t25 50t40.5 43.5t56 32v120q0 22 -8.5 42t-23.5 35t-35 23.5t-42 8.5q-23 0 -42.5 -8.5t-34 -23.5t-23 -35t-8.5 -42q0 -28 14 -53l81 46l40 -70l-112 -63l-31 -11q-17 17 -28.5 30.5t-16.5 21.5l-1 -1
q-42 -48 -111 -48q-18 0 -38.5 6.5t-39.5 18.5t-35 29t-25 38l-12 34q31 18 61.5 35.5t62.5 34.5l40 -72l-52 -29q25 -14 43 -14q21 0 35 9.5t22 23t11.5 28t3.5 25.5q0 23 -10 44t-27.5 36.5t-40 25t-47.5 9.5h-144v81h143q106 0 177 -93q27 32 63.5 49.5t81.5 17.5
q31 0 58.5 -9t50.5 -25v106h80v-46h297v-81h-66v-566h-81v76q0 31 -11 61.5t-31 54.5t-48 39t-61 15q-23 0 -45.5 -8t-40.5 -22.5t-29.5 -35t-11.5 -45.5q0 -28 12 -50l86 48l39 -71zM794 242v299h-150v-239q85 0 150 -60z" />
    <glyph glyph-name="sh_ro_bn" horiz-adv-x="701" 
d="M628 -31l-35 -25l-24 25q-9 10 -28 25t-47.5 28t-64.5 22.5t-79 9.5q-58 0 -98.5 -9.5t-54.5 -17.5l-35 73q1 1 15.5 6.5t39 12t58 11.5t73.5 5q134 0 216 -59v331q0 22 -8.5 42t-23.5 35t-34.5 23.5t-42.5 8.5q-22 0 -41.5 -8.5t-34.5 -23.5t-23.5 -35t-8.5 -42
q0 -14 4 -27.5t10 -25.5l82 46l39 -70l-115 -65l-28 -9q-33 33 -45 51q-44 -48 -112 -48q-18 0 -39 7t-40.5 19t-35 29t-21.5 37l-14 34l125 70l39 -72l-52 -29q25 -14 43 -14q13 0 26 6t23 17t16.5 26.5t6.5 35.5q0 23 -9.5 44t-26 37t-39.5 25.5t-50 9.5h-144v81h143
q106 0 177 -93q27 32 63.5 49.5t81.5 17.5q31 0 58.5 -9t50.5 -25v106h81v-46h66v-81h-66v-561z" />
    <glyph glyph-name="sh_lo_bn" horiz-adv-x="702" 
d="M277 -56l-18 18q-44 44 -45 109q1 33 13 61t33 48.5t49 32.5t61 13q57 -1 98.5 -35t53.5 -88l43 24v280q0 22 -8.5 42t-23.5 35t-34.5 23.5t-42.5 8.5t-42.5 -8.5t-34 -23.5t-23 -35t-8.5 -42q0 -14 4 -27.5t10 -25.5l81 46l40 -70l-112 -63l-31 -11q-34 34 -45 52l-1 -1
q-42 -48 -111 -48q-18 0 -38.5 6.5t-40 18.5t-35.5 29t-23 38l-14 34l126 70l39 -72l-52 -29q25 -14 43 -14q22 0 36 10t22 23.5t10.5 28t2.5 24.5q0 23 -9.5 44t-26 36.5t-39.5 25t-49 9.5h-145v81h144q106 0 177 -93q27 32 63.5 49.5t81.5 17.5q31 0 58.5 -9t50.5 -25v106
h81v-46h66v-81h-66v-584h-81v76l-86 -48l-44 43q9 34 9 43q-1 32 -22 53.5t-52 21.5q-32 0 -53 -21.5t-22 -53.5q1 -14 6 -28l55 31l38 -72q-42 -23 -60 -33t-25.5 -14t-12 -5t-19.5 -6z" />
    <glyph glyph-name="ss_ko_bn" horiz-adv-x="708" 
d="M67 178l-9 33l64 30q32 15 64 31q-145 40 -154 166q1 60 43 103h-85v81h728v-81h-244q20 -21 31.5 -47t11.5 -56q0 -21 -6 -40t-17 -36q33 -6 66 -22t58.5 -42.5t41.5 -63.5t16 -85l-2 -28l-102 -55l-38 72l59 32q-5 43 -34 72.5t-75 39.5v-350h-82v25q-68 4 -118.5 21
t-88 40.5t-62 50.5t-39 50t-21 39.5t-6.5 19.5zM402 38v245l-242 -115q62 -117 242 -130zM217 352q23 0 47.5 6t26.5 16l2 6q0 15 -14 33.5t-36 34.5t-49.5 27.5t-54.5 13.5q-25 -24 -25 -51q0 -13 9 -28t22 -27.5t28 -21t27 -8.5q4 -1 17 -1zM369 419q5 -22 5 -36l-2 -22
q63 31 63 77q0 18 -11.5 35t-32.5 30.5t-50.5 22t-65.5 10.5q-13 0 -18 -1l7 -3q82 -46 105 -113z" />
    <glyph glyph-name="ss_k_ro_bn" horiz-adv-x="941" 
d="M685 -32l-80 1q0 15 -3.5 32.5t-11.5 33t-21 25.5t-32 10q-11 0 -27 -4l-34 -9q-18 -4 -36.5 -7.5t-33.5 -3.5q-42 0 -75.5 17t-58 44t-39 59.5t-16.5 63.5l80 7q2 -26 12 -46.5t25 -34.5t34 -21.5t38 -7.5q13 0 29.5 3.5t34 8t33.5 8t30 3.5q41 0 72 -17v147
q-5 68 -84 68q-22 0 -40.5 -12.5t-20.5 -38.5l46 23l37 -72l-118 -60l-21 26q-22 26 -26 63q-49 -17 -104 -17q-48 0 -90.5 12t-75.5 34.5t-53.5 56t-22.5 75.5q1 60 43 103h-85v81h961v-81h-478q42 -44 42 -112l11 1q57 0 102 -32.5t56 -95.5l1 1q2 1 3 3q36 27 86 28
q39 -1 65 -13.5t41.5 -33t22 -48.5t6.5 -60l-95 -52l-40 71l50 27q-5 12 -17.5 20t-32.5 8q-32 0 -54.5 -29.5t-33.5 -68.5q-1 -1 -1 -187zM216 352q12 0 24.5 1.5t23 4.5t18 7t9.5 9l1 8q0 20 -18.5 39t-43.5 33.5t-51 24t-41 10.5q-26 -26 -26 -53q0 -12 9 -26t22.5 -27
t28.5 -21.5t28 -8.5q4 -1 16 -1zM368 419q5 -22 5 -36q-2 -21 -2 -22q64 31 64 77q0 16 -11.5 33t-32.5 31t-51 23.5t-66 10.5l-18 -1l7 -3q83 -47 105 -113z" />
    <glyph glyph-name="ss_tto_bn" horiz-adv-x="818" 
d="M422 53q-15 0 -24.5 0.5t-14.5 1.5l-43 7v61q-57 3 -103.5 15t-83 30.5t-62.5 42.5t-41 50q-15 27 -15 32l-3 10l4 30l181 101q-9 20 -24 37t-33 30.5t-37 23t-37 14.5v2h-96v81h704q-37 119 -129 157l-66 -36l-38 71l95 53q6 -2 35.5 -12t65.5 -37t70 -74t51 -122h50
v-81h-406v-406q58 0 109.5 14t90 40t61 62.5t22.5 80.5t-26 79l-112 -64l-40 72l165 91q94 -76 94 -174q0 -65 -29.5 -117t-79 -89t-116 -57t-139.5 -20zM340 423v118h-100q40 -40 58 -95zM340 204v125l-71 40l-141 -77q59 -78 212 -88z" />
    <glyph glyph-name="ss_tt_ro_bn" horiz-adv-x="819" 
d="M340 423v118h-100q41 -41 60 -95zM340 204v125l-71 40l-140 -77q64 -78 211 -88zM35 293l-3 10l5 30l180 101q-19 40 -56 68t-75 39h-96v81h705q-11 35 -23.5 59.5t-28.5 42.5t-35 31t-43 25l-64 -36l-40 71l94 53l17 -4q27 -5 58.5 -24.5t60.5 -50.5t53 -73.5t35 -93.5
h50v-81h-407v-406q61 0 113 14.5t90 41t59.5 63t21.5 81.5q0 42 -25 76l-114 -64l-40 72l165 91q95 -74 95 -174q0 -78 -47 -146v-304l-58 -32l-22 20q-11 11 -28.5 24t-41.5 23.5t-53.5 17.5t-62.5 7q-86 0 -140 -26q-7 19 -15 37.5t-16 36.5q2 1 15.5 6.5t36 11t52.5 10
t65 4.5q114 0 188 -50v139q-103 -62 -240 -62q-28 0 -34.5 1.5t-10.5 1.5l-35 5v62q-92 6 -151 31t-93 54.5t-47 54.5t-14 30z" />
    <glyph glyph-name="ss_ttho_bn" horiz-adv-x="601" 
d="M328 48q-65 0 -121.5 31t-90.5 94l-5 9v10q1 5 1 31l58 33q-30 8 -55.5 24t-43.5 39t-28.5 52t-10.5 62q0 31 9 58t26 50h-77v81h244q-52 76 -52 140q0 22 3 27l6 21l91 51l39 -72l-58 -32q5 -60 74 -135h274v-81h-191q31 -29 58.5 -58t47.5 -59.5t31.5 -63.5t11.5 -70
q0 -55 -19 -100t-51.5 -76.5t-76.5 -48.5t-94 -17zM300 371q10 12 16 28t6 34q0 45 -30.5 73.5t-84.5 29.5q42 -30 67.5 -71.5t25.5 -93.5zM176 343q26 0 35 8t9 22q0 30 -24.5 63t-68.5 50q-14 -25 -14 -53q0 -31 14 -53.5t40 -36.5h9zM326 129q33 0 62.5 10.5t51.5 30.5
t35 50.5t13 70.5q0 71 -83 151l1 -30q2 -38 -11 -70.5t-36 -57.5q-15 -17 -54 -42t-99 -60q45 -53 120 -53z" />
    <glyph glyph-name="ss_nno_bn" horiz-adv-x="771" 
d="M530 551q46 18 80 18q30 0 53.5 -11.5t39 -30t24 -41t8.5 -43.5q0 -26 -12 -57t-37 -51q24 -16 38.5 -47t14.5 -56q0 -31 -13 -56t-34 -42.5t-47.5 -27t-53.5 -9.5q-61 0 -107 33v-130h-80v48q-73 3 -128.5 18t-96 35t-68 43t-44 44t-24 36.5t-8.5 20.5l-3 9l5 32
l214 119q-10 25 -27.5 47.5t-39.5 40t-46.5 30t-48.5 18.5h-99v81h494v-98q5 4 11.5 8t13.5 8zM404 130v155l-101 55l-176 -96q75 -104 277 -114zM587 178q11 1 23.5 4t23 9t17.5 16t7 24t-8.5 26t-21.5 21t-29.5 14.5t-31.5 5.5q2 9 3.5 29t3.5 51q38 1 59 19.5t21 46.5
q0 16 -12 30.5t-33 14.5q-33 0 -56 -14t-38 -31t-22 -32t-8 -16l-1 -126q29 -92 103 -92zM404 378v163h-151q55 -51 81 -125z" />
    <glyph glyph-name="ss_pho_bn" horiz-adv-x="920" 
d="M368 419q6 -20 6 -39q-1 -8 -1 -12t-1 -6l24 13q39 30 39 66q0 15 -11 31t-32 30t-50.5 23t-66.5 11l-18 -1l7 -3q81 -44 104 -113zM217 352q27 0 51.5 7t24.5 21q0 15 -14 33.5t-36 34.5t-49.5 27.5t-54.5 13.5q-25 -25 -25 -53q0 -11 9 -25.5t22 -27.5t28 -21.5
t27 -8.5q5 -1 17 -1zM679 4h-82v44q-79 3 -141.5 20t-109 44.5t-76.5 63.5t-44 78l1 9q-41 6 -76 21t-60.5 37.5t-40.5 51.5t-18 65q3 60 44 103h-86v81h940v-81h-456q42 -43 43 -103q-4 -81 -73 -128l-5 -3q-3 -2 -32 -18.5t-85 -45.5q71 -102 275 -113v346l28 16
q17 2 30 3.5t23 1.5q22 0 56.5 -5.5t77.5 -35.5q35 -26 55.5 -64t20.5 -89v-38l-118 -55l-35 74l71 33q-3 21 -13.5 39t-27.5 31.5t-39 21.5t-47 8v-413z" />
    <glyph glyph-name="ss_bo_bn" horiz-adv-x="561" 
d="M373 362l9 4q53 32 53 72q0 16 -11 33t-32 31t-51 23.5t-67 10.5l-18 -1l7 -3q111 -62 111 -149zM423 52v245l-242 -115q64 -117 242 -130zM216 352q26 0 49.5 6.5t26.5 15.5l1 8q0 19 -18.5 38t-43.5 34t-51 24.5t-41 10.5q-25 -24 -25 -51q0 -19 11.5 -35t28 -27
t34 -17.5t28.5 -6.5zM88 192l-8 32q26 13 51.5 25t51.5 24q-144 42 -151 165q1 60 43 103h-85v81h581v-81h-98q20 -21 32 -47t12 -56q0 -15 -3.5 -28.5t-8.5 -26.5v-437h-82v24q-64 4 -115.5 19.5t-91 40t-67.5 56t-44 66.5q-17 36 -17 40z" />
    <glyph glyph-name="ss_mo_bn" horiz-adv-x="732" 
d="M293 -11l-22 22q-29 28 -42.5 63.5t-13.5 73.5q0 60 37 112q-44 3 -83 16.5t-68.5 36t-47.5 54.5t-21 71q1 60 44 103h-86v81h752v-81h-66v-541h-82v86q0 32 -12 64.5t-33 58.5t-50.5 42.5t-65.5 16.5q-25 0 -49.5 -9t-44 -25.5t-31.5 -38.5t-12 -49q0 -29 15 -54l92 51
l40 -70zM372 362q31 11 47 34.5t16 44.5q0 15 -11.5 31.5t-32.5 30.5t-50.5 23t-65.5 10l-18 -1q16 -5 36 -19.5t38 -35.5t30.5 -47t12.5 -53q-1 -8 -1 -12t-1 -6zM217 352q23 0 46.5 6t27.5 16l2 6q0 16 -14 34t-36 34t-49.5 27.5t-54.5 13.5q-25 -24 -25 -51q0 -13 9 -28
t22 -27.5t28 -21t27 -8.5q5 -1 17 -1zM594 282v259h-120q20 -21 31 -47t11 -56q0 -28 -9 -51.5t-26 -43.5q64 -14 113 -61z" />
    <glyph glyph-name="ss_ro_bn" horiz-adv-x="539" 
d="M428 -166l-25 23q-68 71 -185 71q-84 0 -137 -25l-35 73h1q2 1 15 6t35.5 11t52.5 10.5t66 4.5q114 0 187 -49v89q-80 3 -142.5 20t-109 44.5t-76 63.5t-43.5 78l4 32l217 120q-9 24 -25.5 45t-37.5 39t-44.5 31t-47.5 20h-108v81h559v-81h-66v-667zM403 130v155l-101 55
l-175 -96q69 -104 276 -114zM403 378v163h-147q54 -51 78 -124v-1z" />
    <glyph glyph-name="s_ko_bn" horiz-adv-x="693" 
d="M395 339q17 0 39 13q2 1 7 4.5t10 10.5t8.5 17.5t3.5 26.5q0 50 -22 83t-54 47h-115q52 -59 53 -147q9 -22 28 -38.5t42 -16.5zM422 28v186l-186 -88q52 -84 186 -98zM144 135l-9 33l211 99q-29 12 -52 33q1 0 -5 -6q-50 -53 -108 -53q-52 0 -92.5 28.5t-51.5 79.5l-5 29
q18 10 36 19.5t35 20.5l40 -72l-12 -6q19 -19 53 -19l2 1q55 16 58 73q0 50 -30.5 88.5t-81.5 57.5h-142v81h713v-81h-196q37 -55 37 -128q0 -67 -41 -108v-7q28 -5 56 -19t50.5 -37t37 -55t14.5 -73q0 -7 -0.5 -14t-1.5 -15q-13 -6 -34.5 -18t-53.5 -29l-38 72l45 24
q-11 61 -75 80v-281h-81v13q-53 2 -94 16t-72 34t-52.5 43t-34.5 43.5t-19 35t-6 17.5z" />
    <glyph glyph-name="s_k_ro_bn" horiz-adv-x="923" 
d="M688 -57l-82 2q0 48 -21 75.5t-61 27.5q-20 0 -47.5 -5t-48.5 -5q-40 0 -71.5 13t-53.5 34t-34.5 48t-14.5 55l81 7q2 -29 24 -52t69 -23q20 0 45.5 4.5t47.5 4.5q50 0 85 -21v144q-1 27 -18 42.5t-50 15.5q-23 0 -36.5 -9.5t-18.5 -26.5l37 18l35 -73q-28 -14 -55 -28
l-54 -28l-21 27q-12 15 -19 31.5t-6 37.5q-65 0 -106 41q1 0 -5 -6q-50 -53 -108 -53q-52 0 -92.5 28.5t-51.5 79.5l-5 29l71 40l39 -72l-11 -6q19 -19 52 -19l1 1q28 8 43.5 26t15.5 47q0 48 -25 83.5t-65 51.5l-27 11h-136v81h943v-81h-426q37 -55 37 -126q0 -6 -0.5 -12
t-1.5 -11q25 -1 48.5 -8.5t42.5 -22t33 -35t20 -47.5q30 25 78 27q60 -2 93.5 -36.5t33.5 -85.5l-1 -26q-23 -12 -45 -24t-44 -25l-40 71l44 24l-1 1q-10 19 -40 19q-26 0 -47 -27t-29 -60v-194zM395 339q16 0 39 13q5 2 16.5 14.5t11.5 45.5q0 49 -21.5 82t-56.5 47h-112
q50 -59 53 -147q9 -22 27.5 -38.5t42.5 -16.5z" />
    <glyph glyph-name="s_k_lo_bn" horiz-adv-x="693" 
d="M395 339q17 0 39 13q2 1 7 4.5t10 10.5t8.5 17.5t3.5 26.5q0 50 -22 83t-54 47h-115q52 -59 53 -147q9 -22 28 -38.5t42 -16.5zM422 28v186l-186 -88q52 -84 186 -98zM144 135l-9 33l211 99q-29 12 -52 33q1 0 -5 -6q-50 -53 -108 -53q-52 0 -92.5 28.5t-51.5 79.5l-5 29
q18 10 36 19.5t35 20.5l40 -72l-12 -6q19 -19 53 -19l2 1q55 16 58 73q0 50 -30.5 88.5t-81.5 57.5h-142v81h713v-81h-196q37 -55 37 -128q0 -67 -41 -108v-7q28 -5 56 -19t50.5 -37t37 -55t14.5 -73q0 -7 -0.5 -14t-1.5 -15q-13 -6 -34.5 -18t-53.5 -29l-38 72l45 24
q-11 61 -75 80v-281h-81v13q-53 2 -94 16t-72 34t-52.5 43t-34.5 43.5t-19 35t-6 17.5z" />
    <glyph glyph-name="s_kho_bn" horiz-adv-x="991" 
d="M395 339q11 0 23 4t22 12.5t16.5 22.5t6.5 34q0 49 -21.5 82t-56.5 47h-113q51 -59 54 -147q8 -22 27.5 -38.5t41.5 -16.5zM777 357q-6 -6 -199 -112q70 -105 276 -115v538h81v-46h66v-81h-66v-535h-81v44q-71 2 -126 16.5t-96 34.5t-68.5 43.5t-45 44.5t-25 36.5
t-7.5 20.5l-3 9l5 33l233 129q12 15 12 45q0 22 -11 44q-15 -51 -51 -77t-82 -26q-22 0 -44 9q-2 -39 -14.5 -67.5t-33 -47.5t-46.5 -28.5t-54 -9.5q-59 0 -103 41q-50 -59 -112 -59q-24 0 -48 7t-43.5 20.5t-33.5 33.5t-19 47l-6 29l72 40l39 -72l-12 -6q20 -19 53 -19
q2 0 2 1q58 17 58 73q0 53 -31 91.5t-83 54.5h-140v81h487v-44l18 -19l60 33l39 -71l-39 -22q9 -9 19 -12.5t17 -3.5q23 0 38 17.5t15 40.5q0 10 -15 57q14 8 27 16t25 16l21 -10q63 -30 87.5 -74.5t24.5 -91.5q0 -20 -5 -37t-12 -29.5t-13 -21t-7 -9.5z" />
    <glyph glyph-name="s_tto_bn" horiz-adv-x="842" 
d="M443 55q-31 0 -41 3l-38 4v81q0 48 -15.5 83t-43.5 64q-4 -25 -16 -48.5t-30 -42t-41 -29.5t-50 -11q-42 0 -79.5 32.5t-51.5 99.5l-5 29l71 39l39 -71l-18 -10q16 -34 40 -37q64 0 66 105q-1 32 -11 63.5t-27 58t-39.5 46t-48.5 27.5h-114v81h728q-39 127 -130 158
l-65 -36l-39 72q38 21 62 33.5t33 17.5q4 -1 33 -10.5t66 -36t72 -74t51 -124.5h51v-81h-408v-405q61 0 113.5 14.5t90.5 41t59.5 62.5t21.5 80q0 43 -26 78l-112 -63l-40 71l165 92l22 -19q72 -68 72 -155q0 -65 -28.5 -117.5t-78 -89t-116.5 -56.5t-144 -20zM364 346v195
h-125q54 -63 69 -154q24 -12 56 -41z" />
    <glyph glyph-name="s_tt_ro_bn" horiz-adv-x="843" 
d="M400 58l-35 5l-1 80q-1 92 -56 145l-2 2q-5 -26 -17 -49.5t-29.5 -41.5t-40.5 -29t-51 -11q-43 0 -79.5 33t-50.5 99l-6 29l72 39l39 -71l-18 -10q16 -34 39 -37q64 0 66 105q-1 31 -9.5 61t-24.5 55.5t-38.5 46t-50.5 32.5h-117v81h729q-37 121 -125 156q-2 2 -5 2
l-65 -36l-39 72l96 51l15 -3q0 1 27 -9t62.5 -37.5t69.5 -75t48 -120.5h50v-81h-408v-405q57 0 108.5 14t90.5 40t62 63t23 84q0 43 -25 75l-113 -63l-40 71l166 92l21 -19q73 -67 73 -155q0 -79 -47 -146v-298l-59 -38l-23 22q-36 34 -82 51.5t-106 17.5q-68 0 -131 -23
q-2 -2 -5 -2q-8 19 -15.5 37.5t-15.5 36.5q1 1 14 6t35 11t52.5 10.5t68.5 4.5q112 0 186 -50v139q-54 -33 -116.5 -48t-122.5 -15q-17 0 -28 1.5t-15 2.5h-1zM365 346v195h-126q54 -63 69 -154q23 -11 57 -41z" />
    <glyph glyph-name="s_to_bn" horiz-adv-x="788" 
d="M395 339q11 0 23 4t21.5 12.5t16 22.5t6.5 34q0 49 -21.5 82t-55.5 47h-113q50 -59 53 -147q9 -22 28 -39t42 -16zM570 342q-12 0 -24 -4t-22.5 -13.5t-17 -24t-6.5 -35.5l53 29l39 -71q-31 -18 -62.5 -35.5t-63.5 -34.5l-21 29q-13 18 -20.5 37t-6.5 42
q-5 -1 -10.5 -1.5t-10.5 -0.5q-60 0 -104 41q-50 -59 -112 -59q-24 0 -48 7t-43.5 20.5t-33.5 33.5t-18 47l-6 29l71 40l39 -72l-12 -6q22 -19 53 -19q2 0 2 1q58 17 58 73q0 48 -25.5 83t-64.5 52q-25 10 -27 10l-136 1v81h808v-81h-292q38 -56 38 -121q21 3 31 3
q43 -3 77 -20.5t57 -45t35 -62.5t12 -72q0 -53 -21.5 -92.5t-53.5 -66t-69 -40.5t-68 -17h-10q-53 0 -97 18t-78 49.5t-55.5 74t-29.5 91.5l81 14q13 -72 56.5 -118.5t118.5 -46.5q28 0 54.5 11t46.5 30.5t32 45t12 55.5q0 12 -5 30t-17.5 35t-32.5 30.5t-50 15.5z" />
    <glyph glyph-name="s_t_ro_bn" horiz-adv-x="760" 
d="M728 -9l-80 1q0 17 -4 33t-13 29t-24 20.5t-37 7.5q-23 0 -54 -5.5t-54 -5.5q-41 0 -72.5 13.5t-53 35t-32.5 48t-11 52.5q0 13 3 27l79 -16l-1 -10q0 -27 21.5 -48t66.5 -21q10 0 23.5 2t28 4t28 4t25.5 2q46 0 81 -20v156q-1 27 -18 42.5t-50 15.5q-48 0 -56 -38l36 19
l37 -72l-110 -56q-16 20 -25.5 35t-13.5 23q-24 -10 -51 -10q-59 0 -103 41q-50 -59 -112 -59q-24 0 -47.5 7t-44 20.5t-35 34t-18.5 46.5l-5 29q18 10 36 19.5t35 20.5l40 -72l-12 -6q20 -19 52 -19l2 1q28 8 43.5 26.5t15.5 46.5q0 44 -24.5 81t-65.5 54q-22 9 -24.5 9.5
t-2.5 1.5h-137v81h780v-81h-263q32 -48 36 -106q13 2 22 3.5t15 1.5q29 0 55.5 -10t46.5 -28t32.5 -44t13.5 -58v-309zM395 339q17 0 39 13q2 1 7 4.5t10 10.5t8.5 18t3.5 27q0 48 -22 81.5t-56 47.5h-113q51 -59 54 -147q8 -22 27 -38.5t42 -16.5z" />
    <glyph glyph-name="s_tho_bn" horiz-adv-x="807" 
d="M395 339q16 0 38 13q2 1 7 4.5t10 10.5t8.5 17.5t3.5 26.5q0 48 -22 82t-56 48h-113q52 -59 53 -147q9 -22 28.5 -38.5t42.5 -16.5zM762 -105q-78 1 -137 11.5t-101.5 28t-69.5 41t-40 49.5q-1 4 -2 14.5t-3 28.5l284 157q0 63 -30 92.5t-78 31.5q-16 0 -31.5 -5
t-27.5 -16.5t-19.5 -30t-7.5 -44.5l66 36l38 -71q-34 -20 -67.5 -38.5t-68.5 -37.5l-21 29q-27 37 -27 90q-6 -1 -12 -1.5t-11 -0.5q-59 0 -103 41q1 0 -5 -6q-50 -53 -107 -53q-26 0 -50 7.5t-43.5 21t-33 33.5t-17.5 46l-5 29q17 10 35 19.5t35 20.5l40 -72l-12 -6
q19 -19 53 -19l2 1q55 16 58 73q0 58 -29.5 90.5t-87.5 55.5h-136v81h827v-81h-311q33 -49 37 -116q30 6 44 6q46 -2 81 -19.5t59 -44.5t36 -60.5t12 -66.5q0 -20 -1 -31.5t-1 -13.5l-3 -20l-255 -142l15 -10q35 -23 93 -34t139 -13v-81z" />
    <glyph glyph-name="s_no_bn" horiz-adv-x="579" 
d="M211 -64l-21 21q-47 53 -47 114q0 34 15 64t39.5 53t57 36.5t68.5 13.5q65 0 119 -42v71q-24 -8 -46 -8q-58 0 -102 41q1 0 -5 -6q-50 -53 -108 -53q-54 0 -93.5 28.5t-50.5 79.5l-5 29q18 10 36 19.5t35 20.5l39 -72l-12 -6q19 -19 53 -19l2 1q28 8 42.5 24t16.5 49
q0 45 -25 81t-66 54l-25 11h-138v81h599v-81h-83q37 -53 37 -128q0 -46 -20 -81v-379h-81v72q0 24 -9 47.5t-24.5 42.5t-37.5 30.5t-48 11.5q-16 0 -33.5 -6t-32 -17.5t-24 -27.5t-9.5 -36q0 -17 7 -31l65 37l39 -71zM395 339q17 0 39 13q2 1 7 4.5t9.5 10.5t8 17.5
t3.5 26.5q0 49 -21 82.5t-56 47.5h-113q51 -60 52 -147q9 -22 28.5 -38.5t42.5 -16.5z" />
    <glyph glyph-name="s_pho_bn" horiz-adv-x="905" 
d="M665 6h-82v50q-128 21 -201 72.5t-97 125.5l5 33l12 6l-8 7q1 0 -5 -6q-50 -53 -108 -53q-52 0 -92.5 28.5t-51.5 79.5l-5 29l71 40l39 -72l-12 -6q20 -19 52 -19l2 1q28 8 43.5 26t15.5 47q0 30 -12.5 56t-30.5 45.5t-37.5 31t-33.5 13.5h-139v81h925v-81h-409
q38 -56 38 -128q0 -35 -11.5 -62.5t-30.5 -47t-43 -30.5t-49 -13l-29 -16q26 -40 78.5 -67t122.5 -39v340l26 15q21 4 35.5 5.5t22.5 1.5q27 0 61.5 -9t66 -31t54 -59.5t25.5 -94.5l-1 -38l-117 -55l-35 74l71 32q-7 42 -41 71t-88 29zM388 339l66 37q4 0 6 13.5t2 22.5
q0 49 -21.5 82t-56.5 47h-112q50 -59 53 -147q21 -47 63 -55z" />
    <glyph glyph-name="s_bo_bn" horiz-adv-x="557" 
d="M421 68v155l-156 -74q43 -69 156 -81zM395 339q16 0 39 13q5 2 16.5 14.5t11.5 45.5q0 48 -22 81.5t-56 47.5h-112q49 -58 52 -147q9 -22 28.5 -38.5t42.5 -16.5zM171 158l-9 33l171 81q-29 16 -40 28q1 0 -5 -6q-50 -53 -107 -53q-26 0 -50 7.5t-43.5 21t-33 33.5
t-17.5 46l-5 29l70 40l39 -72l-11 -6q19 -19 53 -19l2 1q55 16 59 73q0 52 -32.5 91t-83.5 55h-138v81h577v-81h-61q37 -53 37 -128q0 -35 -12.5 -65t-29.5 -44v-327h-80v9q-75 6 -123.5 32.5t-76.5 56t-39 54.5t-11 29z" />
    <glyph glyph-name="s_mo_bn" horiz-adv-x="790" 
d="M352 -13l-22 22q-29 28 -42.5 63t-13.5 73q0 72 53 131q-20 10 -33 24q1 0 -5 -6q-50 -53 -108 -53q-52 0 -92.5 28.5t-51.5 79.5l-5 29l71 40l39 -72l-11 -6q19 -19 51 -19q2 0 2 1q28 8 43.5 26t15.5 47q0 30 -12.5 56t-30.5 45.5t-38 31t-34 11.5l1 2h-139v81h810v-81
h-66v-539h-80v82q0 32 -12 64.5t-33 58.5t-51 42.5t-66 16.5q-24 0 -48 -8.5t-43.5 -24.5t-32 -38.5t-12.5 -50.5q0 -29 13 -54l93 51l40 -70zM395 339q16 0 39 13q5 2 16.5 14.5t11.5 45.5q0 49 -21.5 82t-56.5 47h-112q50 -59 53 -147q9 -22 27.5 -38.5t42.5 -16.5z
M654 280v261h-147q37 -53 37 -128q0 -40 -15 -70q69 -10 125 -63z" />
    <glyph glyph-name="s_ro_bn" horiz-adv-x="571" 
d="M451 -32l-22 20q-36 32 -80 49t-101 17q-27 0 -51 -3t-42 -7t-29 -8t-12 -6h-3l-34 74q2 1 15 6t35 10.5t52.5 10t66.5 4.5q117 0 187 -49v178q-20 -5 -37 -5q-61 0 -102 41q1 0 -5 -6q-50 -53 -108 -53q-52 0 -92.5 28.5t-51.5 79.5l-5 29l71 40l39 -72l-11 -6
q18 -19 51 -19q2 0 2 1q28 8 43.5 26t15.5 47q0 33 -12.5 59t-30.5 44.5t-37.5 29t-33.5 13.5h-139v81h591v-81h-74q37 -53 37 -128q0 -56 -29 -94v-312zM395 339q16 0 39 13q5 2 16.5 14.5t11.5 45.5q0 49 -21.5 82t-56.5 47h-112q50 -59 53 -147q24 -55 70 -55z" />
    <glyph glyph-name="s_lo_bn" horiz-adv-x="588" 
d="M395 339q17 0 39 13q2 1 7 4.5t9.5 10.5t8 17.5t3.5 26.5q0 49 -21 82.5t-56 47.5h-113q51 -60 52 -147q9 -22 28.5 -38.5t42.5 -16.5zM128 541h-138v81h608v-81h-92q37 -55 37 -127q0 -33 -11 -61v-406h-80v88l-95 -54l-43 47q8 30 8 42q-1 35 -24 58.5t-58 23.5
t-58.5 -23.5t-24.5 -58.5q0 -16 8 -34l61 35l40 -72q-48 -26 -79 -41.5t-45 -20.5l-18 17q-24 23 -34.5 52.5t-12.5 63.5q1 34 13.5 63.5t34 51.5t51 35t64.5 14q63 -2 106 -39t55 -95l51 28v143q-29 -12 -56 -12q-58 0 -102 41q1 0 -5 -6q-50 -53 -108 -53
q-54 0 -93.5 28.5t-50.5 79.5l-5 29q18 10 36 19.5t35 20.5l39 -72l-12 -6q19 -19 53 -19l2 1q28 8 42.5 24t16.5 49q0 45 -25 81t-66 54z" />
    <glyph glyph-name="h_ukar_bn" horiz-adv-x="585" 
d="M67 53l-5 9v44q11 6 102 51.5t264 130.5q20 14 31.5 34t11.5 44q0 35 -17.5 51.5t-38.5 19.5q-27 0 -41 -18.5t-14 -50.5q0 -11 -1 -15v-1l-81 4q0 45 -18.5 68.5t-56.5 23.5q-18 0 -34 -7t-28.5 -19t-19.5 -28.5t-7 -35.5q0 -22 9 -40l68 38l38 -71l-105 -58l-24 -8
l-18 18q-48 47 -50 121q1 37 14.5 68t36.5 53.5t54 35.5t66 14q71 -1 117 -52q15 20 42 30t50 10q32 0 58 -13t44.5 -33.5t28.5 -45.5t10 -49q0 -39 -16.5 -80t-65.5 -77l-306 -152q100 -76 351 -77v-80q-89 0 -156.5 9.5t-117 24t-82.5 31.5t-53 33t-29 28.5t-11 16.5z
M595 541h-605v81h605v-81z" />
    <glyph glyph-name="h_rikar_bn" horiz-adv-x="654" 
d="M425 -71q-107 1 -184 18t-130 50q-45 28 -63.5 50.5t-20.5 28.5t-2.5 12t-3.5 31l330 183q0 40 -9.5 69t-27 47.5t-42 28t-53.5 11.5q-20 0 -39 -6.5t-34 -20.5t-24 -35t-9 -51q0 -4 0.5 -8t1.5 -9l83 47l40 -72l-153 -84l-21 29q-15 21 -23.5 45.5t-8.5 55.5q0 43 15 78
t40 60t58.5 38t70.5 13q141 -5 195 -121q72 40 115.5 64t58.5 33l37 -47l-8 -21q-2 -2 -3.5 -8.5t-6.5 -19.5q-13 -47 -17.5 -85.5t-4.5 -73.5q0 -14 3 -34t14 -43l-72 -39q-27 57 -27 131q0 25 3 51t8 55l-79 -44q1 -5 1 -10v-11q0 -12 -1.5 -27.5t-3.5 -34.5l-302 -168
q80 -73 299 -74v-82zM664 541h-674v81h674v-81z" />
    <glyph glyph-name="h_nno_bn" horiz-adv-x="467" 
d="M30 73q-6 9 -6.5 22t-1.5 24l331 184l1 32q-5 59 -42.5 89.5t-92.5 33.5l-12 -2q-93 -14 -93 -111q0 -13 1 -17l83 46l40 -71l-153 -84l-21 29q-32 43 -32 96q0 46 15 82t40.5 61t59 38t69.5 13q49 0 89.5 -17.5t69 -46.5t44.5 -68t16 -82q0 -33 -9 -73q-8 -4 -80.5 -44
t-212.5 -118q76 -55 292 -56v-81h-28q-13 0 -26 1v-209h-80v38q0 15 -5.5 31.5t-16 29.5t-25 21.5t-32.5 8.5q-22 0 -43.5 -14.5t-21.5 -40.5q0 -6 1 -9l38 22l40 -72l-100 -54l-21 21q-20 20 -29.5 44t-9.5 48q0 26 11.5 50.5t31.5 43.5t46 30.5t55 11.5q41 0 81 -23v28
q-178 24 -240 88q-19 19 -21 26zM477 541h-487v81h487v-81z" />
    <glyph glyph-name="h_no_bn" horiz-adv-x="680" 
d="M428 253l-302 -168q80 -73 299 -74v-82q-86 1 -153 12.5t-116.5 31.5t-81.5 46.5t-47 57.5q-1 4 -2 14.5t-2 27.5l329 183q1 5 1 15q-5 71 -41 104.5t-92 36.5q-20 0 -39 -6.5t-34 -20t-24 -35t-9 -51.5q0 -13 1 -17l85 47l38 -72l-153 -84l-21 29q-32 43 -32 96
q0 46 15 82t40.5 61t59 38t69.5 13q145 -5 198 -126q44 42 103 45q31 0 55.5 -10.5t41.5 -28t25.5 -39.5t8.5 -45v-29l-93 -50l-39 70l47 26q0 10 -15 17t-31 7q-15 0 -27.5 -7t-22.5 -18.5t-17.5 -26t-11.5 -29.5zM-10 622h700v-81h-700v81z" />
    <glyph glyph-name="h_mo_bn" horiz-adv-x="754" 
d="M521 0h-82v105q0 21 -7.5 42.5t-22 39.5t-34 29t-43.5 11q-15 0 -31 -5.5t-28.5 -16t-21 -25t-8.5 -31.5q0 -12 5 -25l57 33l40 -71l-117 -65l-22 22q-43 49 -43 106q0 22 7 44t20 41.5t32.5 35.5t45.5 25q-2 24 -10.5 42t-20.5 30.5t-26.5 19t-29.5 6.5q-11 0 -23 -4
t-21.5 -11.5t-16 -18.5t-6.5 -24l1 -10l40 23l40 -71l-102 -57l-22 22q-39 43 -39 93q0 44 30.5 82.5t81.5 52.5q-11 12 -18 31q-27 27 -58 33l-38 7h-40v81h774v-81h-243v-85l175 21l26 -43q-23 -63 -32 -110t-9 -95q0 -14 3.5 -33.5t15.5 -40.5l-72 -39q-28 55 -28 121
q0 75 21 150l-100 -13v-374zM413 445q7 0 13.5 0.5t12.5 1.5v94h-241q1 -7 9 -16q72 -80 206 -80zM439 272v93q-7 -1 -14 -1h-13q-19 0 -39 1.5t-43 5.5q7 -14 12 -30t7 -35q49 -5 90 -34z" />
    <glyph glyph-name="h_ro_bn" horiz-adv-x="467" 
d="M29 73q-5 9 -5.5 22t-1.5 24l331 184l1 32q-5 59 -42.5 89.5t-92.5 33.5l-12 -2q-94 -13 -94 -107q0 -13 2 -21l83 46l40 -71l-153 -84l-21 29q-32 44 -32 100q0 43 14.5 78t40 60t58.5 38.5t71 13.5q49 0 89.5 -17.5t69 -46.5t44.5 -68t16 -82q0 -33 -9 -73
q-8 -4 -81.5 -44t-213.5 -118q88 -55 294 -56l-1 -81v-135l-60 -30l-21 20q-66 71 -190 71q-59 0 -131 -23q-2 -2 -4 -2q-13 36 -32 74q1 1 14 6.5t35.5 11.5t53 10.5t67.5 4.5q112 0 186 -50v44q-219 20 -292 93q-19 19 -21 26zM477 541h-487v81h487v-81z" />
    <glyph glyph-name="h_lo_bn" horiz-adv-x="467" 
d="M30 73l-5 8l-3 38l331 184l1 32q-1 23 -10.5 45t-26.5 39t-41.5 27.5t-55.5 11.5l-13 -2q-94 -13 -94 -111q0 -13 1 -17l85 46l39 -71l-153 -84l-21 29q-32 43 -32 96q0 46 15 82t40 61t58.5 38t70.5 13q49 0 89.5 -17.5t69 -46.5t44.5 -68t16 -82q0 -33 -9 -73
q-17 -8 -294 -162q77 -55 293 -56l-1 -81v-179h-81v54l-75 -42l-45 21v26q0 24 -17 41t-43 17t-43 -17.5t-18 -43.5q0 -10 3 -17l43 24l39 -71q-80 -44 -83 -44l-23 -9l-18 18q-20 20 -30.5 44.5t-10.5 54.5t10.5 56t29.5 44.5t45 29.5t56 11q45 0 76.5 -20.5t50.5 -58.5
l53 29v34q-220 19 -292 93q-19 19 -21 26zM477 541h-487v81h487v-81z" />
    <glyph glyph-name="h_bo_bn" horiz-adv-x="870" 
d="M425 -71q-146 1 -240.5 34t-137.5 84q-10 11 -14 19l-6 12l-6 41l331 183q0 80 -36.5 116.5t-96.5 39.5q-20 0 -39 -7t-33.5 -20.5t-23.5 -33.5t-9 -47q0 -18 1 -22l83 47l40 -72l-153 -84l-21 29q-15 21 -23.5 45.5t-8.5 55.5q0 43 15 78t40 60t58.5 38t70.5 13
q40 0 74 -12t60.5 -32t44.5 -46.5t26 -54.5l268 148h-699v81h890v-81h-66v-541h-80v50q-64 4 -116 20.5t-92.5 41.5t-70.5 57.5t-51 69.5l-278 -154q80 -73 299 -74v-82zM734 131v342l-279 -155q12 -36 37.5 -68t61.5 -57t81.5 -41.5t98.5 -20.5z" />
    <glyph glyph-name="bophola_bn" 
d="M-56 -234h-82v9q-75 6 -123 32.5t-76.5 56t-39.5 54.5t-12 30q-4 16 -6 34l257 121v14h82v-351zM-138 -143v156l-156 -74q43 -68 156 -82z" />
    <glyph glyph-name="bophola_side_bn" horiz-adv-x="383" 
d="M-10 541v81h403v-81h-66v-539h-81v44q-75 4 -131.5 26t-97.5 51.5t-68.5 64t-43.5 64t-22.5 50t-6.5 24.5l-7 31l332 184h-211zM13 237q31 -39 86.5 -70.5t146.5 -38.5v344l-281 -155q0 -6 4.5 -16t11.5 -21t15.5 -22t16.5 -21z" />
    <glyph glyph-name="rophola_bn" 
d="M-124 -206l-24 31q-15 19 -32 35t-41.5 28t-58.5 20t-81 11q-104 0 -166 -41l-45 68q38 23 91 38.5t113 15.5q75 0 132 -18.5t98 -52.5v188h82v-275z" />
    <glyph glyph-name="reph_bn" 
d="M5 848l40 -71q-81 -48 -147 -107l-69 80q45 29 88 53.5t88 44.5z" />
    <glyph glyph-name="ukar_side_bn" horiz-adv-x="281" 
d="M291 541h-301v81h301v-81zM59 171q-39 0 -71.5 13.5t-58 32t-42.5 38.5t-23 33l72 39q7 -13 20.5 -26t30.5 -23.5t35.5 -17.5t36.5 -7q48 0 78 23.5t30 55.5q0 43 -36 73l-68 -38l-40 71l106 59q117 -53 120 -164q0 -31 -13.5 -60.5t-38.5 -52t-60 -36t-78 -13.5z" />
    <glyph glyph-name="ookar_side_bn" horiz-adv-x="220" 
d="M91 44q-35 70 -35 167q0 68 20 159l-150 -83l-40 71l262 145l40 -43q-28 -78 -39.5 -143.5t-11.5 -122.5q0 -18 4 -48t22 -64zM291 541h-301v81h301v-81z" />
    <glyph glyph-name="ikar_condrobindu_bn" horiz-adv-x="193" 
d="M137 0h-81v541h-66v81h64q-8 35 -8 81q0 28 8 58t25 60t45 58t68 52q35 21 73.5 31t76.5 10q74 0 137 -30.5t101 -75.5l31 -37q-42 -23 -46 -27l-62 -33l-39 71l14 8q-61 43 -134 43q-48 0 -88 -18t-68.5 -45.5t-44 -61.5t-15.5 -66q0 -48 11 -78h64v-81h-66v-541z
M662 809q-30 1 -55.5 12t-44.5 30t-30 45t-12 56h82q0 -25 17.5 -43t42.5 -18q26 0 43.5 17.5t17.5 43.5h82q-1 -30 -12 -56t-30 -45t-45 -30t-56 -12zM670 926q-16 0 -28 11.5t-12 28.5q0 16 12 27.5t28 11.5q17 0 28.5 -11.5t11.5 -27.5q0 -17 -11.5 -28.5t-28.5 -11.5z
" />
    <glyph glyph-name="reph_ikar_bn" horiz-adv-x="193" 
d="M137 0h-81v541h-66v81h64q-8 35 -8 81q0 28 8 58t25 60t45 58t68 52q35 21 73.5 31t76.5 10q74 0 137 -30.5t101 -75.5l31 -37q-42 -23 -46 -27l-62 -33l-39 71l14 8q-61 43 -134 43q-48 0 -88 -18t-68.5 -45.5t-44 -61.5t-15.5 -66q0 -48 11 -78h64v-81h-66v-541z
M659 987l40 -71q-81 -48 -147 -107l-69 80q45 29 88 53.5t88 44.5z" />
    <glyph glyph-name="go_half_bn" horiz-adv-x="389" 
d="M434 432q-8 22 -27 42t-44 34.5t-52.5 23t-51.5 8.5q-22 0 -47.5 -8t-47 -22.5t-36 -33t-14.5 -39.5q0 -7 3 -11q10 0 40 13q61 26 109 26q56 0 89 -30.5t33 -79.5q0 -20 -6.5 -38t-14.5 -32.5t-16 -24t-12 -12.5l-114 -64l-40 72l103 57q19 20 19 44q0 28 -37 28
q-12 0 -32.5 -6.5t-43.5 -14t-44.5 -13.5t-34.5 -6q-21 0 -37 8.5t-26 22t-15 30t-5 32.5q0 42 22.5 76t56.5 57.5t73 36t72 12.5q35 0 70 -8.5t67 -26t59 -44t45 -61.5z" />
    <glyph glyph-name="ngo_half_bn" horiz-adv-x="411" 
d="M309 499q40 2 55.5 15t15.5 26q0 15 -31 15q-30 0 -38 -12t-8 -44h6zM287 70q-58 0 -105 23.5t-80.5 63t-51.5 91.5t-18 109q0 20 3 43l80 -9l-1 -30q0 -42 11.5 -80t33.5 -66.5t55 -45.5t77 -17q24 0 48.5 10t44 28t32 43t12.5 54q0 23 -7 43l-159 -87l-40 35v154
q-104 33 -135 138l-4 36l57 31l39 -71l-3 -2q16 -27 43 -44l3 -1q0 51 35 84.5t95 33.5q22 0 42.5 -7t35.5 -20.5t24 -32.5t9 -43q0 -25 -12.5 -46t-34.5 -36.5t-51 -24t-62 -8.5v-61q55 30 85 47t37 21q10 -2 18 -4t15 -3l9 -11q21 -26 32 -56.5t11 -70.5q0 -49 -21 -87.5
t-54 -66t-72.5 -42t-75.5 -15.5z" />
    <glyph glyph-name="co_half_bn" horiz-adv-x="317" 
d="M136 187l213 118q-7 16 -21.5 36t-40 39t-62.5 33.5t-89 19.5v-246zM327 541h-191v-27q150 -11 262 -126l16 -138q-143 -81 -218.5 -123.5t-86.5 -47.5l-53 32v430h-66v81h337v-81z" />
    <glyph glyph-name="nno_half_bn" horiz-adv-x="325" 
d="M385 475q-24 33 -57.5 49t-69.5 16q-25 0 -50.5 -9t-46.5 -25.5t-34 -40.5t-13 -53q0 -32 16 -60l98 55l40 -71l-156 -86l-22 22q-30 30 -44 66.5t-14 73.5q0 43 19 81t50.5 66.5t72 45t84.5 16.5q15 0 34.5 -2t41.5 -9.5t45.5 -21t47.5 -37.5l1 -1z" />
    <glyph glyph-name="do_half_bn" horiz-adv-x="407" 
d="M56 541h-66v81h427v-81h-279v-281l315 233l61 -50l-18 -45q-8 -20 -17 -48t-16.5 -60.5t-12.5 -67.5t-5 -69q0 -38 6.5 -74t22.5 -68l13 -22l-70 -43l-1 2q-29 45 -41.5 94.5t-12.5 99.5q0 57 8.5 107.5t22.5 97.5l-284 -210l-32 18l-21 12v374z" />
    <glyph glyph-name="no_half_bn" horiz-adv-x="323" 
d="M386 268q-11 40 -26.5 68t-35 45t-42 25t-46.5 8q-23 0 -45 -8.5t-39 -22.5t-27.5 -34t-10.5 -42q0 -27 11 -47l86 50l40 -72l-144 -80l-22 21q-53 59 -53 128q0 34 14.5 67.5t41.5 60.5t64.5 43.5t83.5 16.5q14 0 31.5 -2t37 -8.5t40.5 -19t42 -32.5zM333 541h-343v81
h343v-81z" />
    <glyph glyph-name="po_half_bn" horiz-adv-x="411" 
d="M439 467q-62 77 -164 77q-69 0 -118 -42l13 1q29 0 51 -10t37 -27t22.5 -38.5t7.5 -44.5zM527 423l-325 -179l-49 58l33 37q11 13 15.5 26.5t5.5 24.5q0 9 -7.5 20.5t-29.5 11.5q-21 0 -43 -7q-5 -3 -9 -3l-22 -9l-64 55l13 28q12 30 36.5 56t56 44.5t67 29t69.5 10.5
q125 0 242 -130z" />
    <glyph glyph-name="mo_half_bn" horiz-adv-x="429" 
d="M503 541q37 -56 37 -130q0 -38 -13 -66t-33.5 -47.5t-45 -29t-47.5 -9.5q-35 0 -66.5 18t-62.5 56q-22 22 -38.5 33.5t-41.5 11.5q-14 0 -28 -5t-25 -14t-18 -21.5t-7 -27.5q0 -9 3 -18l48 28l40 -72l-109 -60l-22 22q-22 21 -32 47t-10 53q0 28 11.5 53.5t31 45.5
t45.5 33t54 16q-5 20 -22.5 35t-39.5 25.5t-45.5 16t-40.5 5.5l-37 1v81h379q79 0 135 -81zM399 340q11 0 31 11q5 2 16.5 14.5t11.5 44.5q0 51 -21.5 84t-55.5 47l-161 -1q33 -33 39 -95q16 -8 36 -25.5t39.5 -35t36.5 -31t28 -13.5z" />
    <glyph glyph-name="lo_half_bn" horiz-adv-x="410" 
d="M476 306l-114 -68l-54 32q12 40 12 59q-1 45 -29.5 74.5t-73.5 29.5q-44 0 -73.5 -29.5t-29.5 -74.5q0 -30 12 -49l82 46l40 -71l-116 -64l-28 -10l-18 19q-25 26 -40 57.5t-14 71.5q0 39 14.5 72.5t39.5 58.5t58.5 39t72.5 15q37 -1 69 -14t56 -35t39 -51t19 -61l76 46
v-93zM420 541h-430v81h430v-81z" />
    <glyph glyph-name="sho_half_bn" horiz-adv-x="494" 
d="M561 432q-10 38 -38.5 60t-66.5 24q-23 0 -42.5 -8.5t-34.5 -23.5t-23.5 -34.5t-8.5 -42.5q0 -28 14 -53l82 46l40 -70l-113 -63l-31 -11q-16 17 -27 29.5t-17 22.5l-1 -1q-44 -48 -112 -48q-17 0 -37.5 6.5t-40 18.5t-35.5 29t-23 38l-14 34l125 70l39 -72l-52 -29
q26 -14 43 -14q22 0 36.5 9.5t22 23t10.5 28.5t3 25q0 21 -9 42t-25.5 37t-39.5 26t-50 10h-145v81h144q106 0 177 -93q26 32 62.5 49.5t82.5 17.5q29 0 55.5 -8.5t49.5 -23.5v-132z" />
    </font>
</defs>
</svg>
