<svg width="44" height="44" viewBox="0 0 44 44" fill="none" xmlns="http://www.w3.org/2000/svg">
<rect width="44" height="44" rx="22" fill="#CDCDCD"/>
<path d="M29.5013 15.3333H26.918C26.5193 13.3946 24.8139 12.0025 22.8346 12H21.1679C19.1887 12.0025 17.4833 13.3946 17.0846 15.3333H14.5013C14.0411 15.3333 13.668 15.7064 13.668 16.1666C13.668 16.6269 14.0411 17 14.5013 17H15.3346V27.8333C15.3374 30.1334 17.2013 31.9973 19.5013 32H24.5013C26.8013 31.9973 28.6652 30.1334 28.668 27.8333V17H29.5013C29.9615 17 30.3346 16.6269 30.3346 16.1667C30.3346 15.7064 29.9615 15.3333 29.5013 15.3333ZM21.168 26.1667C21.168 26.6269 20.7949 27 20.3346 27C19.8744 27 19.5013 26.6269 19.5013 26.1667V21.1667C19.5013 20.7064 19.8744 20.3334 20.3346 20.3334C20.7948 20.3334 21.1679 20.7064 21.1679 21.1667V26.1667H21.168ZM24.5013 26.1667C24.5013 26.6269 24.1282 27 23.668 27C23.2077 27 22.8346 26.6269 22.8346 26.1667V21.1667C22.8346 20.7064 23.2077 20.3334 23.668 20.3334C24.1282 20.3334 24.5013 20.7064 24.5013 21.1667V26.1667ZM18.8105 15.3333C19.1649 14.3352 20.1088 13.6679 21.168 13.6666H22.8346C23.8938 13.6679 24.8377 14.3352 25.1921 15.3333H18.8105Z" fill="#414141"/>
</svg>
