<svg width="20" height="21" viewBox="0 0 20 21" fill="none" xmlns="http://www.w3.org/2000/svg">
<g clip-path="url(#clip0_2168_5499)">
<path d="M1.78781 1.09895C1.79217 0.770068 2.10003 0.484031 2.42812 0.500693C2.75898 0.503074 3.0474 0.806964 3.0351 1.13743C3.03669 1.73768 3.0355 2.33792 3.0355 2.93856H1.78582C1.78741 2.32522 1.78225 1.71189 1.78781 1.09895Z" fill="black"/>
<path d="M9.3792 1.13297C9.3681 0.797344 9.6696 0.491074 10.0056 0.500199C10.3417 0.493058 10.6404 0.799328 10.6285 1.13456C10.6297 3.81879 10.6285 6.50341 10.6289 9.18764C10.2123 9.18764 9.79576 9.18764 9.3792 9.18764C9.3792 6.50262 9.37881 3.81799 9.3792 1.13297Z" fill="black"/>
<path d="M17.2029 0.644489C17.4076 0.467154 17.7309 0.453666 17.9499 0.613148C18.1201 0.728595 18.2257 0.931717 18.2213 1.13801C18.2225 2.15442 18.2217 3.17122 18.2217 4.18762C17.8051 4.18802 17.3886 4.18802 16.972 4.18762C16.9712 3.1974 16.9732 2.20718 16.9708 1.21696C16.955 1.00313 17.0299 0.778979 17.2029 0.644489Z" fill="black"/>
<path d="M0.455345 4.21154C0.58071 4.17821 0.711628 4.18694 0.83977 4.18575C1.9494 4.18773 3.05944 4.18535 4.16907 4.18694C4.5162 4.16909 4.8316 4.4821 4.81573 4.82924C4.81613 6.11026 4.81613 7.39167 4.81533 8.67309C4.83001 9.01824 4.51541 9.32927 4.17026 9.31181C2.99279 9.31181 1.81492 9.3126 0.637441 9.31141C0.297053 9.32371 -0.0108044 9.01466 0.0038744 8.67388C0.00189078 7.43174 0.00506457 6.1892 0.0022875 4.94706C-0.0405586 4.63326 0.141934 4.29802 0.455345 4.21154Z" fill="black"/>
<path d="M15.6942 5.45094C15.8199 5.43111 15.9481 5.43944 16.075 5.43825C17.1731 5.43904 18.2713 5.43825 19.3694 5.43825C19.609 5.43309 19.8415 5.57909 19.9423 5.7957C20.0165 5.93653 20.0034 6.09959 20.0049 6.25352C20.0022 7.48455 20.0069 8.71598 20.0026 9.9474C20.0061 10.281 19.7007 10.573 19.3686 10.5631C18.2046 10.5651 17.0402 10.5627 15.8762 10.5643C15.5275 10.5949 15.1875 10.3005 15.1931 9.94582C15.1907 8.65052 15.1911 7.35482 15.1927 6.05912C15.1887 5.7711 15.4137 5.5049 15.6942 5.45055V5.45094Z" fill="black"/>
<path d="M8.1193 10.4467C8.19071 10.4359 8.26331 10.4359 8.33552 10.4355C9.488 10.4387 10.6405 10.4336 11.793 10.4379C12.1179 10.4352 12.4103 10.7248 12.4087 11.0497C12.4114 12.3485 12.4107 13.6478 12.4091 14.9463C12.4111 15.274 12.1171 15.5672 11.789 15.5612C10.598 15.5624 9.40746 15.5628 8.2165 15.5612C7.8892 15.5648 7.59523 15.2716 7.5988 14.9439C7.59761 13.647 7.59682 12.3501 7.5992 11.0532C7.59682 10.7605 7.83207 10.4927 8.1193 10.4467Z" fill="black"/>
<path d="M1.78542 10.5645H3.03509C3.03589 13.5847 3.0347 16.605 3.03549 19.6252C3.0343 19.8144 3.05612 20.0211 2.94821 20.1886C2.80023 20.4552 2.44199 20.5793 2.16389 20.4484C1.93736 20.3508 1.77827 20.1128 1.78581 19.8648C1.78462 16.7648 1.78542 13.6648 1.78542 10.5645Z" fill="black"/>
<path d="M16.9732 11.8125C17.3898 11.8125 17.8063 11.8125 18.2229 11.8125C18.2229 14.4959 18.2237 17.1794 18.2225 19.8628C18.2352 20.1913 17.95 20.4932 17.6215 20.4995C17.2759 20.521 16.9574 20.2068 16.9732 19.8604C16.9724 17.1778 16.9732 14.4951 16.9732 11.8125Z" fill="black"/>
<path d="M9.37926 16.8128C9.79582 16.8124 10.2124 16.8124 10.6289 16.8128C10.6285 17.8308 10.6297 18.8488 10.6285 19.8668C10.6393 20.2016 10.3393 20.5059 10.0041 20.4988C9.66807 20.5059 9.36736 20.2 9.37926 19.864C9.37847 18.8468 9.37926 17.8296 9.37926 16.8128Z" fill="black"/>
</g>
<defs>
<clipPath id="clip0_2168_5499">
<rect width="20.0079" height="20" fill="white" transform="translate(-0.00390625 0.5)"/>
</clipPath>
</defs>
</svg>
