<svg width="36" height="36" viewBox="0 0 36 36" fill="none" xmlns="http://www.w3.org/2000/svg">
    <rect width="36" height="36" rx="18" fill="#FCD200" />
    <path
        d="M16.875 23.925V12.075C16.875 10.95 16.4 10.5 15.2 10.5H12.175C10.975 10.5 10.5 10.95 10.5 12.075V23.925C10.5 25.05 10.975 25.5 12.175 25.5H15.2C16.4 25.5 16.875 25.05 16.875 23.925Z"
        fill="white" />
    <path
        d="M25.5 23.925V12.075C25.5 10.95 25.025 10.5 23.825 10.5H20.8C19.6083 10.5 19.125 10.95 19.125 12.075V23.925C19.125 25.05 19.6 25.5 20.8 25.5H23.825C25.025 25.5 25.5 25.05 25.5 23.925Z"
        fill="white" />
</svg>