<svg fill="#000000" version="1.1" id="Capa_1" xmlns="http://www.w3.org/2000/svg"
    xmlns:xlink="http://www.w3.org/1999/xlink" viewBox="0 0 367.412 367.412" xml:space="preserve"
    stroke="#000000" stroke-width="8.817888"><g id="SVGRepo_bgCarrier" stroke-width="0"></g><g id="SVGRepo_tracerCarrier" stroke-linecap="round" stroke-linejoin="round"></g><g id="SVGRepo_iconCarrier"> <g> <g> <path d="M119.007,263.043c4.359,0,11.004,1.681,14.828,3.783c11.367,6.241,34.586,19.094,69.353,38.369 c8.439,4.688,16.656,7.063,24.42,7.063c20.516,0,33.773-16.219,33.773-41.319V94.394c0-24.199-11.583-39.24-30.234-39.24 c-8.099,0-17.098,3.144-26.029,9.085l-71.985,47.827c-3.633,2.417-10.121,4.37-14.48,4.37H67.133 C30.115,116.435,0,149.314,0,189.723c0,40.426,30.115,73.311,67.133,73.311h51.874V263.043z M122.237,128.284 c4.362,0,10.847-1.96,14.48-4.377l74.966-49.817c6.987-4.636,13.721-7.094,19.475-7.094c11.507,0,18.382,10.24,18.382,27.391 v176.539c0,18.179-8.398,29.467-21.922,29.467c-5.728,0-12.004-1.868-18.671-5.575c-78.707-43.63-78.707-43.63-80.593-43.63 h-61.21c-30.488,0-55.284-27.574-55.284-61.464c0-33.875,24.796-61.438,55.284-61.438H122.237L122.237,128.284z"></path> <path d="M359.229,138.727c-3.823-3.136-8.805-4.864-14.035-4.864c-6.851,0-13.391,2.978-17.499,7.954c0,0-1.193,1.453-2.671,3.255 c-1.478,1.792-3.864,1.792-5.332,0l-2.661-3.255c-4.107-4.983-10.633-7.962-17.483-7.962c-5.245,0-10.231,1.736-14.056,4.883 c-5.2,4.265-8.176,10.577-8.176,17.308c0,5.16,1.808,10.215,5.094,14.219l5.941,7.229c2.772,3.374,2.772,8.833,0,12.205 l-5.957,7.246c-3.271,3.996-5.078,9.044-5.078,14.203c0,6.724,2.976,13.035,8.176,17.326c3.996,3.275,9.044,5.088,14.214,5.088 c6.743,0,13.05-2.98,17.325-8.176c0,0,1.188-1.457,2.661-3.255c1.468-1.798,3.864-1.803,5.337,0l2.682,3.245 c4.093,4.991,10.633,7.973,17.483,7.973c5.23,0,10.212-1.737,14.035-4.875c9.552-7.846,10.928-21.993,3.088-31.529l-5.937-7.236 c-2.768-3.372-2.768-8.841,0-12.207l5.937-7.227c3.793-4.623,5.57-10.445,4.986-16.409 C366.724,147.908,363.859,142.535,359.229,138.727z M341.039,177.492c-2.777,3.374-2.768,8.843,0,12.205l12.121,14.751 c1.793,2.174,2.61,4.921,2.347,7.734c-0.274,2.803-1.63,5.342-3.813,7.119c-4.134,3.428-11.446,2.671-14.844-1.463l-9.49-11.526 c-2.772-3.372-7.267-3.367-10.029,0l-9.476,11.532c-3.56,4.331-10.536,4.996-14.843,1.472c-2.447-2.03-3.854-5.007-3.854-8.175 c0-2.469,0.823-4.773,2.392-6.693l12.127-14.756c2.772-3.377,2.768-8.833,0-12.208l-12.127-14.741 c-1.554-1.919-2.392-4.243-2.392-6.706c0-3.168,1.407-6.147,3.839-8.153c1.91-1.574,4.226-2.409,6.698-2.409 c3.179,0,6.154,1.404,8.16,3.847l9.476,11.542c2.763,3.372,7.257,3.372,10.029,0l9.49-11.542 c3.362-4.108,10.72-4.845,14.858-1.455c2.174,1.795,3.52,4.313,3.799,7.119c0.279,2.803-0.569,5.553-2.361,7.727L341.039,177.492z "></path> </g> </g> </g></svg>