<svg viewBox="-2.4 -2.4 28.80 28.80" fill="none" xmlns="http://www.w3.org/2000/svg">
    <g id="SVGRepo_bgCarrier" stroke-width="0">
        <path transform="translate(-2.4, -2.4), scale(1.7999999999999998)" fill="#ffbb00"
            d="M9.166.33a2.25 2.25 0 00-2.332 0l-5.25 3.182A2.25 2.25 0 00.5 5.436v5.128a2.25 2.25 0 001.084 1.924l5.25 3.182a2.25 2.25 0 002.332 0l5.25-3.182a2.25 2.25 0 001.084-1.924V5.436a2.25 2.25 0 00-1.084-1.924L9.166.33z"
            strokewidth="0"></path>
    </g>
    <g id="SVGRepo_tracerCarrier" stroke-linecap="round" stroke-linejoin="round"></g>
    <g id="SVGRepo_iconCarrier">
        <g id="Media / Play_Circle">
            <g id="Vector">
                <path
                    d="M3 12C3 16.9706 7.02944 21 12 21C16.9706 21 21 16.9706 21 12C21 7.02944 16.9706 3 12 3C7.02944 3 3 7.02944 3 12Z"
                    stroke="#ffffff" stroke-width="2" stroke-linecap="round" stroke-linejoin="round"></path>
                <path d="M10 15V9L15 12L10 15Z" stroke="#ffffff" stroke-width="2"
                    stroke-linecap="round" stroke-linejoin="round"></path>
            </g>
        </g>
    </g>
</svg>