<svg width="28" height="28" viewBox="0 0 28 28" fill="none" xmlns="http://www.w3.org/2000/svg">
<g clip-path="url(#clip0_1726_9742)">
<path d="M14.5842 4C15.0342 4.06506 15.4842 4.12198 15.9342 4.19517C16.17 4.23313 16.4031 4.30089 16.639 4.35511V6.18216C14.3131 5.46652 12.074 5.63188 9.94879 6.83275C8.32776 7.74898 7.14315 9.07726 6.41125 10.7905C5.05587 13.962 5.78235 17.814 8.67745 20.2863C11.2771 22.5037 14.9393 22.8642 17.9266 21.2459C21.0385 19.5625 23.2071 15.6075 21.8165 11.3543C22.1282 11.3543 22.4291 11.3543 22.73 11.3543C23.0309 11.3543 23.3264 11.3543 23.6761 11.3543C23.7683 11.9588 23.8604 12.5525 23.9526 13.1488C23.9661 13.2383 23.9797 13.3277 23.9933 13.4172V14.5882C23.9824 14.656 23.9661 14.7265 23.958 14.7943C23.8957 15.2253 23.8604 15.6617 23.7683 16.0846C23.2451 18.4863 22.0144 20.4543 20.0572 21.9344C17.6257 23.7777 14.8851 24.3876 11.8978 23.7669C9.50694 23.2681 7.56332 22.0157 6.07511 20.083C4.47305 17.9902 3.8035 15.6129 4.0556 12.997C4.2589 10.8772 5.08298 9.00678 6.49528 7.40743C8.04313 5.65628 9.97048 4.56655 12.2773 4.15451C12.6541 4.08674 13.0364 4.04879 13.4131 4C13.8035 4 14.1938 4 14.5842 4Z" fill="black"/>
<path d="M21.3016 6.68692H23.21V8.05585H21.3152V9.96423H19.9354V8.06669H18.0352V6.69234H19.9246V4.78125H21.2989V6.68692H21.3016Z" fill="black"/>
<path d="M10.9433 16.8879C10.3049 16.8879 9.74804 16.7148 9.27265 16.3684C8.74294 15.9881 8.47809 15.489 8.47809 14.871C8.47809 14.4907 8.60033 14.1715 8.84481 13.9134C9.09608 13.6486 9.41187 13.5161 9.79218 13.5161C10.3762 13.5161 10.8414 13.8285 11.1878 14.4533L10.4339 15.1766C10.237 14.8031 10.0468 14.6163 9.86349 14.6163C9.71408 14.6163 9.63938 14.7046 9.63938 14.8812C9.63938 15.1868 9.81255 15.438 10.1589 15.635C10.4305 15.7776 10.7226 15.8489 11.035 15.8489C11.327 15.8489 11.5884 15.7301 11.8193 15.4924C12.0502 15.2547 12.1657 14.9898 12.1657 14.6978C12.1657 14.1138 11.7209 13.472 10.8312 12.7725C10.1589 12.2428 9.36773 11.7742 8.45771 11.3667L9.13004 10.5212C10.3185 11.1256 11.2285 11.6927 11.8601 12.2224C12.8448 13.0577 13.3372 13.9304 13.3372 14.8404C13.3372 15.472 13.0893 15.9779 12.5935 16.3582C12.1385 16.7114 11.5884 16.8879 10.9433 16.8879ZM18.3225 13.5161C18.4379 13.8217 18.4956 14.0866 18.4956 14.3107C18.4956 14.9694 18.0712 15.5569 17.2223 16.073C16.5432 16.4873 15.8165 16.7589 15.0423 16.8879L14.3904 16.2869V12.2326C14.3904 11.7029 14.2172 11.3769 13.8709 11.2547L14.4719 10.3888C15.0763 10.5722 15.3853 11.1324 15.3989 12.0696C16.0237 12.4703 16.6179 12.6706 17.1816 12.6706C18.0033 12.6706 18.8624 12.3582 19.7588 11.7334L20.1459 12.6503C19.6298 13.0102 19.022 13.2988 18.3225 13.5161ZM17.2834 13.6486H17.0593C16.5228 13.6486 15.9693 13.489 15.3989 13.1698V15.6859H15.4906C15.8437 15.6859 16.2512 15.5297 16.713 15.2173C17.2087 14.8778 17.4566 14.5416 17.4566 14.2088C17.4566 14.0255 17.3989 13.8387 17.2834 13.6486Z" fill="black"/>
</g>
<defs>
<clipPath id="clip0_1726_9742">
<rect width="19.9946" height="20" fill="white" transform="translate(4.00391 4)"/>
</clipPath>
</defs>
</svg>
