<svg width="14" height="14" viewBox="0 0 14 14" fill="none" xmlns="http://www.w3.org/2000/svg">
<g clip-path="url(#clip0_1656_7473)">
<path d="M0.570312 10.7511C0.571163 11.4613 0.853642 12.1421 1.35579 12.6442C1.85793 13.1464 2.53874 13.4288 3.24888 13.4297H10.7489C11.459 13.4288 12.1398 13.1464 12.642 12.6442C13.1441 12.1421 13.4266 11.4613 13.4275 10.7511V5.92969H0.570312V10.7511ZM9.67745 8.3404C9.83639 8.3404 9.99175 8.38753 10.1239 8.47583C10.256 8.56413 10.359 8.68963 10.4199 8.83646C10.4807 8.98329 10.4966 9.14486 10.4656 9.30074C10.4346 9.45662 10.358 9.5998 10.2457 9.71218C10.1333 9.82457 9.9901 9.9011 9.83422 9.9321C9.67835 9.96311 9.51678 9.9472 9.36994 9.88638C9.22311 9.82556 9.09761 9.72256 9.00931 9.59041C8.92101 9.45827 8.87388 9.3029 8.87388 9.14397C8.87388 8.93085 8.95855 8.72646 9.10924 8.57576C9.25994 8.42506 9.46433 8.3404 9.67745 8.3404ZM6.99888 8.3404C7.15781 8.3404 7.31318 8.38753 7.44532 8.47583C7.57747 8.56413 7.68047 8.68963 7.74129 8.83646C7.80211 8.98329 7.81802 9.14486 7.78701 9.30074C7.75601 9.45662 7.67948 9.5998 7.56709 9.71218C7.45471 9.82457 7.31153 9.9011 7.15565 9.9321C6.99978 9.96311 6.8382 9.9472 6.69137 9.88638C6.54454 9.82556 6.41904 9.72256 6.33074 9.59041C6.24244 9.45827 6.19531 9.3029 6.19531 9.14397C6.19531 8.93085 6.27997 8.72646 6.43067 8.57576C6.58137 8.42506 6.78576 8.3404 6.99888 8.3404ZM4.32031 8.3404C4.47924 8.3404 4.63461 8.38753 4.76675 8.47583C4.8989 8.56413 5.0019 8.68963 5.06272 8.83646C5.12354 8.98329 5.13945 9.14486 5.10844 9.30074C5.07744 9.45662 5.0009 9.5998 4.88852 9.71218C4.77614 9.82457 4.63296 9.9011 4.47708 9.9321C4.3212 9.96311 4.15963 9.9472 4.0128 9.88638C3.86597 9.82556 3.74046 9.72256 3.65217 9.59041C3.56387 9.45827 3.51674 9.3029 3.51674 9.14397C3.51674 8.93085 3.6014 8.72646 3.7521 8.57576C3.9028 8.42506 4.10719 8.3404 4.32031 8.3404Z" fill="#737373"/>
<path d="M10.7489 1.64369H10.2132V1.10798C10.2132 0.9659 10.1567 0.829639 10.0563 0.729173C9.9558 0.628707 9.81954 0.572266 9.67745 0.572266C9.53537 0.572266 9.39911 0.628707 9.29865 0.729173C9.19818 0.829639 9.14174 0.9659 9.14174 1.10798V1.64369H4.85603V1.10798C4.85603 0.9659 4.79959 0.829639 4.69912 0.729173C4.59865 0.628707 4.46239 0.572266 4.32031 0.572266C4.17823 0.572266 4.04197 0.628707 3.94151 0.729173C3.84104 0.829639 3.7846 0.9659 3.7846 1.10798V1.64369H3.24888C2.53874 1.64454 1.85793 1.92702 1.35579 2.42917C0.853642 2.93131 0.571163 3.61213 0.570313 4.32227L0.570312 4.85798H13.4275V4.32227C13.4266 3.61213 13.1441 2.93131 12.642 2.42917C12.1398 1.92702 11.459 1.64454 10.7489 1.64369Z" fill="#737373"/>
</g>
<defs>
<clipPath id="clip0_1656_7473">
<rect width="12.8571" height="12.8571" fill="white" transform="translate(0.570312 0.572266)"/>
</clipPath>
</defs>
</svg>
