<svg width="20" height="15" viewBox="0 0 20 15" fill="none" xmlns="http://www.w3.org/2000/svg">
    <path fill-rule="evenodd" clip-rule="evenodd"
        d="M14.7551 0C16.0796 0 17.3538 0.441667 18.2911 1.23417C19.2294 2.025 19.7538 3.09167 19.7538 4.20833V10.7917C19.7538 13.1167 17.5118 15 14.7551 15H4.99772C2.24107 15 0 13.1167 0 10.7917V4.20833C0 1.88333 2.2312 0 4.99772 0H14.7551ZM16.3265 5.44987L16.4056 5.3832C16.6416 5.14153 16.6416 4.79153 16.3947 4.54987C16.2574 4.4257 16.0688 4.34987 15.8722 4.3332C15.6648 4.32403 15.4673 4.3832 15.3181 4.49987L10.8646 7.49987C10.2917 7.9007 9.47097 7.9007 8.88922 7.49987L4.44461 4.49987C4.13743 4.3082 3.71273 4.3332 3.45691 4.5582C3.19024 4.7832 3.16061 5.14153 3.38679 5.39153L3.51618 5.49987L8.01018 8.4582C8.56328 8.82487 9.23393 9.02487 9.93618 9.02487C10.6364 9.02487 11.3189 8.82487 11.8711 8.4582L16.3265 5.44987Z"
        fill="#F9A106" />
</svg>
    