<svg width="18" height="17" viewBox="0 0 18 17" fill="none" xmlns="http://www.w3.org/2000/svg">
    <path fill-rule="evenodd" clip-rule="evenodd"
        d="M0 7.07009C0 3.16021 3.90824 0 8.63564 0C13.3764 0 17.2846 3.16021 17.2846 7.07009C17.2846 9.04034 16.4275 10.8695 15.0168 12.4198C13.4604 14.13 11.5422 15.62 9.38305 16.7896C8.88888 17.0599 8.4429 17.0803 7.90054 16.7896C5.72907 15.62 3.81084 14.13 2.26784 12.4198C0.85608 10.8695 0 9.04034 0 7.07009ZM5.78967 7.29019C5.78967 8.6 7.06815 9.63017 8.63575 9.63017C10.2044 9.63017 11.4952 8.6 11.4952 7.29019C11.4952 5.99058 10.2044 4.91026 8.63575 4.91026C7.06815 4.91026 5.78967 5.99058 5.78967 7.29019Z"
        fill="#F9A106" />
</svg>
    