<svg width="20" height="16" viewBox="0 0 20 16" fill="none" xmlns="http://www.w3.org/2000/svg">
    <path
        d="M16.0675 9.90336C15.404 9.78777 14.8792 10.0373 14.4145 10.2551C13.9385 10.4797 13.0336 11.0743 12.5149 10.9221C9.85908 10.0364 7.36125 8.15363 6.27998 5.9939C6.08941 5.56478 6.82011 4.82713 7.09527 4.4371C7.36227 4.05954 7.66393 3.63042 7.52635 3.08904C7.40202 2.60254 5.79387 0.94511 5.22521 0.491875C4.85018 0.19249 4.46598 0.0278285 4.07158 0.00121652C2.58879 -0.0503442 0.932744 1.5522 0.642299 1.93557C-0.085341 2.75306 -0.0812646 3.84082 0.654529 5.15978C2.42777 8.7025 9.13449 14.049 13.5248 15.5393C14.335 15.8462 15.0759 16 15.7413 16C16.3926 16 16.9724 15.8528 17.4708 15.5609C17.8468 15.3854 19.9064 13.9775 19.8524 12.7442C19.8198 12.4298 19.617 12.1155 19.2522 11.8111C18.6967 11.3462 16.6636 10.0048 16.0675 9.90336Z"
        fill="#F9A106" />
</svg>
    