<svg width="28" height="28" viewBox="0 0 28 28" fill="none" xmlns="http://www.w3.org/2000/svg">
<path d="M23.1532 13.1662C22.9322 13.1662 22.7203 13.0784 22.564 12.9221C22.4077 12.7658 22.3199 12.5539 22.3199 12.3328C22.3181 10.5653 21.6152 8.87061 20.3653 7.62075C19.1155 6.37089 17.4208 5.66795 15.6532 5.66618C15.4322 5.66618 15.2203 5.57838 15.064 5.4221C14.9077 5.26582 14.8199 5.05386 14.8199 4.83285C14.8199 4.61183 14.9077 4.39987 15.064 4.24359C15.2203 4.08731 15.4322 3.99951 15.6532 3.99951C17.8626 4.00194 19.9808 4.88069 21.5431 6.44297C23.1054 8.00525 23.9841 10.1235 23.9866 12.3328C23.9866 12.5539 23.8988 12.7658 23.7425 12.9221C23.5862 13.0784 23.3743 13.1662 23.1532 13.1662ZM20.6532 12.3328C20.6532 11.0068 20.1265 9.73499 19.1888 8.79731C18.2511 7.85963 16.9793 7.33285 15.6532 7.33285C15.4322 7.33285 15.2203 7.42064 15.064 7.57692C14.9077 7.7332 14.8199 7.94517 14.8199 8.16618C14.8199 8.38719 14.9077 8.59916 15.064 8.75544C15.2203 8.91172 15.4322 8.99951 15.6532 8.99951C16.5373 8.99951 17.3851 9.3507 18.0103 9.97582C18.6354 10.6009 18.9866 11.4488 18.9866 12.3328C18.9866 12.5539 19.0744 12.7658 19.2307 12.9221C19.3869 13.0784 19.5989 13.1662 19.8199 13.1662C20.0409 13.1662 20.2529 13.0784 20.4092 12.9221C20.5654 12.7658 20.6532 12.5539 20.6532 12.3328ZM22.4724 22.4695L23.2307 21.5953C23.7134 21.1111 23.9844 20.4553 23.9844 19.7716C23.9844 19.0879 23.7134 18.4321 23.2307 17.9478C23.2049 17.922 21.1999 16.3795 21.1999 16.3795C20.7187 15.9215 20.0795 15.6664 19.4152 15.6673C18.7508 15.6683 18.1123 15.9251 17.6324 16.3845L16.0441 17.7228C14.7476 17.1863 13.5698 16.3988 12.5785 15.4058C11.5871 14.4127 10.8018 13.2336 10.2674 11.9362L11.6007 10.3528C12.0605 9.87299 12.3177 9.23441 12.3187 8.56985C12.3198 7.90529 12.0648 7.26587 11.6066 6.78451C11.6066 6.78451 10.0624 4.78201 10.0366 4.75618C9.56112 4.27764 8.91648 4.00536 8.24193 3.99819C7.56739 3.99102 6.9171 4.24952 6.43157 4.71785L5.47324 5.55118C-0.188426 12.1195 12.0032 24.217 18.7882 23.9995C19.4734 24.0035 20.1524 23.8701 20.7852 23.6074C21.4179 23.3446 21.9916 22.9577 22.4724 22.4695Z" fill="#F9A106"/>
</svg>
